<?xml version="1.0" encoding="UTF-8"?>
<svg viewBox="0 0 288 432" xmlns="http://www.w3.org/2000/svg" xmlns:xlink="http://www.w3.org/1999/xlink">
  <defs>
    <style type='text/css'><![CDATA[
        line, polyline, polygon, path, rect, circle {
          fill: none;
          stroke: #000000;
          stroke-linecap: round;
          stroke-linejoin: round;
          stroke-miterlimit: 10.00;
        }
      ]]></style>
  </defs>
  <rect style="stroke: none; fill: #ffffff" width="100%" height="100%" />
  <defs>
    <clipPath id="clip_0_432_288_0">
      <rect x="0" y="0" width="288" height="432" />
    </clipPath>
  </defs>
  <rect style="fill: #FFFFFF; stroke: #FFFFFF; stroke-width: 1.07" clip-path="url(#clip_0_432_288_0)" x="0" y="0" width="288" height="432" />
  <defs>
    <clipPath id="clip_5_48_377_01_258_02_39_16">
      <rect x="5.48" y="39.16" width="252.54" height="337.85" />
    </clipPath>
  </defs>
  <rect style="fill: #FFFFFF; stroke: none" clip-path="url(#clip_5_48_377_01_258_02_39_16)" x="5.48" y="39.16" width="252.54" height="337.85" />
  <defs>
    <linearGradient id="simple-C8FF0EFF" x1="100%" y1="100%" x2="90.35%" y2="0%">
      <stop style="stop-color:#FFFFFF;stop-opacity:1" offset="0%" />
      <stop style="stop-color:#006DAA;stop-opacity:1" offset="100%" />
    </linearGradient>
  </defs>
  <polygon points="16.96,69.98 19.79,71.51 22.63,71.51 25.46,70.75 28.3,70.49 31.13,69.98 33.96,69.98 36.8,68.46 39.63,64.91 42.47,63.39 45.3,65.42 48.14,58.83 50.97,58.57 53.8,58.83 56.64,58.06 59.47,58.06 62.31,54.51 65.14,58.32 67.98,56.29 70.81,56.8 73.65,56.04 76.48,56.8 79.31,60.6 82.15,62.12 84.98,57.05 87.82,58.83 90.65,59.84 93.49,58.57 96.32,59.33 99.15,60.35 101.99,62.12 104.82,61.36 107.66,63.64 110.49,60.6 113.33,62.63 116.16,60.35 118.99,60.09 121.83,60.6 124.66,62.63 127.5,61.62 130.33,61.87 133.17,65.67 136,63.9 138.84,66.18 141.67,66.94 144.5,66.43 147.34,66.69 150.17,67.45 153.01,65.93 155.84,65.17 158.68,67.19 161.51,68.97 164.34,66.94 167.18,66.43 170.01,66.18 172.85,67.45 175.68,67.19 178.52,65.42 181.35,66.18 184.18,68.21 187.02,65.42 189.85,67.45 192.69,67.7 195.52,67.96 198.36,67.7 201.19,67.45 204.03,67.19 206.86,67.45 209.69,67.96 212.53,69.98 215.36,65.93 218.2,67.7 221.03,68.72 223.87,69.73 226.7,69.73 229.53,69.73 232.37,67.45 235.2,70.49 238.04,70.24 240.87,69.98 243.71,69.73 246.54,69.22 246.54,71.51 243.71,71.51 240.87,71.51 238.04,71.51 235.2,71.51 232.37,71.51 229.53,71.51 226.7,71.51 223.87,71.51 221.03,71.51 218.2,71.51 215.36,71.51 212.53,71.51 209.69,71.51 206.86,71.51 204.03,71.51 201.19,71.51 198.36,71.51 195.52,71.51 192.69,71.51 189.85,71.51 187.02,71.51 184.18,71.51 181.35,71.51 178.52,71.51 175.68,71.51 172.85,71.51 170.01,71.51 167.18,71.51 164.34,71.51 161.51,71.51 158.68,71.51 155.84,71.51 153.01,71.51 150.17,71.51 147.34,71.51 144.5,71.51 141.67,71.51 138.84,71.51 136,71.51 133.17,71.51 130.33,71.51 127.5,71.51 124.66,71.51 121.83,71.51 118.99,71.51 116.16,71.51 113.33,71.51 110.49,71.51 107.66,71.51 104.82,71.51 101.99,71.51 99.15,71.51 96.32,71.51 93.49,71.51 90.65,71.51 87.82,71.51 84.98,71.51 82.15,71.51 79.31,71.51 76.48,71.51 73.65,71.51 70.81,71.51 67.98,71.51 65.14,71.51 62.31,71.51 59.47,71.51 56.64,71.51 53.8,71.51 50.97,71.51 48.14,71.51 45.3,71.51 42.47,71.51 39.63,71.51 36.8,71.51 33.96,71.51 31.13,71.51 28.3,71.51 25.46,71.51 22.63,71.51 19.79,71.51 16.96,71.51" style="fill: url(#simple-C8FF0EFF); stroke: none" clip-path="url(#clip_5_48_377_01_258_02_39_16)" />
  <polyline points="16.96,69.98 19.79,71.51 22.63,71.51 25.46,70.75 28.3,70.49 31.13,69.98 33.96,69.98 36.8,68.46 39.63,64.91 42.47,63.39 45.3,65.42 48.14,58.83 50.97,58.57 53.8,58.83 56.64,58.06 59.47,58.06 62.31,54.51 65.14,58.32 67.98,56.29 70.81,56.8 73.65,56.04 76.48,56.8 79.31,60.6 82.15,62.12 84.98,57.05 87.82,58.83 90.65,59.84 93.49,58.57 96.32,59.33 99.15,60.35 101.99,62.12 104.82,61.36 107.66,63.64 110.49,60.6 113.33,62.63 116.16,60.35 118.99,60.09 121.83,60.6 124.66,62.63 127.5,61.62 130.33,61.87 133.17,65.67 136,63.9 138.84,66.18 141.67,66.94 144.5,66.43 147.34,66.69 150.17,67.45 153.01,65.93 155.84,65.17 158.68,67.19 161.51,68.97 164.34,66.94 167.18,66.43 170.01,66.18 172.85,67.45 175.68,67.19 178.52,65.42 181.35,66.18 184.18,68.21 187.02,65.42 189.85,67.45 192.69,67.7 195.52,67.96 198.36,67.7 201.19,67.45 204.03,67.19 206.86,67.45 209.69,67.96 212.53,69.98 215.36,65.93 218.2,67.7 221.03,68.72 223.87,69.73 226.7,69.73 229.53,69.73 232.37,67.45 235.2,70.49 238.04,70.24 240.87,69.98 243.71,69.73 246.54,69.22" style="stroke: none" clip-path="url(#clip_5_48_377_01_258_02_39_16)" />
  <polygon points="16.96,82.58 19.79,83.6 22.63,83.34 25.46,83.09 28.3,82.33 31.13,81.57 33.96,81.82 36.8,77.51 39.63,78.02 42.47,77.51 45.3,73.7 48.14,73.7 50.97,70.91 53.8,65.34 56.64,69.9 59.47,64.32 62.31,68.12 65.14,68.63 67.98,64.83 70.81,66.35 73.65,68.89 76.48,66.86 79.31,67.62 82.15,67.87 84.98,69.14 87.82,71.17 90.65,69.14 93.49,71.93 96.32,69.9 99.15,70.66 101.99,69.39 104.82,71.68 107.66,73.96 110.49,75.73 113.33,73.96 116.16,71.42 118.99,72.69 121.83,74.21 124.66,74.72 127.5,75.23 130.33,78.27 133.17,78.02 136,76.49 138.84,77 141.67,76.24 144.5,76.49 147.34,78.02 150.17,79.28 153.01,78.52 155.84,79.54 158.68,78.52 161.51,78.78 164.34,78.02 167.18,76.75 170.01,80.05 172.85,78.78 175.68,80.05 178.52,78.78 181.35,76.75 184.18,79.54 187.02,79.79 189.85,78.02 192.69,80.05 195.52,80.55 198.36,80.05 201.19,78.78 204.03,81.57 206.86,79.54 209.69,79.28 212.53,81.57 215.36,80.55 218.2,80.3 221.03,80.55 223.87,80.55 226.7,81.06 229.53,81.06 232.37,80.3 235.2,81.57 238.04,81.31 240.87,82.83 243.71,81.57 246.54,80.81 246.54,83.6 243.71,83.6 240.87,83.6 238.04,83.6 235.2,83.6 232.37,83.6 229.53,83.6 226.7,83.6 223.87,83.6 221.03,83.6 218.2,83.6 215.36,83.6 212.53,83.6 209.69,83.6 206.86,83.6 204.03,83.6 201.19,83.6 198.36,83.6 195.52,83.6 192.69,83.6 189.85,83.6 187.02,83.6 184.18,83.6 181.35,83.6 178.52,83.6 175.68,83.6 172.85,83.6 170.01,83.6 167.18,83.6 164.34,83.6 161.51,83.6 158.68,83.6 155.84,83.6 153.01,83.6 150.17,83.6 147.34,83.6 144.5,83.6 141.67,83.6 138.84,83.6 136,83.6 133.17,83.6 130.33,83.6 127.5,83.6 124.66,83.6 121.83,83.6 118.99,83.6 116.16,83.6 113.33,83.6 110.49,83.6 107.66,83.6 104.82,83.6 101.99,83.6 99.15,83.6 96.32,83.6 93.49,83.6 90.65,83.6 87.82,83.6 84.98,83.6 82.15,83.6 79.31,83.6 76.48,83.6 73.65,83.6 70.81,83.6 67.98,83.6 65.14,83.6 62.31,83.6 59.47,83.6 56.64,83.6 53.8,83.6 50.97,83.6 48.14,83.6 45.3,83.6 42.47,83.6 39.63,83.6 36.8,83.6 33.96,83.6 31.13,83.6 28.3,83.6 25.46,83.6 22.63,83.6 19.79,83.6 16.96,83.6" style="fill: url(#simple-C8FF0EFF); stroke: none" clip-path="url(#clip_5_48_377_01_258_02_39_16)" />
  <polyline points="16.96,82.58 19.79,83.6 22.63,83.34 25.46,83.09 28.3,82.33 31.13,81.57 33.96,81.82 36.8,77.51 39.63,78.02 42.47,77.51 45.3,73.7 48.14,73.7 50.97,70.91 53.8,65.34 56.64,69.9 59.47,64.32 62.31,68.12 65.14,68.63 67.98,64.83 70.81,66.35 73.65,68.89 76.48,66.86 79.31,67.62 82.15,67.87 84.98,69.14 87.82,71.17 90.65,69.14 93.49,71.93 96.32,69.9 99.15,70.66 101.99,69.39 104.82,71.68 107.66,73.96 110.49,75.73 113.33,73.96 116.16,71.42 118.99,72.69 121.83,74.21 124.66,74.72 127.5,75.23 130.33,78.27 133.17,78.02 136,76.49 138.84,77 141.67,76.24 144.5,76.49 147.34,78.02 150.17,79.28 153.01,78.52 155.84,79.54 158.68,78.52 161.51,78.78 164.34,78.02 167.18,76.75 170.01,80.05 172.85,78.78 175.68,80.05 178.52,78.78 181.35,76.75 184.18,79.54 187.02,79.79 189.85,78.02 192.69,80.05 195.52,80.55 198.36,80.05 201.19,78.78 204.03,81.57 206.86,79.54 209.69,79.28 212.53,81.57 215.36,80.55 218.2,80.3 221.03,80.55 223.87,80.55 226.7,81.06 229.53,81.06 232.37,80.3 235.2,81.57 238.04,81.31 240.87,82.83 243.71,81.57 246.54,80.81" style="stroke: none" clip-path="url(#clip_5_48_377_01_258_02_39_16)" />
  <polygon points="16.96,94.42 19.79,95.69 22.63,95.69 25.46,95.43 28.3,95.18 31.13,93.91 33.96,92.9 36.8,92.64 39.63,89.6 42.47,89.34 45.3,84.27 48.14,85.29 50.97,78.95 53.8,79.2 56.64,79.45 59.47,78.19 62.31,79.45 65.14,78.69 67.98,75.4 70.81,75.4 73.65,77.17 76.48,77.68 79.31,76.92 82.15,78.95 84.98,77.42 87.82,81.48 90.65,79.45 93.49,82.75 96.32,79.96 99.15,79.96 101.99,81.99 104.82,80.21 107.66,81.48 110.49,82.5 113.33,80.72 116.16,80.72 118.99,84.53 121.83,85.54 124.66,85.29 127.5,87.32 130.33,89.85 133.17,85.79 136,89.6 138.84,88.58 141.67,88.84 144.5,90.36 147.34,89.6 150.17,91.12 153.01,92.13 155.84,89.34 158.68,89.6 161.51,91.12 164.34,90.87 167.18,91.63 170.01,91.63 172.85,91.37 175.68,90.61 178.52,92.39 181.35,91.63 184.18,92.64 187.02,91.37 189.85,92.13 192.69,93.4 195.52,90.36 198.36,91.63 201.19,92.39 204.03,93.66 206.86,93.4 209.69,91.12 212.53,92.39 215.36,92.39 218.2,93.4 221.03,92.39 223.87,92.39 226.7,92.9 229.53,93.4 232.37,95.18 235.2,93.15 238.04,93.91 240.87,92.9 243.71,94.67 246.54,93.66 246.54,95.69 243.71,95.69 240.87,95.69 238.04,95.69 235.2,95.69 232.37,95.69 229.53,95.69 226.7,95.69 223.87,95.69 221.03,95.69 218.2,95.69 215.36,95.69 212.53,95.69 209.69,95.69 206.86,95.69 204.03,95.69 201.19,95.69 198.36,95.69 195.52,95.69 192.69,95.69 189.85,95.69 187.02,95.69 184.18,95.69 181.35,95.69 178.52,95.69 175.68,95.69 172.85,95.69 170.01,95.69 167.18,95.69 164.34,95.69 161.51,95.69 158.68,95.69 155.84,95.69 153.01,95.69 150.17,95.69 147.34,95.69 144.5,95.69 141.67,95.69 138.84,95.69 136,95.69 133.17,95.69 130.33,95.69 127.5,95.69 124.66,95.69 121.83,95.69 118.99,95.69 116.16,95.69 113.33,95.69 110.49,95.69 107.66,95.69 104.82,95.69 101.99,95.69 99.15,95.69 96.32,95.69 93.49,95.69 90.65,95.69 87.82,95.69 84.98,95.69 82.15,95.69 79.31,95.69 76.48,95.69 73.65,95.69 70.81,95.69 67.98,95.69 65.14,95.69 62.31,95.69 59.47,95.69 56.64,95.69 53.8,95.69 50.97,95.69 48.14,95.69 45.3,95.69 42.47,95.69 39.63,95.69 36.8,95.69 33.96,95.69 31.13,95.69 28.3,95.69 25.46,95.69 22.63,95.69 19.79,95.69 16.96,95.69" style="fill: url(#simple-C8FF0EFF); stroke: none" clip-path="url(#clip_5_48_377_01_258_02_39_16)" />
  <polyline points="16.96,94.42 19.79,95.69 22.63,95.69 25.46,95.43 28.3,95.18 31.13,93.91 33.96,92.9 36.8,92.64 39.63,89.6 42.47,89.34 45.3,84.27 48.14,85.29 50.97,78.95 53.8,79.2 56.64,79.45 59.47,78.19 62.31,79.45 65.14,78.69 67.98,75.4 70.81,75.4 73.65,77.17 76.48,77.68 79.31,76.92 82.15,78.95 84.98,77.42 87.82,81.48 90.65,79.45 93.49,82.75 96.32,79.96 99.15,79.96 101.99,81.99 104.82,80.21 107.66,81.48 110.49,82.5 113.33,80.72 116.16,80.72 118.99,84.53 121.83,85.54 124.66,85.29 127.5,87.32 130.33,89.85 133.17,85.79 136,89.6 138.84,88.58 141.67,88.84 144.5,90.36 147.34,89.6 150.17,91.12 153.01,92.13 155.84,89.34 158.68,89.6 161.51,91.12 164.34,90.87 167.18,91.63 170.01,91.63 172.85,91.37 175.68,90.61 178.52,92.39 181.35,91.63 184.18,92.64 187.02,91.37 189.85,92.13 192.69,93.4 195.52,90.36 198.36,91.63 201.19,92.39 204.03,93.66 206.86,93.4 209.69,91.12 212.53,92.39 215.36,92.39 218.2,93.4 221.03,92.39 223.87,92.39 226.7,92.9 229.53,93.4 232.37,95.18 235.2,93.15 238.04,93.91 240.87,92.9 243.71,94.67 246.54,93.66" style="stroke: none" clip-path="url(#clip_5_48_377_01_258_02_39_16)" />
  <polygon points="16.96,106.76 19.79,107.77 22.63,107.77 25.46,107.27 28.3,107.27 31.13,105.49 33.96,102.7 36.8,103.21 39.63,100.93 42.47,97.63 45.3,96.87 48.14,97.12 50.97,96.11 53.8,94.08 56.64,92.3 59.47,89.01 62.31,89.01 65.14,89.26 67.98,87.23 70.81,86.98 73.65,82.67 76.48,86.22 79.31,83.93 82.15,85.71 84.98,89.01 87.82,86.98 90.65,92.05 93.49,94.33 96.32,98.9 99.15,93.83 101.99,94.84 104.82,92.81 107.66,96.87 110.49,96.36 113.33,97.38 116.16,98.9 118.99,95.85 121.83,95.85 124.66,97.88 127.5,96.62 130.33,95.6 133.17,98.39 136,100.93 138.84,102.45 141.67,101.43 144.5,101.43 147.34,102.7 150.17,102.45 153.01,102.19 155.84,101.94 158.68,103.46 161.51,105.49 164.34,104.98 167.18,103.72 170.01,103.46 172.85,104.22 175.68,102.45 178.52,105.24 181.35,103.72 184.18,103.97 187.02,103.72 189.85,101.69 192.69,103.46 195.52,104.98 198.36,104.73 201.19,103.46 204.03,102.7 206.86,104.22 209.69,105.24 212.53,105.75 215.36,104.22 218.2,103.72 221.03,105.24 223.87,104.73 226.7,103.21 229.53,105.49 232.37,106 235.2,106 238.04,106 240.87,106 243.71,107.27 246.54,103.72 246.54,107.77 243.71,107.77 240.87,107.77 238.04,107.77 235.2,107.77 232.37,107.77 229.53,107.77 226.7,107.77 223.87,107.77 221.03,107.77 218.2,107.77 215.36,107.77 212.53,107.77 209.69,107.77 206.86,107.77 204.03,107.77 201.19,107.77 198.36,107.77 195.52,107.77 192.69,107.77 189.85,107.77 187.02,107.77 184.18,107.77 181.35,107.77 178.52,107.77 175.68,107.77 172.85,107.77 170.01,107.77 167.18,107.77 164.34,107.77 161.51,107.77 158.68,107.77 155.84,107.77 153.01,107.77 150.17,107.77 147.34,107.77 144.5,107.77 141.67,107.77 138.84,107.77 136,107.77 133.17,107.77 130.33,107.77 127.5,107.77 124.66,107.77 121.83,107.77 118.99,107.77 116.16,107.77 113.33,107.77 110.49,107.77 107.66,107.77 104.82,107.77 101.99,107.77 99.15,107.77 96.32,107.77 93.49,107.77 90.65,107.77 87.82,107.77 84.98,107.77 82.15,107.77 79.31,107.77 76.48,107.77 73.65,107.77 70.81,107.77 67.98,107.77 65.14,107.77 62.31,107.77 59.47,107.77 56.64,107.77 53.8,107.77 50.97,107.77 48.14,107.77 45.3,107.77 42.47,107.77 39.63,107.77 36.8,107.77 33.96,107.77 31.13,107.77 28.3,107.77 25.46,107.77 22.63,107.77 19.79,107.77 16.96,107.77" style="fill: url(#simple-C8FF0EFF); stroke: none" clip-path="url(#clip_5_48_377_01_258_02_39_16)" />
  <polyline points="16.96,106.76 19.79,107.77 22.63,107.77 25.46,107.27 28.3,107.27 31.13,105.49 33.96,102.7 36.8,103.21 39.63,100.93 42.47,97.63 45.3,96.87 48.14,97.12 50.97,96.11 53.8,94.08 56.64,92.3 59.47,89.01 62.31,89.01 65.14,89.26 67.98,87.23 70.81,86.98 73.65,82.67 76.48,86.22 79.31,83.93 82.15,85.71 84.98,89.01 87.82,86.98 90.65,92.05 93.49,94.33 96.32,98.9 99.15,93.83 101.99,94.84 104.82,92.81 107.66,96.87 110.49,96.36 113.33,97.38 116.16,98.9 118.99,95.85 121.83,95.85 124.66,97.88 127.5,96.62 130.33,95.6 133.17,98.39 136,100.93 138.84,102.45 141.67,101.43 144.5,101.43 147.34,102.7 150.17,102.45 153.01,102.19 155.84,101.94 158.68,103.46 161.51,105.49 164.34,104.98 167.18,103.72 170.01,103.46 172.85,104.22 175.68,102.45 178.52,105.24 181.35,103.72 184.18,103.97 187.02,103.72 189.85,101.69 192.69,103.46 195.52,104.98 198.36,104.73 201.19,103.46 204.03,102.7 206.86,104.22 209.69,105.24 212.53,105.75 215.36,104.22 218.2,103.72 221.03,105.24 223.87,104.73 226.7,103.21 229.53,105.49 232.37,106 235.2,106 238.04,106 240.87,106 243.71,107.27 246.54,103.72" style="stroke: none" clip-path="url(#clip_5_48_377_01_258_02_39_16)" />
  <polygon points="16.96,118.6 19.79,119.86 22.63,119.86 25.46,119.61 28.3,119.1 31.13,118.6 33.96,116.57 36.8,114.79 39.63,111.24 42.47,111.49 45.3,106.68 48.14,105.66 50.97,98.05 53.8,104.39 56.64,100.33 59.47,98.56 62.31,96.02 65.14,98.31 67.98,100.33 70.81,100.84 73.65,98.05 76.48,102.62 79.31,99.83 82.15,100.33 84.98,100.59 87.82,101.1 90.65,104.9 93.49,104.39 96.32,104.39 99.15,105.66 101.99,101.6 104.82,107.69 107.66,106.42 110.49,108.45 113.33,102.87 116.16,106.68 118.99,107.44 121.83,106.93 124.66,108.45 127.5,105.91 130.33,105.91 133.17,108.7 136,112.51 138.84,113.27 141.67,111.49 144.5,113.27 147.34,114.54 150.17,113.27 153.01,112.76 155.84,114.28 158.68,114.28 161.51,115.04 164.34,115.04 167.18,115.04 170.01,116.06 172.85,115.81 175.68,116.31 178.52,115.81 181.35,114.54 184.18,117.07 187.02,116.31 189.85,116.31 192.69,115.3 195.52,113.78 198.36,117.33 201.19,117.58 204.03,115.04 206.86,116.57 209.69,117.83 212.53,118.09 215.36,117.07 218.2,117.58 221.03,117.33 223.87,117.33 226.7,118.09 229.53,117.33 232.37,118.09 235.2,118.6 238.04,117.07 240.87,118.34 243.71,119.1 246.54,116.06 246.54,119.86 243.71,119.86 240.87,119.86 238.04,119.86 235.2,119.86 232.37,119.86 229.53,119.86 226.7,119.86 223.87,119.86 221.03,119.86 218.2,119.86 215.36,119.86 212.53,119.86 209.69,119.86 206.86,119.86 204.03,119.86 201.19,119.86 198.36,119.86 195.52,119.86 192.69,119.86 189.85,119.86 187.02,119.86 184.18,119.86 181.35,119.86 178.52,119.86 175.68,119.86 172.85,119.86 170.01,119.86 167.18,119.86 164.34,119.86 161.51,119.86 158.68,119.86 155.84,119.86 153.01,119.86 150.17,119.86 147.34,119.86 144.5,119.86 141.67,119.86 138.84,119.86 136,119.86 133.17,119.86 130.33,119.86 127.5,119.86 124.66,119.86 121.83,119.86 118.99,119.86 116.16,119.86 113.33,119.86 110.49,119.86 107.66,119.86 104.82,119.86 101.99,119.86 99.15,119.86 96.32,119.86 93.49,119.86 90.65,119.86 87.82,119.86 84.98,119.86 82.15,119.86 79.31,119.86 76.48,119.86 73.65,119.86 70.81,119.86 67.98,119.86 65.14,119.86 62.31,119.86 59.47,119.86 56.64,119.86 53.8,119.86 50.97,119.86 48.14,119.86 45.3,119.86 42.47,119.86 39.63,119.86 36.8,119.86 33.96,119.86 31.13,119.86 28.3,119.86 25.46,119.86 22.63,119.86 19.79,119.86 16.96,119.86" style="fill: url(#simple-C8FF0EFF); stroke: none" clip-path="url(#clip_5_48_377_01_258_02_39_16)" />
  <polyline points="16.96,118.6 19.79,119.86 22.63,119.86 25.46,119.61 28.3,119.1 31.13,118.6 33.96,116.57 36.8,114.79 39.63,111.24 42.47,111.49 45.3,106.68 48.14,105.66 50.97,98.05 53.8,104.39 56.64,100.33 59.47,98.56 62.31,96.02 65.14,98.31 67.98,100.33 70.81,100.84 73.65,98.05 76.48,102.62 79.31,99.83 82.15,100.33 84.98,100.59 87.82,101.1 90.65,104.9 93.49,104.39 96.32,104.39 99.15,105.66 101.99,101.6 104.82,107.69 107.66,106.42 110.49,108.45 113.33,102.87 116.16,106.68 118.99,107.44 121.83,106.93 124.66,108.45 127.5,105.91 130.33,105.91 133.17,108.7 136,112.51 138.84,113.27 141.67,111.49 144.5,113.27 147.34,114.54 150.17,113.27 153.01,112.76 155.84,114.28 158.68,114.28 161.51,115.04 164.34,115.04 167.18,115.04 170.01,116.06 172.85,115.81 175.68,116.31 178.52,115.81 181.35,114.54 184.18,117.07 187.02,116.31 189.85,116.31 192.69,115.3 195.52,113.78 198.36,117.33 201.19,117.58 204.03,115.04 206.86,116.57 209.69,117.83 212.53,118.09 215.36,117.07 218.2,117.58 221.03,117.33 223.87,117.33 226.7,118.09 229.53,117.33 232.37,118.09 235.2,118.6 238.04,117.07 240.87,118.34 243.71,119.1 246.54,116.06" style="stroke: none" clip-path="url(#clip_5_48_377_01_258_02_39_16)" />
  <polygon points="16.96,130.43 19.79,131.95 22.63,131.95 25.46,131.7 28.3,130.94 31.13,130.68 33.96,130.68 36.8,123.33 39.63,125.11 42.47,119.27 45.3,119.27 48.14,119.27 50.97,116.99 53.8,112.68 56.64,115.47 59.47,110.14 62.31,110.4 65.14,109.63 67.98,105.07 70.81,110.14 73.65,105.32 76.48,106.08 79.31,107.61 82.15,103.8 84.98,107.61 87.82,110.14 90.65,113.95 93.49,111.16 96.32,115.97 99.15,118 101.99,116.99 104.82,116.74 107.66,112.42 110.49,119.78 113.33,119.53 116.16,117.5 118.99,120.03 121.83,119.78 124.66,120.03 127.5,120.03 130.33,119.02 133.17,122.57 136,124.34 138.84,125.87 141.67,124.85 144.5,123.08 147.34,125.11 150.17,128.4 153.01,127.13 155.84,127.64 158.68,128.66 161.51,125.36 164.34,127.39 167.18,128.66 170.01,127.9 172.85,128.4 175.68,126.88 178.52,126.63 181.35,128.4 184.18,126.63 187.02,126.63 189.85,129.67 192.69,130.43 195.52,128.66 198.36,127.9 201.19,129.67 204.03,128.91 206.86,128.4 209.69,127.9 212.53,128.66 215.36,130.68 218.2,129.92 221.03,130.43 223.87,128.15 226.7,128.66 229.53,130.43 232.37,130.43 235.2,129.92 238.04,129.92 240.87,130.18 243.71,130.68 246.54,128.66 246.54,131.95 243.71,131.95 240.87,131.95 238.04,131.95 235.2,131.95 232.37,131.95 229.53,131.95 226.7,131.95 223.87,131.95 221.03,131.95 218.2,131.95 215.36,131.95 212.53,131.95 209.69,131.95 206.86,131.95 204.03,131.95 201.19,131.95 198.36,131.95 195.52,131.95 192.69,131.95 189.85,131.95 187.02,131.95 184.18,131.95 181.35,131.95 178.52,131.95 175.68,131.95 172.85,131.95 170.01,131.95 167.18,131.95 164.34,131.95 161.51,131.95 158.68,131.95 155.84,131.95 153.01,131.95 150.17,131.95 147.34,131.95 144.5,131.95 141.67,131.95 138.84,131.95 136,131.95 133.17,131.95 130.33,131.95 127.5,131.95 124.66,131.95 121.83,131.95 118.99,131.95 116.16,131.95 113.33,131.95 110.49,131.95 107.66,131.95 104.82,131.95 101.99,131.95 99.15,131.95 96.32,131.95 93.49,131.95 90.65,131.95 87.82,131.95 84.98,131.95 82.15,131.95 79.31,131.95 76.48,131.95 73.65,131.95 70.81,131.95 67.98,131.95 65.14,131.95 62.31,131.95 59.47,131.95 56.64,131.95 53.8,131.95 50.97,131.95 48.14,131.95 45.3,131.95 42.47,131.95 39.63,131.95 36.8,131.95 33.96,131.95 31.13,131.95 28.3,131.95 25.46,131.95 22.63,131.95 19.79,131.95 16.96,131.95" style="fill: url(#simple-C8FF0EFF); stroke: none" clip-path="url(#clip_5_48_377_01_258_02_39_16)" />
  <polyline points="16.96,130.43 19.79,131.95 22.63,131.95 25.46,131.7 28.3,130.94 31.13,130.68 33.96,130.68 36.8,123.33 39.63,125.11 42.47,119.27 45.3,119.27 48.14,119.27 50.97,116.99 53.8,112.68 56.64,115.47 59.47,110.14 62.31,110.4 65.14,109.63 67.98,105.07 70.81,110.14 73.65,105.32 76.48,106.08 79.31,107.61 82.15,103.8 84.98,107.61 87.82,110.14 90.65,113.95 93.49,111.16 96.32,115.97 99.15,118 101.99,116.99 104.82,116.74 107.66,112.42 110.49,119.78 113.33,119.53 116.16,117.5 118.99,120.03 121.83,119.78 124.66,120.03 127.5,120.03 130.33,119.02 133.17,122.57 136,124.34 138.84,125.87 141.67,124.85 144.5,123.08 147.34,125.11 150.17,128.4 153.01,127.13 155.84,127.64 158.68,128.66 161.51,125.36 164.34,127.39 167.18,128.66 170.01,127.9 172.85,128.4 175.68,126.88 178.52,126.63 181.35,128.4 184.18,126.63 187.02,126.63 189.85,129.67 192.69,130.43 195.52,128.66 198.36,127.9 201.19,129.67 204.03,128.91 206.86,128.4 209.69,127.9 212.53,128.66 215.36,130.68 218.2,129.92 221.03,130.43 223.87,128.15 226.7,128.66 229.53,130.43 232.37,130.43 235.2,129.92 238.04,129.92 240.87,130.18 243.71,130.68 246.54,128.66" style="stroke: none" clip-path="url(#clip_5_48_377_01_258_02_39_16)" />
  <polygon points="16.96,142.77 19.79,144.04 22.63,144.04 25.46,143.79 28.3,143.03 31.13,143.28 33.96,141.51 36.8,138.72 39.63,136.18 42.47,131.87 45.3,131.11 48.14,130.35 50.97,129.08 53.8,127.3 56.64,127.56 59.47,125.78 62.31,125.02 65.14,119.44 67.98,117.67 70.81,119.44 73.65,119.69 76.48,112.59 79.31,120.71 82.15,119.19 84.98,120.71 87.82,118.93 90.65,121.47 93.49,119.95 96.32,120.96 99.15,125.53 101.99,126.29 104.82,130.6 107.66,128.32 110.49,130.6 113.33,127.3 116.16,131.61 118.99,129.84 121.83,133.64 124.66,130.6 127.5,133.14 130.33,133.14 133.17,132.12 136,134.15 138.84,133.9 141.67,136.94 144.5,134.15 147.34,136.94 150.17,137.7 153.01,139.73 155.84,140.49 158.68,138.72 161.51,139.48 164.34,141 167.18,140.49 170.01,140.75 172.85,137.96 175.68,139.73 178.52,139.22 181.35,140.75 184.18,141.25 187.02,139.22 189.85,139.73 192.69,141 195.52,141.25 198.36,139.73 201.19,140.24 204.03,139.73 206.86,141.76 209.69,140.75 212.53,139.73 215.36,138.97 218.2,141.51 221.03,141.76 223.87,141 226.7,139.98 229.53,141.76 232.37,142.77 235.2,141.76 238.04,141.51 240.87,142.77 243.71,143.03 246.54,140.49 246.54,144.04 243.71,144.04 240.87,144.04 238.04,144.04 235.2,144.04 232.37,144.04 229.53,144.04 226.7,144.04 223.87,144.04 221.03,144.04 218.2,144.04 215.36,144.04 212.53,144.04 209.69,144.04 206.86,144.04 204.03,144.04 201.19,144.04 198.36,144.04 195.52,144.04 192.69,144.04 189.85,144.04 187.02,144.04 184.18,144.04 181.35,144.04 178.52,144.04 175.68,144.04 172.85,144.04 170.01,144.04 167.18,144.04 164.34,144.04 161.51,144.04 158.68,144.04 155.84,144.04 153.01,144.04 150.17,144.04 147.34,144.04 144.5,144.04 141.67,144.04 138.84,144.04 136,144.04 133.17,144.04 130.33,144.04 127.5,144.04 124.66,144.04 121.83,144.04 118.99,144.04 116.16,144.04 113.33,144.04 110.49,144.04 107.66,144.04 104.82,144.04 101.99,144.04 99.15,144.04 96.32,144.04 93.49,144.04 90.65,144.04 87.82,144.04 84.98,144.04 82.15,144.04 79.31,144.04 76.48,144.04 73.65,144.04 70.81,144.04 67.98,144.04 65.14,144.04 62.31,144.04 59.47,144.04 56.64,144.04 53.8,144.04 50.97,144.04 48.14,144.04 45.3,144.04 42.47,144.04 39.63,144.04 36.8,144.04 33.96,144.04 31.13,144.04 28.3,144.04 25.46,144.04 22.63,144.04 19.79,144.04 16.96,144.04" style="fill: url(#simple-C8FF0EFF); stroke: none" clip-path="url(#clip_5_48_377_01_258_02_39_16)" />
  <polyline points="16.96,142.77 19.79,144.04 22.63,144.04 25.46,143.79 28.3,143.03 31.13,143.28 33.96,141.51 36.8,138.72 39.63,136.18 42.47,131.87 45.3,131.11 48.14,130.35 50.97,129.08 53.8,127.3 56.64,127.56 59.47,125.78 62.31,125.02 65.14,119.44 67.98,117.67 70.81,119.44 73.65,119.69 76.48,112.59 79.31,120.71 82.15,119.19 84.98,120.71 87.82,118.93 90.65,121.47 93.49,119.95 96.32,120.96 99.15,125.53 101.99,126.29 104.82,130.6 107.66,128.32 110.49,130.6 113.33,127.3 116.16,131.61 118.99,129.84 121.83,133.64 124.66,130.6 127.5,133.14 130.33,133.14 133.17,132.12 136,134.15 138.84,133.9 141.67,136.94 144.5,134.15 147.34,136.94 150.17,137.7 153.01,139.73 155.84,140.49 158.68,138.72 161.51,139.48 164.34,141 167.18,140.49 170.01,140.75 172.85,137.96 175.68,139.73 178.52,139.22 181.35,140.75 184.18,141.25 187.02,139.22 189.85,139.73 192.69,141 195.52,141.25 198.36,139.73 201.19,140.24 204.03,139.73 206.86,141.76 209.69,140.75 212.53,139.73 215.36,138.97 218.2,141.51 221.03,141.76 223.87,141 226.7,139.98 229.53,141.76 232.37,142.77 235.2,141.76 238.04,141.51 240.87,142.77 243.71,143.03 246.54,140.49" style="stroke: none" clip-path="url(#clip_5_48_377_01_258_02_39_16)" />
  <polygon points="16.96,155.12 19.79,155.88 22.63,156.13 25.46,155.88 28.3,155.88 31.13,155.62 33.96,153.6 36.8,152.83 39.63,150.04 42.47,147 45.3,146.49 48.14,143.7 50.97,142.94 53.8,139.9 56.64,139.65 59.47,140.15 62.31,136.86 65.14,137.36 67.98,131.78 70.81,134.07 73.65,133.31 76.48,132.8 79.31,131.28 82.15,136.1 84.98,131.02 87.82,134.57 90.65,135.59 93.49,130.77 96.32,131.28 99.15,137.87 101.99,136.1 104.82,138.38 107.66,141.68 110.49,136.86 113.33,140.91 116.16,144.47 118.99,140.91 121.83,142.44 124.66,142.94 127.5,143.96 130.33,146.24 133.17,144.97 136,147 138.84,148.02 141.67,147.76 144.5,150.3 147.34,150.04 150.17,147.76 153.01,150.81 155.84,150.55 158.68,149.54 161.51,152.83 164.34,153.09 167.18,152.07 170.01,153.09 172.85,151.82 175.68,151.06 178.52,153.09 181.35,152.07 184.18,152.58 187.02,152.83 189.85,152.07 192.69,154.61 195.52,153.6 198.36,151.31 201.19,151.82 204.03,153.09 206.86,154.1 209.69,153.6 212.53,152.07 215.36,154.1 218.2,154.61 221.03,154.61 223.87,155.88 226.7,153.85 229.53,152.83 232.37,154.1 235.2,153.09 238.04,154.86 240.87,154.61 243.71,154.86 246.54,153.85 246.54,156.13 243.71,156.13 240.87,156.13 238.04,156.13 235.2,156.13 232.37,156.13 229.53,156.13 226.7,156.13 223.87,156.13 221.03,156.13 218.2,156.13 215.36,156.13 212.53,156.13 209.69,156.13 206.86,156.13 204.03,156.13 201.19,156.13 198.36,156.13 195.52,156.13 192.69,156.13 189.85,156.13 187.02,156.13 184.18,156.13 181.35,156.13 178.52,156.13 175.68,156.13 172.85,156.13 170.01,156.13 167.18,156.13 164.34,156.13 161.51,156.13 158.68,156.13 155.84,156.13 153.01,156.13 150.17,156.13 147.34,156.13 144.5,156.13 141.67,156.13 138.84,156.13 136,156.13 133.17,156.13 130.33,156.13 127.5,156.13 124.66,156.13 121.83,156.13 118.99,156.13 116.16,156.13 113.33,156.13 110.49,156.13 107.66,156.13 104.82,156.13 101.99,156.13 99.15,156.13 96.32,156.13 93.49,156.13 90.65,156.13 87.82,156.13 84.98,156.13 82.15,156.13 79.31,156.13 76.48,156.13 73.65,156.13 70.81,156.13 67.98,156.13 65.14,156.13 62.31,156.13 59.47,156.13 56.64,156.13 53.8,156.13 50.97,156.13 48.14,156.13 45.3,156.13 42.47,156.13 39.63,156.13 36.8,156.13 33.96,156.13 31.13,156.13 28.3,156.13 25.46,156.13 22.63,156.13 19.79,156.13 16.96,156.13" style="fill: url(#simple-C8FF0EFF); stroke: none" clip-path="url(#clip_5_48_377_01_258_02_39_16)" />
  <polyline points="16.96,155.12 19.79,155.88 22.63,156.13 25.46,155.88 28.3,155.88 31.13,155.62 33.96,153.6 36.8,152.83 39.63,150.04 42.47,147 45.3,146.49 48.14,143.7 50.97,142.94 53.8,139.9 56.64,139.65 59.47,140.15 62.31,136.86 65.14,137.36 67.98,131.78 70.81,134.07 73.65,133.31 76.48,132.8 79.31,131.28 82.15,136.1 84.98,131.02 87.82,134.57 90.65,135.59 93.49,130.77 96.32,131.28 99.15,137.87 101.99,136.1 104.82,138.38 107.66,141.68 110.49,136.86 113.33,140.91 116.16,144.47 118.99,140.91 121.83,142.44 124.66,142.94 127.5,143.96 130.33,146.24 133.17,144.97 136,147 138.84,148.02 141.67,147.76 144.5,150.3 147.34,150.04 150.17,147.76 153.01,150.81 155.84,150.55 158.68,149.54 161.51,152.83 164.34,153.09 167.18,152.07 170.01,153.09 172.85,151.82 175.68,151.06 178.52,153.09 181.35,152.07 184.18,152.58 187.02,152.83 189.85,152.07 192.69,154.61 195.52,153.6 198.36,151.31 201.19,151.82 204.03,153.09 206.86,154.1 209.69,153.6 212.53,152.07 215.36,154.1 218.2,154.61 221.03,154.61 223.87,155.88 226.7,153.85 229.53,152.83 232.37,154.1 235.2,153.09 238.04,154.86 240.87,154.61 243.71,154.86 246.54,153.85" style="stroke: none" clip-path="url(#clip_5_48_377_01_258_02_39_16)" />
  <polygon points="16.96,167.21 19.79,168.22 22.63,168.22 25.46,167.71 28.3,167.71 31.13,166.7 33.96,166.7 36.8,165.43 39.63,162.39 42.47,160.36 45.3,156.3 48.14,155.03 50.97,152.5 53.8,152.24 56.64,151.74 59.47,149.45 62.31,145.65 65.14,148.95 67.98,143.62 70.81,144.13 73.65,141.84 76.48,146.16 79.31,142.86 82.15,144.89 84.98,144.13 87.82,139.82 90.65,142.1 93.49,145.9 96.32,152.24 99.15,150.72 101.99,147.17 104.82,145.39 107.66,148.69 110.49,156.05 113.33,151.99 116.16,156.3 118.99,154.78 121.83,155.03 124.66,155.54 127.5,155.03 130.33,156.05 133.17,156.81 136,156.05 138.84,161.12 141.67,157.82 144.5,159.85 147.34,161.63 150.17,162.39 153.01,161.37 155.84,163.4 158.68,163.4 161.51,163.91 164.34,164.42 167.18,164.16 170.01,163.66 172.85,162.64 175.68,165.68 178.52,164.67 181.35,164.42 184.18,165.43 187.02,164.42 189.85,166.45 192.69,164.42 195.52,162.13 198.36,162.89 201.19,165.43 204.03,164.42 206.86,165.68 209.69,164.67 212.53,164.42 215.36,165.68 218.2,163.91 221.03,163.66 223.87,166.19 226.7,166.95 229.53,166.19 232.37,165.94 235.2,165.43 238.04,166.7 240.87,167.21 243.71,166.95 246.54,164.16 246.54,168.22 243.71,168.22 240.87,168.22 238.04,168.22 235.2,168.22 232.37,168.22 229.53,168.22 226.7,168.22 223.87,168.22 221.03,168.22 218.2,168.22 215.36,168.22 212.53,168.22 209.69,168.22 206.86,168.22 204.03,168.22 201.19,168.22 198.36,168.22 195.52,168.22 192.69,168.22 189.85,168.22 187.02,168.22 184.18,168.22 181.35,168.22 178.52,168.22 175.68,168.22 172.85,168.22 170.01,168.22 167.18,168.22 164.34,168.22 161.51,168.22 158.68,168.22 155.84,168.22 153.01,168.22 150.17,168.22 147.34,168.22 144.5,168.22 141.67,168.22 138.84,168.22 136,168.22 133.17,168.22 130.33,168.22 127.5,168.22 124.66,168.22 121.83,168.22 118.99,168.22 116.16,168.22 113.33,168.22 110.49,168.22 107.66,168.22 104.82,168.22 101.99,168.22 99.15,168.22 96.32,168.22 93.49,168.22 90.65,168.22 87.82,168.22 84.98,168.22 82.15,168.22 79.31,168.22 76.48,168.22 73.65,168.22 70.81,168.22 67.98,168.22 65.14,168.22 62.31,168.22 59.47,168.22 56.64,168.22 53.8,168.22 50.97,168.22 48.14,168.22 45.3,168.22 42.47,168.22 39.63,168.22 36.8,168.22 33.96,168.22 31.13,168.22 28.3,168.22 25.46,168.22 22.63,168.22 19.79,168.22 16.96,168.22" style="fill: url(#simple-C8FF0EFF); stroke: none" clip-path="url(#clip_5_48_377_01_258_02_39_16)" />
  <polyline points="16.96,167.21 19.79,168.22 22.63,168.22 25.46,167.71 28.3,167.71 31.13,166.7 33.96,166.7 36.8,165.43 39.63,162.39 42.47,160.36 45.3,156.3 48.14,155.03 50.97,152.5 53.8,152.24 56.64,151.74 59.47,149.45 62.31,145.65 65.14,148.95 67.98,143.62 70.81,144.13 73.65,141.84 76.48,146.16 79.31,142.86 82.15,144.89 84.98,144.13 87.82,139.82 90.65,142.1 93.49,145.9 96.32,152.24 99.15,150.72 101.99,147.17 104.82,145.39 107.66,148.69 110.49,156.05 113.33,151.99 116.16,156.3 118.99,154.78 121.83,155.03 124.66,155.54 127.5,155.03 130.33,156.05 133.17,156.81 136,156.05 138.84,161.12 141.67,157.82 144.5,159.85 147.34,161.63 150.17,162.39 153.01,161.37 155.84,163.4 158.68,163.4 161.51,163.91 164.34,164.42 167.18,164.16 170.01,163.66 172.85,162.64 175.68,165.68 178.52,164.67 181.35,164.42 184.18,165.43 187.02,164.42 189.85,166.45 192.69,164.42 195.52,162.13 198.36,162.89 201.19,165.43 204.03,164.42 206.86,165.68 209.69,164.67 212.53,164.42 215.36,165.68 218.2,163.91 221.03,163.66 223.87,166.19 226.7,166.95 229.53,166.19 232.37,165.94 235.2,165.43 238.04,166.7 240.87,167.21 243.71,166.95 246.54,164.16" style="stroke: none" clip-path="url(#clip_5_48_377_01_258_02_39_16)" />
  <polygon points="16.96,179.8 19.79,180.31 22.63,180.31 25.46,180.06 28.3,179.04 31.13,178.53 33.96,177.52 36.8,177.01 39.63,175.49 42.47,171.94 45.3,172.96 48.14,165.09 50.97,169.91 53.8,163.82 56.64,163.57 59.47,163.06 62.31,160.78 65.14,157.23 67.98,158.75 70.81,159.51 73.65,156.22 76.48,158.5 79.31,160.27 82.15,158.75 84.98,157.23 87.82,158.5 90.65,155.71 93.49,156.72 96.32,161.29 99.15,162.56 101.99,160.78 104.82,166.36 107.66,164.33 110.49,166.87 113.33,164.84 116.16,168.9 118.99,166.36 121.83,170.17 124.66,166.11 127.5,171.69 130.33,169.91 133.17,170.93 136,170.17 138.84,171.43 141.67,173.97 144.5,172.96 147.34,173.21 150.17,174.98 153.01,175.49 155.84,173.97 158.68,176.25 161.51,175.75 164.34,177.52 167.18,177.27 170.01,175.49 172.85,178.28 175.68,175.49 178.52,176.25 181.35,176.76 184.18,176.76 187.02,176 189.85,178.28 192.69,176.76 195.52,176.25 198.36,177.77 201.19,178.28 204.03,178.53 206.86,177.77 209.69,176 212.53,178.28 215.36,178.03 218.2,175.24 221.03,176.76 223.87,177.01 226.7,179.55 229.53,179.3 232.37,179.3 235.2,178.03 238.04,178.03 240.87,177.01 243.71,178.28 246.54,177.52 246.54,180.31 243.71,180.31 240.87,180.31 238.04,180.31 235.2,180.31 232.37,180.31 229.53,180.31 226.7,180.31 223.87,180.31 221.03,180.31 218.2,180.31 215.36,180.31 212.53,180.31 209.69,180.31 206.86,180.31 204.03,180.31 201.19,180.31 198.36,180.31 195.52,180.31 192.69,180.31 189.85,180.31 187.02,180.31 184.18,180.31 181.35,180.31 178.52,180.31 175.68,180.31 172.85,180.31 170.01,180.31 167.18,180.31 164.34,180.31 161.51,180.31 158.68,180.31 155.84,180.31 153.01,180.31 150.17,180.31 147.34,180.31 144.5,180.31 141.67,180.31 138.84,180.31 136,180.31 133.17,180.31 130.33,180.31 127.5,180.31 124.66,180.31 121.83,180.31 118.99,180.31 116.16,180.31 113.33,180.31 110.49,180.31 107.66,180.31 104.82,180.31 101.99,180.31 99.15,180.31 96.32,180.31 93.49,180.31 90.65,180.31 87.82,180.31 84.98,180.31 82.15,180.31 79.31,180.31 76.48,180.31 73.65,180.31 70.81,180.31 67.98,180.31 65.14,180.31 62.31,180.31 59.47,180.31 56.64,180.31 53.8,180.31 50.97,180.31 48.14,180.31 45.3,180.31 42.47,180.31 39.63,180.31 36.8,180.31 33.96,180.31 31.13,180.31 28.3,180.31 25.46,180.31 22.63,180.31 19.79,180.31 16.96,180.31" style="fill: url(#simple-C8FF0EFF); stroke: none" clip-path="url(#clip_5_48_377_01_258_02_39_16)" />
  <polyline points="16.96,179.8 19.79,180.31 22.63,180.31 25.46,180.06 28.3,179.04 31.13,178.53 33.96,177.52 36.8,177.01 39.63,175.49 42.47,171.94 45.3,172.96 48.14,165.09 50.97,169.91 53.8,163.82 56.64,163.57 59.47,163.06 62.31,160.78 65.14,157.23 67.98,158.75 70.81,159.51 73.65,156.22 76.48,158.5 79.31,160.27 82.15,158.75 84.98,157.23 87.82,158.5 90.65,155.71 93.49,156.72 96.32,161.29 99.15,162.56 101.99,160.78 104.82,166.36 107.66,164.33 110.49,166.87 113.33,164.84 116.16,168.9 118.99,166.36 121.83,170.17 124.66,166.11 127.5,171.69 130.33,169.91 133.17,170.93 136,170.17 138.84,171.43 141.67,173.97 144.5,172.96 147.34,173.21 150.17,174.98 153.01,175.49 155.84,173.97 158.68,176.25 161.51,175.75 164.34,177.52 167.18,177.27 170.01,175.49 172.85,178.28 175.68,175.49 178.52,176.25 181.35,176.76 184.18,176.76 187.02,176 189.85,178.28 192.69,176.76 195.52,176.25 198.36,177.77 201.19,178.28 204.03,178.53 206.86,177.77 209.69,176 212.53,178.28 215.36,178.03 218.2,175.24 221.03,176.76 223.87,177.01 226.7,179.55 229.53,179.3 232.37,179.3 235.2,178.03 238.04,178.03 240.87,177.01 243.71,178.28 246.54,177.52" style="stroke: none" clip-path="url(#clip_5_48_377_01_258_02_39_16)" />
  <polygon points="16.96,191.89 19.79,192.15 22.63,192.15 25.46,192.15 28.3,191.39 31.13,190.88 33.96,191.64 36.8,189.36 39.63,188.34 42.47,186.57 45.3,185.3 48.14,178.7 50.97,182 53.8,180.23 56.64,178.7 59.47,179.21 62.31,178.45 65.14,175.66 67.98,178.2 70.81,173.89 73.65,173.12 76.48,169.83 79.31,168.56 82.15,171.35 84.98,170.33 87.82,169.07 90.65,174.14 93.49,171.86 96.32,172.62 99.15,173.63 101.99,173.12 104.82,175.15 107.66,176.93 110.49,180.48 113.33,179.46 116.16,178.45 118.99,178.7 121.83,180.48 124.66,183.78 127.5,179.72 130.33,180.99 133.17,180.48 136,185.04 138.84,183.52 141.67,185.3 144.5,183.78 147.34,185.3 150.17,185.3 153.01,189.1 155.84,186.82 158.68,187.58 161.51,189.61 164.34,188.09 167.18,188.85 170.01,189.36 172.85,188.09 175.68,189.61 178.52,190.12 181.35,190.62 184.18,188.85 187.02,190.62 189.85,189.86 192.69,188.85 195.52,188.34 198.36,189.36 201.19,188.34 204.03,190.12 206.86,188.6 209.69,190.37 212.53,189.61 215.36,188.85 218.2,190.62 221.03,189.86 223.87,189.1 226.7,190.88 229.53,190.62 232.37,191.39 235.2,190.88 238.04,191.13 240.87,191.39 243.71,191.39 246.54,187.33 246.54,192.4 243.71,192.4 240.87,192.4 238.04,192.4 235.2,192.4 232.37,192.4 229.53,192.4 226.7,192.4 223.87,192.4 221.03,192.4 218.2,192.4 215.36,192.4 212.53,192.4 209.69,192.4 206.86,192.4 204.03,192.4 201.19,192.4 198.36,192.4 195.52,192.4 192.69,192.4 189.85,192.4 187.02,192.4 184.18,192.4 181.35,192.4 178.52,192.4 175.68,192.4 172.85,192.4 170.01,192.4 167.18,192.4 164.34,192.4 161.51,192.4 158.68,192.4 155.84,192.4 153.01,192.4 150.17,192.4 147.34,192.4 144.5,192.4 141.67,192.4 138.84,192.4 136,192.4 133.17,192.4 130.33,192.4 127.5,192.4 124.66,192.4 121.83,192.4 118.99,192.4 116.16,192.4 113.33,192.4 110.49,192.4 107.66,192.4 104.82,192.4 101.99,192.4 99.15,192.4 96.32,192.4 93.49,192.4 90.65,192.4 87.82,192.4 84.98,192.4 82.15,192.4 79.31,192.4 76.48,192.4 73.65,192.4 70.81,192.4 67.98,192.4 65.14,192.4 62.31,192.4 59.47,192.4 56.64,192.4 53.8,192.4 50.97,192.4 48.14,192.4 45.3,192.4 42.47,192.4 39.63,192.4 36.8,192.4 33.96,192.4 31.13,192.4 28.3,192.4 25.46,192.4 22.63,192.4 19.79,192.4 16.96,192.4" style="fill: url(#simple-C8FF0EFF); stroke: none" clip-path="url(#clip_5_48_377_01_258_02_39_16)" />
  <polyline points="16.96,191.89 19.79,192.15 22.63,192.15 25.46,192.15 28.3,191.39 31.13,190.88 33.96,191.64 36.8,189.36 39.63,188.34 42.47,186.57 45.3,185.3 48.14,178.7 50.97,182 53.8,180.23 56.64,178.7 59.47,179.21 62.31,178.45 65.14,175.66 67.98,178.2 70.81,173.89 73.65,173.12 76.48,169.83 79.31,168.56 82.15,171.35 84.98,170.33 87.82,169.07 90.65,174.14 93.49,171.86 96.32,172.62 99.15,173.63 101.99,173.12 104.82,175.15 107.66,176.93 110.49,180.48 113.33,179.46 116.16,178.45 118.99,178.7 121.83,180.48 124.66,183.78 127.5,179.72 130.33,180.99 133.17,180.48 136,185.04 138.84,183.52 141.67,185.3 144.5,183.78 147.34,185.3 150.17,185.3 153.01,189.1 155.84,186.82 158.68,187.58 161.51,189.61 164.34,188.09 167.18,188.85 170.01,189.36 172.85,188.09 175.68,189.61 178.52,190.12 181.35,190.62 184.18,188.85 187.02,190.62 189.85,189.86 192.69,188.85 195.52,188.34 198.36,189.36 201.19,188.34 204.03,190.12 206.86,188.6 209.69,190.37 212.53,189.61 215.36,188.85 218.2,190.62 221.03,189.86 223.87,189.1 226.7,190.88 229.53,190.62 232.37,191.39 235.2,190.88 238.04,191.13 240.87,191.39 243.71,191.39 246.54,187.33" style="stroke: none" clip-path="url(#clip_5_48_377_01_258_02_39_16)" />
  <polygon points="16.96,204.24 19.79,204.49 22.63,204.49 25.46,204.49 28.3,203.98 31.13,203.22 33.96,202.21 36.8,201.7 39.63,202.46 42.47,199.42 45.3,197.89 48.14,193.33 50.97,194.6 53.8,195.61 56.64,185.47 59.47,191.81 62.31,187.5 65.14,188 67.98,190.79 70.81,186.48 73.65,185.21 76.48,186.99 79.31,185.21 82.15,181.16 84.98,181.92 87.82,186.48 90.65,180.14 93.49,178.87 96.32,182.68 99.15,181.66 101.99,184.96 104.82,186.48 107.66,188.51 110.49,186.48 113.33,186.48 116.16,189.78 118.99,193.84 121.83,191.3 124.66,193.08 127.5,195.87 130.33,195.87 133.17,194.85 136,193.84 138.84,192.82 141.67,194.6 144.5,195.1 147.34,195.1 150.17,196.88 153.01,195.61 155.84,200.18 158.68,200.18 161.51,200.43 164.34,198.91 167.18,201.45 170.01,200.18 172.85,199.16 175.68,199.92 178.52,202.21 181.35,200.68 184.18,200.94 187.02,199.67 189.85,201.19 192.69,201.95 195.52,201.19 198.36,200.43 201.19,201.95 204.03,201.95 206.86,202.46 209.69,199.67 212.53,202.71 215.36,201.7 218.2,202.97 221.03,200.68 223.87,201.7 226.7,200.68 229.53,200.94 232.37,201.95 235.2,203.22 238.04,202.46 240.87,202.21 243.71,202.97 246.54,198.4 246.54,204.49 243.71,204.49 240.87,204.49 238.04,204.49 235.2,204.49 232.37,204.49 229.53,204.49 226.7,204.49 223.87,204.49 221.03,204.49 218.2,204.49 215.36,204.49 212.53,204.49 209.69,204.49 206.86,204.49 204.03,204.49 201.19,204.49 198.36,204.49 195.52,204.49 192.69,204.49 189.85,204.49 187.02,204.49 184.18,204.49 181.35,204.49 178.52,204.49 175.68,204.49 172.85,204.49 170.01,204.49 167.18,204.49 164.34,204.49 161.51,204.49 158.68,204.49 155.84,204.49 153.01,204.49 150.17,204.49 147.34,204.49 144.5,204.49 141.67,204.49 138.84,204.49 136,204.49 133.17,204.49 130.33,204.49 127.5,204.49 124.66,204.49 121.83,204.49 118.99,204.49 116.16,204.49 113.33,204.49 110.49,204.49 107.66,204.49 104.82,204.49 101.99,204.49 99.15,204.49 96.32,204.49 93.49,204.49 90.65,204.49 87.82,204.49 84.98,204.49 82.15,204.49 79.31,204.49 76.48,204.49 73.65,204.49 70.81,204.49 67.98,204.49 65.14,204.49 62.31,204.49 59.47,204.49 56.64,204.49 53.8,204.49 50.97,204.49 48.14,204.49 45.3,204.49 42.47,204.49 39.63,204.49 36.8,204.49 33.96,204.49 31.13,204.49 28.3,204.49 25.46,204.49 22.63,204.49 19.79,204.49 16.96,204.49" style="fill: url(#simple-C8FF0EFF); stroke: none" clip-path="url(#clip_5_48_377_01_258_02_39_16)" />
  <polyline points="16.96,204.24 19.79,204.49 22.63,204.49 25.46,204.49 28.3,203.98 31.13,203.22 33.96,202.21 36.8,201.7 39.63,202.46 42.47,199.42 45.3,197.89 48.14,193.33 50.97,194.6 53.8,195.61 56.64,185.47 59.47,191.81 62.31,187.5 65.14,188 67.98,190.79 70.81,186.48 73.65,185.21 76.48,186.99 79.31,185.21 82.15,181.16 84.98,181.92 87.82,186.48 90.65,180.14 93.49,178.87 96.32,182.68 99.15,181.66 101.99,184.96 104.82,186.48 107.66,188.51 110.49,186.48 113.33,186.48 116.16,189.78 118.99,193.84 121.83,191.3 124.66,193.08 127.5,195.87 130.33,195.87 133.17,194.85 136,193.84 138.84,192.82 141.67,194.6 144.5,195.1 147.34,195.1 150.17,196.88 153.01,195.61 155.84,200.18 158.68,200.18 161.51,200.43 164.34,198.91 167.18,201.45 170.01,200.18 172.85,199.16 175.68,199.92 178.52,202.21 181.35,200.68 184.18,200.94 187.02,199.67 189.85,201.19 192.69,201.95 195.52,201.19 198.36,200.43 201.19,201.95 204.03,201.95 206.86,202.46 209.69,199.67 212.53,202.71 215.36,201.7 218.2,202.97 221.03,200.68 223.87,201.7 226.7,200.68 229.53,200.94 232.37,201.95 235.2,203.22 238.04,202.46 240.87,202.21 243.71,202.97 246.54,198.4" style="stroke: none" clip-path="url(#clip_5_48_377_01_258_02_39_16)" />
  <polygon points="16.96,215.82 19.79,216.58 22.63,216.32 25.46,216.32 28.3,215.82 31.13,215.82 33.96,214.8 36.8,213.53 39.63,214.04 42.47,209.98 45.3,209.48 48.14,209.73 50.97,206.43 53.8,205.42 56.64,203.64 59.47,204.66 62.31,199.84 65.14,204.66 67.98,200.09 70.81,202.38 73.65,198.82 76.48,197.3 79.31,196.54 82.15,192.23 84.98,196.29 87.82,188.68 90.65,198.57 93.49,190.96 96.32,190.96 99.15,196.03 101.99,198.32 104.82,198.32 107.66,200.09 110.49,198.82 113.33,197.81 116.16,200.6 118.99,203.39 121.83,204.15 124.66,205.42 127.5,201.87 130.33,203.14 133.17,203.9 136,205.67 138.84,205.67 141.67,208.72 144.5,211.25 147.34,208.72 150.17,209.48 153.01,206.69 155.84,208.72 158.68,209.48 161.51,210.74 164.34,212.01 167.18,212.27 170.01,211 172.85,212.52 175.68,212.01 178.52,213.53 181.35,212.52 184.18,214.04 187.02,214.3 189.85,214.04 192.69,212.52 195.52,213.53 198.36,214.04 201.19,214.8 204.03,214.8 206.86,214.8 209.69,214.04 212.53,214.8 215.36,214.55 218.2,213.28 221.03,214.55 223.87,214.3 226.7,215.06 229.53,213.79 232.37,215.06 235.2,215.06 238.04,215.31 240.87,215.56 243.71,215.56 246.54,212.52 246.54,216.58 243.71,216.58 240.87,216.58 238.04,216.58 235.2,216.58 232.37,216.58 229.53,216.58 226.7,216.58 223.87,216.58 221.03,216.58 218.2,216.58 215.36,216.58 212.53,216.58 209.69,216.58 206.86,216.58 204.03,216.58 201.19,216.58 198.36,216.58 195.52,216.58 192.69,216.58 189.85,216.58 187.02,216.58 184.18,216.58 181.35,216.58 178.52,216.58 175.68,216.58 172.85,216.58 170.01,216.58 167.18,216.58 164.34,216.58 161.51,216.58 158.68,216.58 155.84,216.58 153.01,216.58 150.17,216.58 147.34,216.58 144.5,216.58 141.67,216.58 138.84,216.58 136,216.58 133.17,216.58 130.33,216.58 127.5,216.58 124.66,216.58 121.83,216.58 118.99,216.58 116.16,216.58 113.33,216.58 110.49,216.58 107.66,216.58 104.82,216.58 101.99,216.58 99.15,216.58 96.32,216.58 93.49,216.58 90.65,216.58 87.82,216.58 84.98,216.58 82.15,216.58 79.31,216.58 76.48,216.58 73.65,216.58 70.81,216.58 67.98,216.58 65.14,216.58 62.31,216.58 59.47,216.58 56.64,216.58 53.8,216.58 50.97,216.58 48.14,216.58 45.3,216.58 42.47,216.58 39.63,216.58 36.8,216.58 33.96,216.58 31.13,216.58 28.3,216.58 25.46,216.58 22.63,216.58 19.79,216.58 16.96,216.58" style="fill: url(#simple-C8FF0EFF); stroke: none" clip-path="url(#clip_5_48_377_01_258_02_39_16)" />
  <polyline points="16.96,215.82 19.79,216.58 22.63,216.32 25.46,216.32 28.3,215.82 31.13,215.82 33.96,214.8 36.8,213.53 39.63,214.04 42.47,209.98 45.3,209.48 48.14,209.73 50.97,206.43 53.8,205.42 56.64,203.64 59.47,204.66 62.31,199.84 65.14,204.66 67.98,200.09 70.81,202.38 73.65,198.82 76.48,197.3 79.31,196.54 82.15,192.23 84.98,196.29 87.82,188.68 90.65,198.57 93.49,190.96 96.32,190.96 99.15,196.03 101.99,198.32 104.82,198.32 107.66,200.09 110.49,198.82 113.33,197.81 116.16,200.6 118.99,203.39 121.83,204.15 124.66,205.42 127.5,201.87 130.33,203.14 133.17,203.9 136,205.67 138.84,205.67 141.67,208.72 144.5,211.25 147.34,208.72 150.17,209.48 153.01,206.69 155.84,208.72 158.68,209.48 161.51,210.74 164.34,212.01 167.18,212.27 170.01,211 172.85,212.52 175.68,212.01 178.52,213.53 181.35,212.52 184.18,214.04 187.02,214.3 189.85,214.04 192.69,212.52 195.52,213.53 198.36,214.04 201.19,214.8 204.03,214.8 206.86,214.8 209.69,214.04 212.53,214.8 215.36,214.55 218.2,213.28 221.03,214.55 223.87,214.3 226.7,215.06 229.53,213.79 232.37,215.06 235.2,215.06 238.04,215.31 240.87,215.56 243.71,215.56 246.54,212.52" style="stroke: none" clip-path="url(#clip_5_48_377_01_258_02_39_16)" />
  <polygon points="16.96,227.91 19.79,228.67 22.63,228.67 25.46,228.67 28.3,228.67 31.13,228.16 33.96,226.89 36.8,227.91 39.63,224.61 42.47,224.86 45.3,221.57 48.14,220.55 50.97,219.54 53.8,215.99 56.64,219.54 59.47,216.49 62.31,212.69 65.14,213.7 67.98,211.93 70.81,212.69 73.65,213.2 76.48,213.45 79.31,211.42 82.15,210.66 84.98,210.41 87.82,209.9 90.65,205.84 93.49,208.63 96.32,205.08 99.15,206.6 101.99,212.94 104.82,211.93 107.66,212.18 110.49,209.9 113.33,214.72 116.16,211.67 118.99,213.7 121.83,216.24 124.66,213.7 127.5,219.03 130.33,218.27 133.17,220.3 136,219.28 138.84,219.28 141.67,219.28 144.5,219.79 147.34,221.57 150.17,221.31 153.01,222.33 155.84,221.06 158.68,222.83 161.51,223.85 164.34,223.59 167.18,223.59 170.01,224.36 172.85,223.85 175.68,225.62 178.52,226.64 181.35,226.89 184.18,225.12 187.02,226.13 189.85,226.64 192.69,224.61 195.52,225.88 198.36,227.91 201.19,225.88 204.03,226.13 206.86,226.38 209.69,224.86 212.53,226.64 215.36,226.13 218.2,226.13 221.03,226.89 223.87,226.89 226.7,226.64 229.53,225.12 232.37,226.38 235.2,226.38 238.04,227.91 240.87,227.65 243.71,227.91 246.54,224.1 246.54,228.67 243.71,228.67 240.87,228.67 238.04,228.67 235.2,228.67 232.37,228.67 229.53,228.67 226.7,228.67 223.87,228.67 221.03,228.67 218.2,228.67 215.36,228.67 212.53,228.67 209.69,228.67 206.86,228.67 204.03,228.67 201.19,228.67 198.36,228.67 195.52,228.67 192.69,228.67 189.85,228.67 187.02,228.67 184.18,228.67 181.35,228.67 178.52,228.67 175.68,228.67 172.85,228.67 170.01,228.67 167.18,228.67 164.34,228.67 161.51,228.67 158.68,228.67 155.84,228.67 153.01,228.67 150.17,228.67 147.34,228.67 144.5,228.67 141.67,228.67 138.84,228.67 136,228.67 133.17,228.67 130.33,228.67 127.5,228.67 124.66,228.67 121.83,228.67 118.99,228.67 116.16,228.67 113.33,228.67 110.49,228.67 107.66,228.67 104.82,228.67 101.99,228.67 99.15,228.67 96.32,228.67 93.49,228.67 90.65,228.67 87.82,228.67 84.98,228.67 82.15,228.67 79.31,228.67 76.48,228.67 73.65,228.67 70.81,228.67 67.98,228.67 65.14,228.67 62.31,228.67 59.47,228.67 56.64,228.67 53.8,228.67 50.97,228.67 48.14,228.67 45.3,228.67 42.47,228.67 39.63,228.67 36.8,228.67 33.96,228.67 31.13,228.67 28.3,228.67 25.46,228.67 22.63,228.67 19.79,228.67 16.96,228.67" style="fill: url(#simple-C8FF0EFF); stroke: none" clip-path="url(#clip_5_48_377_01_258_02_39_16)" />
  <polyline points="16.96,227.91 19.79,228.67 22.63,228.67 25.46,228.67 28.3,228.67 31.13,228.16 33.96,226.89 36.8,227.91 39.63,224.61 42.47,224.86 45.3,221.57 48.14,220.55 50.97,219.54 53.8,215.99 56.64,219.54 59.47,216.49 62.31,212.69 65.14,213.7 67.98,211.93 70.81,212.69 73.65,213.2 76.48,213.45 79.31,211.42 82.15,210.66 84.98,210.41 87.82,209.9 90.65,205.84 93.49,208.63 96.32,205.08 99.15,206.6 101.99,212.94 104.82,211.93 107.66,212.18 110.49,209.9 113.33,214.72 116.16,211.67 118.99,213.7 121.83,216.24 124.66,213.7 127.5,219.03 130.33,218.27 133.17,220.3 136,219.28 138.84,219.28 141.67,219.28 144.5,219.79 147.34,221.57 150.17,221.31 153.01,222.33 155.84,221.06 158.68,222.83 161.51,223.85 164.34,223.59 167.18,223.59 170.01,224.36 172.85,223.85 175.68,225.62 178.52,226.64 181.35,226.89 184.18,225.12 187.02,226.13 189.85,226.64 192.69,224.61 195.52,225.88 198.36,227.91 201.19,225.88 204.03,226.13 206.86,226.38 209.69,224.86 212.53,226.64 215.36,226.13 218.2,226.13 221.03,226.89 223.87,226.89 226.7,226.64 229.53,225.12 232.37,226.38 235.2,226.38 238.04,227.91 240.87,227.65 243.71,227.91 246.54,224.1" style="stroke: none" clip-path="url(#clip_5_48_377_01_258_02_39_16)" />
  <polygon points="16.96,240.76 19.79,240.76 22.63,240.76 25.46,240.5 28.3,240.25 31.13,240.76 33.96,240 36.8,238.98 39.63,238.47 42.47,236.45 45.3,235.68 48.14,234.67 50.97,231.63 53.8,230.36 56.64,229.34 59.47,226.3 62.31,227.57 65.14,222.75 67.98,225.79 70.81,222.5 73.65,224.27 76.48,224.27 79.31,223.51 82.15,215.9 84.98,219.71 87.82,217.42 90.65,222.24 93.49,217.42 96.32,217.93 99.15,220.97 101.99,220.21 104.82,217.17 107.66,220.97 110.49,222.5 113.33,227.31 116.16,226.55 118.99,223.26 121.83,227.31 124.66,225.54 127.5,230.36 130.33,229.85 133.17,229.6 136,228.84 138.84,232.13 141.67,230.87 144.5,233.4 147.34,234.42 150.17,234.42 153.01,234.42 155.84,233.66 158.68,234.16 161.51,236.7 164.34,237.21 167.18,235.18 170.01,235.18 172.85,236.19 175.68,237.97 178.52,237.97 181.35,238.98 184.18,238.22 187.02,237.21 189.85,238.47 192.69,239.23 195.52,238.73 198.36,239.23 201.19,237.71 204.03,238.22 206.86,238.98 209.69,238.98 212.53,238.98 215.36,238.98 218.2,237.46 221.03,239.23 223.87,238.98 226.7,238.47 229.53,239.49 232.37,238.98 235.2,238.98 238.04,239.74 240.87,240 243.71,239.74 246.54,238.22 246.54,240.76 243.71,240.76 240.87,240.76 238.04,240.76 235.2,240.76 232.37,240.76 229.53,240.76 226.7,240.76 223.87,240.76 221.03,240.76 218.2,240.76 215.36,240.76 212.53,240.76 209.69,240.76 206.86,240.76 204.03,240.76 201.19,240.76 198.36,240.76 195.52,240.76 192.69,240.76 189.85,240.76 187.02,240.76 184.18,240.76 181.35,240.76 178.52,240.76 175.68,240.76 172.85,240.76 170.01,240.76 167.18,240.76 164.34,240.76 161.51,240.76 158.68,240.76 155.84,240.76 153.01,240.76 150.17,240.76 147.34,240.76 144.5,240.76 141.67,240.76 138.84,240.76 136,240.76 133.17,240.76 130.33,240.76 127.5,240.76 124.66,240.76 121.83,240.76 118.99,240.76 116.16,240.76 113.33,240.76 110.49,240.76 107.66,240.76 104.82,240.76 101.99,240.76 99.15,240.76 96.32,240.76 93.49,240.76 90.65,240.76 87.82,240.76 84.98,240.76 82.15,240.76 79.31,240.76 76.48,240.76 73.65,240.76 70.81,240.76 67.98,240.76 65.14,240.76 62.31,240.76 59.47,240.76 56.64,240.76 53.8,240.76 50.97,240.76 48.14,240.76 45.3,240.76 42.47,240.76 39.63,240.76 36.8,240.76 33.96,240.76 31.13,240.76 28.3,240.76 25.46,240.76 22.63,240.76 19.79,240.76 16.96,240.76" style="fill: url(#simple-C8FF0EFF); stroke: none" clip-path="url(#clip_5_48_377_01_258_02_39_16)" />
  <polyline points="16.96,240.76 19.79,240.76 22.63,240.76 25.46,240.5 28.3,240.25 31.13,240.76 33.96,240 36.8,238.98 39.63,238.47 42.47,236.45 45.3,235.68 48.14,234.67 50.97,231.63 53.8,230.36 56.64,229.34 59.47,226.3 62.31,227.57 65.14,222.75 67.98,225.79 70.81,222.5 73.65,224.27 76.48,224.27 79.31,223.51 82.15,215.9 84.98,219.71 87.82,217.42 90.65,222.24 93.49,217.42 96.32,217.93 99.15,220.97 101.99,220.21 104.82,217.17 107.66,220.97 110.49,222.5 113.33,227.31 116.16,226.55 118.99,223.26 121.83,227.31 124.66,225.54 127.5,230.36 130.33,229.85 133.17,229.6 136,228.84 138.84,232.13 141.67,230.87 144.5,233.4 147.34,234.42 150.17,234.42 153.01,234.42 155.84,233.66 158.68,234.16 161.51,236.7 164.34,237.21 167.18,235.18 170.01,235.18 172.85,236.19 175.68,237.97 178.52,237.97 181.35,238.98 184.18,238.22 187.02,237.21 189.85,238.47 192.69,239.23 195.52,238.73 198.36,239.23 201.19,237.71 204.03,238.22 206.86,238.98 209.69,238.98 212.53,238.98 215.36,238.98 218.2,237.46 221.03,239.23 223.87,238.98 226.7,238.47 229.53,239.49 232.37,238.98 235.2,238.98 238.04,239.74 240.87,240 243.71,239.74 246.54,238.22" style="stroke: none" clip-path="url(#clip_5_48_377_01_258_02_39_16)" />
  <polygon points="16.96,251.58 19.79,252.59 22.63,252.85 25.46,252.85 28.3,252.85 31.13,252.09 33.96,251.58 36.8,250.82 39.63,250.56 42.47,247.01 45.3,246.51 48.14,243.72 50.97,246 53.8,241.94 56.64,242.19 59.47,237.38 62.31,239.91 65.14,236.87 67.98,235.85 70.81,235.6 73.65,236.36 76.48,232.81 79.31,234.84 82.15,231.8 84.98,227.23 87.82,228.24 90.65,228.75 93.49,231.54 96.32,229.77 99.15,231.54 101.99,231.29 104.82,229.51 107.66,222.41 110.49,231.29 113.33,229.26 116.16,233.57 118.99,235.85 121.83,238.64 124.66,236.87 127.5,243.21 130.33,239.66 133.17,240.42 136,241.69 138.84,243.21 141.67,242.19 144.5,242.19 147.34,241.18 150.17,246.25 153.01,243.97 155.84,246.25 158.68,243.97 161.51,246.76 164.34,248.28 167.18,249.8 170.01,247.52 172.85,249.55 175.68,250.56 178.52,248.53 181.35,250.82 184.18,250.31 187.02,250.06 189.85,249.8 192.69,250.31 195.52,251.32 198.36,249.55 201.19,250.31 204.03,249.55 206.86,250.82 209.69,251.32 212.53,251.83 215.36,250.56 218.2,250.56 221.03,250.82 223.87,250.31 226.7,249.8 229.53,249.3 232.37,250.56 235.2,251.32 238.04,251.07 240.87,251.32 243.71,252.59 246.54,249.04 246.54,252.85 243.71,252.85 240.87,252.85 238.04,252.85 235.2,252.85 232.37,252.85 229.53,252.85 226.7,252.85 223.87,252.85 221.03,252.85 218.2,252.85 215.36,252.85 212.53,252.85 209.69,252.85 206.86,252.85 204.03,252.85 201.19,252.85 198.36,252.85 195.52,252.85 192.69,252.85 189.85,252.85 187.02,252.85 184.18,252.85 181.35,252.85 178.52,252.85 175.68,252.85 172.85,252.85 170.01,252.85 167.18,252.85 164.34,252.85 161.51,252.85 158.68,252.85 155.84,252.85 153.01,252.85 150.17,252.85 147.34,252.85 144.5,252.85 141.67,252.85 138.84,252.85 136,252.85 133.17,252.85 130.33,252.85 127.5,252.85 124.66,252.85 121.83,252.85 118.99,252.85 116.16,252.85 113.33,252.85 110.49,252.85 107.66,252.85 104.82,252.85 101.99,252.85 99.15,252.85 96.32,252.85 93.49,252.85 90.65,252.85 87.82,252.85 84.98,252.85 82.15,252.85 79.31,252.85 76.48,252.85 73.65,252.85 70.81,252.85 67.98,252.85 65.14,252.85 62.31,252.85 59.47,252.85 56.64,252.85 53.8,252.85 50.97,252.85 48.14,252.85 45.3,252.85 42.47,252.85 39.63,252.85 36.8,252.85 33.96,252.85 31.13,252.85 28.3,252.85 25.46,252.85 22.63,252.85 19.79,252.85 16.96,252.85" style="fill: url(#simple-C8FF0EFF); stroke: none" clip-path="url(#clip_5_48_377_01_258_02_39_16)" />
  <polyline points="16.96,251.58 19.79,252.59 22.63,252.85 25.46,252.85 28.3,252.85 31.13,252.09 33.96,251.58 36.8,250.82 39.63,250.56 42.47,247.01 45.3,246.51 48.14,243.72 50.97,246 53.8,241.94 56.64,242.19 59.47,237.38 62.31,239.91 65.14,236.87 67.98,235.85 70.81,235.6 73.65,236.36 76.48,232.81 79.31,234.84 82.15,231.8 84.98,227.23 87.82,228.24 90.65,228.75 93.49,231.54 96.32,229.77 99.15,231.54 101.99,231.29 104.82,229.51 107.66,222.41 110.49,231.29 113.33,229.26 116.16,233.57 118.99,235.85 121.83,238.64 124.66,236.87 127.5,243.21 130.33,239.66 133.17,240.42 136,241.69 138.84,243.21 141.67,242.19 144.5,242.19 147.34,241.18 150.17,246.25 153.01,243.97 155.84,246.25 158.68,243.97 161.51,246.76 164.34,248.28 167.18,249.8 170.01,247.52 172.85,249.55 175.68,250.56 178.52,248.53 181.35,250.82 184.18,250.31 187.02,250.06 189.85,249.8 192.69,250.31 195.52,251.32 198.36,249.55 201.19,250.31 204.03,249.55 206.86,250.82 209.69,251.32 212.53,251.83 215.36,250.56 218.2,250.56 221.03,250.82 223.87,250.31 226.7,249.8 229.53,249.3 232.37,250.56 235.2,251.32 238.04,251.07 240.87,251.32 243.71,252.59 246.54,249.04" style="stroke: none" clip-path="url(#clip_5_48_377_01_258_02_39_16)" />
  <polygon points="16.96,264.68 19.79,264.94 22.63,264.94 25.46,264.94 28.3,264.94 31.13,264.68 33.96,264.43 36.8,263.16 39.63,262.15 42.47,261.64 45.3,258.09 48.14,257.07 50.97,257.33 53.8,254.54 56.64,254.28 59.47,253.78 62.31,251.49 65.14,248.2 67.98,248.96 70.81,245.91 73.65,246.17 76.48,246.93 79.31,245.15 82.15,247.44 84.98,247.94 87.82,243.88 90.65,242.62 93.49,241.09 96.32,241.86 99.15,241.35 101.99,241.86 104.82,238.56 107.66,239.07 110.49,242.62 113.33,244.65 116.16,242.87 118.99,247.44 121.83,246.42 124.66,249.72 127.5,250.73 130.33,254.54 133.17,253.78 136,254.54 138.84,256.57 141.67,254.28 144.5,254.79 147.34,252.51 150.17,256.57 153.01,256.57 155.84,257.33 158.68,257.83 161.51,261.13 164.34,259.1 167.18,257.83 170.01,261.38 172.85,259.86 175.68,260.62 178.52,261.89 181.35,261.89 184.18,262.15 187.02,261.38 189.85,262.91 192.69,262.15 195.52,262.15 198.36,262.15 201.19,262.91 204.03,262.15 206.86,263.41 209.69,263.67 212.53,262.15 215.36,262.65 218.2,262.65 221.03,264.17 223.87,263.67 226.7,262.4 229.53,264.17 232.37,263.41 235.2,262.15 238.04,262.4 240.87,263.41 243.71,263.41 246.54,261.64 246.54,264.94 243.71,264.94 240.87,264.94 238.04,264.94 235.2,264.94 232.37,264.94 229.53,264.94 226.7,264.94 223.87,264.94 221.03,264.94 218.2,264.94 215.36,264.94 212.53,264.94 209.69,264.94 206.86,264.94 204.03,264.94 201.19,264.94 198.36,264.94 195.52,264.94 192.69,264.94 189.85,264.94 187.02,264.94 184.18,264.94 181.35,264.94 178.52,264.94 175.68,264.94 172.85,264.94 170.01,264.94 167.18,264.94 164.34,264.94 161.51,264.94 158.68,264.94 155.84,264.94 153.01,264.94 150.17,264.94 147.34,264.94 144.5,264.94 141.67,264.94 138.84,264.94 136,264.94 133.17,264.94 130.33,264.94 127.5,264.94 124.66,264.94 121.83,264.94 118.99,264.94 116.16,264.94 113.33,264.94 110.49,264.94 107.66,264.94 104.82,264.94 101.99,264.94 99.15,264.94 96.32,264.94 93.49,264.94 90.65,264.94 87.82,264.94 84.98,264.94 82.15,264.94 79.31,264.94 76.48,264.94 73.65,264.94 70.81,264.94 67.98,264.94 65.14,264.94 62.31,264.94 59.47,264.94 56.64,264.94 53.8,264.94 50.97,264.94 48.14,264.94 45.3,264.94 42.47,264.94 39.63,264.94 36.8,264.94 33.96,264.94 31.13,264.94 28.3,264.94 25.46,264.94 22.63,264.94 19.79,264.94 16.96,264.94" style="fill: url(#simple-C8FF0EFF); stroke: none" clip-path="url(#clip_5_48_377_01_258_02_39_16)" />
  <polyline points="16.96,264.68 19.79,264.94 22.63,264.94 25.46,264.94 28.3,264.94 31.13,264.68 33.96,264.43 36.8,263.16 39.63,262.15 42.47,261.64 45.3,258.09 48.14,257.07 50.97,257.33 53.8,254.54 56.64,254.28 59.47,253.78 62.31,251.49 65.14,248.2 67.98,248.96 70.81,245.91 73.65,246.17 76.48,246.93 79.31,245.15 82.15,247.44 84.98,247.94 87.82,243.88 90.65,242.62 93.49,241.09 96.32,241.86 99.15,241.35 101.99,241.86 104.82,238.56 107.66,239.07 110.49,242.62 113.33,244.65 116.16,242.87 118.99,247.44 121.83,246.42 124.66,249.72 127.5,250.73 130.33,254.54 133.17,253.78 136,254.54 138.84,256.57 141.67,254.28 144.5,254.79 147.34,252.51 150.17,256.57 153.01,256.57 155.84,257.33 158.68,257.83 161.51,261.13 164.34,259.1 167.18,257.83 170.01,261.38 172.85,259.86 175.68,260.62 178.52,261.89 181.35,261.89 184.18,262.15 187.02,261.38 189.85,262.91 192.69,262.15 195.52,262.15 198.36,262.15 201.19,262.91 204.03,262.15 206.86,263.41 209.69,263.67 212.53,262.15 215.36,262.65 218.2,262.65 221.03,264.17 223.87,263.67 226.7,262.4 229.53,264.17 232.37,263.41 235.2,262.15 238.04,262.4 240.87,263.41 243.71,263.41 246.54,261.64" style="stroke: none" clip-path="url(#clip_5_48_377_01_258_02_39_16)" />
  <polygon points="16.96,275.76 19.79,277.02 22.63,277.02 25.46,276.52 28.3,276.77 31.13,276.77 33.96,276.26 36.8,275 39.63,274.74 42.47,273.98 45.3,272.21 48.14,269.92 50.97,269.67 53.8,268.91 56.64,268.15 59.47,266.37 62.31,266.88 65.14,263.58 67.98,259.27 70.81,263.33 73.65,261.55 76.48,257.75 79.31,260.03 82.15,258 84.98,260.29 87.82,251.41 90.65,258 93.49,253.44 96.32,255.97 99.15,252.42 101.99,251.41 104.82,260.54 107.66,259.02 110.49,254.71 113.33,258 116.16,255.97 118.99,259.27 121.83,260.29 124.66,259.52 127.5,263.33 130.33,265.36 133.17,263.58 136,266.88 138.84,265.36 141.67,265.87 144.5,269.92 147.34,269.42 150.17,266.63 153.01,267.64 155.84,270.94 158.68,270.18 161.51,269.67 164.34,270.94 167.18,272.21 170.01,271.7 172.85,272.21 175.68,274.49 178.52,272.46 181.35,274.49 184.18,273.22 187.02,274.49 189.85,274.49 192.69,274.49 195.52,275.5 198.36,275 201.19,273.98 204.03,274.74 206.86,275 209.69,276.01 212.53,274.74 215.36,273.98 218.2,275 221.03,274.23 223.87,273.73 226.7,274.23 229.53,276.01 232.37,276.52 235.2,275.25 238.04,274.74 240.87,276.26 243.71,276.01 246.54,272.71 246.54,277.02 243.71,277.02 240.87,277.02 238.04,277.02 235.2,277.02 232.37,277.02 229.53,277.02 226.7,277.02 223.87,277.02 221.03,277.02 218.2,277.02 215.36,277.02 212.53,277.02 209.69,277.02 206.86,277.02 204.03,277.02 201.19,277.02 198.36,277.02 195.52,277.02 192.69,277.02 189.85,277.02 187.02,277.02 184.18,277.02 181.35,277.02 178.52,277.02 175.68,277.02 172.85,277.02 170.01,277.02 167.18,277.02 164.34,277.02 161.51,277.02 158.68,277.02 155.84,277.02 153.01,277.02 150.17,277.02 147.34,277.02 144.5,277.02 141.67,277.02 138.84,277.02 136,277.02 133.17,277.02 130.33,277.02 127.5,277.02 124.66,277.02 121.83,277.02 118.99,277.02 116.16,277.02 113.33,277.02 110.49,277.02 107.66,277.02 104.82,277.02 101.99,277.02 99.15,277.02 96.32,277.02 93.49,277.02 90.65,277.02 87.82,277.02 84.98,277.02 82.15,277.02 79.31,277.02 76.48,277.02 73.65,277.02 70.81,277.02 67.98,277.02 65.14,277.02 62.31,277.02 59.47,277.02 56.64,277.02 53.8,277.02 50.97,277.02 48.14,277.02 45.3,277.02 42.47,277.02 39.63,277.02 36.8,277.02 33.96,277.02 31.13,277.02 28.3,277.02 25.46,277.02 22.63,277.02 19.79,277.02 16.96,277.02" style="fill: url(#simple-C8FF0EFF); stroke: none" clip-path="url(#clip_5_48_377_01_258_02_39_16)" />
  <polyline points="16.96,275.76 19.79,277.02 22.63,277.02 25.46,276.52 28.3,276.77 31.13,276.77 33.96,276.26 36.8,275 39.63,274.74 42.47,273.98 45.3,272.21 48.14,269.92 50.97,269.67 53.8,268.91 56.64,268.15 59.47,266.37 62.31,266.88 65.14,263.58 67.98,259.27 70.81,263.33 73.65,261.55 76.48,257.75 79.31,260.03 82.15,258 84.98,260.29 87.82,251.41 90.65,258 93.49,253.44 96.32,255.97 99.15,252.42 101.99,251.41 104.82,260.54 107.66,259.02 110.49,254.71 113.33,258 116.16,255.97 118.99,259.27 121.83,260.29 124.66,259.52 127.5,263.33 130.33,265.36 133.17,263.58 136,266.88 138.84,265.36 141.67,265.87 144.5,269.92 147.34,269.42 150.17,266.63 153.01,267.64 155.84,270.94 158.68,270.18 161.51,269.67 164.34,270.94 167.18,272.21 170.01,271.7 172.85,272.21 175.68,274.49 178.52,272.46 181.35,274.49 184.18,273.22 187.02,274.49 189.85,274.49 192.69,274.49 195.52,275.5 198.36,275 201.19,273.98 204.03,274.74 206.86,275 209.69,276.01 212.53,274.74 215.36,273.98 218.2,275 221.03,274.23 223.87,273.73 226.7,274.23 229.53,276.01 232.37,276.52 235.2,275.25 238.04,274.74 240.87,276.26 243.71,276.01 246.54,272.71" style="stroke: none" clip-path="url(#clip_5_48_377_01_258_02_39_16)" />
  <polygon points="16.96,289.11 19.79,289.11 22.63,289.11 25.46,289.11 28.3,289.11 31.13,288.61 33.96,288.35 36.8,288.35 39.63,287.08 42.47,285.82 45.3,284.04 48.14,283.79 50.97,282.27 53.8,283.53 56.64,284.3 59.47,278.97 62.31,278.21 65.14,279.73 67.98,274.4 70.81,274.91 73.65,276.94 76.48,274.15 79.31,277.19 82.15,271.11 84.98,272.63 87.82,273.9 90.65,271.61 93.49,266.03 96.32,269.84 99.15,266.8 101.99,270.85 104.82,269.84 107.66,267.05 110.49,265.78 113.33,270.09 116.16,271.87 118.99,266.8 121.83,273.14 124.66,271.61 127.5,274.4 130.33,272.63 133.17,277.19 136,277.45 138.84,276.94 141.67,276.43 144.5,278.46 147.34,277.45 150.17,277.95 153.01,278.97 155.84,280.49 158.68,282.27 161.51,283.03 164.34,282.77 167.18,283.53 170.01,283.03 172.85,282.27 175.68,286.58 178.52,284.55 181.35,285.56 184.18,286.83 187.02,287.08 189.85,284.04 192.69,285.56 195.52,287.34 198.36,285.56 201.19,286.07 204.03,287.34 206.86,287.34 209.69,287.85 212.53,286.83 215.36,285.06 218.2,285.31 221.03,287.08 223.87,288.35 226.7,288.1 229.53,287.08 232.37,288.61 235.2,287.08 238.04,287.59 240.87,287.34 243.71,287.85 246.54,286.32 246.54,289.11 243.71,289.11 240.87,289.11 238.04,289.11 235.2,289.11 232.37,289.11 229.53,289.11 226.7,289.11 223.87,289.11 221.03,289.11 218.2,289.11 215.36,289.11 212.53,289.11 209.69,289.11 206.86,289.11 204.03,289.11 201.19,289.11 198.36,289.11 195.52,289.11 192.69,289.11 189.85,289.11 187.02,289.11 184.18,289.11 181.35,289.11 178.52,289.11 175.68,289.11 172.85,289.11 170.01,289.11 167.18,289.11 164.34,289.11 161.51,289.11 158.68,289.11 155.84,289.11 153.01,289.11 150.17,289.11 147.34,289.11 144.5,289.11 141.67,289.11 138.84,289.11 136,289.11 133.17,289.11 130.33,289.11 127.5,289.11 124.66,289.11 121.83,289.11 118.99,289.11 116.16,289.11 113.33,289.11 110.49,289.11 107.66,289.11 104.82,289.11 101.99,289.11 99.15,289.11 96.32,289.11 93.49,289.11 90.65,289.11 87.82,289.11 84.98,289.11 82.15,289.11 79.31,289.11 76.48,289.11 73.65,289.11 70.81,289.11 67.98,289.11 65.14,289.11 62.31,289.11 59.47,289.11 56.64,289.11 53.8,289.11 50.97,289.11 48.14,289.11 45.3,289.11 42.47,289.11 39.63,289.11 36.8,289.11 33.96,289.11 31.13,289.11 28.3,289.11 25.46,289.11 22.63,289.11 19.79,289.11 16.96,289.11" style="fill: url(#simple-C8FF0EFF); stroke: none" clip-path="url(#clip_5_48_377_01_258_02_39_16)" />
  <polyline points="16.96,289.11 19.79,289.11 22.63,289.11 25.46,289.11 28.3,289.11 31.13,288.61 33.96,288.35 36.8,288.35 39.63,287.08 42.47,285.82 45.3,284.04 48.14,283.79 50.97,282.27 53.8,283.53 56.64,284.3 59.47,278.97 62.31,278.21 65.14,279.73 67.98,274.4 70.81,274.91 73.65,276.94 76.48,274.15 79.31,277.19 82.15,271.11 84.98,272.63 87.82,273.9 90.65,271.61 93.49,266.03 96.32,269.84 99.15,266.8 101.99,270.85 104.82,269.84 107.66,267.05 110.49,265.78 113.33,270.09 116.16,271.87 118.99,266.8 121.83,273.14 124.66,271.61 127.5,274.4 130.33,272.63 133.17,277.19 136,277.45 138.84,276.94 141.67,276.43 144.5,278.46 147.34,277.45 150.17,277.95 153.01,278.97 155.84,280.49 158.68,282.27 161.51,283.03 164.34,282.77 167.18,283.53 170.01,283.03 172.85,282.27 175.68,286.58 178.52,284.55 181.35,285.56 184.18,286.83 187.02,287.08 189.85,284.04 192.69,285.56 195.52,287.34 198.36,285.56 201.19,286.07 204.03,287.34 206.86,287.34 209.69,287.85 212.53,286.83 215.36,285.06 218.2,285.31 221.03,287.08 223.87,288.35 226.7,288.1 229.53,287.08 232.37,288.61 235.2,287.08 238.04,287.59 240.87,287.34 243.71,287.85 246.54,286.32" style="stroke: none" clip-path="url(#clip_5_48_377_01_258_02_39_16)" />
  <polygon points="16.96,300.44 19.79,301.2 22.63,301.2 25.46,301.2 28.3,300.95 31.13,300.95 33.96,300.95 36.8,300.19 39.63,299.94 42.47,297.91 45.3,297.4 48.14,295.37 50.97,295.12 53.8,295.62 56.64,294.1 59.47,293.59 62.31,292.83 65.14,290.3 67.98,290.55 70.81,287.25 73.65,290.04 76.48,284.97 79.31,287.51 82.15,287 84.98,282.18 87.82,286.75 90.65,280.91 93.49,286.49 96.32,280.41 99.15,283.45 101.99,280.66 104.82,282.94 107.66,278.38 110.49,277.87 113.33,277.36 116.16,280.91 118.99,279.14 121.83,278.88 124.66,284.46 127.5,288.27 130.33,288.01 133.17,288.27 136,286.49 138.84,288.27 141.67,287.51 144.5,291.82 147.34,289.79 150.17,290.55 153.01,292.33 155.84,294.1 158.68,294.36 161.51,295.37 164.34,293.85 167.18,294.86 170.01,296.89 172.85,297.4 175.68,296.64 178.52,298.41 181.35,297.91 184.18,298.16 187.02,298.67 189.85,298.16 192.69,298.67 195.52,299.17 198.36,297.65 201.19,298.67 204.03,299.68 206.86,298.92 209.69,299.68 212.53,299.17 215.36,299.43 218.2,298.16 221.03,299.68 223.87,299.94 226.7,299.94 229.53,299.68 232.37,300.19 235.2,299.43 238.04,300.19 240.87,299.94 243.71,300.44 246.54,297.91 246.54,301.2 243.71,301.2 240.87,301.2 238.04,301.2 235.2,301.2 232.37,301.2 229.53,301.2 226.7,301.2 223.87,301.2 221.03,301.2 218.2,301.2 215.36,301.2 212.53,301.2 209.69,301.2 206.86,301.2 204.03,301.2 201.19,301.2 198.36,301.2 195.52,301.2 192.69,301.2 189.85,301.2 187.02,301.2 184.18,301.2 181.35,301.2 178.52,301.2 175.68,301.2 172.85,301.2 170.01,301.2 167.18,301.2 164.34,301.2 161.51,301.2 158.68,301.2 155.84,301.2 153.01,301.2 150.17,301.2 147.34,301.2 144.5,301.2 141.67,301.2 138.84,301.2 136,301.2 133.17,301.2 130.33,301.2 127.5,301.2 124.66,301.2 121.83,301.2 118.99,301.2 116.16,301.2 113.33,301.2 110.49,301.2 107.66,301.2 104.82,301.2 101.99,301.2 99.15,301.2 96.32,301.2 93.49,301.2 90.65,301.2 87.82,301.2 84.98,301.2 82.15,301.2 79.31,301.2 76.48,301.2 73.65,301.2 70.81,301.2 67.98,301.2 65.14,301.2 62.31,301.2 59.47,301.2 56.64,301.2 53.8,301.2 50.97,301.2 48.14,301.2 45.3,301.2 42.47,301.2 39.63,301.2 36.8,301.2 33.96,301.2 31.13,301.2 28.3,301.2 25.46,301.2 22.63,301.2 19.79,301.2 16.96,301.2" style="fill: url(#simple-C8FF0EFF); stroke: none" clip-path="url(#clip_5_48_377_01_258_02_39_16)" />
  <polyline points="16.96,300.44 19.79,301.2 22.63,301.2 25.46,301.2 28.3,300.95 31.13,300.95 33.96,300.95 36.8,300.19 39.63,299.94 42.47,297.91 45.3,297.4 48.14,295.37 50.97,295.12 53.8,295.62 56.64,294.1 59.47,293.59 62.31,292.83 65.14,290.3 67.98,290.55 70.81,287.25 73.65,290.04 76.48,284.97 79.31,287.51 82.15,287 84.98,282.18 87.82,286.75 90.65,280.91 93.49,286.49 96.32,280.41 99.15,283.45 101.99,280.66 104.82,282.94 107.66,278.38 110.49,277.87 113.33,277.36 116.16,280.91 118.99,279.14 121.83,278.88 124.66,284.46 127.5,288.27 130.33,288.01 133.17,288.27 136,286.49 138.84,288.27 141.67,287.51 144.5,291.82 147.34,289.79 150.17,290.55 153.01,292.33 155.84,294.1 158.68,294.36 161.51,295.37 164.34,293.85 167.18,294.86 170.01,296.89 172.85,297.4 175.68,296.64 178.52,298.41 181.35,297.91 184.18,298.16 187.02,298.67 189.85,298.16 192.69,298.67 195.52,299.17 198.36,297.65 201.19,298.67 204.03,299.68 206.86,298.92 209.69,299.68 212.53,299.17 215.36,299.43 218.2,298.16 221.03,299.68 223.87,299.94 226.7,299.94 229.53,299.68 232.37,300.19 235.2,299.43 238.04,300.19 240.87,299.94 243.71,300.44 246.54,297.91" style="stroke: none" clip-path="url(#clip_5_48_377_01_258_02_39_16)" />
  <polygon points="16.96,312.79 19.79,313.29 22.63,313.29 25.46,313.29 28.3,313.29 31.13,312.79 33.96,312.02 36.8,311.01 39.63,312.28 42.47,310.25 45.3,308.47 48.14,306.7 50.97,306.19 53.8,307.97 56.64,306.95 59.47,302.64 62.31,302.64 65.14,301.88 67.98,297.57 70.81,298.08 73.65,297.57 76.48,297.57 79.31,296.05 82.15,291.99 84.98,295.29 87.82,291.48 90.65,293.76 93.49,291.73 96.32,290.97 99.15,292.5 101.99,287.42 104.82,291.23 107.66,287.42 110.49,287.93 113.33,291.73 116.16,290.21 118.99,292.24 121.83,292.75 124.66,293 127.5,296.05 130.33,295.79 133.17,299.85 136,294.27 138.84,301.88 141.67,301.63 144.5,300.1 147.34,302.13 150.17,304.16 153.01,302.89 155.84,305.43 158.68,304.92 161.51,305.68 164.34,306.44 167.18,307.21 170.01,306.95 172.85,307.97 175.68,308.73 178.52,309.23 181.35,310.76 184.18,310.5 187.02,310.25 189.85,310.5 192.69,310.5 195.52,311.26 198.36,310.25 201.19,308.73 204.03,309.74 206.86,311.26 209.69,310 212.53,311.52 215.36,309.49 218.2,310.25 221.03,313.04 223.87,311.77 226.7,311.52 229.53,310.76 232.37,312.79 235.2,312.28 238.04,312.53 240.87,312.79 243.71,312.02 246.54,308.47 246.54,313.29 243.71,313.29 240.87,313.29 238.04,313.29 235.2,313.29 232.37,313.29 229.53,313.29 226.7,313.29 223.87,313.29 221.03,313.29 218.2,313.29 215.36,313.29 212.53,313.29 209.69,313.29 206.86,313.29 204.03,313.29 201.19,313.29 198.36,313.29 195.52,313.29 192.69,313.29 189.85,313.29 187.02,313.29 184.18,313.29 181.35,313.29 178.52,313.29 175.68,313.29 172.85,313.29 170.01,313.29 167.18,313.29 164.34,313.29 161.51,313.29 158.68,313.29 155.84,313.29 153.01,313.29 150.17,313.29 147.34,313.29 144.5,313.29 141.67,313.29 138.84,313.29 136,313.29 133.17,313.29 130.33,313.29 127.5,313.29 124.66,313.29 121.83,313.29 118.99,313.29 116.16,313.29 113.33,313.29 110.49,313.29 107.66,313.29 104.82,313.29 101.99,313.29 99.15,313.29 96.32,313.29 93.49,313.29 90.65,313.29 87.82,313.29 84.98,313.29 82.15,313.29 79.31,313.29 76.48,313.29 73.65,313.29 70.81,313.29 67.98,313.29 65.14,313.29 62.31,313.29 59.47,313.29 56.64,313.29 53.8,313.29 50.97,313.29 48.14,313.29 45.3,313.29 42.47,313.29 39.63,313.29 36.8,313.29 33.96,313.29 31.13,313.29 28.3,313.29 25.46,313.29 22.63,313.29 19.79,313.29 16.96,313.29" style="fill: url(#simple-C8FF0EFF); stroke: none" clip-path="url(#clip_5_48_377_01_258_02_39_16)" />
  <polyline points="16.96,312.79 19.79,313.29 22.63,313.29 25.46,313.29 28.3,313.29 31.13,312.79 33.96,312.02 36.8,311.01 39.63,312.28 42.47,310.25 45.3,308.47 48.14,306.7 50.97,306.19 53.8,307.97 56.64,306.95 59.47,302.64 62.31,302.64 65.14,301.88 67.98,297.57 70.81,298.08 73.65,297.57 76.48,297.57 79.31,296.05 82.15,291.99 84.98,295.29 87.82,291.48 90.65,293.76 93.49,291.73 96.32,290.97 99.15,292.5 101.99,287.42 104.82,291.23 107.66,287.42 110.49,287.93 113.33,291.73 116.16,290.21 118.99,292.24 121.83,292.75 124.66,293 127.5,296.05 130.33,295.79 133.17,299.85 136,294.27 138.84,301.88 141.67,301.63 144.5,300.1 147.34,302.13 150.17,304.16 153.01,302.89 155.84,305.43 158.68,304.92 161.51,305.68 164.34,306.44 167.18,307.21 170.01,306.95 172.85,307.97 175.68,308.73 178.52,309.23 181.35,310.76 184.18,310.5 187.02,310.25 189.85,310.5 192.69,310.5 195.52,311.26 198.36,310.25 201.19,308.73 204.03,309.74 206.86,311.26 209.69,310 212.53,311.52 215.36,309.49 218.2,310.25 221.03,313.04 223.87,311.77 226.7,311.52 229.53,310.76 232.37,312.79 235.2,312.28 238.04,312.53 240.87,312.79 243.71,312.02 246.54,308.47" style="stroke: none" clip-path="url(#clip_5_48_377_01_258_02_39_16)" />
  <polygon points="16.96,324.87 19.79,325.13 22.63,325.38 25.46,325.38 28.3,325.13 31.13,325.13 33.96,324.37 36.8,324.11 39.63,324.37 42.47,321.83 45.3,321.83 48.14,319.04 50.97,319.29 53.8,318.79 56.64,316.76 59.47,315.24 62.31,313.46 65.14,312.19 67.98,310.42 70.81,314.48 73.65,308.9 76.48,307.88 79.31,310.16 82.15,311.43 84.98,299.77 87.82,306.36 90.65,298.5 93.49,305.35 96.32,299.77 99.15,299.51 101.99,296.98 104.82,295.71 107.66,297.48 110.49,297.74 113.33,295.2 116.16,299.26 118.99,295.71 121.83,300.02 124.66,303.32 127.5,304.08 130.33,305.85 133.17,307.88 136,308.9 138.84,306.61 141.67,308.14 144.5,312.95 147.34,309.4 150.17,312.19 153.01,316.51 155.84,316 158.68,316.25 161.51,315.24 164.34,316.25 167.18,318.79 170.01,318.53 172.85,318.53 175.68,322.59 178.52,317.77 181.35,316.76 184.18,322.08 187.02,320.56 189.85,321.07 192.69,322.08 195.52,322.08 198.36,322.85 201.19,323.35 204.03,322.59 206.86,322.85 209.69,322.85 212.53,323.86 215.36,323.1 218.2,322.08 221.03,323.86 223.87,323.35 226.7,323.1 229.53,324.11 232.37,323.61 235.2,323.86 238.04,324.62 240.87,323.61 243.71,324.87 246.54,320.82 246.54,325.38 243.71,325.38 240.87,325.38 238.04,325.38 235.2,325.38 232.37,325.38 229.53,325.38 226.7,325.38 223.87,325.38 221.03,325.38 218.2,325.38 215.36,325.38 212.53,325.38 209.69,325.38 206.86,325.38 204.03,325.38 201.19,325.38 198.36,325.38 195.52,325.38 192.69,325.38 189.85,325.38 187.02,325.38 184.18,325.38 181.35,325.38 178.52,325.38 175.68,325.38 172.85,325.38 170.01,325.38 167.18,325.38 164.34,325.38 161.51,325.38 158.68,325.38 155.84,325.38 153.01,325.38 150.17,325.38 147.34,325.38 144.5,325.38 141.67,325.38 138.84,325.38 136,325.38 133.17,325.38 130.33,325.38 127.5,325.38 124.66,325.38 121.83,325.38 118.99,325.38 116.16,325.38 113.33,325.38 110.49,325.38 107.66,325.38 104.82,325.38 101.99,325.38 99.15,325.38 96.32,325.38 93.49,325.38 90.65,325.38 87.82,325.38 84.98,325.38 82.15,325.38 79.31,325.38 76.48,325.38 73.65,325.38 70.81,325.38 67.98,325.38 65.14,325.38 62.31,325.38 59.47,325.38 56.64,325.38 53.8,325.38 50.97,325.38 48.14,325.38 45.3,325.38 42.47,325.38 39.63,325.38 36.8,325.38 33.96,325.38 31.13,325.38 28.3,325.38 25.46,325.38 22.63,325.38 19.79,325.38 16.96,325.38" style="fill: url(#simple-C8FF0EFF); stroke: none" clip-path="url(#clip_5_48_377_01_258_02_39_16)" />
  <polyline points="16.96,324.87 19.79,325.13 22.63,325.38 25.46,325.38 28.3,325.13 31.13,325.13 33.96,324.37 36.8,324.11 39.63,324.37 42.47,321.83 45.3,321.83 48.14,319.04 50.97,319.29 53.8,318.79 56.64,316.76 59.47,315.24 62.31,313.46 65.14,312.19 67.98,310.42 70.81,314.48 73.65,308.9 76.48,307.88 79.31,310.16 82.15,311.43 84.98,299.77 87.82,306.36 90.65,298.5 93.49,305.35 96.32,299.77 99.15,299.51 101.99,296.98 104.82,295.71 107.66,297.48 110.49,297.74 113.33,295.2 116.16,299.26 118.99,295.71 121.83,300.02 124.66,303.32 127.5,304.08 130.33,305.85 133.17,307.88 136,308.9 138.84,306.61 141.67,308.14 144.5,312.95 147.34,309.4 150.17,312.19 153.01,316.51 155.84,316 158.68,316.25 161.51,315.24 164.34,316.25 167.18,318.79 170.01,318.53 172.85,318.53 175.68,322.59 178.52,317.77 181.35,316.76 184.18,322.08 187.02,320.56 189.85,321.07 192.69,322.08 195.52,322.08 198.36,322.85 201.19,323.35 204.03,322.59 206.86,322.85 209.69,322.85 212.53,323.86 215.36,323.1 218.2,322.08 221.03,323.86 223.87,323.35 226.7,323.1 229.53,324.11 232.37,323.61 235.2,323.86 238.04,324.62 240.87,323.61 243.71,324.87 246.54,320.82" style="stroke: none" clip-path="url(#clip_5_48_377_01_258_02_39_16)" />
  <polygon points="16.96,337.22 19.79,337.47 22.63,337.47 25.46,337.47 28.3,337.22 31.13,337.22 33.96,336.46 36.8,335.7 39.63,335.44 42.47,334.17 45.3,332.65 48.14,330.37 50.97,332.91 53.8,327.58 56.64,327.83 59.47,326.82 62.31,324.54 65.14,327.33 67.98,325.04 70.81,323.27 73.65,321.75 76.48,322.25 79.31,320.73 82.15,310.08 84.98,314.14 87.82,309.57 90.65,309.07 93.49,308.56 96.32,312.36 99.15,307.54 101.99,308.05 104.82,309.07 107.66,305.26 110.49,305.51 113.33,311.86 116.16,306.78 118.99,307.54 121.83,314.9 124.66,311.09 127.5,316.17 130.33,311.35 133.17,311.09 136,311.86 138.84,320.48 141.67,319.97 144.5,321.49 147.34,324.03 150.17,324.03 153.01,326.57 155.84,325.3 158.68,326.06 161.51,325.3 164.34,328.09 167.18,331.89 170.01,328.59 172.85,330.37 175.68,332.91 178.52,332.15 181.35,331.13 184.18,331.64 187.02,334.93 189.85,333.92 192.69,332.65 195.52,334.17 198.36,334.68 201.19,334.43 204.03,335.44 206.86,333.92 209.69,334.68 212.53,334.93 215.36,335.7 218.2,334.68 221.03,336.2 223.87,335.7 226.7,335.95 229.53,335.44 232.37,336.71 235.2,334.17 238.04,335.95 240.87,336.2 243.71,336.2 246.54,333.41 246.54,337.47 243.71,337.47 240.87,337.47 238.04,337.47 235.2,337.47 232.37,337.47 229.53,337.47 226.7,337.47 223.87,337.47 221.03,337.47 218.2,337.47 215.36,337.47 212.53,337.47 209.69,337.47 206.86,337.47 204.03,337.47 201.19,337.47 198.36,337.47 195.52,337.47 192.69,337.47 189.85,337.47 187.02,337.47 184.18,337.47 181.35,337.47 178.52,337.47 175.68,337.47 172.85,337.47 170.01,337.47 167.18,337.47 164.34,337.47 161.51,337.47 158.68,337.47 155.84,337.47 153.01,337.47 150.17,337.47 147.34,337.47 144.5,337.47 141.67,337.47 138.84,337.47 136,337.47 133.17,337.47 130.33,337.47 127.5,337.47 124.66,337.47 121.83,337.47 118.99,337.47 116.16,337.47 113.33,337.47 110.49,337.47 107.66,337.47 104.82,337.47 101.99,337.47 99.15,337.47 96.32,337.47 93.49,337.47 90.65,337.47 87.82,337.47 84.98,337.47 82.15,337.47 79.31,337.47 76.48,337.47 73.65,337.47 70.81,337.47 67.98,337.47 65.14,337.47 62.31,337.47 59.47,337.47 56.64,337.47 53.8,337.47 50.97,337.47 48.14,337.47 45.3,337.47 42.47,337.47 39.63,337.47 36.8,337.47 33.96,337.47 31.13,337.47 28.3,337.47 25.46,337.47 22.63,337.47 19.79,337.47 16.96,337.47" style="fill: url(#simple-C8FF0EFF); stroke: none" clip-path="url(#clip_5_48_377_01_258_02_39_16)" />
  <polyline points="16.96,337.22 19.79,337.47 22.63,337.47 25.46,337.47 28.3,337.22 31.13,337.22 33.96,336.46 36.8,335.7 39.63,335.44 42.47,334.17 45.3,332.65 48.14,330.37 50.97,332.91 53.8,327.58 56.64,327.83 59.47,326.82 62.31,324.54 65.14,327.33 67.98,325.04 70.81,323.27 73.65,321.75 76.48,322.25 79.31,320.73 82.15,310.08 84.98,314.14 87.82,309.57 90.65,309.07 93.49,308.56 96.32,312.36 99.15,307.54 101.99,308.05 104.82,309.07 107.66,305.26 110.49,305.51 113.33,311.86 116.16,306.78 118.99,307.54 121.83,314.9 124.66,311.09 127.5,316.17 130.33,311.35 133.17,311.09 136,311.86 138.84,320.48 141.67,319.97 144.5,321.49 147.34,324.03 150.17,324.03 153.01,326.57 155.84,325.3 158.68,326.06 161.51,325.3 164.34,328.09 167.18,331.89 170.01,328.59 172.85,330.37 175.68,332.91 178.52,332.15 181.35,331.13 184.18,331.64 187.02,334.93 189.85,333.92 192.69,332.65 195.52,334.17 198.36,334.68 201.19,334.43 204.03,335.44 206.86,333.92 209.69,334.68 212.53,334.93 215.36,335.7 218.2,334.68 221.03,336.2 223.87,335.7 226.7,335.95 229.53,335.44 232.37,336.71 235.2,334.17 238.04,335.95 240.87,336.2 243.71,336.2 246.54,333.41" style="stroke: none" clip-path="url(#clip_5_48_377_01_258_02_39_16)" />
  <polygon points="16.96,349.31 19.79,349.56 22.63,349.56 25.46,349.56 28.3,349.56 31.13,349.31 33.96,348.29 36.8,348.29 39.63,348.55 42.47,346.01 45.3,345.5 48.14,344.23 50.97,343.22 53.8,339.67 56.64,340.94 59.47,339.16 62.31,336.37 65.14,336.12 67.98,336.63 70.81,331.05 73.65,330.54 76.48,329.52 79.31,330.54 82.15,325.97 84.98,324.71 87.82,327.5 90.65,319.13 93.49,321.66 96.32,324.71 99.15,325.21 101.99,320.9 104.82,321.41 107.66,320.14 110.49,319.89 113.33,316.84 116.16,313.29 118.99,321.15 121.83,315.07 124.66,320.9 127.5,327.5 130.33,324.96 133.17,323.69 136,326.48 138.84,331.81 141.67,334.6 144.5,332.06 147.34,331.05 150.17,335.86 153.01,336.88 155.84,340.18 158.68,338.91 161.51,339.67 164.34,341.7 167.18,339.16 170.01,342.46 172.85,344.74 175.68,344.23 178.52,345.76 181.35,342.71 184.18,342.46 187.02,346.01 189.85,345 192.69,346.77 195.52,345.5 198.36,348.29 201.19,347.02 204.03,347.28 206.86,348.04 209.69,346.77 212.53,348.29 215.36,347.79 218.2,347.28 221.03,348.04 223.87,347.28 226.7,347.28 229.53,347.53 232.37,347.79 235.2,347.28 238.04,347.28 240.87,348.55 243.71,349.05 246.54,343.47 246.54,349.56 243.71,349.56 240.87,349.56 238.04,349.56 235.2,349.56 232.37,349.56 229.53,349.56 226.7,349.56 223.87,349.56 221.03,349.56 218.2,349.56 215.36,349.56 212.53,349.56 209.69,349.56 206.86,349.56 204.03,349.56 201.19,349.56 198.36,349.56 195.52,349.56 192.69,349.56 189.85,349.56 187.02,349.56 184.18,349.56 181.35,349.56 178.52,349.56 175.68,349.56 172.85,349.56 170.01,349.56 167.18,349.56 164.34,349.56 161.51,349.56 158.68,349.56 155.84,349.56 153.01,349.56 150.17,349.56 147.34,349.56 144.5,349.56 141.67,349.56 138.84,349.56 136,349.56 133.17,349.56 130.33,349.56 127.5,349.56 124.66,349.56 121.83,349.56 118.99,349.56 116.16,349.56 113.33,349.56 110.49,349.56 107.66,349.56 104.82,349.56 101.99,349.56 99.15,349.56 96.32,349.56 93.49,349.56 90.65,349.56 87.82,349.56 84.98,349.56 82.15,349.56 79.31,349.56 76.48,349.56 73.65,349.56 70.81,349.56 67.98,349.56 65.14,349.56 62.31,349.56 59.47,349.56 56.64,349.56 53.8,349.56 50.97,349.56 48.14,349.56 45.3,349.56 42.47,349.56 39.63,349.56 36.8,349.56 33.96,349.56 31.13,349.56 28.3,349.56 25.46,349.56 22.63,349.56 19.79,349.56 16.96,349.56" style="fill: url(#simple-C8FF0EFF); stroke: none" clip-path="url(#clip_5_48_377_01_258_02_39_16)" />
  <polyline points="16.96,349.31 19.79,349.56 22.63,349.56 25.46,349.56 28.3,349.56 31.13,349.31 33.96,348.29 36.8,348.29 39.63,348.55 42.47,346.01 45.3,345.5 48.14,344.23 50.97,343.22 53.8,339.67 56.64,340.94 59.47,339.16 62.31,336.37 65.14,336.12 67.98,336.63 70.81,331.05 73.65,330.54 76.48,329.52 79.31,330.54 82.15,325.97 84.98,324.71 87.82,327.5 90.65,319.13 93.49,321.66 96.32,324.71 99.15,325.21 101.99,320.9 104.82,321.41 107.66,320.14 110.49,319.89 113.33,316.84 116.16,313.29 118.99,321.15 121.83,315.07 124.66,320.9 127.5,327.5 130.33,324.96 133.17,323.69 136,326.48 138.84,331.81 141.67,334.6 144.5,332.06 147.34,331.05 150.17,335.86 153.01,336.88 155.84,340.18 158.68,338.91 161.51,339.67 164.34,341.7 167.18,339.16 170.01,342.46 172.85,344.74 175.68,344.23 178.52,345.76 181.35,342.71 184.18,342.46 187.02,346.01 189.85,345 192.69,346.77 195.52,345.5 198.36,348.29 201.19,347.02 204.03,347.28 206.86,348.04 209.69,346.77 212.53,348.29 215.36,347.79 218.2,347.28 221.03,348.04 223.87,347.28 226.7,347.28 229.53,347.53 232.37,347.79 235.2,347.28 238.04,347.28 240.87,348.55 243.71,349.05 246.54,343.47" style="stroke: none" clip-path="url(#clip_5_48_377_01_258_02_39_16)" />
  <polygon points="16.96,361.4 19.79,361.65 22.63,361.65 25.46,361.65 28.3,361.65 31.13,361.14 33.96,361.14 36.8,359.37 39.63,359.62 42.47,358.1 45.3,357.85 48.14,355.31 50.97,355.06 53.8,356.32 56.64,352.77 59.47,353.03 62.31,351 65.14,349.22 67.98,347.95 70.81,346.18 73.65,346.69 76.48,346.69 79.31,341.61 82.15,339.84 84.98,341.61 87.82,340.85 90.65,334.51 93.49,333.5 96.32,331.47 99.15,329.44 101.99,336.54 104.82,336.03 107.66,330.2 110.49,335.02 113.33,332.23 116.16,329.69 118.99,331.98 121.83,334 124.66,332.74 127.5,332.74 130.33,332.23 133.17,337.05 136,336.79 138.84,340.35 141.67,339.33 144.5,343.39 147.34,346.43 150.17,347.7 153.01,349.98 155.84,348.71 158.68,351 161.51,351 164.34,352.77 167.18,351.25 170.01,352.52 172.85,354.55 175.68,353.53 178.52,354.04 181.35,356.58 184.18,356.58 187.02,356.07 189.85,357.59 192.69,357.59 195.52,358.35 198.36,358.1 201.19,359.87 204.03,359.11 206.86,358.61 209.69,360.13 212.53,357.85 215.36,359.11 218.2,359.62 221.03,360.38 223.87,359.11 226.7,359.87 229.53,359.87 232.37,358.61 235.2,360.13 238.04,361.14 240.87,360.64 243.71,360.38 246.54,355.31 246.54,361.65 243.71,361.65 240.87,361.65 238.04,361.65 235.2,361.65 232.37,361.65 229.53,361.65 226.7,361.65 223.87,361.65 221.03,361.65 218.2,361.65 215.36,361.65 212.53,361.65 209.69,361.65 206.86,361.65 204.03,361.65 201.19,361.65 198.36,361.65 195.52,361.65 192.69,361.65 189.85,361.65 187.02,361.65 184.18,361.65 181.35,361.65 178.52,361.65 175.68,361.65 172.85,361.65 170.01,361.65 167.18,361.65 164.34,361.65 161.51,361.65 158.68,361.65 155.84,361.65 153.01,361.65 150.17,361.65 147.34,361.65 144.5,361.65 141.67,361.65 138.84,361.65 136,361.65 133.17,361.65 130.33,361.65 127.5,361.65 124.66,361.65 121.83,361.65 118.99,361.65 116.16,361.65 113.33,361.65 110.49,361.65 107.66,361.65 104.82,361.65 101.99,361.65 99.15,361.65 96.32,361.65 93.49,361.65 90.65,361.65 87.82,361.65 84.98,361.65 82.15,361.65 79.31,361.65 76.48,361.65 73.65,361.65 70.81,361.65 67.98,361.65 65.14,361.65 62.31,361.65 59.47,361.65 56.64,361.65 53.8,361.65 50.97,361.65 48.14,361.65 45.3,361.65 42.47,361.65 39.63,361.65 36.8,361.65 33.96,361.65 31.13,361.65 28.3,361.65 25.46,361.65 22.63,361.65 19.79,361.65 16.96,361.65" style="fill: url(#simple-C8FF0EFF); stroke: none" clip-path="url(#clip_5_48_377_01_258_02_39_16)" />
  <polyline points="16.96,361.4 19.79,361.65 22.63,361.65 25.46,361.65 28.3,361.65 31.13,361.14 33.96,361.14 36.8,359.37 39.63,359.62 42.47,358.1 45.3,357.85 48.14,355.31 50.97,355.06 53.8,356.32 56.64,352.77 59.47,353.03 62.31,351 65.14,349.22 67.98,347.95 70.81,346.18 73.65,346.69 76.48,346.69 79.31,341.61 82.15,339.84 84.98,341.61 87.82,340.85 90.65,334.51 93.49,333.5 96.32,331.47 99.15,329.44 101.99,336.54 104.82,336.03 107.66,330.2 110.49,335.02 113.33,332.23 116.16,329.69 118.99,331.98 121.83,334 124.66,332.74 127.5,332.74 130.33,332.23 133.17,337.05 136,336.79 138.84,340.35 141.67,339.33 144.5,343.39 147.34,346.43 150.17,347.7 153.01,349.98 155.84,348.71 158.68,351 161.51,351 164.34,352.77 167.18,351.25 170.01,352.52 172.85,354.55 175.68,353.53 178.52,354.04 181.35,356.58 184.18,356.58 187.02,356.07 189.85,357.59 192.69,357.59 195.52,358.35 198.36,358.1 201.19,359.87 204.03,359.11 206.86,358.61 209.69,360.13 212.53,357.85 215.36,359.11 218.2,359.62 221.03,360.38 223.87,359.11 226.7,359.87 229.53,359.87 232.37,358.61 235.2,360.13 238.04,361.14 240.87,360.64 243.71,360.38 246.54,355.31" style="stroke: none" clip-path="url(#clip_5_48_377_01_258_02_39_16)" />
  <g clip-path="url(#clip_0_432_288_0)">
    <text textLength="19.02px" style="font-size: 8.8px; font-family: Georgia; fill: #4D4D4D" x="262.95" y="74.66" lengthAdjust="spacingAndGlyphs">
      1993
    </text>
  </g>
  <g clip-path="url(#clip_0_432_288_0)">
    <text textLength="19.14px" style="font-size: 8.8px; font-family: Georgia; fill: #4D4D4D" x="262.95" y="86.75" lengthAdjust="spacingAndGlyphs">
      1994
    </text>
  </g>
  <g clip-path="url(#clip_0_432_288_0)">
    <text textLength="18.81px" style="font-size: 8.8px; font-family: Georgia; fill: #4D4D4D" x="262.95" y="98.84" lengthAdjust="spacingAndGlyphs">
      1995
    </text>
  </g>
  <g clip-path="url(#clip_0_432_288_0)">
    <text textLength="19.15px" style="font-size: 8.8px; font-family: Georgia; fill: #4D4D4D" x="262.95" y="110.93" lengthAdjust="spacingAndGlyphs">
      1996
    </text>
  </g>
  <g clip-path="url(#clip_0_432_288_0)">
    <text textLength="18.58px" style="font-size: 8.8px; font-family: Georgia; fill: #4D4D4D" x="262.95" y="123.02" lengthAdjust="spacingAndGlyphs">
      1997
    </text>
  </g>
  <g clip-path="url(#clip_0_432_288_0)">
    <text textLength="19.42px" style="font-size: 8.8px; font-family: Georgia; fill: #4D4D4D" x="262.95" y="135.11" lengthAdjust="spacingAndGlyphs">
      1998
    </text>
  </g>
  <g clip-path="url(#clip_0_432_288_0)">
    <text textLength="19.15px" style="font-size: 8.8px; font-family: Georgia; fill: #4D4D4D" x="262.95" y="147.2" lengthAdjust="spacingAndGlyphs">
      1999
    </text>
  </g>
  <g clip-path="url(#clip_0_432_288_0)">
    <text textLength="21.6px" style="font-size: 8.8px; font-family: Georgia; fill: #4D4D4D" x="262.95" y="159.29" lengthAdjust="spacingAndGlyphs">
      2000
    </text>
  </g>
  <g clip-path="url(#clip_0_432_288_0)">
    <text textLength="19.94px" style="font-size: 8.8px; font-family: Georgia; fill: #4D4D4D" x="262.95" y="171.38" lengthAdjust="spacingAndGlyphs">
      2001
    </text>
  </g>
  <g clip-path="url(#clip_0_432_288_0)">
    <text textLength="21.1px" style="font-size: 8.8px; font-family: Georgia; fill: #4D4D4D" x="262.95" y="183.47" lengthAdjust="spacingAndGlyphs">
      2002
    </text>
  </g>
  <g clip-path="url(#clip_0_432_288_0)">
    <text textLength="21.04px" style="font-size: 8.8px; font-family: Georgia; fill: #4D4D4D" x="262.95" y="195.56" lengthAdjust="spacingAndGlyphs">
      2003
    </text>
  </g>
  <g clip-path="url(#clip_0_432_288_0)">
    <text textLength="21.16px" style="font-size: 8.8px; font-family: Georgia; fill: #4D4D4D" x="262.95" y="207.65" lengthAdjust="spacingAndGlyphs">
      2004
    </text>
  </g>
  <g clip-path="url(#clip_0_432_288_0)">
    <text textLength="20.83px" style="font-size: 8.8px; font-family: Georgia; fill: #4D4D4D" x="262.95" y="219.73" lengthAdjust="spacingAndGlyphs">
      2005
    </text>
  </g>
  <g clip-path="url(#clip_0_432_288_0)">
    <text textLength="21.17px" style="font-size: 8.8px; font-family: Georgia; fill: #4D4D4D" x="262.95" y="231.82" lengthAdjust="spacingAndGlyphs">
      2006
    </text>
  </g>
  <g clip-path="url(#clip_0_432_288_0)">
    <text textLength="20.6px" style="font-size: 8.8px; font-family: Georgia; fill: #4D4D4D" x="262.95" y="243.91" lengthAdjust="spacingAndGlyphs">
      2007
    </text>
  </g>
  <g clip-path="url(#clip_0_432_288_0)">
    <text textLength="21.44px" style="font-size: 8.8px; font-family: Georgia; fill: #4D4D4D" x="262.95" y="256" lengthAdjust="spacingAndGlyphs">
      2008
    </text>
  </g>
  <g clip-path="url(#clip_0_432_288_0)">
    <text textLength="21.17px" style="font-size: 8.8px; font-family: Georgia; fill: #4D4D4D" x="262.95" y="268.09" lengthAdjust="spacingAndGlyphs">
      2009
    </text>
  </g>
  <g clip-path="url(#clip_0_432_288_0)">
    <text textLength="19.94px" style="font-size: 8.8px; font-family: Georgia; fill: #4D4D4D" x="262.95" y="280.18" lengthAdjust="spacingAndGlyphs">
      2010
    </text>
  </g>
  <g clip-path="url(#clip_0_432_288_0)">
    <text textLength="18.29px" style="font-size: 8.8px; font-family: Georgia; fill: #4D4D4D" x="262.95" y="292.27" lengthAdjust="spacingAndGlyphs">
      2011
    </text>
  </g>
  <g clip-path="url(#clip_0_432_288_0)">
    <text textLength="19.45px" style="font-size: 8.8px; font-family: Georgia; fill: #4D4D4D" x="262.95" y="304.36" lengthAdjust="spacingAndGlyphs">
      2012
    </text>
  </g>
  <g clip-path="url(#clip_0_432_288_0)">
    <text textLength="19.38px" style="font-size: 8.8px; font-family: Georgia; fill: #4D4D4D" x="262.95" y="316.45" lengthAdjust="spacingAndGlyphs">
      2013
    </text>
  </g>
  <g clip-path="url(#clip_0_432_288_0)">
    <text textLength="19.5px" style="font-size: 8.8px; font-family: Georgia; fill: #4D4D4D" x="262.95" y="328.54" lengthAdjust="spacingAndGlyphs">
      2014
    </text>
  </g>
  <g clip-path="url(#clip_0_432_288_0)">
    <text textLength="19.17px" style="font-size: 8.8px; font-family: Georgia; fill: #4D4D4D" x="262.95" y="340.63" lengthAdjust="spacingAndGlyphs">
      2015
    </text>
  </g>
  <g clip-path="url(#clip_0_432_288_0)">
    <text textLength="19.51px" style="font-size: 8.8px; font-family: Georgia; fill: #4D4D4D" x="262.95" y="352.72" lengthAdjust="spacingAndGlyphs">
      2016
    </text>
  </g>
  <g clip-path="url(#clip_0_432_288_0)">
    <text textLength="18.94px" style="font-size: 8.8px; font-family: Georgia; fill: #4D4D4D" x="262.95" y="364.81" lengthAdjust="spacingAndGlyphs">
      2017
    </text>
  </g>
  <polyline points="5.48,377.01 258.02,377.01" style="stroke-width: 1.07" clip-path="url(#clip_0_432_288_0)" />
  <polyline points="19.79,379.75 19.79,377.01" style="stroke: #333333; stroke-width: 1.07" clip-path="url(#clip_0_432_288_0)" />
  <polyline points="48.14,379.75 48.14,377.01" style="stroke: #333333; stroke-width: 1.07" clip-path="url(#clip_0_432_288_0)" />
  <polyline points="76.48,379.75 76.48,377.01" style="stroke: #333333; stroke-width: 1.07" clip-path="url(#clip_0_432_288_0)" />
  <polyline points="104.82,379.75 104.82,377.01" style="stroke: #333333; stroke-width: 1.07" clip-path="url(#clip_0_432_288_0)" />
  <polyline points="133.17,379.75 133.17,377.01" style="stroke: #333333; stroke-width: 1.07" clip-path="url(#clip_0_432_288_0)" />
  <polyline points="161.51,379.75 161.51,377.01" style="stroke: #333333; stroke-width: 1.07" clip-path="url(#clip_0_432_288_0)" />
  <polyline points="189.85,379.75 189.85,377.01" style="stroke: #333333; stroke-width: 1.07" clip-path="url(#clip_0_432_288_0)" />
  <polyline points="218.2,379.75 218.2,377.01" style="stroke: #333333; stroke-width: 1.07" clip-path="url(#clip_0_432_288_0)" />
  <polyline points="246.54,379.75 246.54,377.01" style="stroke: #333333; stroke-width: 1.07" clip-path="url(#clip_0_432_288_0)" />
  <g clip-path="url(#clip_0_432_288_0)">
    <text textLength="9.39px" style="font-size: 8.8px; font-family: Georgia; fill: #4D4D4D" x="14.9" y="388.25" lengthAdjust="spacingAndGlyphs">
      10
    </text>
  </g>
  <g clip-path="url(#clip_0_432_288_0)">
    <text textLength="10.55px" style="font-size: 8.8px; font-family: Georgia; fill: #4D4D4D" x="43.24" y="388.25" lengthAdjust="spacingAndGlyphs">
      20
    </text>
  </g>
  <g clip-path="url(#clip_0_432_288_0)">
    <text textLength="10.49px" style="font-size: 8.8px; font-family: Georgia; fill: #4D4D4D" x="71.59" y="388.25" lengthAdjust="spacingAndGlyphs">
      30
    </text>
  </g>
  <g clip-path="url(#clip_0_432_288_0)">
    <text textLength="10.61px" style="font-size: 8.8px; font-family: Georgia; fill: #4D4D4D" x="99.93" y="388.25" lengthAdjust="spacingAndGlyphs">
      40
    </text>
  </g>
  <g clip-path="url(#clip_0_432_288_0)">
    <text textLength="10.28px" style="font-size: 8.8px; font-family: Georgia; fill: #4D4D4D" x="128.27" y="388.25" lengthAdjust="spacingAndGlyphs">
      50
    </text>
  </g>
  <g clip-path="url(#clip_0_432_288_0)">
    <text textLength="10.62px" style="font-size: 8.8px; font-family: Georgia; fill: #4D4D4D" x="156.62" y="388.25" lengthAdjust="spacingAndGlyphs">
      60
    </text>
  </g>
  <g clip-path="url(#clip_0_432_288_0)">
    <text textLength="10.05px" style="font-size: 8.8px; font-family: Georgia; fill: #4D4D4D" x="184.96" y="388.25" lengthAdjust="spacingAndGlyphs">
      70
    </text>
  </g>
  <g clip-path="url(#clip_0_432_288_0)">
    <text textLength="10.89px" style="font-size: 8.8px; font-family: Georgia; fill: #4D4D4D" x="213.3" y="388.25" lengthAdjust="spacingAndGlyphs">
      80
    </text>
  </g>
  <g clip-path="url(#clip_0_432_288_0)">
    <text textLength="10.62px" style="font-size: 8.8px; font-family: Georgia; fill: #4D4D4D" x="241.65" y="388.25" lengthAdjust="spacingAndGlyphs">
      90
    </text>
  </g>
  <g clip-path="url(#clip_0_432_288_0)">
    <text textLength="18.3px" style="font-size: 11px; font-family: Georgia" x="121.96" y="400.83" lengthAdjust="spacingAndGlyphs">
      Age
    </text>
  </g>
  <g clip-path="url(#clip_0_432_288_0)">
    <text textLength="199.25px" style="font-size: 11px; font-family: Georgia" x="5.48" y="31.24" lengthAdjust="spacingAndGlyphs">
      Data from England and Wales 1993-2017
    </text>
  </g>
  <g clip-path="url(#clip_0_432_288_0)">
    <text textLength="217.12px" style="font-size: 13.2px; font-family: Georgia" x="5.48" y="14.95" lengthAdjust="spacingAndGlyphs">
      Trends in deaths from drug poisoning
    </text>
  </g>
  <g clip-path="url(#clip_0_432_288_0)">
    <text textLength="144.29px" style="font-size: 8.8px; font-family: Georgia" x="117.21" y="415.06" lengthAdjust="spacingAndGlyphs">
      Source: Office for National Statistics
    </text>
  </g>
  <g clip-path="url(#clip_0_432_288_0)">
    <text textLength="99.33px" style="font-size: 8.8px; font-family: Georgia" x="162.56" y="424.57" lengthAdjust="spacingAndGlyphs">
      Plot by @VictimOfMaths
    </text>
  </g>
</svg>
