<?xml version="1.0" encoding="UTF-8"?>
<svg viewBox="0 0 720 576" xmlns="http://www.w3.org/2000/svg" xmlns:xlink="http://www.w3.org/1999/xlink">
<style type='text/css'>
<![CDATA[

        line, polyline, polygon, path, rect, circle {
          fill: none;
          stroke: #000000;
          stroke-linecap: round;
          stroke-linejoin: round;
          stroke-miterlimit: 10.00;
        }
]]>
</style>
  <rect style="stroke: none; fill: #ffffff" width="100%" height="100%" />
  <defs>
    <clipPath id="clip_0_576_720_0">
      <rect x="0" y="0" width="720" height="576" />
    </clipPath>
  </defs>
  <rect id="rect-0001" style="fill: #FFFFFF; stroke: #FFFFFF; stroke-width: 1.07" clip-path="url(#clip_0_576_720_0)" x="0" y="0" width="720" height="576" />
  <defs>
    <clipPath id="clip_40_6_544_26_629_65_23_35">
      <rect x="40.6" y="23.35" width="589.05" height="520.91" />
    </clipPath>
  </defs>
  <rect id="rect-0002" style="fill: #EBEBEB; stroke: none" clip-path="url(#clip_40_6_544_26_629_65_23_35)" x="40.6" y="23.35" width="589.05" height="520.91" />
  <polyline points="40.6,471.25 629.65,471.25" id="polyline-0001" style="stroke: #FFFFFF; stroke-width: 0.53" clip-path="url(#clip_40_6_544_26_629_65_23_35)" />
  <polyline points="40.6,372.6 629.65,372.6" id="polyline-0002" style="stroke: #FFFFFF; stroke-width: 0.53" clip-path="url(#clip_40_6_544_26_629_65_23_35)" />
  <polyline points="40.6,273.95 629.65,273.95" id="polyline-0003" style="stroke: #FFFFFF; stroke-width: 0.53" clip-path="url(#clip_40_6_544_26_629_65_23_35)" />
  <polyline points="40.6,175.29 629.65,175.29" id="polyline-0004" style="stroke: #FFFFFF; stroke-width: 0.53" clip-path="url(#clip_40_6_544_26_629_65_23_35)" />
  <polyline points="40.6,76.64 629.65,76.64" id="polyline-0005" style="stroke: #FFFFFF; stroke-width: 0.53" clip-path="url(#clip_40_6_544_26_629_65_23_35)" />
  <polyline points="115.23,544.26 115.23,23.35" id="polyline-0006" style="stroke: #FFFFFF; stroke-width: 0.53" clip-path="url(#clip_40_6_544_26_629_65_23_35)" />
  <polyline points="229.16,544.26 229.16,23.35" id="polyline-0007" style="stroke: #FFFFFF; stroke-width: 0.53" clip-path="url(#clip_40_6_544_26_629_65_23_35)" />
  <polyline points="343.1,544.26 343.1,23.35" id="polyline-0008" style="stroke: #FFFFFF; stroke-width: 0.53" clip-path="url(#clip_40_6_544_26_629_65_23_35)" />
  <polyline points="457.04,544.26 457.04,23.35" id="polyline-0009" style="stroke: #FFFFFF; stroke-width: 0.53" clip-path="url(#clip_40_6_544_26_629_65_23_35)" />
  <polyline points="570.97,544.26 570.97,23.35" id="polyline-0010" style="stroke: #FFFFFF; stroke-width: 0.53" clip-path="url(#clip_40_6_544_26_629_65_23_35)" />
  <polyline points="40.6,520.58 629.65,520.58" id="polyline-0011" style="stroke: #FFFFFF; stroke-width: 1.07" clip-path="url(#clip_40_6_544_26_629_65_23_35)" />
  <polyline points="40.6,421.93 629.65,421.93" id="polyline-0012" style="stroke: #FFFFFF; stroke-width: 1.07" clip-path="url(#clip_40_6_544_26_629_65_23_35)" />
  <polyline points="40.6,323.27 629.65,323.27" id="polyline-0013" style="stroke: #FFFFFF; stroke-width: 1.07" clip-path="url(#clip_40_6_544_26_629_65_23_35)" />
  <polyline points="40.6,224.62 629.65,224.62" id="polyline-0014" style="stroke: #FFFFFF; stroke-width: 1.07" clip-path="url(#clip_40_6_544_26_629_65_23_35)" />
  <polyline points="40.6,125.97 629.65,125.97" id="polyline-0015" style="stroke: #FFFFFF; stroke-width: 1.07" clip-path="url(#clip_40_6_544_26_629_65_23_35)" />
  <polyline points="40.6,27.31 629.65,27.31" id="polyline-0016" style="stroke: #FFFFFF; stroke-width: 1.07" clip-path="url(#clip_40_6_544_26_629_65_23_35)" />
  <polyline points="58.26,544.26 58.26,23.35" id="polyline-0017" style="stroke: #FFFFFF; stroke-width: 1.07" clip-path="url(#clip_40_6_544_26_629_65_23_35)" />
  <polyline points="172.2,544.26 172.2,23.35" id="polyline-0018" style="stroke: #FFFFFF; stroke-width: 1.07" clip-path="url(#clip_40_6_544_26_629_65_23_35)" />
  <polyline points="286.13,544.26 286.13,23.35" id="polyline-0019" style="stroke: #FFFFFF; stroke-width: 1.07" clip-path="url(#clip_40_6_544_26_629_65_23_35)" />
  <polyline points="400.07,544.26 400.07,23.35" id="polyline-0020" style="stroke: #FFFFFF; stroke-width: 1.07" clip-path="url(#clip_40_6_544_26_629_65_23_35)" />
  <polyline points="514,544.26 514,23.35" id="polyline-0021" style="stroke: #FFFFFF; stroke-width: 1.07" clip-path="url(#clip_40_6_544_26_629_65_23_35)" />
  <polyline points="627.94,544.26 627.94,23.35" id="polyline-0022" style="stroke: #FFFFFF; stroke-width: 1.07" clip-path="url(#clip_40_6_544_26_629_65_23_35)" />
  <polygon points="67.375,520.574 68.423,520.5737 69.4709,520.5733 70.5188,520.5729 71.5668,520.5725 72.6147,520.572 73.6627,520.5716 74.7106,520.571 75.7585,520.5705 76.8065,520.5698 77.8544,520.5692 78.9024,520.5685 79.9503,520.5677 80.9983,520.5669 82.0462,520.566 83.0941,520.565 84.1421,520.564 85.19,520.5629 86.238,520.5617 87.2859,520.5605 88.3338,520.5591 89.3818,520.5576 90.4297,520.556 91.4777,520.5544 92.5256,520.5526 93.5736,520.5506 94.6215,520.5486 95.6694,520.5463 96.7174,520.544 97.7653,520.5414 98.8133,520.5388 99.8612,520.5358 100.9091,520.5328 101.9571,520.5294 103.005,520.526 104.053,520.5222 105.1009,520.5182 106.1489,520.5139 107.1968,520.5093 108.2447,520.5044 109.2927,520.4992 110.3406,520.4937 111.3886,520.4878 112.4365,520.4816 113.4844,520.4748 114.5324,520.4679 115.5803,520.4601 116.6283,520.4522 117.6762,520.4436 118.7242,520.4346 119.7721,520.4249 120.82,520.4147 121.868,520.4039 122.9159,520.3923 123.9639,520.3802 125.0118,520.3671 126.0598,520.3537 127.1077,520.3388 128.1556,520.3238 129.2036,520.3072 130.2515,520.2901 131.2995,520.2717 132.3474,520.2525 133.3953,520.232 134.4433,520.2104 135.4912,520.1878 136.5392,520.1635 137.5871,520.1385 138.6351,520.1113 139.683,520.0836 140.7309,520.0531 141.7789,520.0222 142.8268,519.9885 143.8748,519.9539 144.9227,519.9168 145.9706,519.8782 147.0186,519.8374 148.0665,519.7944 149.1145,519.7496 150.1624,519.7018 151.2104,519.6526 152.2583,519.5994 153.3062,519.5455 154.3542,519.4866 155.4021,519.427 156.4501,519.3624 157.498,519.2963 158.5459,519.2259 159.5939,519.1528 160.6418,519.076 161.6898,518.9953 162.7377,518.9116 163.7857,518.8227 164.8336,518.7317 165.8815,518.6339 166.9295,518.5349 167.9774,518.4276 169.0254,518.319 170.0733,518.2025 171.1212,518.0834 172.1692,517.9573 173.2171,517.8269 174.2651,517.6905 175.313,517.548 176.361,517.4007 177.4089,517.2451 178.4568,517.0862 179.5048,516.9168 180.5527,516.7456 181.6007,516.5613 182.6486,516.3751 183.6965,516.177 184.7445,515.9747 185.7924,515.7621 186.8404,515.5429 187.8883,515.3149 188.9363,515.0776 189.9842,514.8334 191.0321,514.577 192.0801,514.3159 193.128,514.0393 194.176,513.7601 195.2239,513.4625 196.2718,513.1618 197.3198,512.8446 198.3677,512.5213 199.4157,512.1838 200.4636,511.8368 201.5116,511.478 202.5595,511.1061 203.6074,510.7252 204.6554,510.3273 205.7033,509.9235 206.7513,509.4986 207.7992,509.0702 208.8471,508.6178 209.8951,508.1611 210.943,507.6833 211.991,507.1971 213.0389,506.693 214.0869,506.1764 215.1348,505.6452 216.1827,505.0972 217.2307,504.5382 218.2786,503.9579 219.3266,503.3704 220.3745,502.7568 221.4224,502.139 222.4704,501.4926 223.5183,500.8406 224.5663,500.1638 225.6142,499.477 226.6622,498.7693 227.7101,498.0469 228.758,497.308 229.806,496.5495 230.8539,495.7788 231.9019,494.9838 232.9498,494.1812 233.9977,493.3494 235.0457,492.5129 236.0936,491.6457 237.1416,490.7721 238.1895,489.8725 239.2375,488.9618 240.2854,488.0297 241.3333,487.082 242.3813,486.1176 243.4292,485.1331 244.4772,484.1367 245.5251,483.1157 246.573,482.0876 247.621,481.0307 248.6689,479.9693 249.7169,478.8791 250.7648,477.7827 251.8128,476.6624 252.8607,475.5317 253.9086,474.3821 254.9566,473.2183 256.0045,472.0402 257.0525,470.8445 258.1004,469.639 259.1484,468.4127 260.1963,467.1808 261.2442,465.9255 262.2922,464.6667 263.3401,463.3859 264.3881,462.1002 265.436,460.7971 266.4839,459.4864 267.5319,458.1625 268.5798,456.8289 269.6278,455.4859 270.6757,454.1315 271.7237,452.7712 272.7716,451.3986 273.8195,450.0228 274.8675,448.6343 275.9154,447.2441 276.9634,445.8434 278.0113,444.4405 279.0592,443.0306 280.1072,441.6179 281.1551,440.2009 282.2031,438.7813 283.251,437.3595 284.299,435.936 285.3469,434.5117 286.3948,433.0873 287.4428,431.6629 288.4907,430.2408 289.5387,428.8193 290.5866,427.4022 291.6345,425.9869 292.6825,424.5771 293.7304,423.1711 294.7784,421.7712 295.8263,420.3779 296.8743,418.9904 297.9222,417.613 298.9701,416.2404 300.0181,414.8821 301.066,413.5269 302.114,412.1909 303.1619,410.8582 304.2098,409.5452 305.2578,408.2385 306.3057,406.9503 307.3537,405.6729 308.4016,404.4117 309.4496,403.1666 310.4975,401.9347 311.5454,400.7247 312.5934,399.5244 313.6413,398.3523 314.6893,397.1856 315.7372,396.054 316.7851,394.9278 317.8331,393.8345 318.881,392.7518 319.929,391.698 320.9769,390.6611 322.0249,389.6484 323.0728,388.6596 324.1207,387.6895 325.1687,386.7506 326.2166,385.8247 327.2646,384.9375 328.3125,384.0571 329.3604,383.223 330.4084,382.3959 331.4563,381.6098 332.5043,380.8375 333.5522,380.1 334.6002,379.3836 335.6481,378.6954 336.696,378.0358 337.744,377.3975 338.7919,376.7954 339.8399,376.2074 340.8878,375.6631 341.9357,375.1261 342.9837,374.6396 344.0316,374.1607 345.0796,373.7249 346.1275,373.3041 347.1755,372.9189 348.2234,372.5558 349.2713,372.2209 350.3193,371.9152 351.3672,371.6301 352.4152,371.381 353.4631,371.1453 354.511,370.952 355.559,370.7656 356.6069,370.6262 357.6549,370.4943 358.7028,370.4016 359.7508,370.323 360.7987,370.276 361.8466,370.2491 362.8946,370.2467 363.9425,370.27 364.9905,370.3107 366.0384,370.3826 367.0863,370.4652 368.1343,370.5836 369.1822,370.7078 370.2302,370.8697 371.2781,371.0382 372.3261,371.2373 373.374,371.4478 374.4219,371.6825 375.4699,371.933 376.5178,372.2015 377.5658,372.4896 378.6137,372.7902 379.6616,373.1136 380.7096,373.4445 381.7575,373.8008 382.8055,374.1612 383.8534,374.5469 384.9014,374.9373 385.9493,375.3476 386.9972,375.7655 388.0452,376.1985 389.0931,376.6415 390.1411,377.0953 391.189,377.5608 392.237,378.0334 393.2849,378.5191 394.3328,379.0087 395.3808,379.512 396.4287,380.0174 397.4767,380.5352 398.5246,381.0553 399.5725,381.5845 400.6205,382.1169 401.6684,382.6555 402.7164,383.198 403.7643,383.7443 404.8123,384.2944 405.8602,384.8467 406.9081,385.4023 407.9561,385.9588 409.004,386.5176 410.052,387.0768 411.0999,387.6368 412.1478,388.1966 413.1958,388.756 414.2437,389.3145 415.2917,389.8717 416.3396,390.4271 417.3876,390.9806 418.4355,391.5309 419.4834,392.0794 420.5314,392.6228 421.5793,393.1649 422.6273,393.6998 423.6752,394.2335 424.7231,394.7591 425.7711,395.2823 426.819,395.7977 427.867,396.309 428.9149,396.8133 429.9629,397.3113 431.0108,397.8033 432.0587,398.2867 433.1067,398.7656 434.1546,399.2332 435.2026,399.6981 436.2505,400.1488 437.2984,400.5973 438.3464,401.0316 439.3943,401.462 440.4423,401.88 441.4902,402.2915 442.5382,402.6926 443.5861,403.0844 444.634,403.468 445.682,403.8396 446.7299,404.2052 447.7779,404.5559 448.8258,404.9032 449.8737,405.2326 450.9217,405.5593 451.9696,405.8691 453.0176,406.174 454.0655,406.4648 455.1135,406.7479 456.1614,407.0195 457.2093,407.2806 458.2573,407.533 459.3052,407.7723 460.3532,408.0056 461.4011,408.223 462.449,408.4373 463.497,408.6333 464.5449,408.8265 465.5929,409.0035 466.6408,409.1756 467.6888,409.3344 468.7367,409.486 469.7846,409.627 470.8326,409.7585 471.8805,409.8823 472.9285,409.9945 473.9764,410.1016 475.0243,410.1952 476.0723,410.2863 477.1202,410.3622 478.1682,410.4361 479.2161,410.4972 480.2641,410.5545 481.312,410.6019 482.3599,410.6439 483.4079,410.6784 484.4558,410.7061 485.5038,410.7287 486.5517,410.7435 487.5996,410.7551 488.6476,410.7583 489.6955,410.7601 490.7435,410.753 491.7914,410.7449 492.8394,410.7302 493.8873,410.7136 494.9352,410.6925 495.9832,410.669 497.0311,410.6426 498.0791,410.6138 499.127,410.5834 500.1749,410.551 501.2229,410.5178 502.2708,410.4833 503.3188,410.4487 504.3667,410.4139 505.4147,410.3794 506.4626,410.3458 507.5105,410.313 508.5585,410.2819 509.6064,410.2525 510.6544,410.2253 511.7023,410.2012 512.7502,410.1792 513.7982,410.1619 514.8461,410.1464 515.8941,410.1378 516.942,410.1303 517.99,410.1317 519.0379,410.1349 520.0858,410.1467 521.1338,410.1622 522.1817,410.1856 523.2297,410.2149 524.2776,410.2512 525.3256,410.2959 526.3735,410.3462 527.4214,410.4079 528.4694,410.4733 529.5173,410.5533 530.5653,410.6356 531.6132,410.7346 532.6611,410.8369 533.7091,410.9542 534.757,411.0777 535.805,411.2142 536.8529,411.3602 537.9009,411.5168 538.9488,411.6862 539.9967,411.8637 541.0447,412.0576 542.0926,412.2568 543.1406,412.4761 544.1885,412.6988 545.2364,412.9432 546.2844,413.1922 547.3323,413.4601 548.3803,413.7362 549.4282,414.0281 550.4762,414.3318 551.5241,414.648 552.572,414.9798 553.62,415.3208 554.6679,415.681 555.7159,416.0469 556.7638,416.4359 557.8117,416.8285 558.8597,417.2447 559.9076,417.6662 560.9556,418.1077 562.0035,418.5581 563.0515,419.0248 564.0994,419.5039 565.1473,419.9957 566.1953,420.5034 567.2432,421.0201 568.2912,421.5561 569.3391,422.0973 570.387,422.6612 571.435,423.2286 572.4829,423.818 573.5309,424.4126 574.5788,425.0254 575.6268,425.6466 576.6747,426.2824 577.7226,426.9294 578.7706,427.5875 579.8185,428.2596 580.8665,428.9393 581.9144,429.6356 582.9623,430.3362 584.0103,431.0557 585.0582,431.7781 586.1062,432.5182 587.1541,433.2625 588.2021,434.0211 589.25,434.7862 590.2979,435.5623 591.3459,436.347 592.3938,437.1397 593.4418,437.9428 594.4897,438.7511 595.5376,439.5712 596.5856,440.3941 597.6335,441.2299 598.6815,442.0675 599.7294,442.9164 600.7774,443.768 601.8253,444.6281 602.8732,445.4922 602.8732,520.578 601.8253,520.578 600.7774,520.578 599.7294,520.578 598.6815,520.578 597.6335,520.578 596.5856,520.578 595.5376,520.578 594.4897,520.578 593.4418,520.578 592.3938,520.578 591.3459,520.578 590.2979,520.578 589.25,520.578 588.2021,520.578 587.1541,520.578 586.1062,520.578 585.0582,520.578 584.0103,520.578 582.9623,520.578 581.9144,520.578 580.8665,520.578 579.8185,520.578 578.7706,520.578 577.7226,520.578 576.6747,520.578 575.6268,520.578 574.5788,520.578 573.5309,520.578 572.4829,520.578 571.435,520.578 570.387,520.578 569.3391,520.578 568.2912,520.578 567.2432,520.578 566.1953,520.578 565.1473,520.578 564.0994,520.578 563.0515,520.578 562.0035,520.578 560.9556,520.578 559.9076,520.578 558.8597,520.578 557.8117,520.578 556.7638,520.578 555.7159,520.578 554.6679,520.578 553.62,520.578 552.572,520.578 551.5241,520.578 550.4762,520.578 549.4282,520.578 548.3803,520.578 547.3323,520.578 546.2844,520.578 545.2364,520.578 544.1885,520.578 543.1406,520.578 542.0926,520.578 541.0447,520.578 539.9967,520.578 538.9488,520.578 537.9009,520.578 536.8529,520.578 535.805,520.578 534.757,520.578 533.7091,520.578 532.6611,520.578 531.6132,520.578 530.5653,520.578 529.5173,520.578 528.4694,520.578 527.4214,520.578 526.3735,520.578 525.3256,520.578 524.2776,520.578 523.2297,520.578 522.1817,520.578 521.1338,520.578 520.0858,520.578 519.0379,520.578 517.99,520.578 516.942,520.578 515.8941,520.578 514.8461,520.578 513.7982,520.578 512.7502,520.578 511.7023,520.578 510.6544,520.578 509.6064,520.578 508.5585,520.578 507.5105,520.578 506.4626,520.578 505.4147,520.578 504.3667,520.578 503.3188,520.578 502.2708,520.578 501.2229,520.578 500.1749,520.578 499.127,520.578 498.0791,520.578 497.0311,520.578 495.9832,520.578 494.9352,520.578 493.8873,520.578 492.8394,520.578 491.7914,520.578 490.7435,520.578 489.6955,520.578 488.6476,520.578 487.5996,520.578 486.5517,520.578 485.5038,520.578 484.4558,520.578 483.4079,520.578 482.3599,520.578 481.312,520.578 480.2641,520.578 479.2161,520.578 478.1682,520.578 477.1202,520.578 476.0723,520.578 475.0243,520.578 473.9764,520.578 472.9285,520.578 471.8805,520.578 470.8326,520.578 469.7846,520.578 468.7367,520.578 467.6888,520.578 466.6408,520.578 465.5929,520.578 464.5449,520.578 463.497,520.578 462.449,520.578 461.4011,520.578 460.3532,520.578 459.3052,520.578 458.2573,520.578 457.2093,520.578 456.1614,520.578 455.1135,520.578 454.0655,520.578 453.0176,520.578 451.9696,520.578 450.9217,520.578 449.8737,520.578 448.8258,520.578 447.7779,520.578 446.7299,520.578 445.682,520.578 444.634,520.578 443.5861,520.578 442.5382,520.578 441.4902,520.578 440.4423,520.578 439.3943,520.578 438.3464,520.578 437.2984,520.578 436.2505,520.578 435.2026,520.578 434.1546,520.578 433.1067,520.578 432.0587,520.578 431.0108,520.578 429.9629,520.578 428.9149,520.578 427.867,520.578 426.819,520.578 425.7711,520.578 424.7231,520.578 423.6752,520.578 422.6273,520.578 421.5793,520.578 420.5314,520.578 419.4834,520.578 418.4355,520.578 417.3876,520.578 416.3396,520.578 415.2917,520.578 414.2437,520.578 413.1958,520.578 412.1478,520.578 411.0999,520.578 410.052,520.578 409.004,520.578 407.9561,520.578 406.9081,520.578 405.8602,520.578 404.8123,520.578 403.7643,520.578 402.7164,520.578 401.6684,520.578 400.6205,520.578 399.5725,520.578 398.5246,520.578 397.4767,520.578 396.4287,520.578 395.3808,520.578 394.3328,520.578 393.2849,520.578 392.237,520.578 391.189,520.578 390.1411,520.578 389.0931,520.578 388.0452,520.578 386.9972,520.578 385.9493,520.578 384.9014,520.578 383.8534,520.578 382.8055,520.578 381.7575,520.578 380.7096,520.578 379.6616,520.578 378.6137,520.578 377.5658,520.578 376.5178,520.578 375.4699,520.578 374.4219,520.578 373.374,520.578 372.3261,520.578 371.2781,520.578 370.2302,520.578 369.1822,520.578 368.1343,520.578 367.0863,520.578 366.0384,520.578 364.9905,520.578 363.9425,520.578 362.8946,520.578 361.8466,520.578 360.7987,520.578 359.7508,520.578 358.7028,520.578 357.6549,520.578 356.6069,520.578 355.559,520.578 354.511,520.578 353.4631,520.578 352.4152,520.578 351.3672,520.578 350.3193,520.578 349.2713,520.578 348.2234,520.578 347.1755,520.578 346.1275,520.578 345.0796,520.578 344.0316,520.578 342.9837,520.578 341.9357,520.578 340.8878,520.578 339.8399,520.578 338.7919,520.578 337.744,520.578 336.696,520.578 335.6481,520.578 334.6002,520.578 333.5522,520.578 332.5043,520.578 331.4563,520.578 330.4084,520.578 329.3604,520.578 328.3125,520.578 327.2646,520.578 326.2166,520.578 325.1687,520.578 324.1207,520.578 323.0728,520.578 322.0249,520.578 320.9769,520.578 319.929,520.578 318.881,520.578 317.8331,520.578 316.7851,520.578 315.7372,520.578 314.6893,520.578 313.6413,520.578 312.5934,520.578 311.5454,520.578 310.4975,520.578 309.4496,520.578 308.4016,520.578 307.3537,520.578 306.3057,520.578 305.2578,520.578 304.2098,520.578 303.1619,520.578 302.114,520.578 301.066,520.578 300.0181,520.578 298.9701,520.578 297.9222,520.578 296.8743,520.578 295.8263,520.578 294.7784,520.578 293.7304,520.578 292.6825,520.578 291.6345,520.578 290.5866,520.578 289.5387,520.578 288.4907,520.578 287.4428,520.578 286.3948,520.578 285.3469,520.578 284.299,520.578 283.251,520.578 282.2031,520.578 281.1551,520.578 280.1072,520.578 279.0592,520.578 278.0113,520.578 276.9634,520.578 275.9154,520.578 274.8675,520.578 273.8195,520.578 272.7716,520.578 271.7237,520.578 270.6757,520.578 269.6278,520.578 268.5798,520.578 267.5319,520.578 266.4839,520.578 265.436,520.578 264.3881,520.578 263.3401,520.578 262.2922,520.578 261.2442,520.578 260.1963,520.578 259.1484,520.578 258.1004,520.578 257.0525,520.578 256.0045,520.578 254.9566,520.578 253.9086,520.578 252.8607,520.578 251.8128,520.578 250.7648,520.578 249.7169,520.578 248.6689,520.578 247.621,520.578 246.573,520.578 245.5251,520.578 244.4772,520.578 243.4292,520.578 242.3813,520.578 241.3333,520.578 240.2854,520.578 239.2375,520.578 238.1895,520.578 237.1416,520.578 236.0936,520.578 235.0457,520.578 233.9977,520.578 232.9498,520.578 231.9019,520.578 230.8539,520.578 229.806,520.578 228.758,520.578 227.7101,520.578 226.6622,520.578 225.6142,520.578 224.5663,520.578 223.5183,520.578 222.4704,520.578 221.4224,520.578 220.3745,520.578 219.3266,520.578 218.2786,520.578 217.2307,520.578 216.1827,520.578 215.1348,520.578 214.0869,520.578 213.0389,520.578 211.991,520.578 210.943,520.578 209.8951,520.578 208.8471,520.578 207.7992,520.578 206.7513,520.578 205.7033,520.578 204.6554,520.578 203.6074,520.578 202.5595,520.578 201.5116,520.578 200.4636,520.578 199.4157,520.578 198.3677,520.578 197.3198,520.578 196.2718,520.578 195.2239,520.578 194.176,520.578 193.128,520.578 192.0801,520.578 191.0321,520.578 189.9842,520.578 188.9363,520.578 187.8883,520.578 186.8404,520.578 185.7924,520.578 184.7445,520.578 183.6965,520.578 182.6486,520.578 181.6007,520.578 180.5527,520.578 179.5048,520.578 178.4568,520.578 177.4089,520.578 176.361,520.578 175.313,520.578 174.2651,520.578 173.2171,520.578 172.1692,520.578 171.1212,520.578 170.0733,520.578 169.0254,520.578 167.9774,520.578 166.9295,520.578 165.8815,520.578 164.8336,520.578 163.7857,520.578 162.7377,520.578 161.6898,520.578 160.6418,520.578 159.5939,520.578 158.5459,520.578 157.498,520.578 156.4501,520.578 155.4021,520.578 154.3542,520.578 153.3062,520.578 152.2583,520.578 151.2104,520.578 150.1624,520.578 149.1145,520.578 148.0665,520.578 147.0186,520.578 145.9706,520.578 144.9227,520.578 143.8748,520.578 142.8268,520.578 141.7789,520.578 140.7309,520.578 139.683,520.578 138.6351,520.578 137.5871,520.578 136.5392,520.578 135.4912,520.578 134.4433,520.578 133.3953,520.578 132.3474,520.578 131.2995,520.578 130.2515,520.578 129.2036,520.578 128.1556,520.578 127.1077,520.578 126.0598,520.578 125.0118,520.578 123.9639,520.578 122.9159,520.578 121.868,520.578 120.82,520.578 119.7721,520.578 118.7242,520.578 117.6762,520.578 116.6283,520.578 115.5803,520.578 114.5324,520.578 113.4844,520.578 112.4365,520.578 111.3886,520.578 110.3406,520.578 109.2927,520.578 108.2447,520.578 107.1968,520.578 106.1489,520.578 105.1009,520.578 104.053,520.578 103.005,520.578 101.9571,520.578 100.9091,520.578 99.8612,520.578 98.8133,520.578 97.7653,520.578 96.7174,520.578 95.6694,520.578 94.6215,520.578 93.5736,520.578 92.5256,520.578 91.4777,520.578 90.4297,520.578 89.3818,520.578 88.3338,520.578 87.2859,520.578 86.238,520.578 85.19,520.578 84.1421,520.578 83.0941,520.578 82.0462,520.578 80.9983,520.578 79.9503,520.578 78.9024,520.578 77.8544,520.578 76.8065,520.578 75.7585,520.578 74.7106,520.578 73.6627,520.578 72.6147,520.578 71.5668,520.578 70.5188,520.578 69.4709,520.578 68.423,520.578 67.375,520.578" id="polygon-0001" style="fill: #F8766D; stroke-width: 1.07" clip-path="url(#clip_40_6_544_26_629_65_23_35)" />
  <polygon points="67.375,520.578 68.423,520.578 69.4709,520.578 70.5188,520.578 71.5668,520.578 72.6147,520.578 73.6627,520.578 74.7106,520.578 75.7585,520.578 76.8065,520.578 77.8544,520.578 78.9024,520.578 79.9503,520.578 80.9983,520.578 82.0462,520.578 83.0941,520.578 84.1421,520.578 85.19,520.578 86.238,520.578 87.2859,520.578 88.3338,520.578 89.3818,520.578 90.4297,520.578 91.4777,520.578 92.5256,520.578 93.5736,520.578 94.6215,520.578 95.6694,520.578 96.7174,520.578 97.7653,520.578 98.8133,520.578 99.8612,520.578 100.9091,520.578 101.9571,520.578 103.005,520.578 104.053,520.578 105.1009,520.578 106.1489,520.578 107.1968,520.578 108.2447,520.578 109.2927,520.578 110.3406,520.578 111.3886,520.578 112.4365,520.578 113.4844,520.578 114.5324,520.578 115.5803,520.578 116.6283,520.578 117.6762,520.578 118.7242,520.578 119.7721,520.578 120.82,520.578 121.868,520.578 122.9159,520.578 123.9639,520.578 125.0118,520.578 126.0598,520.578 127.1077,520.5779 128.1556,520.5779 129.2036,520.5779 130.2515,520.5778 131.2995,520.5778 132.3474,520.5777 133.3953,520.5776 134.4433,520.5775 135.4912,520.5774 136.5392,520.5772 137.5871,520.5769 138.6351,520.5766 139.683,520.5762 140.7309,520.5757 141.7789,520.5751 142.8268,520.5742 143.8748,520.5732 144.9227,520.5719 145.9706,520.5703 147.0186,520.5683 148.0665,520.5658 149.1145,520.5627 150.1624,520.5589 151.2104,520.554 152.2583,520.5481 153.3062,520.541 154.3542,520.5324 155.4021,520.5213 156.4501,520.508 157.498,520.4922 158.5459,520.4733 159.5939,520.4498 160.6418,520.4212 161.6898,520.3874 162.7377,520.3476 163.7857,520.2997 164.8336,520.2411 165.8815,520.1724 166.9295,520.0923 167.9774,519.9988 169.0254,519.8839 170.0733,519.7505 171.1212,519.5965 172.1692,519.4197 173.2171,519.2069 174.2651,518.9596 175.313,518.6768 176.361,518.3551 177.4089,517.9803 178.4568,517.5427 179.5048,517.0472 180.5527,516.4889 181.6007,515.857 182.6486,515.1179 183.6965,514.2897 184.7445,513.3658 185.7924,512.3393 186.8404,511.1558 187.8883,509.8358 188.9363,508.3783 189.9842,506.7751 191.0321,504.9773 192.0801,502.9718 193.128,500.7812 194.176,498.3966 195.2239,495.7876 196.2718,492.8854 197.3198,489.7504 198.3677,486.3746 199.4157,482.7503 200.4636,478.763 201.5116,474.4945 202.5595,469.9497 203.6074,465.1244 204.6554,459.9395 205.7033,454.4157 206.7513,448.603 207.7992,442.5024 208.8471,436.0812 209.8951,429.2957 210.943,422.2416 211.991,414.927 213.0389,407.3605 214.0869,399.4631 215.1348,391.3531 216.1827,383.0487 217.2307,374.5656 218.2786,365.8863 219.3266,357.07 220.3745,348.16 221.4224,339.1776 222.4704,330.1433 223.5183,321.1019 224.5663,312.0892 225.6142,303.1282 226.6622,294.2432 227.7101,285.521 228.758,276.951 229.806,268.5535 230.8539,260.3487 231.9019,252.4338 232.9498,244.8005 233.9977,237.4354 235.0457,230.3518 236.0936,223.6167 237.1416,217.2754 238.1895,211.2561 239.2375,205.5631 240.2854,200.213 241.3333,195.3245 242.3813,190.764 243.4292,186.527 244.4772,182.6087 245.5251,179.1017 246.573,175.916 247.621,173.0109 248.6689,170.3758 249.7169,168.0454 250.7648,166.0011 251.8128,164.1701 252.8607,162.5388 253.9086,161.1041 254.9566,159.8892 256.0045,158.8126 257.0525,157.8612 258.1004,157.0218 259.1484,156.3067 260.1963,155.6665 261.2442,155.0834 262.2922,154.546 263.3401,154.0461 264.3881,153.5611 265.436,153.0751 266.4839,152.5787 267.5319,152.0593 268.5798,151.4905 269.6278,150.8712 270.6757,150.1934 271.7237,149.4489 272.7716,148.594 273.8195,147.6423 274.8675,146.5908 275.9154,145.433 276.9634,144.1314 278.0113,142.6833 279.0592,141.106 280.1072,139.3964 281.1551,137.5359 282.2031,135.4951 283.251,133.3195 284.299,131.012 285.3469,128.5764 286.3948,125.9748 287.4428,123.269 288.4907,120.4735 289.5387,117.601 290.5866,114.6583 291.6345,111.6883 292.6825,108.7213 293.7304,105.7793 294.7784,102.8994 295.8263,100.1485 296.8743,97.5397 297.9222,95.1019 298.9701,92.8655 300.0181,90.9915 301.066,89.4247 302.114,88.1951 303.1619,87.3325 304.2098,87.0047 305.2578,87.1957 306.3057,87.8753 307.3537,89.0663 308.4016,90.8851 309.4496,93.4248 310.4975,96.5526 311.5454,100.278 312.5934,104.6276 313.6413,109.8351 314.6893,115.6508 315.7372,122.0675 316.7851,129.0771 317.8331,136.8468 318.881,145.2165 319.929,154.1027 320.9769,163.4818 322.0249,173.4064 323.0728,183.8349 324.1207,194.6229 325.1687,205.7363 326.2166,217.1529 327.2646,228.8768 328.3125,240.762 329.3604,252.771 330.4084,264.8667 331.4563,276.9989 332.5043,289.0924 333.5522,301.1116 334.6002,313.0234 335.6481,324.7517 336.696,336.2346 337.744,347.48 338.7919,358.4643 339.8399,369.1386 340.8878,379.3796 341.9357,389.2749 342.9837,398.8121 344.0316,407.9793 345.0796,416.6175 346.1275,424.8404 347.1755,432.6674 348.2234,440.0971 349.2713,447.0346 350.3193,453.5067 351.3672,459.595 352.4152,465.3061 353.4631,470.6094 354.511,475.4445 355.559,479.9425 356.6069,484.1143 357.6549,487.9709 358.7028,491.4137 359.7508,494.5746 360.7987,497.4748 361.8466,500.1264 362.8946,502.4858 363.9425,504.6012 364.9905,506.522 366.0384,508.2596 367.0863,509.8054 368.1343,511.1546 369.1822,512.3677 370.2302,513.4539 371.2781,514.4224 372.3261,515.2435 373.374,515.9745 374.4219,516.6226 375.4699,517.1946 376.5178,517.6803 377.5658,518.1007 378.6137,518.47 379.6616,518.7927 380.7096,519.0679 381.7575,519.2988 382.8055,519.4998 383.8534,519.6738 384.9014,519.8231 385.9493,519.9443 386.9972,520.0488 388.0452,520.1385 389.0931,520.2149 390.1411,520.2769 391.189,520.3288 392.237,520.373 393.2849,520.4103 394.3328,520.4408 395.3808,520.4655 396.4287,520.4863 397.4767,520.5037 398.5246,520.5181 399.5725,520.5293 400.6205,520.5386 401.6684,520.5464 402.7164,520.5528 403.7643,520.5578 404.8123,520.5618 405.8602,520.5651 406.9081,520.5678 407.9561,520.57 409.004,520.5716 410.052,520.573 411.0999,520.5741 412.1478,520.5749 413.1958,520.5756 414.2437,520.5761 415.2917,520.5766 416.3396,520.5769 417.3876,520.5771 418.4355,520.5773 419.4834,520.5775 420.5314,520.5776 421.5793,520.5777 422.6273,520.5778 423.6752,520.5778 424.7231,520.5779 425.7711,520.5779 426.819,520.5779 427.867,520.578 428.9149,520.578 429.9629,520.578 431.0108,520.578 432.0587,520.578 433.1067,520.578 434.1546,520.578 435.2026,520.578 436.2505,520.578 437.2984,520.578 438.3464,520.578 439.3943,520.578 440.4423,520.578 441.4902,520.578 442.5382,520.578 443.5861,520.578 444.634,520.578 445.682,520.578 446.7299,520.578 447.7779,520.578 448.8258,520.578 449.8737,520.578 450.9217,520.578 451.9696,520.578 453.0176,520.578 454.0655,520.578 455.1135,520.578 456.1614,520.578 457.2093,520.578 458.2573,520.578 459.3052,520.578 460.3532,520.578 461.4011,520.578 462.449,520.578 463.497,520.578 464.5449,520.578 465.5929,520.578 466.6408,520.578 467.6888,520.578 468.7367,520.578 469.7846,520.578 470.8326,520.578 471.8805,520.578 472.9285,520.578 473.9764,520.578 475.0243,520.578 476.0723,520.578 477.1202,520.578 478.1682,520.578 479.2161,520.578 480.2641,520.578 481.312,520.578 482.3599,520.578 483.4079,520.578 484.4558,520.578 485.5038,520.578 486.5517,520.578 487.5996,520.578 488.6476,520.578 489.6955,520.578 490.7435,520.578 491.7914,520.578 492.8394,520.578 493.8873,520.578 494.9352,520.578 495.9832,520.578 497.0311,520.578 498.0791,520.578 499.127,520.578 500.1749,520.578 501.2229,520.578 502.2708,520.578 503.3188,520.578 504.3667,520.578 505.4147,520.578 506.4626,520.578 507.5105,520.578 508.5585,520.578 509.6064,520.578 510.6544,520.578 511.7023,520.578 512.7502,520.578 513.7982,520.578 514.8461,520.578 515.8941,520.578 516.942,520.578 517.99,520.578 519.0379,520.578 520.0858,520.578 521.1338,520.578 522.1817,520.578 523.2297,520.578 524.2776,520.578 525.3256,520.578 526.3735,520.578 527.4214,520.578 528.4694,520.578 529.5173,520.578 530.5653,520.578 531.6132,520.578 532.6611,520.578 533.7091,520.578 534.757,520.578 535.805,520.578 536.8529,520.578 537.9009,520.578 538.9488,520.578 539.9967,520.578 541.0447,520.578 542.0926,520.578 543.1406,520.578 544.1885,520.578 545.2364,520.578 546.2844,520.578 547.3323,520.578 548.3803,520.578 549.4282,520.578 550.4762,520.578 551.5241,520.578 552.572,520.578 553.62,520.578 554.6679,520.578 555.7159,520.578 556.7638,520.578 557.8117,520.578 558.8597,520.578 559.9076,520.578 560.9556,520.578 562.0035,520.578 563.0515,520.578 564.0994,520.578 565.1473,520.578 566.1953,520.578 567.2432,520.578 568.2912,520.578 569.3391,520.578 570.387,520.578 571.435,520.578 572.4829,520.578 573.5309,520.578 574.5788,520.578 575.6268,520.578 576.6747,520.578 577.7226,520.578 578.7706,520.578 579.8185,520.578 580.8665,520.578 581.9144,520.578 582.9623,520.578 584.0103,520.578 585.0582,520.578 586.1062,520.578 587.1541,520.578 588.2021,520.578 589.25,520.578 590.2979,520.578 591.3459,520.578 592.3938,520.578 593.4418,520.578 594.4897,520.578 595.5376,520.578 596.5856,520.578 597.6335,520.578 598.6815,520.578 599.7294,520.578 600.7774,520.578 601.8253,520.578 602.8732,520.578 602.8732,520.578 601.8253,520.578 600.7774,520.578 599.7294,520.578 598.6815,520.578 597.6335,520.578 596.5856,520.578 595.5376,520.578 594.4897,520.578 593.4418,520.578 592.3938,520.578 591.3459,520.578 590.2979,520.578 589.25,520.578 588.2021,520.578 587.1541,520.578 586.1062,520.578 585.0582,520.578 584.0103,520.578 582.9623,520.578 581.9144,520.578 580.8665,520.578 579.8185,520.578 578.7706,520.578 577.7226,520.578 576.6747,520.578 575.6268,520.578 574.5788,520.578 573.5309,520.578 572.4829,520.578 571.435,520.578 570.387,520.578 569.3391,520.578 568.2912,520.578 567.2432,520.578 566.1953,520.578 565.1473,520.578 564.0994,520.578 563.0515,520.578 562.0035,520.578 560.9556,520.578 559.9076,520.578 558.8597,520.578 557.8117,520.578 556.7638,520.578 555.7159,520.578 554.6679,520.578 553.62,520.578 552.572,520.578 551.5241,520.578 550.4762,520.578 549.4282,520.578 548.3803,520.578 547.3323,520.578 546.2844,520.578 545.2364,520.578 544.1885,520.578 543.1406,520.578 542.0926,520.578 541.0447,520.578 539.9967,520.578 538.9488,520.578 537.9009,520.578 536.8529,520.578 535.805,520.578 534.757,520.578 533.7091,520.578 532.6611,520.578 531.6132,520.578 530.5653,520.578 529.5173,520.578 528.4694,520.578 527.4214,520.578 526.3735,520.578 525.3256,520.578 524.2776,520.578 523.2297,520.578 522.1817,520.578 521.1338,520.578 520.0858,520.578 519.0379,520.578 517.99,520.578 516.942,520.578 515.8941,520.578 514.8461,520.578 513.7982,520.578 512.7502,520.578 511.7023,520.578 510.6544,520.578 509.6064,520.578 508.5585,520.578 507.5105,520.578 506.4626,520.578 505.4147,520.578 504.3667,520.578 503.3188,520.578 502.2708,520.578 501.2229,520.578 500.1749,520.578 499.127,520.578 498.0791,520.578 497.0311,520.578 495.9832,520.578 494.9352,520.578 493.8873,520.578 492.8394,520.578 491.7914,520.578 490.7435,520.578 489.6955,520.578 488.6476,520.578 487.5996,520.578 486.5517,520.578 485.5038,520.578 484.4558,520.578 483.4079,520.578 482.3599,520.578 481.312,520.578 480.2641,520.578 479.2161,520.578 478.1682,520.578 477.1202,520.578 476.0723,520.578 475.0243,520.578 473.9764,520.578 472.9285,520.578 471.8805,520.578 470.8326,520.578 469.7846,520.578 468.7367,520.578 467.6888,520.578 466.6408,520.578 465.5929,520.578 464.5449,520.578 463.497,520.578 462.449,520.578 461.4011,520.578 460.3532,520.578 459.3052,520.578 458.2573,520.578 457.2093,520.578 456.1614,520.578 455.1135,520.578 454.0655,520.578 453.0176,520.578 451.9696,520.578 450.9217,520.578 449.8737,520.578 448.8258,520.578 447.7779,520.578 446.7299,520.578 445.682,520.578 444.634,520.578 443.5861,520.578 442.5382,520.578 441.4902,520.578 440.4423,520.578 439.3943,520.578 438.3464,520.578 437.2984,520.578 436.2505,520.578 435.2026,520.578 434.1546,520.578 433.1067,520.578 432.0587,520.578 431.0108,520.578 429.9629,520.578 428.9149,520.578 427.867,520.578 426.819,520.578 425.7711,520.578 424.7231,520.578 423.6752,520.578 422.6273,520.578 421.5793,520.578 420.5314,520.578 419.4834,520.578 418.4355,520.578 417.3876,520.578 416.3396,520.578 415.2917,520.578 414.2437,520.578 413.1958,520.578 412.1478,520.578 411.0999,520.578 410.052,520.578 409.004,520.578 407.9561,520.578 406.9081,520.578 405.8602,520.578 404.8123,520.578 403.7643,520.578 402.7164,520.578 401.6684,520.578 400.6205,520.578 399.5725,520.578 398.5246,520.578 397.4767,520.578 396.4287,520.578 395.3808,520.578 394.3328,520.578 393.2849,520.578 392.237,520.578 391.189,520.578 390.1411,520.578 389.0931,520.578 388.0452,520.578 386.9972,520.578 385.9493,520.578 384.9014,520.578 383.8534,520.578 382.8055,520.578 381.7575,520.578 380.7096,520.578 379.6616,520.578 378.6137,520.578 377.5658,520.578 376.5178,520.578 375.4699,520.578 374.4219,520.578 373.374,520.578 372.3261,520.578 371.2781,520.578 370.2302,520.578 369.1822,520.578 368.1343,520.578 367.0863,520.578 366.0384,520.578 364.9905,520.578 363.9425,520.578 362.8946,520.578 361.8466,520.578 360.7987,520.578 359.7508,520.578 358.7028,520.578 357.6549,520.578 356.6069,520.578 355.559,520.578 354.511,520.578 353.4631,520.578 352.4152,520.578 351.3672,520.578 350.3193,520.578 349.2713,520.578 348.2234,520.578 347.1755,520.578 346.1275,520.578 345.0796,520.578 344.0316,520.578 342.9837,520.578 341.9357,520.578 340.8878,520.578 339.8399,520.578 338.7919,520.578 337.744,520.578 336.696,520.578 335.6481,520.578 334.6002,520.578 333.5522,520.578 332.5043,520.578 331.4563,520.578 330.4084,520.578 329.3604,520.578 328.3125,520.578 327.2646,520.578 326.2166,520.578 325.1687,520.578 324.1207,520.578 323.0728,520.578 322.0249,520.578 320.9769,520.578 319.929,520.578 318.881,520.578 317.8331,520.578 316.7851,520.578 315.7372,520.578 314.6893,520.578 313.6413,520.578 312.5934,520.578 311.5454,520.578 310.4975,520.578 309.4496,520.578 308.4016,520.578 307.3537,520.578 306.3057,520.578 305.2578,520.578 304.2098,520.578 303.1619,520.578 302.114,520.578 301.066,520.578 300.0181,520.578 298.9701,520.578 297.9222,520.578 296.8743,520.578 295.8263,520.578 294.7784,520.578 293.7304,520.578 292.6825,520.578 291.6345,520.578 290.5866,520.578 289.5387,520.578 288.4907,520.578 287.4428,520.578 286.3948,520.578 285.3469,520.578 284.299,520.578 283.251,520.578 282.2031,520.578 281.1551,520.578 280.1072,520.578 279.0592,520.578 278.0113,520.578 276.9634,520.578 275.9154,520.578 274.8675,520.578 273.8195,520.578 272.7716,520.578 271.7237,520.578 270.6757,520.578 269.6278,520.578 268.5798,520.578 267.5319,520.578 266.4839,520.578 265.436,520.578 264.3881,520.578 263.3401,520.578 262.2922,520.578 261.2442,520.578 260.1963,520.578 259.1484,520.578 258.1004,520.578 257.0525,520.578 256.0045,520.578 254.9566,520.578 253.9086,520.578 252.8607,520.578 251.8128,520.578 250.7648,520.578 249.7169,520.578 248.6689,520.578 247.621,520.578 246.573,520.578 245.5251,520.578 244.4772,520.578 243.4292,520.578 242.3813,520.578 241.3333,520.578 240.2854,520.578 239.2375,520.578 238.1895,520.578 237.1416,520.578 236.0936,520.578 235.0457,520.578 233.9977,520.578 232.9498,520.578 231.9019,520.578 230.8539,520.578 229.806,520.578 228.758,520.578 227.7101,520.578 226.6622,520.578 225.6142,520.578 224.5663,520.578 223.5183,520.578 222.4704,520.578 221.4224,520.578 220.3745,520.578 219.3266,520.578 218.2786,520.578 217.2307,520.578 216.1827,520.578 215.1348,520.578 214.0869,520.578 213.0389,520.578 211.991,520.578 210.943,520.578 209.8951,520.578 208.8471,520.578 207.7992,520.578 206.7513,520.578 205.7033,520.578 204.6554,520.578 203.6074,520.578 202.5595,520.578 201.5116,520.578 200.4636,520.578 199.4157,520.578 198.3677,520.578 197.3198,520.578 196.2718,520.578 195.2239,520.578 194.176,520.578 193.128,520.578 192.0801,520.578 191.0321,520.578 189.9842,520.578 188.9363,520.578 187.8883,520.578 186.8404,520.578 185.7924,520.578 184.7445,520.578 183.6965,520.578 182.6486,520.578 181.6007,520.578 180.5527,520.578 179.5048,520.578 178.4568,520.578 177.4089,520.578 176.361,520.578 175.313,520.578 174.2651,520.578 173.2171,520.578 172.1692,520.578 171.1212,520.578 170.0733,520.578 169.0254,520.578 167.9774,520.578 166.9295,520.578 165.8815,520.578 164.8336,520.578 163.7857,520.578 162.7377,520.578 161.6898,520.578 160.6418,520.578 159.5939,520.578 158.5459,520.578 157.498,520.578 156.4501,520.578 155.4021,520.578 154.3542,520.578 153.3062,520.578 152.2583,520.578 151.2104,520.578 150.1624,520.578 149.1145,520.578 148.0665,520.578 147.0186,520.578 145.9706,520.578 144.9227,520.578 143.8748,520.578 142.8268,520.578 141.7789,520.578 140.7309,520.578 139.683,520.578 138.6351,520.578 137.5871,520.578 136.5392,520.578 135.4912,520.578 134.4433,520.578 133.3953,520.578 132.3474,520.578 131.2995,520.578 130.2515,520.578 129.2036,520.578 128.1556,520.578 127.1077,520.578 126.0598,520.578 125.0118,520.578 123.9639,520.578 122.9159,520.578 121.868,520.578 120.82,520.578 119.7721,520.578 118.7242,520.578 117.6762,520.578 116.6283,520.578 115.5803,520.578 114.5324,520.578 113.4844,520.578 112.4365,520.578 111.3886,520.578 110.3406,520.578 109.2927,520.578 108.2447,520.578 107.1968,520.578 106.1489,520.578 105.1009,520.578 104.053,520.578 103.005,520.578 101.9571,520.578 100.9091,520.578 99.8612,520.578 98.8133,520.578 97.7653,520.578 96.7174,520.578 95.6694,520.578 94.6215,520.578 93.5736,520.578 92.5256,520.578 91.4777,520.578 90.4297,520.578 89.3818,520.578 88.3338,520.578 87.2859,520.578 86.238,520.578 85.19,520.578 84.1421,520.578 83.0941,520.578 82.0462,520.578 80.9983,520.578 79.9503,520.578 78.9024,520.578 77.8544,520.578 76.8065,520.578 75.7585,520.578 74.7106,520.578 73.6627,520.578 72.6147,520.578 71.5668,520.578 70.5188,520.578 69.4709,520.578 68.423,520.578 67.375,520.578" id="polygon-0002" style="fill: #00BA38; stroke-width: 1.07" clip-path="url(#clip_40_6_544_26_629_65_23_35)" />
  <polygon points="67.375,367.1514 68.423,367.5022 69.4709,368.4301 70.5188,369.9041 71.5668,371.9097 72.6147,374.4297 73.6627,377.5718 74.7106,381.1684 75.7585,385.1674 76.8065,389.533 77.8544,394.228 78.9024,399.274 79.9503,404.5377 80.9983,409.965 82.0462,415.5135 83.0941,421.1405 84.1421,426.7922 85.19,432.4018 86.238,437.9312 87.2859,443.3452 88.3338,448.6096 89.3818,453.6253 90.4297,458.3962 91.4777,462.9083 92.5256,467.1408 93.5736,471.0746 94.6215,474.5963 95.6694,477.7629 96.7174,480.5816 97.7653,483.0458 98.8133,485.1502 99.8612,486.789 100.9091,488.0458 101.9571,488.9414 103.005,489.4793 104.053,489.6637 105.1009,489.4066 106.1489,488.7972 107.1968,487.8626 108.2447,486.6121 109.2927,485.0552 110.3406,483.1262 111.3886,480.907 112.4365,478.4257 113.4844,475.6943 114.5324,472.7247 115.5803,469.474 116.6283,466.0086 117.6762,462.3534 118.7242,458.5198 119.7721,454.5189 120.82,450.3237 121.868,445.9805 122.9159,441.506 123.9639,436.9066 125.0118,432.1877 126.0598,427.3234 127.1077,422.339 128.1556,417.2401 129.2036,412.0238 130.2515,406.686 131.2995,401.1827 132.3474,395.5257 133.3953,389.7124 134.4433,383.7303 135.4912,377.5664 136.5392,371.1473 137.5871,364.488 138.6351,357.587 139.683,350.4291 140.7309,342.9998 141.7789,335.2047 142.8268,327.0804 143.8748,318.6398 144.9227,309.8767 145.9706,300.7871 147.0186,291.2863 148.0665,281.4424 149.1145,271.2906 150.1624,260.8451 151.2104,250.123 152.2583,239.0927 153.3062,227.8445 154.3542,216.4326 155.4021,204.8953 156.4501,193.2738 157.498,181.6258 158.5459,170.036 159.5939,158.5607 160.6418,147.2555 161.6898,136.1772 162.7377,125.4832 163.7857,115.2169 164.8336,105.4111 165.8815,96.1229 166.9295,87.4077 167.9774,79.4985 169.0254,72.3683 170.0733,66.005 171.1212,60.4475 172.1692,55.7314 173.2171,52.113 174.2651,49.4874 175.313,47.7897 176.361,47.0271 177.4089,47.2026 178.4568,48.5364 179.5048,50.864 180.5527,54.0794 181.6007,58.1562 182.6486,63.0645 183.6965,68.9431 184.7445,75.6072 185.7924,82.9367 186.8404,90.882 187.8883,99.3913 188.9363,108.508 189.9842,118.0705 191.0321,127.9758 192.0801,138.168 193.128,148.5914 194.176,159.2099 195.2239,169.9166 196.2718,180.6482 197.3198,191.3588 198.3677,202.0045 199.4157,212.504 200.4636,222.8151 201.5116,232.9205 202.5595,242.7937 203.6074,252.4107 204.6554,261.6802 205.7033,270.6142 206.7513,279.2324 207.7992,287.5276 208.8471,295.4948 209.8951,303.0562 210.943,310.2546 211.991,317.129 213.0389,323.6848 214.0869,329.9281 215.1348,335.8004 216.1827,341.3508 217.2307,346.62 218.2786,351.6158 219.3266,356.346 220.3745,360.7627 221.4224,364.9042 222.4704,368.8028 223.5183,372.4616 224.5663,375.883 225.6142,379.0161 226.6622,381.8854 227.7101,384.5152 228.758,386.9026 229.806,389.0445 230.8539,390.8815 231.9019,392.4326 232.9498,393.7232 233.9977,394.7503 235.0457,395.5116 236.0936,395.9483 237.1416,396.088 238.1895,395.9662 239.2375,395.5886 240.2854,394.9624 241.3333,394.0506 242.3813,392.8977 243.4292,391.5496 244.4772,390.0258 245.5251,388.3477 246.573,386.5209 247.621,384.6012 248.6689,382.6336 249.7169,380.6486 250.7648,378.6775 251.8128,376.7742 252.8607,374.989 253.9086,373.3468 254.9566,371.8788 256.0045,370.6153 257.0525,369.643 258.1004,368.9867 259.1484,368.6369 260.1963,368.6127 261.2442,368.9311 262.2922,369.6821 263.3401,370.8539 264.3881,372.4018 265.436,374.3252 266.4839,376.6212 267.5319,379.3533 268.5798,382.4773 269.6278,385.9279 270.6757,389.6863 271.7237,393.732 272.7716,398.0857 273.8195,402.6878 274.8675,407.4755 275.9154,412.4205 276.9634,417.4939 278.0113,422.6758 279.0592,427.9121 280.1072,433.1624 281.1551,438.4 282.2031,443.5988 283.251,448.714 284.299,453.7115 285.3469,458.5825 286.3948,463.3097 287.4428,467.8773 288.4907,472.2347 289.5387,476.372 290.5866,480.308 291.6345,484.0372 292.6825,487.5555 293.7304,490.8206 294.7784,493.8419 295.8263,496.6535 296.8743,499.2592 297.9222,501.6636 298.9701,503.8385 300.0181,505.8028 301.066,507.5932 302.114,509.2182 303.1619,510.6861 304.2098,511.9818 305.2578,513.125 306.3057,514.1466 307.3537,515.0551 308.4016,515.8591 309.4496,516.5521 310.4975,517.1498 311.5454,517.6736 312.5934,518.1304 313.6413,518.5264 314.6893,518.86 315.7372,519.1412 316.7851,519.3831 317.8331,519.59 318.881,519.7658 319.929,519.9105 320.9769,520.0298 322.0249,520.1305 323.0728,520.215 324.1207,520.2854 325.1687,520.342 326.2166,520.3877 327.2646,520.4256 328.3125,520.4567 329.3604,520.4821 330.4084,520.5021 331.4563,520.5179 332.5043,520.5308 333.5522,520.5412 334.6002,520.5495 335.6481,520.5559 336.696,520.5608 337.744,520.5647 338.7919,520.5678 339.8399,520.5703 340.8878,520.5721 341.9357,520.5735 342.9837,520.5746 344.0316,520.5755 345.0796,520.5761 346.1275,520.5766 347.1755,520.577 348.2234,520.5772 349.2713,520.5774 350.3193,520.5776 351.3672,520.5777 352.4152,520.5778 353.4631,520.5779 354.511,520.5779 355.559,520.5779 356.6069,520.578 357.6549,520.578 358.7028,520.578 359.7508,520.578 360.7987,520.578 361.8466,520.578 362.8946,520.578 363.9425,520.578 364.9905,520.578 366.0384,520.578 367.0863,520.578 368.1343,520.578 369.1822,520.578 370.2302,520.578 371.2781,520.578 372.3261,520.578 373.374,520.578 374.4219,520.578 375.4699,520.578 376.5178,520.578 377.5658,520.578 378.6137,520.578 379.6616,520.578 380.7096,520.578 381.7575,520.578 382.8055,520.578 383.8534,520.578 384.9014,520.578 385.9493,520.578 386.9972,520.578 388.0452,520.578 389.0931,520.578 390.1411,520.578 391.189,520.578 392.237,520.578 393.2849,520.578 394.3328,520.578 395.3808,520.578 396.4287,520.578 397.4767,520.578 398.5246,520.578 399.5725,520.578 400.6205,520.578 401.6684,520.578 402.7164,520.578 403.7643,520.578 404.8123,520.578 405.8602,520.578 406.9081,520.578 407.9561,520.578 409.004,520.578 410.052,520.578 411.0999,520.578 412.1478,520.578 413.1958,520.578 414.2437,520.578 415.2917,520.578 416.3396,520.578 417.3876,520.578 418.4355,520.578 419.4834,520.578 420.5314,520.578 421.5793,520.578 422.6273,520.578 423.6752,520.578 424.7231,520.578 425.7711,520.578 426.819,520.578 427.867,520.578 428.9149,520.578 429.9629,520.578 431.0108,520.578 432.0587,520.578 433.1067,520.578 434.1546,520.578 435.2026,520.578 436.2505,520.578 437.2984,520.578 438.3464,520.578 439.3943,520.578 440.4423,520.578 441.4902,520.578 442.5382,520.578 443.5861,520.578 444.634,520.578 445.682,520.578 446.7299,520.578 447.7779,520.578 448.8258,520.578 449.8737,520.578 450.9217,520.578 451.9696,520.578 453.0176,520.578 454.0655,520.578 455.1135,520.578 456.1614,520.578 457.2093,520.578 458.2573,520.578 459.3052,520.578 460.3532,520.578 461.4011,520.578 462.449,520.578 463.497,520.578 464.5449,520.578 465.5929,520.578 466.6408,520.578 467.6888,520.578 468.7367,520.578 469.7846,520.578 470.8326,520.578 471.8805,520.578 472.9285,520.578 473.9764,520.578 475.0243,520.578 476.0723,520.578 477.1202,520.578 478.1682,520.578 479.2161,520.578 480.2641,520.578 481.312,520.578 482.3599,520.578 483.4079,520.578 484.4558,520.578 485.5038,520.578 486.5517,520.578 487.5996,520.578 488.6476,520.578 489.6955,520.578 490.7435,520.578 491.7914,520.578 492.8394,520.578 493.8873,520.578 494.9352,520.578 495.9832,520.578 497.0311,520.578 498.0791,520.578 499.127,520.578 500.1749,520.578 501.2229,520.578 502.2708,520.578 503.3188,520.578 504.3667,520.578 505.4147,520.578 506.4626,520.578 507.5105,520.578 508.5585,520.578 509.6064,520.578 510.6544,520.578 511.7023,520.578 512.7502,520.578 513.7982,520.578 514.8461,520.578 515.8941,520.578 516.942,520.578 517.99,520.578 519.0379,520.578 520.0858,520.578 521.1338,520.578 522.1817,520.578 523.2297,520.578 524.2776,520.578 525.3256,520.578 526.3735,520.578 527.4214,520.578 528.4694,520.578 529.5173,520.578 530.5653,520.578 531.6132,520.578 532.6611,520.578 533.7091,520.578 534.757,520.578 535.805,520.578 536.8529,520.578 537.9009,520.578 538.9488,520.578 539.9967,520.578 541.0447,520.578 542.0926,520.578 543.1406,520.578 544.1885,520.578 545.2364,520.578 546.2844,520.578 547.3323,520.578 548.3803,520.578 549.4282,520.578 550.4762,520.578 551.5241,520.578 552.572,520.578 553.62,520.578 554.6679,520.578 555.7159,520.578 556.7638,520.578 557.8117,520.578 558.8597,520.578 559.9076,520.578 560.9556,520.578 562.0035,520.578 563.0515,520.578 564.0994,520.578 565.1473,520.578 566.1953,520.578 567.2432,520.578 568.2912,520.578 569.3391,520.578 570.387,520.578 571.435,520.578 572.4829,520.578 573.5309,520.578 574.5788,520.578 575.6268,520.578 576.6747,520.578 577.7226,520.578 578.7706,520.578 579.8185,520.578 580.8665,520.578 581.9144,520.578 582.9623,520.578 584.0103,520.578 585.0582,520.578 586.1062,520.578 587.1541,520.578 588.2021,520.578 589.25,520.578 590.2979,520.578 591.3459,520.578 592.3938,520.578 593.4418,520.578 594.4897,520.578 595.5376,520.578 596.5856,520.578 597.6335,520.578 598.6815,520.578 599.7294,520.578 600.7774,520.578 601.8253,520.578 602.8732,520.578 602.8732,520.578 601.8253,520.578 600.7774,520.578 599.7294,520.578 598.6815,520.578 597.6335,520.578 596.5856,520.578 595.5376,520.578 594.4897,520.578 593.4418,520.578 592.3938,520.578 591.3459,520.578 590.2979,520.578 589.25,520.578 588.2021,520.578 587.1541,520.578 586.1062,520.578 585.0582,520.578 584.0103,520.578 582.9623,520.578 581.9144,520.578 580.8665,520.578 579.8185,520.578 578.7706,520.578 577.7226,520.578 576.6747,520.578 575.6268,520.578 574.5788,520.578 573.5309,520.578 572.4829,520.578 571.435,520.578 570.387,520.578 569.3391,520.578 568.2912,520.578 567.2432,520.578 566.1953,520.578 565.1473,520.578 564.0994,520.578 563.0515,520.578 562.0035,520.578 560.9556,520.578 559.9076,520.578 558.8597,520.578 557.8117,520.578 556.7638,520.578 555.7159,520.578 554.6679,520.578 553.62,520.578 552.572,520.578 551.5241,520.578 550.4762,520.578 549.4282,520.578 548.3803,520.578 547.3323,520.578 546.2844,520.578 545.2364,520.578 544.1885,520.578 543.1406,520.578 542.0926,520.578 541.0447,520.578 539.9967,520.578 538.9488,520.578 537.9009,520.578 536.8529,520.578 535.805,520.578 534.757,520.578 533.7091,520.578 532.6611,520.578 531.6132,520.578 530.5653,520.578 529.5173,520.578 528.4694,520.578 527.4214,520.578 526.3735,520.578 525.3256,520.578 524.2776,520.578 523.2297,520.578 522.1817,520.578 521.1338,520.578 520.0858,520.578 519.0379,520.578 517.99,520.578 516.942,520.578 515.8941,520.578 514.8461,520.578 513.7982,520.578 512.7502,520.578 511.7023,520.578 510.6544,520.578 509.6064,520.578 508.5585,520.578 507.5105,520.578 506.4626,520.578 505.4147,520.578 504.3667,520.578 503.3188,520.578 502.2708,520.578 501.2229,520.578 500.1749,520.578 499.127,520.578 498.0791,520.578 497.0311,520.578 495.9832,520.578 494.9352,520.578 493.8873,520.578 492.8394,520.578 491.7914,520.578 490.7435,520.578 489.6955,520.578 488.6476,520.578 487.5996,520.578 486.5517,520.578 485.5038,520.578 484.4558,520.578 483.4079,520.578 482.3599,520.578 481.312,520.578 480.2641,520.578 479.2161,520.578 478.1682,520.578 477.1202,520.578 476.0723,520.578 475.0243,520.578 473.9764,520.578 472.9285,520.578 471.8805,520.578 470.8326,520.578 469.7846,520.578 468.7367,520.578 467.6888,520.578 466.6408,520.578 465.5929,520.578 464.5449,520.578 463.497,520.578 462.449,520.578 461.4011,520.578 460.3532,520.578 459.3052,520.578 458.2573,520.578 457.2093,520.578 456.1614,520.578 455.1135,520.578 454.0655,520.578 453.0176,520.578 451.9696,520.578 450.9217,520.578 449.8737,520.578 448.8258,520.578 447.7779,520.578 446.7299,520.578 445.682,520.578 444.634,520.578 443.5861,520.578 442.5382,520.578 441.4902,520.578 440.4423,520.578 439.3943,520.578 438.3464,520.578 437.2984,520.578 436.2505,520.578 435.2026,520.578 434.1546,520.578 433.1067,520.578 432.0587,520.578 431.0108,520.578 429.9629,520.578 428.9149,520.578 427.867,520.578 426.819,520.578 425.7711,520.578 424.7231,520.578 423.6752,520.578 422.6273,520.578 421.5793,520.578 420.5314,520.578 419.4834,520.578 418.4355,520.578 417.3876,520.578 416.3396,520.578 415.2917,520.578 414.2437,520.578 413.1958,520.578 412.1478,520.578 411.0999,520.578 410.052,520.578 409.004,520.578 407.9561,520.578 406.9081,520.578 405.8602,520.578 404.8123,520.578 403.7643,520.578 402.7164,520.578 401.6684,520.578 400.6205,520.578 399.5725,520.578 398.5246,520.578 397.4767,520.578 396.4287,520.578 395.3808,520.578 394.3328,520.578 393.2849,520.578 392.237,520.578 391.189,520.578 390.1411,520.578 389.0931,520.578 388.0452,520.578 386.9972,520.578 385.9493,520.578 384.9014,520.578 383.8534,520.578 382.8055,520.578 381.7575,520.578 380.7096,520.578 379.6616,520.578 378.6137,520.578 377.5658,520.578 376.5178,520.578 375.4699,520.578 374.4219,520.578 373.374,520.578 372.3261,520.578 371.2781,520.578 370.2302,520.578 369.1822,520.578 368.1343,520.578 367.0863,520.578 366.0384,520.578 364.9905,520.578 363.9425,520.578 362.8946,520.578 361.8466,520.578 360.7987,520.578 359.7508,520.578 358.7028,520.578 357.6549,520.578 356.6069,520.578 355.559,520.578 354.511,520.578 353.4631,520.578 352.4152,520.578 351.3672,520.578 350.3193,520.578 349.2713,520.578 348.2234,520.578 347.1755,520.578 346.1275,520.578 345.0796,520.578 344.0316,520.578 342.9837,520.578 341.9357,520.578 340.8878,520.578 339.8399,520.578 338.7919,520.578 337.744,520.578 336.696,520.578 335.6481,520.578 334.6002,520.578 333.5522,520.578 332.5043,520.578 331.4563,520.578 330.4084,520.578 329.3604,520.578 328.3125,520.578 327.2646,520.578 326.2166,520.578 325.1687,520.578 324.1207,520.578 323.0728,520.578 322.0249,520.578 320.9769,520.578 319.929,520.578 318.881,520.578 317.8331,520.578 316.7851,520.578 315.7372,520.578 314.6893,520.578 313.6413,520.578 312.5934,520.578 311.5454,520.578 310.4975,520.578 309.4496,520.578 308.4016,520.578 307.3537,520.578 306.3057,520.578 305.2578,520.578 304.2098,520.578 303.1619,520.578 302.114,520.578 301.066,520.578 300.0181,520.578 298.9701,520.578 297.9222,520.578 296.8743,520.578 295.8263,520.578 294.7784,520.578 293.7304,520.578 292.6825,520.578 291.6345,520.578 290.5866,520.578 289.5387,520.578 288.4907,520.578 287.4428,520.578 286.3948,520.578 285.3469,520.578 284.299,520.578 283.251,520.578 282.2031,520.578 281.1551,520.578 280.1072,520.578 279.0592,520.578 278.0113,520.578 276.9634,520.578 275.9154,520.578 274.8675,520.578 273.8195,520.578 272.7716,520.578 271.7237,520.578 270.6757,520.578 269.6278,520.578 268.5798,520.578 267.5319,520.578 266.4839,520.578 265.436,520.578 264.3881,520.578 263.3401,520.578 262.2922,520.578 261.2442,520.578 260.1963,520.578 259.1484,520.578 258.1004,520.578 257.0525,520.578 256.0045,520.578 254.9566,520.578 253.9086,520.578 252.8607,520.578 251.8128,520.578 250.7648,520.578 249.7169,520.578 248.6689,520.578 247.621,520.578 246.573,520.578 245.5251,520.578 244.4772,520.578 243.4292,520.578 242.3813,520.578 241.3333,520.578 240.2854,520.578 239.2375,520.578 238.1895,520.578 237.1416,520.578 236.0936,520.578 235.0457,520.578 233.9977,520.578 232.9498,520.578 231.9019,520.578 230.8539,520.578 229.806,520.578 228.758,520.578 227.7101,520.578 226.6622,520.578 225.6142,520.578 224.5663,520.578 223.5183,520.578 222.4704,520.578 221.4224,520.578 220.3745,520.578 219.3266,520.578 218.2786,520.578 217.2307,520.578 216.1827,520.578 215.1348,520.578 214.0869,520.578 213.0389,520.578 211.991,520.578 210.943,520.578 209.8951,520.578 208.8471,520.578 207.7992,520.578 206.7513,520.578 205.7033,520.578 204.6554,520.578 203.6074,520.578 202.5595,520.578 201.5116,520.578 200.4636,520.578 199.4157,520.578 198.3677,520.578 197.3198,520.578 196.2718,520.578 195.2239,520.578 194.176,520.578 193.128,520.578 192.0801,520.578 191.0321,520.578 189.9842,520.578 188.9363,520.578 187.8883,520.578 186.8404,520.578 185.7924,520.578 184.7445,520.578 183.6965,520.578 182.6486,520.578 181.6007,520.578 180.5527,520.578 179.5048,520.578 178.4568,520.578 177.4089,520.578 176.361,520.578 175.313,520.578 174.2651,520.578 173.2171,520.578 172.1692,520.578 171.1212,520.578 170.0733,520.578 169.0254,520.578 167.9774,520.578 166.9295,520.578 165.8815,520.578 164.8336,520.578 163.7857,520.578 162.7377,520.578 161.6898,520.578 160.6418,520.578 159.5939,520.578 158.5459,520.578 157.498,520.578 156.4501,520.578 155.4021,520.578 154.3542,520.578 153.3062,520.578 152.2583,520.578 151.2104,520.578 150.1624,520.578 149.1145,520.578 148.0665,520.578 147.0186,520.578 145.9706,520.578 144.9227,520.578 143.8748,520.578 142.8268,520.578 141.7789,520.578 140.7309,520.578 139.683,520.578 138.6351,520.578 137.5871,520.578 136.5392,520.578 135.4912,520.578 134.4433,520.578 133.3953,520.578 132.3474,520.578 131.2995,520.578 130.2515,520.578 129.2036,520.578 128.1556,520.578 127.1077,520.578 126.0598,520.578 125.0118,520.578 123.9639,520.578 122.9159,520.578 121.868,520.578 120.82,520.578 119.7721,520.578 118.7242,520.578 117.6762,520.578 116.6283,520.578 115.5803,520.578 114.5324,520.578 113.4844,520.578 112.4365,520.578 111.3886,520.578 110.3406,520.578 109.2927,520.578 108.2447,520.578 107.1968,520.578 106.1489,520.578 105.1009,520.578 104.053,520.578 103.005,520.578 101.9571,520.578 100.9091,520.578 99.8612,520.578 98.8133,520.578 97.7653,520.578 96.7174,520.578 95.6694,520.578 94.6215,520.578 93.5736,520.578 92.5256,520.578 91.4777,520.578 90.4297,520.578 89.3818,520.578 88.3338,520.578 87.2859,520.578 86.238,520.578 85.19,520.578 84.1421,520.578 83.0941,520.578 82.0462,520.578 80.9983,520.578 79.9503,520.578 78.9024,520.578 77.8544,520.578 76.8065,520.578 75.7585,520.578 74.7106,520.578 73.6627,520.578 72.6147,520.578 71.5668,520.578 70.5188,520.578 69.4709,520.578 68.423,520.578 67.375,520.578" id="polygon-0003" style="fill: #619CFF; stroke-width: 1.07" clip-path="url(#clip_40_6_544_26_629_65_23_35)" />
  <g clip-path="url(#clip_0_576_720_0)">
    <text x="18.55" y="523.73" lengthAdjust="spacingAndGlyphs" id="text-0001" textLength="17.12px" style="font-size: 8.8px; font-family: Helvetica; fill: #4D4D4D">
      0.00
    </text>
  </g>
  <g clip-path="url(#clip_0_576_720_0)">
    <text x="18.55" y="425.08" lengthAdjust="spacingAndGlyphs" id="text-0002" textLength="17.12px" style="font-size: 8.8px; font-family: Helvetica; fill: #4D4D4D">
      0.05
    </text>
  </g>
  <g clip-path="url(#clip_0_576_720_0)">
    <text x="18.55" y="326.43" lengthAdjust="spacingAndGlyphs" id="text-0003" textLength="17.12px" style="font-size: 8.8px; font-family: Helvetica; fill: #4D4D4D">
      0.10
    </text>
  </g>
  <g clip-path="url(#clip_0_576_720_0)">
    <text x="18.55" y="227.78" lengthAdjust="spacingAndGlyphs" id="text-0004" textLength="17.12px" style="font-size: 8.8px; font-family: Helvetica; fill: #4D4D4D">
      0.15
    </text>
  </g>
  <g clip-path="url(#clip_0_576_720_0)">
    <text x="18.55" y="129.12" lengthAdjust="spacingAndGlyphs" id="text-0005" textLength="17.12px" style="font-size: 8.8px; font-family: Helvetica; fill: #4D4D4D">
      0.20
    </text>
  </g>
  <g clip-path="url(#clip_0_576_720_0)">
    <text x="18.55" y="30.47" lengthAdjust="spacingAndGlyphs" id="text-0006" textLength="17.12px" style="font-size: 8.8px; font-family: Helvetica; fill: #4D4D4D">
      0.25
    </text>
  </g>
  <polyline points="37.86,520.58 40.6,520.58" id="polyline-0023" style="stroke: #333333; stroke-width: 1.07" clip-path="url(#clip_0_576_720_0)" />
  <polyline points="37.86,421.93 40.6,421.93" id="polyline-0024" style="stroke: #333333; stroke-width: 1.07" clip-path="url(#clip_0_576_720_0)" />
  <polyline points="37.86,323.27 40.6,323.27" id="polyline-0025" style="stroke: #333333; stroke-width: 1.07" clip-path="url(#clip_0_576_720_0)" />
  <polyline points="37.86,224.62 40.6,224.62" id="polyline-0026" style="stroke: #333333; stroke-width: 1.07" clip-path="url(#clip_0_576_720_0)" />
  <polyline points="37.86,125.97 40.6,125.97" id="polyline-0027" style="stroke: #333333; stroke-width: 1.07" clip-path="url(#clip_0_576_720_0)" />
  <polyline points="37.86,27.31 40.6,27.31" id="polyline-0028" style="stroke: #333333; stroke-width: 1.07" clip-path="url(#clip_0_576_720_0)" />
  <polyline points="58.26,547 58.26,544.26" id="polyline-0029" style="stroke: #333333; stroke-width: 1.07" clip-path="url(#clip_0_576_720_0)" />
  <polyline points="172.2,547 172.2,544.26" id="polyline-0030" style="stroke: #333333; stroke-width: 1.07" clip-path="url(#clip_0_576_720_0)" />
  <polyline points="286.13,547 286.13,544.26" id="polyline-0031" style="stroke: #333333; stroke-width: 1.07" clip-path="url(#clip_0_576_720_0)" />
  <polyline points="400.07,547 400.07,544.26" id="polyline-0032" style="stroke: #333333; stroke-width: 1.07" clip-path="url(#clip_0_576_720_0)" />
  <polyline points="514,547 514,544.26" id="polyline-0033" style="stroke: #333333; stroke-width: 1.07" clip-path="url(#clip_0_576_720_0)" />
  <polyline points="627.94,547 627.94,544.26" id="polyline-0034" style="stroke: #333333; stroke-width: 1.07" clip-path="url(#clip_0_576_720_0)" />
  <g clip-path="url(#clip_0_576_720_0)">
    <text x="53.37" y="555.5" lengthAdjust="spacingAndGlyphs" id="text-0007" textLength="9.78px" style="font-size: 8.8px; font-family: Helvetica; fill: #4D4D4D">
      10
    </text>
  </g>
  <g clip-path="url(#clip_0_576_720_0)">
    <text x="167.3" y="555.5" lengthAdjust="spacingAndGlyphs" id="text-0008" textLength="9.78px" style="font-size: 8.8px; font-family: Helvetica; fill: #4D4D4D">
      15
    </text>
  </g>
  <g clip-path="url(#clip_0_576_720_0)">
    <text x="281.24" y="555.5" lengthAdjust="spacingAndGlyphs" id="text-0009" textLength="9.78px" style="font-size: 8.8px; font-family: Helvetica; fill: #4D4D4D">
      20
    </text>
  </g>
  <g clip-path="url(#clip_0_576_720_0)">
    <text x="395.18" y="555.5" lengthAdjust="spacingAndGlyphs" id="text-0010" textLength="9.78px" style="font-size: 8.8px; font-family: Helvetica; fill: #4D4D4D">
      25
    </text>
  </g>
  <g clip-path="url(#clip_0_576_720_0)">
    <text x="509.11" y="555.5" lengthAdjust="spacingAndGlyphs" id="text-0011" textLength="9.78px" style="font-size: 8.8px; font-family: Helvetica; fill: #4D4D4D">
      30
    </text>
  </g>
  <g clip-path="url(#clip_0_576_720_0)">
    <text x="623.05" y="555.5" lengthAdjust="spacingAndGlyphs" id="text-0012" textLength="9.78px" style="font-size: 8.8px; font-family: Helvetica; fill: #4D4D4D">
      35
    </text>
  </g>
  <g clip-path="url(#clip_0_576_720_0)">
    <text x="324.42" y="568.08" lengthAdjust="spacingAndGlyphs" id="text-0013" textLength="21.4px" style="font-size: 11px; font-family: Helvetica">
      mpg
    </text>
  </g>
  <g clip-path="url(#clip_0_576_720_0)">
    <text x="13.37" y="301.23" lengthAdjust="spacingAndGlyphs" id="text-0014" textLength="34.85px" style="font-size: 11px; font-family: Helvetica" transform="rotate(-90 13.37 301.23)">
      density
    </text>
  </g>
  <rect id="rect-0003" style="fill: #FFFFFF; stroke: none" clip-path="url(#clip_0_576_720_0)" x="640.61" y="244.5" width="73.91" height="78.61" />
  <g clip-path="url(#clip_0_576_720_0)">
    <text x="646.09" y="259.09" lengthAdjust="spacingAndGlyphs" id="text-0015" textLength="62.95px" style="font-size: 11px; font-family: Helvetica">
      as.factor(cyl)
    </text>
  </g>
  <rect id="rect-0004" style="fill: #F2F2F2; stroke: #FFFFFF; stroke-width: 1.07" clip-path="url(#clip_0_576_720_0)" x="646.09" y="265.79" width="17.28" height="17.28" />
  <rect id="rect-0005" style="fill: #F8766D; stroke-width: 1.07" clip-path="url(#clip_0_576_720_0)" x="646.8" y="266.49" width="15.86" height="15.86" />
  <rect id="rect-0006" style="fill: #F2F2F2; stroke: #FFFFFF; stroke-width: 1.07" clip-path="url(#clip_0_576_720_0)" x="646.09" y="283.07" width="17.28" height="17.28" />
  <rect id="rect-0007" style="fill: #00BA38; stroke-width: 1.07" clip-path="url(#clip_0_576_720_0)" x="646.8" y="283.77" width="15.86" height="15.86" />
  <rect id="rect-0008" style="fill: #F2F2F2; stroke: #FFFFFF; stroke-width: 1.07" clip-path="url(#clip_0_576_720_0)" x="646.09" y="300.35" width="17.28" height="17.28" />
  <rect id="rect-0009" style="fill: #619CFF; stroke-width: 1.07" clip-path="url(#clip_0_576_720_0)" x="646.8" y="301.05" width="15.86" height="15.86" />
  <g clip-path="url(#clip_0_576_720_0)">
    <text x="668.85" y="277.58" lengthAdjust="spacingAndGlyphs" id="text-0016" textLength="4.89px" style="font-size: 8.8px; font-family: Helvetica">
      4
    </text>
  </g>
  <g clip-path="url(#clip_0_576_720_0)">
    <text x="668.85" y="294.86" lengthAdjust="spacingAndGlyphs" id="text-0017" textLength="4.89px" style="font-size: 8.8px; font-family: Helvetica">
      6
    </text>
  </g>
  <g clip-path="url(#clip_0_576_720_0)">
    <text x="668.85" y="312.14" lengthAdjust="spacingAndGlyphs" id="text-0018" textLength="4.89px" style="font-size: 8.8px; font-family: Helvetica">
      8
    </text>
  </g>
  <g clip-path="url(#clip_0_576_720_0)">
    <text x="40.6" y="14.95" lengthAdjust="spacingAndGlyphs" id="text-0019" textLength="106.4px" style="font-size: 13.2px; font-family: Helvetica">
      Example - Basic 2
    </text>
  </g>
</svg>
