<?xml version="1.0" encoding="UTF-8"?>
<svg viewBox="0 0 576 432" xmlns="http://www.w3.org/2000/svg" xmlns:xlink="http://www.w3.org/1999/xlink">
  <defs>
    <style type='text/css'><![CDATA[
        line, polyline, polygon, path, rect, circle {
          fill: none;
          stroke: #000000;
          stroke-linecap: round;
          stroke-linejoin: round;
          stroke-miterlimit: 10.00;
        }
      ]]></style>
  </defs>
  <rect style="stroke: none; fill: #ffffff" width="100%" height="100%" />
  <defs>
    <clipPath id="clip_0_432_576_0">
      <rect x="0" y="0" width="576" height="432" />
    </clipPath>
  </defs>
  <rect style="fill: #FFFFFF; stroke: #FFFFFF; stroke-width: 1.07" clip-path="url(#clip_0_432_576_0)" x="0" y="0" width="576" height="432" />
  <defs>
    <clipPath id="clip_35_71_400_27_455_69_23_35">
      <rect x="35.71" y="23.35" width="419.98" height="376.92" />
    </clipPath>
  </defs>
  <rect style="fill: #FFFFFF; stroke: none" clip-path="url(#clip_35_71_400_27_455_69_23_35)" x="35.71" y="23.35" width="419.98" height="376.92" />
  <polyline points="35.71,342.64 455.69,342.64" style="stroke: #EBEBEB; stroke-width: 0.53" clip-path="url(#clip_35_71_400_27_455_69_23_35)" />
  <polyline points="35.71,261.65 455.69,261.65" style="stroke: #EBEBEB; stroke-width: 0.53" clip-path="url(#clip_35_71_400_27_455_69_23_35)" />
  <polyline points="35.71,180.66 455.69,180.66" style="stroke: #EBEBEB; stroke-width: 0.53" clip-path="url(#clip_35_71_400_27_455_69_23_35)" />
  <polyline points="35.71,99.66 455.69,99.66" style="stroke: #EBEBEB; stroke-width: 0.53" clip-path="url(#clip_35_71_400_27_455_69_23_35)" />
  <polyline points="88.92,400.27 88.92,23.35" style="stroke: #EBEBEB; stroke-width: 0.53" clip-path="url(#clip_35_71_400_27_455_69_23_35)" />
  <polyline points="170.15,400.27 170.15,23.35" style="stroke: #EBEBEB; stroke-width: 0.53" clip-path="url(#clip_35_71_400_27_455_69_23_35)" />
  <polyline points="251.38,400.27 251.38,23.35" style="stroke: #EBEBEB; stroke-width: 0.53" clip-path="url(#clip_35_71_400_27_455_69_23_35)" />
  <polyline points="332.62,400.27 332.62,23.35" style="stroke: #EBEBEB; stroke-width: 0.53" clip-path="url(#clip_35_71_400_27_455_69_23_35)" />
  <polyline points="413.85,400.27 413.85,23.35" style="stroke: #EBEBEB; stroke-width: 0.53" clip-path="url(#clip_35_71_400_27_455_69_23_35)" />
  <polyline points="35.71,383.13 455.69,383.13" style="stroke: #EBEBEB; stroke-width: 1.07" clip-path="url(#clip_35_71_400_27_455_69_23_35)" />
  <polyline points="35.71,302.14 455.69,302.14" style="stroke: #EBEBEB; stroke-width: 1.07" clip-path="url(#clip_35_71_400_27_455_69_23_35)" />
  <polyline points="35.71,221.15 455.69,221.15" style="stroke: #EBEBEB; stroke-width: 1.07" clip-path="url(#clip_35_71_400_27_455_69_23_35)" />
  <polyline points="35.71,140.16 455.69,140.16" style="stroke: #EBEBEB; stroke-width: 1.07" clip-path="url(#clip_35_71_400_27_455_69_23_35)" />
  <polyline points="35.71,59.17 455.69,59.17" style="stroke: #EBEBEB; stroke-width: 1.07" clip-path="url(#clip_35_71_400_27_455_69_23_35)" />
  <polyline points="48.3,400.27 48.3,23.35" style="stroke: #EBEBEB; stroke-width: 1.07" clip-path="url(#clip_35_71_400_27_455_69_23_35)" />
  <polyline points="129.53,400.27 129.53,23.35" style="stroke: #EBEBEB; stroke-width: 1.07" clip-path="url(#clip_35_71_400_27_455_69_23_35)" />
  <polyline points="210.77,400.27 210.77,23.35" style="stroke: #EBEBEB; stroke-width: 1.07" clip-path="url(#clip_35_71_400_27_455_69_23_35)" />
  <polyline points="292,400.27 292,23.35" style="stroke: #EBEBEB; stroke-width: 1.07" clip-path="url(#clip_35_71_400_27_455_69_23_35)" />
  <polyline points="373.24,400.27 373.24,23.35" style="stroke: #EBEBEB; stroke-width: 1.07" clip-path="url(#clip_35_71_400_27_455_69_23_35)" />
  <polyline points="454.47,400.27 454.47,23.35" style="stroke: #EBEBEB; stroke-width: 1.07" clip-path="url(#clip_35_71_400_27_455_69_23_35)" />
  <defs>
    <pattern id="simple-289700FF" width="17" height="17" patternTransform="rotate(45 0 0)" patternUnits="userSpaceOnUse">
      <rect style="fill:#ffffff; fill-opacity:1; stroke:none;" width="100%" height="100%" />
      <line style="stroke:#000000; stroke-width:4.53333333333333; stroke-opacity:1;" x1="0" y1="0" x2="0" y2="17" />
    </pattern>
  </defs>
  <polygon points="54.8,383.13 55.54,383.13 56.29,383.13 57.04,383.13 57.79,383.13 58.53,383.13 59.28,383.13 60.03,383.13 60.77,383.13 61.52,383.13 62.27,383.13 63.02,383.13 63.76,383.13 64.51,383.13 65.26,383.13 66,383.13 66.75,383.13 67.5,383.13 68.25,383.13 68.99,383.13 69.74,383.13 70.49,383.13 71.23,383.13 71.98,383.13 72.73,383.13 73.48,383.13 74.22,383.13 74.97,383.13 75.72,383.13 76.46,383.13 77.21,383.13 77.96,383.13 78.71,383.13 79.45,383.13 80.2,383.13 80.95,383.13 81.7,383.13 82.44,383.13 83.19,383.13 83.94,383.13 84.68,383.13 85.43,383.13 86.18,383.13 86.93,383.13 87.67,383.13 88.42,383.13 89.17,383.13 89.91,383.13 90.66,383.13 91.41,383.13 92.16,383.13 92.9,383.13 93.65,383.13 94.4,383.13 95.14,383.13 95.89,383.13 96.64,383.13 97.39,383.13 98.13,383.13 98.88,383.13 99.63,383.13 100.37,383.13 101.12,383.13 101.87,383.13 102.62,383.13 103.36,383.13 104.11,383.13 104.86,383.13 105.6,383.13 106.35,383.13 107.1,383.13 107.85,383.13 108.59,383.13 109.34,383.13 110.09,383.13 110.83,383.13 111.58,383.13 112.33,383.13 113.08,383.13 113.82,383.13 114.57,383.13 115.32,383.13 116.06,383.13 116.81,383.13 117.56,383.13 118.31,383.13 119.05,383.13 119.8,383.13 120.55,383.13 121.29,383.13 122.04,383.13 122.79,383.13 123.54,383.13 124.28,383.13 125.03,383.13 125.78,383.13 126.52,383.13 127.27,383.13 128.02,383.13 128.77,383.13 129.51,383.13 130.26,383.13 131.01,383.13 131.76,383.13 132.5,383.13 133.25,383.13 134,383.13 134.74,383.13 135.49,383.13 136.24,383.13 136.99,383.13 137.73,383.13 138.48,383.13 139.23,383.13 139.97,383.13 140.72,383.13 141.47,383.13 142.22,383.13 142.96,383.13 143.71,383.13 144.46,383.13 145.2,383.13 145.95,383.13 146.7,383.13 147.45,383.13 148.19,383.13 148.94,383.13 149.69,383.13 150.43,383.13 151.18,383.13 151.93,383.13 152.68,383.13 153.42,383.13 154.17,383.13 154.92,383.13 155.66,383.13 156.41,383.13 157.16,383.13 157.91,383.13 158.65,383.13 159.4,383.13 160.15,383.13 160.89,383.13 161.64,383.13 162.39,383.13 163.14,383.13 163.88,383.13 164.63,383.13 165.38,383.13 166.12,383.13 166.87,383.13 167.62,383.13 168.37,383.13 169.11,383.13 169.86,383.13 170.61,383.13 171.35,383.13 172.1,383.13 172.85,383.13 173.6,383.13 174.34,383.13 175.09,383.13 175.84,383.13 176.58,383.13 177.33,383.13 178.08,383.13 178.83,383.13 179.57,383.13 180.32,383.13 181.07,383.13 181.82,383.12 182.56,383.12 183.31,383.12 184.06,383.11 184.8,383.11 185.55,383.1 186.3,383.09 187.05,383.08 187.79,383.07 188.54,383.05 189.29,383.03 190.03,383.01 190.78,382.98 191.53,382.94 192.28,382.9 193.02,382.85 193.77,382.78 194.52,382.71 195.26,382.63 196.01,382.53 196.76,382.4 197.51,382.26 198.25,382.1 199,381.91 199.75,381.69 200.49,381.44 201.24,381.14 201.99,380.81 202.74,380.43 203.48,380 204.23,379.51 204.98,378.96 205.72,378.34 206.47,377.66 207.22,376.89 207.97,376.03 208.71,375.09 209.46,374.06 210.21,372.94 210.95,371.7 211.7,370.35 212.45,368.9 213.2,367.34 213.94,365.67 214.69,363.87 215.44,361.96 216.18,359.94 216.93,357.82 217.68,355.59 218.43,353.24 219.17,350.81 219.92,348.29 220.67,345.7 221.41,343.03 222.16,340.31 222.91,337.54 223.66,334.74 224.4,331.91 225.15,329.08 225.9,326.26 226.64,323.46 227.39,320.69 228.14,317.97 228.89,315.32 229.63,312.74 230.38,310.24 231.13,307.83 231.88,305.53 232.62,303.36 233.37,301.29 234.12,299.34 234.86,297.51 235.61,295.83 236.36,294.28 237.11,292.85 237.85,291.53 238.6,290.34 239.35,289.29 240.09,288.36 240.84,287.52 241.59,286.79 242.34,286.16 243.08,285.64 243.83,285.21 244.58,284.86 245.32,284.58 246.07,284.4 246.82,284.29 247.57,284.25 248.31,284.28 249.06,284.37 249.81,284.54 250.55,284.77 251.3,285.07 252.05,285.41 252.8,285.82 253.54,286.29 254.29,286.82 255.04,287.39 255.78,288.01 256.53,288.66 257.28,289.37 258.03,290.1 258.77,290.85 259.52,291.61 260.27,292.39 261.01,293.17 261.76,293.93 262.51,294.68 263.26,295.41 264,296.09 264.75,296.74 265.5,297.34 266.24,297.89 266.99,298.4 267.74,298.83 268.49,299.2 269.23,299.53 269.98,299.81 270.73,300.03 271.47,300.21 272.22,300.37 272.97,300.5 273.72,300.62 274.46,300.75 275.21,300.89 275.96,301.07 276.7,301.28 277.45,301.56 278.2,301.91 278.95,302.36 279.69,302.91 280.44,303.56 281.19,304.33 281.94,305.25 282.68,306.32 283.43,307.51 284.18,308.84 284.92,310.31 285.67,311.96 286.42,313.73 287.17,315.63 287.91,317.65 288.66,319.79 289.41,322.05 290.15,324.39 290.9,326.8 291.65,329.28 292.4,331.81 293.14,334.38 293.89,336.96 294.64,339.54 295.38,342.12 296.13,344.66 296.88,347.16 297.63,349.61 298.37,352 299.12,354.32 299.87,356.54 300.61,358.67 301.36,360.71 302.11,362.66 302.86,364.5 303.6,366.22 304.35,367.84 305.1,369.35 305.84,370.77 306.59,372.06 307.34,373.25 308.09,374.35 308.83,375.35 309.58,376.28 310.33,377.09 311.07,377.83 311.82,378.5 312.57,379.1 313.32,379.64 314.06,380.11 314.81,380.52 315.56,380.89 316.3,381.22 317.05,381.5 317.8,381.74 318.55,381.95 319.29,382.14 320.04,382.3 320.79,382.43 321.53,382.55 322.28,382.65 323.03,382.73 323.78,382.8 324.52,382.86 325.27,382.91 326.02,382.95 326.76,382.98 327.51,383.01 328.26,383.03 329.01,383.05 329.75,383.07 330.5,383.08 331.25,383.09 332,383.1 332.74,383.11 333.49,383.11 334.24,383.12 334.98,383.12 335.73,383.12 336.48,383.13 337.23,383.13 337.97,383.13 338.72,383.13 339.47,383.13 340.21,383.13 340.96,383.13 341.71,383.13 342.46,383.13 343.2,383.13 343.95,383.13 344.7,383.13 345.44,383.13 346.19,383.13 346.94,383.13 347.69,383.13 348.43,383.13 349.18,383.13 349.93,383.13 350.67,383.13 351.42,383.13 352.17,383.13 352.92,383.13 353.66,383.13 354.41,383.13 355.16,383.13 355.9,383.13 356.65,383.13 357.4,383.13 358.15,383.13 358.89,383.13 359.64,383.13 360.39,383.13 361.13,383.13 361.88,383.13 362.63,383.13 363.38,383.13 364.12,383.13 364.87,383.13 365.62,383.13 366.36,383.13 367.11,383.13 367.86,383.13 368.61,383.13 369.35,383.13 370.1,383.13 370.85,383.13 371.59,383.13 372.34,383.13 373.09,383.13 373.84,383.13 374.58,383.13 375.33,383.13 376.08,383.13 376.82,383.13 377.57,383.13 378.32,383.13 379.07,383.13 379.81,383.13 380.56,383.13 381.31,383.13 382.06,383.13 382.8,383.13 383.55,383.13 384.3,383.13 385.04,383.13 385.79,383.13 386.54,383.13 387.29,383.13 388.03,383.13 388.78,383.13 389.53,383.13 390.27,383.13 391.02,383.13 391.77,383.13 392.52,383.13 393.26,383.13 394.01,383.13 394.76,383.13 395.5,383.13 396.25,383.13 397,383.13 397.75,383.13 398.49,383.13 399.24,383.13 399.99,383.13 400.73,383.13 401.48,383.13 402.23,383.13 402.98,383.13 403.72,383.13 404.47,383.13 405.22,383.13 405.96,383.13 406.71,383.13 407.46,383.13 408.21,383.13 408.95,383.13 409.7,383.13 410.45,383.13 411.19,383.13 411.94,383.13 412.69,383.13 413.44,383.13 414.18,383.13 414.93,383.13 415.68,383.13 416.42,383.13 417.17,383.13 417.92,383.13 418.67,383.13 419.41,383.13 420.16,383.13 420.91,383.13 421.65,383.13 422.4,383.13 423.15,383.13 423.9,383.13 424.64,383.13 425.39,383.13 426.14,383.13 426.89,383.13 427.63,383.13 428.38,383.13 429.13,383.13 429.87,383.13 430.62,383.13 431.37,383.13 432.12,383.13 432.86,383.13 433.61,383.13 434.36,383.13 435.1,383.13 435.85,383.13 436.6,383.13 436.6,383.13 435.85,383.13 435.1,383.13 434.36,383.13 433.61,383.13 432.86,383.13 432.12,383.13 431.37,383.13 430.62,383.13 429.87,383.13 429.13,383.13 428.38,383.13 427.63,383.13 426.89,383.13 426.14,383.13 425.39,383.13 424.64,383.13 423.9,383.13 423.15,383.13 422.4,383.13 421.65,383.13 420.91,383.13 420.16,383.13 419.41,383.13 418.67,383.13 417.92,383.13 417.17,383.13 416.42,383.13 415.68,383.13 414.93,383.13 414.18,383.13 413.44,383.13 412.69,383.13 411.94,383.13 411.19,383.13 410.45,383.13 409.7,383.13 408.95,383.13 408.21,383.13 407.46,383.13 406.71,383.13 405.96,383.13 405.22,383.13 404.47,383.13 403.72,383.13 402.98,383.13 402.23,383.13 401.48,383.13 400.73,383.13 399.99,383.13 399.24,383.13 398.49,383.13 397.75,383.13 397,383.13 396.25,383.13 395.5,383.13 394.76,383.13 394.01,383.13 393.26,383.13 392.52,383.13 391.77,383.13 391.02,383.13 390.27,383.13 389.53,383.13 388.78,383.13 388.03,383.13 387.29,383.13 386.54,383.13 385.79,383.13 385.04,383.13 384.3,383.13 383.55,383.13 382.8,383.13 382.06,383.13 381.31,383.13 380.56,383.13 379.81,383.13 379.07,383.13 378.32,383.13 377.57,383.13 376.82,383.13 376.08,383.13 375.33,383.13 374.58,383.13 373.84,383.13 373.09,383.13 372.34,383.13 371.59,383.13 370.85,383.13 370.1,383.13 369.35,383.13 368.61,383.13 367.86,383.13 367.11,383.13 366.36,383.13 365.62,383.13 364.87,383.13 364.12,383.13 363.38,383.13 362.63,383.13 361.88,383.13 361.13,383.13 360.39,383.13 359.64,383.13 358.89,383.13 358.15,383.13 357.4,383.13 356.65,383.13 355.9,383.13 355.16,383.13 354.41,383.13 353.66,383.13 352.92,383.13 352.17,383.13 351.42,383.13 350.67,383.13 349.93,383.13 349.18,383.13 348.43,383.13 347.69,383.13 346.94,383.13 346.19,383.13 345.44,383.13 344.7,383.13 343.95,383.13 343.2,383.13 342.46,383.13 341.71,383.13 340.96,383.13 340.21,383.13 339.47,383.13 338.72,383.13 337.97,383.13 337.23,383.13 336.48,383.13 335.73,383.13 334.98,383.13 334.24,383.13 333.49,383.13 332.74,383.13 332,383.13 331.25,383.13 330.5,383.13 329.75,383.13 329.01,383.13 328.26,383.13 327.51,383.13 326.76,383.13 326.02,383.13 325.27,383.13 324.52,383.13 323.78,383.13 323.03,383.13 322.28,383.13 321.53,383.13 320.79,383.13 320.04,383.13 319.29,383.13 318.55,383.13 317.8,383.13 317.05,383.13 316.3,383.13 315.56,383.13 314.81,383.13 314.06,383.13 313.32,383.13 312.57,383.13 311.82,383.13 311.07,383.13 310.33,383.13 309.58,383.13 308.83,383.13 308.09,383.13 307.34,383.13 306.59,383.13 305.84,383.13 305.1,383.13 304.35,383.13 303.6,383.13 302.86,383.13 302.11,383.13 301.36,383.13 300.61,383.13 299.87,383.13 299.12,383.13 298.37,383.13 297.63,383.13 296.88,383.13 296.13,383.13 295.38,383.13 294.64,383.13 293.89,383.13 293.14,383.13 292.4,383.13 291.65,383.13 290.9,383.13 290.15,383.13 289.41,383.13 288.66,383.13 287.91,383.13 287.17,383.13 286.42,383.13 285.67,383.13 284.92,383.13 284.18,383.13 283.43,383.13 282.68,383.13 281.94,383.13 281.19,383.13 280.44,383.13 279.69,383.13 278.95,383.13 278.2,383.13 277.45,383.13 276.7,383.13 275.96,383.13 275.21,383.13 274.46,383.13 273.72,383.13 272.97,383.13 272.22,383.13 271.47,383.13 270.73,383.13 269.98,383.13 269.23,383.13 268.49,383.13 267.74,383.13 266.99,383.13 266.24,383.13 265.5,383.13 264.75,383.13 264,383.13 263.26,383.13 262.51,383.13 261.76,383.13 261.01,383.13 260.27,383.13 259.52,383.13 258.77,383.13 258.03,383.13 257.28,383.13 256.53,383.13 255.78,383.13 255.04,383.13 254.29,383.13 253.54,383.13 252.8,383.13 252.05,383.13 251.3,383.13 250.55,383.13 249.81,383.13 249.06,383.13 248.31,383.13 247.57,383.13 246.82,383.13 246.07,383.13 245.32,383.13 244.58,383.13 243.83,383.13 243.08,383.13 242.34,383.13 241.59,383.13 240.84,383.13 240.09,383.13 239.35,383.13 238.6,383.13 237.85,383.13 237.11,383.13 236.36,383.13 235.61,383.13 234.86,383.13 234.12,383.13 233.37,383.13 232.62,383.13 231.88,383.13 231.13,383.13 230.38,383.13 229.63,383.13 228.89,383.13 228.14,383.13 227.39,383.13 226.64,383.13 225.9,383.13 225.15,383.13 224.4,383.13 223.66,383.13 222.91,383.13 222.16,383.13 221.41,383.13 220.67,383.13 219.92,383.13 219.17,383.13 218.43,383.13 217.68,383.13 216.93,383.13 216.18,383.13 215.44,383.13 214.69,383.13 213.94,383.13 213.2,383.13 212.45,383.13 211.7,383.13 210.95,383.13 210.21,383.13 209.46,383.13 208.71,383.13 207.97,383.13 207.22,383.13 206.47,383.13 205.72,383.13 204.98,383.13 204.23,383.13 203.48,383.13 202.74,383.13 201.99,383.13 201.24,383.13 200.49,383.13 199.75,383.13 199,383.13 198.25,383.13 197.51,383.13 196.76,383.13 196.01,383.13 195.26,383.13 194.52,383.13 193.77,383.13 193.02,383.13 192.28,383.13 191.53,383.13 190.78,383.13 190.03,383.13 189.29,383.13 188.54,383.13 187.79,383.13 187.05,383.13 186.3,383.13 185.55,383.13 184.8,383.13 184.06,383.13 183.31,383.13 182.56,383.13 181.82,383.13 181.07,383.13 180.32,383.13 179.57,383.13 178.83,383.13 178.08,383.13 177.33,383.13 176.58,383.13 175.84,383.13 175.09,383.13 174.34,383.13 173.6,383.13 172.85,383.13 172.1,383.13 171.35,383.13 170.61,383.13 169.86,383.13 169.11,383.13 168.37,383.13 167.62,383.13 166.87,383.13 166.12,383.13 165.38,383.13 164.63,383.13 163.88,383.13 163.14,383.13 162.39,383.13 161.64,383.13 160.89,383.13 160.15,383.13 159.4,383.13 158.65,383.13 157.91,383.13 157.16,383.13 156.41,383.13 155.66,383.13 154.92,383.13 154.17,383.13 153.42,383.13 152.68,383.13 151.93,383.13 151.18,383.13 150.43,383.13 149.69,383.13 148.94,383.13 148.19,383.13 147.45,383.13 146.7,383.13 145.95,383.13 145.2,383.13 144.46,383.13 143.71,383.13 142.96,383.13 142.22,383.13 141.47,383.13 140.72,383.13 139.97,383.13 139.23,383.13 138.48,383.13 137.73,383.13 136.99,383.13 136.24,383.13 135.49,383.13 134.74,383.13 134,383.13 133.25,383.13 132.5,383.13 131.76,383.13 131.01,383.13 130.26,383.13 129.51,383.13 128.77,383.13 128.02,383.13 127.27,383.13 126.52,383.13 125.78,383.13 125.03,383.13 124.28,383.13 123.54,383.13 122.79,383.13 122.04,383.13 121.29,383.13 120.55,383.13 119.8,383.13 119.05,383.13 118.31,383.13 117.56,383.13 116.81,383.13 116.06,383.13 115.32,383.13 114.57,383.13 113.82,383.13 113.08,383.13 112.33,383.13 111.58,383.13 110.83,383.13 110.09,383.13 109.34,383.13 108.59,383.13 107.85,383.13 107.1,383.13 106.35,383.13 105.6,383.13 104.86,383.13 104.11,383.13 103.36,383.13 102.62,383.13 101.87,383.13 101.12,383.13 100.37,383.13 99.63,383.13 98.88,383.13 98.13,383.13 97.39,383.13 96.64,383.13 95.89,383.13 95.14,383.13 94.4,383.13 93.65,383.13 92.9,383.13 92.16,383.13 91.41,383.13 90.66,383.13 89.91,383.13 89.17,383.13 88.42,383.13 87.67,383.13 86.93,383.13 86.18,383.13 85.43,383.13 84.68,383.13 83.94,383.13 83.19,383.13 82.44,383.13 81.7,383.13 80.95,383.13 80.2,383.13 79.45,383.13 78.71,383.13 77.96,383.13 77.21,383.13 76.46,383.13 75.72,383.13 74.97,383.13 74.22,383.13 73.48,383.13 72.73,383.13 71.98,383.13 71.23,383.13 70.49,383.13 69.74,383.13 68.99,383.13 68.25,383.13 67.5,383.13 66.75,383.13 66,383.13 65.26,383.13 64.51,383.13 63.76,383.13 63.02,383.13 62.27,383.13 61.52,383.13 60.77,383.13 60.03,383.13 59.28,383.13 58.53,383.13 57.79,383.13 57.04,383.13 56.29,383.13 55.54,383.13 54.8,383.13" style="fill: url(#simple-289700FF); stroke-width: 1.07" clip-path="url(#clip_35_71_400_27_455_69_23_35)" />
  <defs>
    <pattern id="simple-28A700FF" width="17" height="17" patternTransform="rotate(45 0 0)" patternUnits="userSpaceOnUse">
      <rect style="fill:#ffffff; fill-opacity:1; stroke:none;" width="100%" height="100%" />
      <line style="stroke:#000000; stroke-width:9.06666666666667; stroke-opacity:1;" x1="0" y1="0" x2="0" y2="17" />
    </pattern>
  </defs>
  <polygon points="54.8,383.13 55.54,383.13 56.29,383.13 57.04,383.13 57.79,383.13 58.53,383.13 59.28,383.13 60.03,383.13 60.77,383.13 61.52,383.13 62.27,383.13 63.02,383.13 63.76,383.13 64.51,383.13 65.26,383.13 66,383.13 66.75,383.13 67.5,383.13 68.25,383.13 68.99,383.13 69.74,383.13 70.49,383.13 71.23,383.13 71.98,383.13 72.73,383.13 73.48,383.13 74.22,383.13 74.97,383.13 75.72,383.13 76.46,383.13 77.21,383.13 77.96,383.13 78.71,383.13 79.45,383.13 80.2,383.13 80.95,383.13 81.7,383.13 82.44,383.13 83.19,383.13 83.94,383.13 84.68,383.13 85.43,383.13 86.18,383.13 86.93,383.13 87.67,383.13 88.42,383.13 89.17,383.13 89.91,383.13 90.66,383.13 91.41,383.13 92.16,383.13 92.9,383.13 93.65,383.13 94.4,383.13 95.14,383.13 95.89,383.13 96.64,383.13 97.39,383.13 98.13,383.13 98.88,383.13 99.63,383.13 100.37,383.13 101.12,383.13 101.87,383.13 102.62,383.13 103.36,383.13 104.11,383.13 104.86,383.13 105.6,383.13 106.35,383.13 107.1,383.13 107.85,383.13 108.59,383.13 109.34,383.13 110.09,383.13 110.83,383.13 111.58,383.13 112.33,383.13 113.08,383.13 113.82,383.13 114.57,383.13 115.32,383.13 116.06,383.12 116.81,383.12 117.56,383.12 118.31,383.11 119.05,383.11 119.8,383.1 120.55,383.09 121.29,383.09 122.04,383.07 122.79,383.06 123.54,383.05 124.28,383.03 125.03,383 125.78,382.98 126.52,382.95 127.27,382.91 128.02,382.87 128.77,382.81 129.51,382.75 130.26,382.68 131.01,382.6 131.76,382.51 132.5,382.4 133.25,382.27 134,382.12 134.74,381.95 135.49,381.76 136.24,381.54 136.99,381.29 137.73,381.01 138.48,380.69 139.23,380.33 139.97,379.92 140.72,379.46 141.47,378.96 142.22,378.4 142.96,377.76 143.71,377.06 144.46,376.3 145.2,375.46 145.95,374.53 146.7,373.51 147.45,372.41 148.19,371.22 148.94,369.91 149.69,368.5 150.43,366.99 151.18,365.38 151.93,363.65 152.68,361.79 153.42,359.82 154.17,357.76 154.92,355.58 155.66,353.26 156.41,350.84 157.16,348.32 157.91,345.71 158.65,342.98 159.4,340.16 160.15,337.27 160.89,334.32 161.64,331.29 162.39,328.2 163.14,325.08 163.88,321.93 164.63,318.76 165.38,315.59 166.12,312.43 166.87,309.3 167.62,306.21 168.37,303.18 169.11,300.22 169.86,297.35 170.61,294.56 171.35,291.89 172.1,289.37 172.85,286.97 173.6,284.71 174.34,282.6 175.09,280.7 175.84,278.96 176.58,277.38 177.33,275.98 178.08,274.81 178.83,273.84 179.57,273.04 180.32,272.43 181.07,272.02 181.82,271.83 182.56,271.82 183.31,271.98 184.06,272.3 184.8,272.85 185.55,273.55 186.3,274.4 187.05,275.38 187.79,276.54 188.54,277.84 189.29,279.25 190.03,280.76 190.78,282.4 191.53,284.14 192.28,285.97 193.02,287.86 193.77,289.82 194.52,291.86 195.26,293.95 196.01,296.07 196.76,298.22 197.51,300.4 198.25,302.59 199,304.78 199.75,306.97 200.49,309.15 201.24,311.3 201.99,313.42 202.74,315.51 203.48,317.55 204.23,319.52 204.98,321.43 205.72,323.27 206.47,325.04 207.22,326.72 207.97,328.29 208.71,329.78 209.46,331.17 210.21,332.45 210.95,333.6 211.7,334.64 212.45,335.58 213.2,336.42 213.94,337.1 214.69,337.67 215.44,338.15 216.18,338.52 216.93,338.77 217.68,338.91 218.43,338.97 219.17,338.94 219.92,338.84 220.67,338.65 221.41,338.41 222.16,338.12 222.91,337.79 223.66,337.43 224.4,337.05 225.15,336.67 225.9,336.29 226.64,335.92 227.39,335.59 228.14,335.3 228.89,335.05 229.63,334.85 230.38,334.74 231.13,334.69 231.88,334.72 232.62,334.83 233.37,335.05 234.12,335.36 234.86,335.75 235.61,336.24 236.36,336.84 237.11,337.54 237.85,338.32 238.6,339.19 239.35,340.15 240.09,341.21 240.84,342.34 241.59,343.53 242.34,344.78 243.08,346.09 243.83,347.46 244.58,348.86 245.32,350.28 246.07,351.74 246.82,353.21 247.57,354.69 248.31,356.16 249.06,357.63 249.81,359.08 250.55,360.51 251.3,361.92 252.05,363.29 252.8,364.62 253.54,365.9 254.29,367.15 255.04,368.34 255.78,369.49 256.53,370.57 257.28,371.6 258.03,372.58 258.77,373.51 259.52,374.36 260.27,375.17 261.01,375.92 261.76,376.63 262.51,377.27 263.26,377.87 264,378.42 264.75,378.93 265.5,379.39 266.24,379.8 266.99,380.18 267.74,380.53 268.49,380.84 269.23,381.12 269.98,381.36 270.73,381.59 271.47,381.79 272.22,381.96 272.97,382.12 273.72,382.26 274.46,382.38 275.21,382.49 275.96,382.58 276.7,382.66 277.45,382.73 278.2,382.79 278.95,382.84 279.69,382.89 280.44,382.93 281.19,382.96 281.94,382.99 282.68,383.01 283.43,383.03 284.18,383.05 284.92,383.06 285.67,383.08 286.42,383.09 287.17,383.09 287.91,383.1 288.66,383.11 289.41,383.11 290.15,383.12 290.9,383.12 291.65,383.12 292.4,383.13 293.14,383.13 293.89,383.13 294.64,383.13 295.38,383.13 296.13,383.13 296.88,383.13 297.63,383.13 298.37,383.13 299.12,383.13 299.87,383.13 300.61,383.13 301.36,383.13 302.11,383.13 302.86,383.13 303.6,383.13 304.35,383.13 305.1,383.13 305.84,383.13 306.59,383.13 307.34,383.13 308.09,383.13 308.83,383.13 309.58,383.13 310.33,383.13 311.07,383.13 311.82,383.13 312.57,383.13 313.32,383.13 314.06,383.13 314.81,383.13 315.56,383.13 316.3,383.13 317.05,383.13 317.8,383.13 318.55,383.13 319.29,383.13 320.04,383.13 320.79,383.13 321.53,383.13 322.28,383.13 323.03,383.13 323.78,383.13 324.52,383.13 325.27,383.13 326.02,383.13 326.76,383.13 327.51,383.13 328.26,383.13 329.01,383.13 329.75,383.13 330.5,383.13 331.25,383.13 332,383.13 332.74,383.13 333.49,383.13 334.24,383.13 334.98,383.13 335.73,383.13 336.48,383.13 337.23,383.13 337.97,383.13 338.72,383.13 339.47,383.13 340.21,383.13 340.96,383.13 341.71,383.13 342.46,383.13 343.2,383.13 343.95,383.13 344.7,383.13 345.44,383.13 346.19,383.13 346.94,383.13 347.69,383.13 348.43,383.13 349.18,383.13 349.93,383.13 350.67,383.13 351.42,383.13 352.17,383.13 352.92,383.13 353.66,383.13 354.41,383.13 355.16,383.13 355.9,383.13 356.65,383.13 357.4,383.13 358.15,383.13 358.89,383.13 359.64,383.13 360.39,383.13 361.13,383.13 361.88,383.13 362.63,383.13 363.38,383.13 364.12,383.13 364.87,383.13 365.62,383.13 366.36,383.13 367.11,383.13 367.86,383.13 368.61,383.13 369.35,383.13 370.1,383.13 370.85,383.13 371.59,383.13 372.34,383.13 373.09,383.13 373.84,383.13 374.58,383.13 375.33,383.13 376.08,383.13 376.82,383.13 377.57,383.13 378.32,383.13 379.07,383.13 379.81,383.13 380.56,383.13 381.31,383.13 382.06,383.13 382.8,383.13 383.55,383.13 384.3,383.13 385.04,383.13 385.79,383.13 386.54,383.13 387.29,383.13 388.03,383.13 388.78,383.13 389.53,383.13 390.27,383.13 391.02,383.13 391.77,383.13 392.52,383.13 393.26,383.13 394.01,383.13 394.76,383.13 395.5,383.13 396.25,383.13 397,383.13 397.75,383.13 398.49,383.13 399.24,383.13 399.99,383.13 400.73,383.13 401.48,383.13 402.23,383.13 402.98,383.13 403.72,383.13 404.47,383.13 405.22,383.13 405.96,383.13 406.71,383.13 407.46,383.13 408.21,383.13 408.95,383.13 409.7,383.13 410.45,383.13 411.19,383.13 411.94,383.13 412.69,383.13 413.44,383.13 414.18,383.13 414.93,383.13 415.68,383.13 416.42,383.13 417.17,383.13 417.92,383.13 418.67,383.13 419.41,383.13 420.16,383.13 420.91,383.13 421.65,383.13 422.4,383.13 423.15,383.13 423.9,383.13 424.64,383.13 425.39,383.13 426.14,383.13 426.89,383.13 427.63,383.13 428.38,383.13 429.13,383.13 429.87,383.13 430.62,383.13 431.37,383.13 432.12,383.13 432.86,383.13 433.61,383.13 434.36,383.13 435.1,383.13 435.85,383.13 436.6,383.13 436.6,383.13 435.85,383.13 435.1,383.13 434.36,383.13 433.61,383.13 432.86,383.13 432.12,383.13 431.37,383.13 430.62,383.13 429.87,383.13 429.13,383.13 428.38,383.13 427.63,383.13 426.89,383.13 426.14,383.13 425.39,383.13 424.64,383.13 423.9,383.13 423.15,383.13 422.4,383.13 421.65,383.13 420.91,383.13 420.16,383.13 419.41,383.13 418.67,383.13 417.92,383.13 417.17,383.13 416.42,383.13 415.68,383.13 414.93,383.13 414.18,383.13 413.44,383.13 412.69,383.13 411.94,383.13 411.19,383.13 410.45,383.13 409.7,383.13 408.95,383.13 408.21,383.13 407.46,383.13 406.71,383.13 405.96,383.13 405.22,383.13 404.47,383.13 403.72,383.13 402.98,383.13 402.23,383.13 401.48,383.13 400.73,383.13 399.99,383.13 399.24,383.13 398.49,383.13 397.75,383.13 397,383.13 396.25,383.13 395.5,383.13 394.76,383.13 394.01,383.13 393.26,383.13 392.52,383.13 391.77,383.13 391.02,383.13 390.27,383.13 389.53,383.13 388.78,383.13 388.03,383.13 387.29,383.13 386.54,383.13 385.79,383.13 385.04,383.13 384.3,383.13 383.55,383.13 382.8,383.13 382.06,383.13 381.31,383.13 380.56,383.13 379.81,383.13 379.07,383.13 378.32,383.13 377.57,383.13 376.82,383.13 376.08,383.13 375.33,383.13 374.58,383.13 373.84,383.13 373.09,383.13 372.34,383.13 371.59,383.13 370.85,383.13 370.1,383.13 369.35,383.13 368.61,383.13 367.86,383.13 367.11,383.13 366.36,383.13 365.62,383.13 364.87,383.13 364.12,383.13 363.38,383.13 362.63,383.13 361.88,383.13 361.13,383.13 360.39,383.13 359.64,383.13 358.89,383.13 358.15,383.13 357.4,383.13 356.65,383.13 355.9,383.13 355.16,383.13 354.41,383.13 353.66,383.13 352.92,383.13 352.17,383.13 351.42,383.13 350.67,383.13 349.93,383.13 349.18,383.13 348.43,383.13 347.69,383.13 346.94,383.13 346.19,383.13 345.44,383.13 344.7,383.13 343.95,383.13 343.2,383.13 342.46,383.13 341.71,383.13 340.96,383.13 340.21,383.13 339.47,383.13 338.72,383.13 337.97,383.13 337.23,383.13 336.48,383.13 335.73,383.13 334.98,383.13 334.24,383.13 333.49,383.13 332.74,383.13 332,383.13 331.25,383.13 330.5,383.13 329.75,383.13 329.01,383.13 328.26,383.13 327.51,383.13 326.76,383.13 326.02,383.13 325.27,383.13 324.52,383.13 323.78,383.13 323.03,383.13 322.28,383.13 321.53,383.13 320.79,383.13 320.04,383.13 319.29,383.13 318.55,383.13 317.8,383.13 317.05,383.13 316.3,383.13 315.56,383.13 314.81,383.13 314.06,383.13 313.32,383.13 312.57,383.13 311.82,383.13 311.07,383.13 310.33,383.13 309.58,383.13 308.83,383.13 308.09,383.13 307.34,383.13 306.59,383.13 305.84,383.13 305.1,383.13 304.35,383.13 303.6,383.13 302.86,383.13 302.11,383.13 301.36,383.13 300.61,383.13 299.87,383.13 299.12,383.13 298.37,383.13 297.63,383.13 296.88,383.13 296.13,383.13 295.38,383.13 294.64,383.13 293.89,383.13 293.14,383.13 292.4,383.13 291.65,383.13 290.9,383.13 290.15,383.13 289.41,383.13 288.66,383.13 287.91,383.13 287.17,383.13 286.42,383.13 285.67,383.13 284.92,383.13 284.18,383.13 283.43,383.13 282.68,383.13 281.94,383.13 281.19,383.13 280.44,383.13 279.69,383.13 278.95,383.13 278.2,383.13 277.45,383.13 276.7,383.13 275.96,383.13 275.21,383.13 274.46,383.13 273.72,383.13 272.97,383.13 272.22,383.13 271.47,383.13 270.73,383.13 269.98,383.13 269.23,383.13 268.49,383.13 267.74,383.13 266.99,383.13 266.24,383.13 265.5,383.13 264.75,383.13 264,383.13 263.26,383.13 262.51,383.13 261.76,383.13 261.01,383.13 260.27,383.13 259.52,383.13 258.77,383.13 258.03,383.13 257.28,383.13 256.53,383.13 255.78,383.13 255.04,383.13 254.29,383.13 253.54,383.13 252.8,383.13 252.05,383.13 251.3,383.13 250.55,383.13 249.81,383.13 249.06,383.13 248.31,383.13 247.57,383.13 246.82,383.13 246.07,383.13 245.32,383.13 244.58,383.13 243.83,383.13 243.08,383.13 242.34,383.13 241.59,383.13 240.84,383.13 240.09,383.13 239.35,383.13 238.6,383.13 237.85,383.13 237.11,383.13 236.36,383.13 235.61,383.13 234.86,383.13 234.12,383.13 233.37,383.13 232.62,383.13 231.88,383.13 231.13,383.13 230.38,383.13 229.63,383.13 228.89,383.13 228.14,383.13 227.39,383.13 226.64,383.13 225.9,383.13 225.15,383.13 224.4,383.13 223.66,383.13 222.91,383.13 222.16,383.13 221.41,383.13 220.67,383.13 219.92,383.13 219.17,383.13 218.43,383.13 217.68,383.13 216.93,383.13 216.18,383.13 215.44,383.13 214.69,383.13 213.94,383.13 213.2,383.13 212.45,383.13 211.7,383.13 210.95,383.13 210.21,383.13 209.46,383.13 208.71,383.13 207.97,383.13 207.22,383.13 206.47,383.13 205.72,383.13 204.98,383.13 204.23,383.13 203.48,383.13 202.74,383.13 201.99,383.13 201.24,383.13 200.49,383.13 199.75,383.13 199,383.13 198.25,383.13 197.51,383.13 196.76,383.13 196.01,383.13 195.26,383.13 194.52,383.13 193.77,383.13 193.02,383.13 192.28,383.13 191.53,383.13 190.78,383.13 190.03,383.13 189.29,383.13 188.54,383.13 187.79,383.13 187.05,383.13 186.3,383.13 185.55,383.13 184.8,383.13 184.06,383.13 183.31,383.13 182.56,383.13 181.82,383.13 181.07,383.13 180.32,383.13 179.57,383.13 178.83,383.13 178.08,383.13 177.33,383.13 176.58,383.13 175.84,383.13 175.09,383.13 174.34,383.13 173.6,383.13 172.85,383.13 172.1,383.13 171.35,383.13 170.61,383.13 169.86,383.13 169.11,383.13 168.37,383.13 167.62,383.13 166.87,383.13 166.12,383.13 165.38,383.13 164.63,383.13 163.88,383.13 163.14,383.13 162.39,383.13 161.64,383.13 160.89,383.13 160.15,383.13 159.4,383.13 158.65,383.13 157.91,383.13 157.16,383.13 156.41,383.13 155.66,383.13 154.92,383.13 154.17,383.13 153.42,383.13 152.68,383.13 151.93,383.13 151.18,383.13 150.43,383.13 149.69,383.13 148.94,383.13 148.19,383.13 147.45,383.13 146.7,383.13 145.95,383.13 145.2,383.13 144.46,383.13 143.71,383.13 142.96,383.13 142.22,383.13 141.47,383.13 140.72,383.13 139.97,383.13 139.23,383.13 138.48,383.13 137.73,383.13 136.99,383.13 136.24,383.13 135.49,383.13 134.74,383.13 134,383.13 133.25,383.13 132.5,383.13 131.76,383.13 131.01,383.13 130.26,383.13 129.51,383.13 128.77,383.13 128.02,383.13 127.27,383.13 126.52,383.13 125.78,383.13 125.03,383.13 124.28,383.13 123.54,383.13 122.79,383.13 122.04,383.13 121.29,383.13 120.55,383.13 119.8,383.13 119.05,383.13 118.31,383.13 117.56,383.13 116.81,383.13 116.06,383.13 115.32,383.13 114.57,383.13 113.82,383.13 113.08,383.13 112.33,383.13 111.58,383.13 110.83,383.13 110.09,383.13 109.34,383.13 108.59,383.13 107.85,383.13 107.1,383.13 106.35,383.13 105.6,383.13 104.86,383.13 104.11,383.13 103.36,383.13 102.62,383.13 101.87,383.13 101.12,383.13 100.37,383.13 99.63,383.13 98.88,383.13 98.13,383.13 97.39,383.13 96.64,383.13 95.89,383.13 95.14,383.13 94.4,383.13 93.65,383.13 92.9,383.13 92.16,383.13 91.41,383.13 90.66,383.13 89.91,383.13 89.17,383.13 88.42,383.13 87.67,383.13 86.93,383.13 86.18,383.13 85.43,383.13 84.68,383.13 83.94,383.13 83.19,383.13 82.44,383.13 81.7,383.13 80.95,383.13 80.2,383.13 79.45,383.13 78.71,383.13 77.96,383.13 77.21,383.13 76.46,383.13 75.72,383.13 74.97,383.13 74.22,383.13 73.48,383.13 72.73,383.13 71.98,383.13 71.23,383.13 70.49,383.13 69.74,383.13 68.99,383.13 68.25,383.13 67.5,383.13 66.75,383.13 66,383.13 65.26,383.13 64.51,383.13 63.76,383.13 63.02,383.13 62.27,383.13 61.52,383.13 60.77,383.13 60.03,383.13 59.28,383.13 58.53,383.13 57.79,383.13 57.04,383.13 56.29,383.13 55.54,383.13 54.8,383.13" style="fill: url(#simple-28A700FF); stroke-width: 1.07" clip-path="url(#clip_35_71_400_27_455_69_23_35)" />
  <defs>
    <pattern id="simple-28B700FF" width="17" height="17" patternTransform="rotate(45 0 0)" patternUnits="userSpaceOnUse">
      <rect style="fill:#ffffff; fill-opacity:1; stroke:none;" width="100%" height="100%" />
      <line style="stroke:#000000; stroke-width:13.6; stroke-opacity:1;" x1="0" y1="0" x2="0" y2="17" />
    </pattern>
  </defs>
  <polygon points="54.8,357.26 55.54,357.24 56.29,357.27 57.04,357.34 57.79,357.45 58.53,357.6 59.28,357.8 60.03,358.03 60.77,358.3 61.52,358.59 62.27,358.92 63.02,359.28 63.76,359.66 64.51,360.05 65.26,360.47 66,360.9 66.75,361.34 67.5,361.79 68.25,362.24 68.99,362.68 69.74,363.13 70.49,363.57 71.23,363.99 71.98,364.4 72.73,364.8 73.48,365.16 74.22,365.51 74.97,365.83 75.72,366.12 76.46,366.37 77.21,366.59 77.96,366.78 78.71,366.93 79.45,367.03 80.2,367.09 80.95,367.11 81.7,367.09 82.44,367.01 83.19,366.89 83.94,366.73 84.68,366.52 85.43,366.25 86.18,365.95 86.93,365.6 87.67,365.19 88.42,364.74 89.17,364.25 89.91,363.71 90.66,363.12 91.41,362.49 92.16,361.82 92.9,361.11 93.65,360.35 94.4,359.55 95.14,358.72 95.89,357.85 96.64,356.94 97.39,356 98.13,355.04 98.88,354.03 99.63,352.99 100.37,351.93 101.12,350.85 101.87,349.73 102.62,348.59 103.36,347.44 104.11,346.27 104.86,345.07 105.6,343.86 106.35,342.65 107.1,341.42 107.85,340.18 108.59,338.94 109.34,337.7 110.09,336.45 110.83,335.21 111.58,333.98 112.33,332.75 113.08,331.54 113.82,330.34 114.57,329.16 115.32,327.99 116.06,326.86 116.81,325.76 117.56,324.68 118.31,323.63 119.05,322.64 119.8,321.68 120.55,320.75 121.29,319.88 122.04,319.06 122.79,318.29 123.54,317.57 124.28,316.91 125.03,316.32 125.78,315.78 126.52,315.3 127.27,314.9 128.02,314.56 128.77,314.28 129.51,314.06 130.26,313.93 131.01,313.86 131.76,313.85 132.5,313.9 133.25,314.04 134,314.23 134.74,314.48 135.49,314.8 136.24,315.18 136.99,315.62 137.73,316.11 138.48,316.65 139.23,317.25 139.97,317.89 140.72,318.57 141.47,319.3 142.22,320.07 142.96,320.87 143.71,321.69 144.46,322.55 145.2,323.43 145.95,324.33 146.7,325.24 147.45,326.17 148.19,327.1 148.94,328.05 149.69,328.99 150.43,329.94 151.18,330.88 151.93,331.82 152.68,332.74 153.42,333.66 154.17,334.56 154.92,335.45 155.66,336.32 156.41,337.17 157.16,338 157.91,338.81 158.65,339.58 159.4,340.34 160.15,341.07 160.89,341.77 161.64,342.44 162.39,343.08 163.14,343.7 163.88,344.28 164.63,344.83 165.38,345.36 166.12,345.85 166.87,346.32 167.62,346.75 168.37,347.15 169.11,347.54 169.86,347.88 170.61,348.2 171.35,348.5 172.1,348.78 172.85,349.02 173.6,349.25 174.34,349.45 175.09,349.64 175.84,349.81 176.58,349.96 177.33,350.1 178.08,350.23 178.83,350.34 179.57,350.45 180.32,350.55 181.07,350.65 181.82,350.75 182.56,350.85 183.31,350.95 184.06,351.05 184.8,351.17 185.55,351.29 186.3,351.42 187.05,351.57 187.79,351.73 188.54,351.91 189.29,352.1 190.03,352.32 190.78,352.56 191.53,352.82 192.28,353.11 193.02,353.42 193.77,353.75 194.52,354.11 195.26,354.5 196.01,354.91 196.76,355.35 197.51,355.81 198.25,356.3 199,356.82 199.75,357.35 200.49,357.91 201.24,358.49 201.99,359.1 202.74,359.71 203.48,360.35 204.23,361 204.98,361.67 205.72,362.34 206.47,363.03 207.22,363.72 207.97,364.42 208.71,365.12 209.46,365.83 210.21,366.53 210.95,367.23 211.7,367.93 212.45,368.61 213.2,369.29 213.94,369.96 214.69,370.62 215.44,371.27 216.18,371.9 216.93,372.52 217.68,373.12 218.43,373.7 219.17,374.26 219.92,374.81 220.67,375.33 221.41,375.83 222.16,376.32 222.91,376.78 223.66,377.22 224.4,377.64 225.15,378.04 225.9,378.43 226.64,378.78 227.39,379.12 228.14,379.44 228.89,379.74 229.63,380.02 230.38,380.28 231.13,380.53 231.88,380.76 232.62,380.97 233.37,381.16 234.12,381.35 234.86,381.52 235.61,381.67 236.36,381.81 237.11,381.95 237.85,382.06 238.6,382.17 239.35,382.27 240.09,382.37 240.84,382.45 241.59,382.52 242.34,382.59 243.08,382.65 243.83,382.71 244.58,382.75 245.32,382.8 246.07,382.84 246.82,382.87 247.57,382.91 248.31,382.93 249.06,382.96 249.81,382.98 250.55,383 251.3,383.02 252.05,383.03 252.8,383.05 253.54,383.06 254.29,383.07 255.04,383.08 255.78,383.09 256.53,383.09 257.28,383.1 258.03,383.1 258.77,383.11 259.52,383.11 260.27,383.12 261.01,383.12 261.76,383.12 262.51,383.12 263.26,383.12 264,383.13 264.75,383.13 265.5,383.13 266.24,383.13 266.99,383.13 267.74,383.13 268.49,383.13 269.23,383.13 269.98,383.13 270.73,383.13 271.47,383.13 272.22,383.13 272.97,383.13 273.72,383.13 274.46,383.13 275.21,383.13 275.96,383.13 276.7,383.13 277.45,383.13 278.2,383.13 278.95,383.13 279.69,383.13 280.44,383.13 281.19,383.13 281.94,383.13 282.68,383.13 283.43,383.13 284.18,383.13 284.92,383.13 285.67,383.13 286.42,383.13 287.17,383.13 287.91,383.13 288.66,383.13 289.41,383.13 290.15,383.13 290.9,383.13 291.65,383.13 292.4,383.13 293.14,383.13 293.89,383.13 294.64,383.13 295.38,383.13 296.13,383.13 296.88,383.13 297.63,383.13 298.37,383.13 299.12,383.13 299.87,383.13 300.61,383.13 301.36,383.13 302.11,383.13 302.86,383.13 303.6,383.13 304.35,383.13 305.1,383.13 305.84,383.13 306.59,383.13 307.34,383.13 308.09,383.13 308.83,383.13 309.58,383.13 310.33,383.13 311.07,383.13 311.82,383.13 312.57,383.13 313.32,383.13 314.06,383.13 314.81,383.13 315.56,383.13 316.3,383.13 317.05,383.13 317.8,383.13 318.55,383.13 319.29,383.13 320.04,383.13 320.79,383.13 321.53,383.13 322.28,383.13 323.03,383.13 323.78,383.13 324.52,383.13 325.27,383.13 326.02,383.13 326.76,383.13 327.51,383.13 328.26,383.13 329.01,383.13 329.75,383.13 330.5,383.13 331.25,383.13 332,383.13 332.74,383.13 333.49,383.13 334.24,383.13 334.98,383.13 335.73,383.13 336.48,383.13 337.23,383.13 337.97,383.13 338.72,383.13 339.47,383.13 340.21,383.13 340.96,383.13 341.71,383.13 342.46,383.13 343.2,383.13 343.95,383.13 344.7,383.13 345.44,383.13 346.19,383.13 346.94,383.13 347.69,383.13 348.43,383.13 349.18,383.13 349.93,383.13 350.67,383.13 351.42,383.13 352.17,383.13 352.92,383.13 353.66,383.13 354.41,383.13 355.16,383.13 355.9,383.13 356.65,383.13 357.4,383.13 358.15,383.13 358.89,383.13 359.64,383.13 360.39,383.13 361.13,383.13 361.88,383.13 362.63,383.13 363.38,383.13 364.12,383.13 364.87,383.13 365.62,383.13 366.36,383.13 367.11,383.13 367.86,383.13 368.61,383.13 369.35,383.13 370.1,383.13 370.85,383.13 371.59,383.13 372.34,383.13 373.09,383.13 373.84,383.13 374.58,383.13 375.33,383.13 376.08,383.13 376.82,383.13 377.57,383.13 378.32,383.13 379.07,383.13 379.81,383.13 380.56,383.13 381.31,383.13 382.06,383.13 382.8,383.13 383.55,383.13 384.3,383.13 385.04,383.13 385.79,383.13 386.54,383.13 387.29,383.13 388.03,383.13 388.78,383.13 389.53,383.13 390.27,383.13 391.02,383.13 391.77,383.13 392.52,383.13 393.26,383.13 394.01,383.13 394.76,383.13 395.5,383.13 396.25,383.13 397,383.13 397.75,383.13 398.49,383.13 399.24,383.13 399.99,383.13 400.73,383.13 401.48,383.13 402.23,383.13 402.98,383.13 403.72,383.13 404.47,383.13 405.22,383.13 405.96,383.13 406.71,383.13 407.46,383.13 408.21,383.13 408.95,383.13 409.7,383.13 410.45,383.13 411.19,383.13 411.94,383.13 412.69,383.13 413.44,383.13 414.18,383.13 414.93,383.13 415.68,383.13 416.42,383.13 417.17,383.13 417.92,383.13 418.67,383.13 419.41,383.13 420.16,383.13 420.91,383.13 421.65,383.13 422.4,383.13 423.15,383.13 423.9,383.13 424.64,383.13 425.39,383.13 426.14,383.13 426.89,383.13 427.63,383.13 428.38,383.13 429.13,383.13 429.87,383.13 430.62,383.13 431.37,383.13 432.12,383.13 432.86,383.13 433.61,383.13 434.36,383.13 435.1,383.13 435.85,383.13 436.6,383.13 436.6,383.13 435.85,383.13 435.1,383.13 434.36,383.13 433.61,383.13 432.86,383.13 432.12,383.13 431.37,383.13 430.62,383.13 429.87,383.13 429.13,383.13 428.38,383.13 427.63,383.13 426.89,383.13 426.14,383.13 425.39,383.13 424.64,383.13 423.9,383.13 423.15,383.13 422.4,383.13 421.65,383.13 420.91,383.13 420.16,383.13 419.41,383.13 418.67,383.13 417.92,383.13 417.17,383.13 416.42,383.13 415.68,383.13 414.93,383.13 414.18,383.13 413.44,383.13 412.69,383.13 411.94,383.13 411.19,383.13 410.45,383.13 409.7,383.13 408.95,383.13 408.21,383.13 407.46,383.13 406.71,383.13 405.96,383.13 405.22,383.13 404.47,383.13 403.72,383.13 402.98,383.13 402.23,383.13 401.48,383.13 400.73,383.13 399.99,383.13 399.24,383.13 398.49,383.13 397.75,383.13 397,383.13 396.25,383.13 395.5,383.13 394.76,383.13 394.01,383.13 393.26,383.13 392.52,383.13 391.77,383.13 391.02,383.13 390.27,383.13 389.53,383.13 388.78,383.13 388.03,383.13 387.29,383.13 386.54,383.13 385.79,383.13 385.04,383.13 384.3,383.13 383.55,383.13 382.8,383.13 382.06,383.13 381.31,383.13 380.56,383.13 379.81,383.13 379.07,383.13 378.32,383.13 377.57,383.13 376.82,383.13 376.08,383.13 375.33,383.13 374.58,383.13 373.84,383.13 373.09,383.13 372.34,383.13 371.59,383.13 370.85,383.13 370.1,383.13 369.35,383.13 368.61,383.13 367.86,383.13 367.11,383.13 366.36,383.13 365.62,383.13 364.87,383.13 364.12,383.13 363.38,383.13 362.63,383.13 361.88,383.13 361.13,383.13 360.39,383.13 359.64,383.13 358.89,383.13 358.15,383.13 357.4,383.13 356.65,383.13 355.9,383.13 355.16,383.13 354.41,383.13 353.66,383.13 352.92,383.13 352.17,383.13 351.42,383.13 350.67,383.13 349.93,383.13 349.18,383.13 348.43,383.13 347.69,383.13 346.94,383.13 346.19,383.13 345.44,383.13 344.7,383.13 343.95,383.13 343.2,383.13 342.46,383.13 341.71,383.13 340.96,383.13 340.21,383.13 339.47,383.13 338.72,383.13 337.97,383.13 337.23,383.13 336.48,383.13 335.73,383.13 334.98,383.13 334.24,383.13 333.49,383.13 332.74,383.13 332,383.13 331.25,383.13 330.5,383.13 329.75,383.13 329.01,383.13 328.26,383.13 327.51,383.13 326.76,383.13 326.02,383.13 325.27,383.13 324.52,383.13 323.78,383.13 323.03,383.13 322.28,383.13 321.53,383.13 320.79,383.13 320.04,383.13 319.29,383.13 318.55,383.13 317.8,383.13 317.05,383.13 316.3,383.13 315.56,383.13 314.81,383.13 314.06,383.13 313.32,383.13 312.57,383.13 311.82,383.13 311.07,383.13 310.33,383.13 309.58,383.13 308.83,383.13 308.09,383.13 307.34,383.13 306.59,383.13 305.84,383.13 305.1,383.13 304.35,383.13 303.6,383.13 302.86,383.13 302.11,383.13 301.36,383.13 300.61,383.13 299.87,383.13 299.12,383.13 298.37,383.13 297.63,383.13 296.88,383.13 296.13,383.13 295.38,383.13 294.64,383.13 293.89,383.13 293.14,383.13 292.4,383.13 291.65,383.13 290.9,383.13 290.15,383.13 289.41,383.13 288.66,383.13 287.91,383.13 287.17,383.13 286.42,383.13 285.67,383.13 284.92,383.13 284.18,383.13 283.43,383.13 282.68,383.13 281.94,383.13 281.19,383.13 280.44,383.13 279.69,383.13 278.95,383.13 278.2,383.13 277.45,383.13 276.7,383.13 275.96,383.13 275.21,383.13 274.46,383.13 273.72,383.13 272.97,383.13 272.22,383.13 271.47,383.13 270.73,383.13 269.98,383.13 269.23,383.13 268.49,383.13 267.74,383.13 266.99,383.13 266.24,383.13 265.5,383.13 264.75,383.13 264,383.13 263.26,383.13 262.51,383.13 261.76,383.13 261.01,383.13 260.27,383.13 259.52,383.13 258.77,383.13 258.03,383.13 257.28,383.13 256.53,383.13 255.78,383.13 255.04,383.13 254.29,383.13 253.54,383.13 252.8,383.13 252.05,383.13 251.3,383.13 250.55,383.13 249.81,383.13 249.06,383.13 248.31,383.13 247.57,383.13 246.82,383.13 246.07,383.13 245.32,383.13 244.58,383.13 243.83,383.13 243.08,383.13 242.34,383.13 241.59,383.13 240.84,383.13 240.09,383.13 239.35,383.13 238.6,383.13 237.85,383.13 237.11,383.13 236.36,383.13 235.61,383.13 234.86,383.13 234.12,383.13 233.37,383.13 232.62,383.13 231.88,383.13 231.13,383.13 230.38,383.13 229.63,383.13 228.89,383.13 228.14,383.13 227.39,383.13 226.64,383.13 225.9,383.13 225.15,383.13 224.4,383.13 223.66,383.13 222.91,383.13 222.16,383.13 221.41,383.13 220.67,383.13 219.92,383.13 219.17,383.13 218.43,383.13 217.68,383.13 216.93,383.13 216.18,383.13 215.44,383.13 214.69,383.13 213.94,383.13 213.2,383.13 212.45,383.13 211.7,383.13 210.95,383.13 210.21,383.13 209.46,383.13 208.71,383.13 207.97,383.13 207.22,383.13 206.47,383.13 205.72,383.13 204.98,383.13 204.23,383.13 203.48,383.13 202.74,383.13 201.99,383.13 201.24,383.13 200.49,383.13 199.75,383.13 199,383.13 198.25,383.13 197.51,383.13 196.76,383.13 196.01,383.13 195.26,383.13 194.52,383.13 193.77,383.13 193.02,383.13 192.28,383.13 191.53,383.13 190.78,383.13 190.03,383.13 189.29,383.13 188.54,383.13 187.79,383.13 187.05,383.13 186.3,383.13 185.55,383.13 184.8,383.13 184.06,383.13 183.31,383.13 182.56,383.13 181.82,383.13 181.07,383.13 180.32,383.13 179.57,383.13 178.83,383.13 178.08,383.13 177.33,383.13 176.58,383.13 175.84,383.13 175.09,383.13 174.34,383.13 173.6,383.13 172.85,383.13 172.1,383.13 171.35,383.13 170.61,383.13 169.86,383.13 169.11,383.13 168.37,383.13 167.62,383.13 166.87,383.13 166.12,383.13 165.38,383.13 164.63,383.13 163.88,383.13 163.14,383.13 162.39,383.13 161.64,383.13 160.89,383.13 160.15,383.13 159.4,383.13 158.65,383.13 157.91,383.13 157.16,383.13 156.41,383.13 155.66,383.13 154.92,383.13 154.17,383.13 153.42,383.13 152.68,383.13 151.93,383.13 151.18,383.13 150.43,383.13 149.69,383.13 148.94,383.13 148.19,383.13 147.45,383.13 146.7,383.13 145.95,383.13 145.2,383.13 144.46,383.13 143.71,383.13 142.96,383.13 142.22,383.13 141.47,383.13 140.72,383.13 139.97,383.13 139.23,383.13 138.48,383.13 137.73,383.13 136.99,383.13 136.24,383.13 135.49,383.13 134.74,383.13 134,383.13 133.25,383.13 132.5,383.13 131.76,383.13 131.01,383.13 130.26,383.13 129.51,383.13 128.77,383.13 128.02,383.13 127.27,383.13 126.52,383.13 125.78,383.13 125.03,383.13 124.28,383.13 123.54,383.13 122.79,383.13 122.04,383.13 121.29,383.13 120.55,383.13 119.8,383.13 119.05,383.13 118.31,383.13 117.56,383.13 116.81,383.13 116.06,383.13 115.32,383.13 114.57,383.13 113.82,383.13 113.08,383.13 112.33,383.13 111.58,383.13 110.83,383.13 110.09,383.13 109.34,383.13 108.59,383.13 107.85,383.13 107.1,383.13 106.35,383.13 105.6,383.13 104.86,383.13 104.11,383.13 103.36,383.13 102.62,383.13 101.87,383.13 101.12,383.13 100.37,383.13 99.63,383.13 98.88,383.13 98.13,383.13 97.39,383.13 96.64,383.13 95.89,383.13 95.14,383.13 94.4,383.13 93.65,383.13 92.9,383.13 92.16,383.13 91.41,383.13 90.66,383.13 89.91,383.13 89.17,383.13 88.42,383.13 87.67,383.13 86.93,383.13 86.18,383.13 85.43,383.13 84.68,383.13 83.94,383.13 83.19,383.13 82.44,383.13 81.7,383.13 80.95,383.13 80.2,383.13 79.45,383.13 78.71,383.13 77.96,383.13 77.21,383.13 76.46,383.13 75.72,383.13 74.97,383.13 74.22,383.13 73.48,383.13 72.73,383.13 71.98,383.13 71.23,383.13 70.49,383.13 69.74,383.13 68.99,383.13 68.25,383.13 67.5,383.13 66.75,383.13 66,383.13 65.26,383.13 64.51,383.13 63.76,383.13 63.02,383.13 62.27,383.13 61.52,383.13 60.77,383.13 60.03,383.13 59.28,383.13 58.53,383.13 57.79,383.13 57.04,383.13 56.29,383.13 55.54,383.13 54.8,383.13" style="fill: url(#simple-28B700FF); stroke-width: 1.07" clip-path="url(#clip_35_71_400_27_455_69_23_35)" />
  <defs>
    <pattern id="simple-709700FF" width="17" height="17" patternTransform="rotate(45 0 0)" patternUnits="userSpaceOnUse">
      <rect style="fill:#ffffff; fill-opacity:1; stroke:none;" width="100%" height="100%" />
      <g style="stroke:#000000; stroke-width:4.53333333333333; stroke-opacity:1;">
        <line x1="0" y1="0" x2="0" y2="17" />
        <line x1="0" y1="0" x2="17" y2="0" />
      </g>
    </pattern>
  </defs>
  <polygon points="54.8,383.13 55.54,383.13 56.29,383.13 57.04,383.13 57.79,383.13 58.53,383.13 59.28,383.13 60.03,383.13 60.77,383.13 61.52,383.13 62.27,383.13 63.02,383.13 63.76,383.13 64.51,383.13 65.26,383.13 66,383.13 66.75,383.13 67.5,383.13 68.25,383.13 68.99,383.13 69.74,383.13 70.49,383.13 71.23,383.13 71.98,383.13 72.73,383.13 73.48,383.13 74.22,383.13 74.97,383.13 75.72,383.13 76.46,383.13 77.21,383.13 77.96,383.13 78.71,383.13 79.45,383.13 80.2,383.13 80.95,383.13 81.7,383.13 82.44,383.12 83.19,383.12 83.94,383.12 84.68,383.12 85.43,383.12 86.18,383.12 86.93,383.12 87.67,383.12 88.42,383.12 89.17,383.12 89.91,383.11 90.66,383.11 91.41,383.11 92.16,383.11 92.9,383.11 93.65,383.11 94.4,383.11 95.14,383.1 95.89,383.1 96.64,383.1 97.39,383.1 98.13,383.09 98.88,383.09 99.63,383.09 100.37,383.09 101.12,383.08 101.87,383.08 102.62,383.08 103.36,383.07 104.11,383.07 104.86,383.07 105.6,383.06 106.35,383.06 107.1,383.05 107.85,383.05 108.59,383.04 109.34,383.04 110.09,383.03 110.83,383.03 111.58,383.02 112.33,383.01 113.08,383.01 113.82,383 114.57,382.99 115.32,382.98 116.06,382.98 116.81,382.97 117.56,382.96 118.31,382.95 119.05,382.94 119.8,382.93 120.55,382.92 121.29,382.91 122.04,382.89 122.79,382.88 123.54,382.87 124.28,382.86 125.03,382.84 125.78,382.83 126.52,382.81 127.27,382.79 128.02,382.78 128.77,382.76 129.51,382.74 130.26,382.72 131.01,382.7 131.76,382.68 132.5,382.66 133.25,382.64 134,382.61 134.74,382.59 135.49,382.56 136.24,382.54 136.99,382.51 137.73,382.48 138.48,382.45 139.23,382.42 139.97,382.39 140.72,382.36 141.47,382.32 142.22,382.29 142.96,382.25 143.71,382.21 144.46,382.17 145.2,382.13 145.95,382.09 146.7,382.05 147.45,382 148.19,381.95 148.94,381.91 149.69,381.86 150.43,381.81 151.18,381.75 151.93,381.7 152.68,381.64 153.42,381.58 154.17,381.52 154.92,381.46 155.66,381.4 156.41,381.33 157.16,381.27 157.91,381.2 158.65,381.13 159.4,381.05 160.15,380.98 160.89,380.9 161.64,380.83 162.39,380.74 163.14,380.66 163.88,380.58 164.63,380.49 165.38,380.4 166.12,380.31 166.87,380.22 167.62,380.12 168.37,380.02 169.11,379.92 169.86,379.82 170.61,379.72 171.35,379.61 172.1,379.5 172.85,379.39 173.6,379.28 174.34,379.16 175.09,379.04 175.84,378.92 176.58,378.8 177.33,378.68 178.08,378.55 178.83,378.42 179.57,378.29 180.32,378.15 181.07,378.02 181.82,377.88 182.56,377.74 183.31,377.6 184.06,377.46 184.8,377.31 185.55,377.16 186.3,377.01 187.05,376.86 187.79,376.71 188.54,376.55 189.29,376.39 190.03,376.23 190.78,376.07 191.53,375.91 192.28,375.75 193.02,375.58 193.77,375.41 194.52,375.25 195.26,375.08 196.01,374.9 196.76,374.73 197.51,374.56 198.25,374.38 199,374.21 199.75,374.03 200.49,373.85 201.24,373.67 201.99,373.49 202.74,373.31 203.48,373.13 204.23,372.95 204.98,372.76 205.72,372.58 206.47,372.4 207.22,372.21 207.97,372.03 208.71,371.85 209.46,371.66 210.21,371.48 210.95,371.29 211.7,371.11 212.45,370.93 213.2,370.74 213.94,370.56 214.69,370.38 215.44,370.2 216.18,370.02 216.93,369.84 217.68,369.66 218.43,369.48 219.17,369.31 219.92,369.13 220.67,368.96 221.41,368.78 222.16,368.61 222.91,368.44 223.66,368.27 224.4,368.1 225.15,367.94 225.9,367.77 226.64,367.61 227.39,367.45 228.14,367.29 228.89,367.13 229.63,366.97 230.38,366.82 231.13,366.67 231.88,366.52 232.62,366.37 233.37,366.23 234.12,366.08 234.86,365.94 235.61,365.8 236.36,365.67 237.11,365.53 237.85,365.4 238.6,365.27 239.35,365.14 240.09,365.02 240.84,364.9 241.59,364.78 242.34,364.66 243.08,364.54 243.83,364.43 244.58,364.32 245.32,364.21 246.07,364.1 246.82,364 247.57,363.9 248.31,363.8 249.06,363.7 249.81,363.61 250.55,363.51 251.3,363.42 252.05,363.33 252.8,363.25 253.54,363.16 254.29,363.08 255.04,363 255.78,362.92 256.53,362.84 257.28,362.77 258.03,362.7 258.77,362.62 259.52,362.55 260.27,362.48 261.01,362.42 261.76,362.35 262.51,362.29 263.26,362.23 264,362.17 264.75,362.11 265.5,362.05 266.24,361.99 266.99,361.93 267.74,361.88 268.49,361.82 269.23,361.77 269.98,361.72 270.73,361.67 271.47,361.62 272.22,361.57 272.97,361.52 273.72,361.47 274.46,361.42 275.21,361.37 275.96,361.32 276.7,361.28 277.45,361.23 278.2,361.18 278.95,361.14 279.69,361.09 280.44,361.04 281.19,361 281.94,360.95 282.68,360.91 283.43,360.86 284.18,360.81 284.92,360.77 285.67,360.72 286.42,360.68 287.17,360.63 287.91,360.58 288.66,360.53 289.41,360.49 290.15,360.44 290.9,360.39 291.65,360.34 292.4,360.29 293.14,360.24 293.89,360.19 294.64,360.14 295.38,360.09 296.13,360.04 296.88,359.99 297.63,359.93 298.37,359.88 299.12,359.83 299.87,359.77 300.61,359.72 301.36,359.66 302.11,359.6 302.86,359.55 303.6,359.49 304.35,359.43 305.1,359.37 305.84,359.31 306.59,359.25 307.34,359.19 308.09,359.13 308.83,359.07 309.58,359 310.33,358.94 311.07,358.88 311.82,358.81 312.57,358.75 313.32,358.68 314.06,358.61 314.81,358.55 315.56,358.48 316.3,358.41 317.05,358.34 317.8,358.27 318.55,358.2 319.29,358.13 320.04,358.06 320.79,357.99 321.53,357.91 322.28,357.84 323.03,357.77 323.78,357.69 324.52,357.62 325.27,357.54 326.02,357.46 326.76,357.39 327.51,357.31 328.26,357.23 329.01,357.16 329.75,357.08 330.5,357 331.25,356.92 332,356.84 332.74,356.76 333.49,356.68 334.24,356.6 334.98,356.52 335.73,356.44 336.48,356.36 337.23,356.28 337.97,356.19 338.72,356.11 339.47,356.03 340.21,355.95 340.96,355.87 341.71,355.78 342.46,355.7 343.2,355.62 343.95,355.54 344.7,355.45 345.44,355.37 346.19,355.29 346.94,355.21 347.69,355.12 348.43,355.04 349.18,354.96 349.93,354.88 350.67,354.8 351.42,354.72 352.17,354.64 352.92,354.56 353.66,354.48 354.41,354.41 355.16,354.33 355.9,354.25 356.65,354.18 357.4,354.1 358.15,354.03 358.89,353.96 359.64,353.88 360.39,353.81 361.13,353.74 361.88,353.68 362.63,353.61 363.38,353.54 364.12,353.48 364.87,353.42 365.62,353.36 366.36,353.3 367.11,353.24 367.86,353.19 368.61,353.13 369.35,353.08 370.1,353.03 370.85,352.98 371.59,352.94 372.34,352.89 373.09,352.85 373.84,352.81 374.58,352.78 375.33,352.74 376.08,352.71 376.82,352.68 377.57,352.66 378.32,352.64 379.07,352.62 379.81,352.6 380.56,352.59 381.31,352.57 382.06,352.57 382.8,352.56 383.55,352.56 384.3,352.56 385.04,352.57 385.79,352.58 386.54,352.59 387.29,352.6 388.03,352.62 388.78,352.65 389.53,352.67 390.27,352.7 391.02,352.74 391.77,352.77 392.52,352.82 393.26,352.86 394.01,352.91 394.76,352.96 395.5,353.02 396.25,353.08 397,353.15 397.75,353.22 398.49,353.29 399.24,353.37 399.99,353.45 400.73,353.53 401.48,353.63 402.23,353.72 402.98,353.82 403.72,353.92 404.47,354.02 405.22,354.14 405.96,354.25 406.71,354.37 407.46,354.49 408.21,354.62 408.95,354.75 409.7,354.88 410.45,355.02 411.19,355.16 411.94,355.31 412.69,355.46 413.44,355.61 414.18,355.77 414.93,355.93 415.68,356.1 416.42,356.27 417.17,356.44 417.92,356.61 418.67,356.79 419.41,356.98 420.16,357.16 420.91,357.35 421.65,357.55 422.4,357.74 423.15,357.94 423.9,358.14 424.64,358.35 425.39,358.56 426.14,358.77 426.89,358.98 427.63,359.2 428.38,359.42 429.13,359.64 429.87,359.86 430.62,360.09 431.37,360.32 432.12,360.55 432.86,360.78 433.61,361.02 434.36,361.25 435.1,361.49 435.85,361.73 436.6,361.98 436.6,383.13 435.85,383.13 435.1,383.13 434.36,383.13 433.61,383.13 432.86,383.13 432.12,383.13 431.37,383.13 430.62,383.13 429.87,383.13 429.13,383.13 428.38,383.13 427.63,383.13 426.89,383.13 426.14,383.13 425.39,383.13 424.64,383.13 423.9,383.13 423.15,383.13 422.4,383.13 421.65,383.13 420.91,383.13 420.16,383.13 419.41,383.13 418.67,383.13 417.92,383.13 417.17,383.13 416.42,383.13 415.68,383.13 414.93,383.13 414.18,383.13 413.44,383.13 412.69,383.13 411.94,383.13 411.19,383.13 410.45,383.13 409.7,383.13 408.95,383.13 408.21,383.13 407.46,383.13 406.71,383.13 405.96,383.13 405.22,383.13 404.47,383.13 403.72,383.13 402.98,383.13 402.23,383.13 401.48,383.13 400.73,383.13 399.99,383.13 399.24,383.13 398.49,383.13 397.75,383.13 397,383.13 396.25,383.13 395.5,383.13 394.76,383.13 394.01,383.13 393.26,383.13 392.52,383.13 391.77,383.13 391.02,383.13 390.27,383.13 389.53,383.13 388.78,383.13 388.03,383.13 387.29,383.13 386.54,383.13 385.79,383.13 385.04,383.13 384.3,383.13 383.55,383.13 382.8,383.13 382.06,383.13 381.31,383.13 380.56,383.13 379.81,383.13 379.07,383.13 378.32,383.13 377.57,383.13 376.82,383.13 376.08,383.13 375.33,383.13 374.58,383.13 373.84,383.13 373.09,383.13 372.34,383.13 371.59,383.13 370.85,383.13 370.1,383.13 369.35,383.13 368.61,383.13 367.86,383.13 367.11,383.13 366.36,383.13 365.62,383.13 364.87,383.13 364.12,383.13 363.38,383.13 362.63,383.13 361.88,383.13 361.13,383.13 360.39,383.13 359.64,383.13 358.89,383.13 358.15,383.13 357.4,383.13 356.65,383.13 355.9,383.13 355.16,383.13 354.41,383.13 353.66,383.13 352.92,383.13 352.17,383.13 351.42,383.13 350.67,383.13 349.93,383.13 349.18,383.13 348.43,383.13 347.69,383.13 346.94,383.13 346.19,383.13 345.44,383.13 344.7,383.13 343.95,383.13 343.2,383.13 342.46,383.13 341.71,383.13 340.96,383.13 340.21,383.13 339.47,383.13 338.72,383.13 337.97,383.13 337.23,383.13 336.48,383.13 335.73,383.13 334.98,383.13 334.24,383.13 333.49,383.13 332.74,383.13 332,383.13 331.25,383.13 330.5,383.13 329.75,383.13 329.01,383.13 328.26,383.13 327.51,383.13 326.76,383.13 326.02,383.13 325.27,383.13 324.52,383.13 323.78,383.13 323.03,383.13 322.28,383.13 321.53,383.13 320.79,383.13 320.04,383.13 319.29,383.13 318.55,383.13 317.8,383.13 317.05,383.13 316.3,383.13 315.56,383.13 314.81,383.13 314.06,383.13 313.32,383.13 312.57,383.13 311.82,383.13 311.07,383.13 310.33,383.13 309.58,383.13 308.83,383.13 308.09,383.13 307.34,383.13 306.59,383.13 305.84,383.13 305.1,383.13 304.35,383.13 303.6,383.13 302.86,383.13 302.11,383.13 301.36,383.13 300.61,383.13 299.87,383.13 299.12,383.13 298.37,383.13 297.63,383.13 296.88,383.13 296.13,383.13 295.38,383.13 294.64,383.13 293.89,383.13 293.14,383.13 292.4,383.13 291.65,383.13 290.9,383.13 290.15,383.13 289.41,383.13 288.66,383.13 287.91,383.13 287.17,383.13 286.42,383.13 285.67,383.13 284.92,383.13 284.18,383.13 283.43,383.13 282.68,383.13 281.94,383.13 281.19,383.13 280.44,383.13 279.69,383.13 278.95,383.13 278.2,383.13 277.45,383.13 276.7,383.13 275.96,383.13 275.21,383.13 274.46,383.13 273.72,383.13 272.97,383.13 272.22,383.13 271.47,383.13 270.73,383.13 269.98,383.13 269.23,383.13 268.49,383.13 267.74,383.13 266.99,383.13 266.24,383.13 265.5,383.13 264.75,383.13 264,383.13 263.26,383.13 262.51,383.13 261.76,383.13 261.01,383.13 260.27,383.13 259.52,383.13 258.77,383.13 258.03,383.13 257.28,383.13 256.53,383.13 255.78,383.13 255.04,383.13 254.29,383.13 253.54,383.13 252.8,383.13 252.05,383.13 251.3,383.13 250.55,383.13 249.81,383.13 249.06,383.13 248.31,383.13 247.57,383.13 246.82,383.13 246.07,383.13 245.32,383.13 244.58,383.13 243.83,383.13 243.08,383.13 242.34,383.13 241.59,383.13 240.84,383.13 240.09,383.13 239.35,383.13 238.6,383.13 237.85,383.13 237.11,383.13 236.36,383.13 235.61,383.13 234.86,383.13 234.12,383.13 233.37,383.13 232.62,383.13 231.88,383.13 231.13,383.13 230.38,383.13 229.63,383.13 228.89,383.13 228.14,383.13 227.39,383.13 226.64,383.13 225.9,383.13 225.15,383.13 224.4,383.13 223.66,383.13 222.91,383.13 222.16,383.13 221.41,383.13 220.67,383.13 219.92,383.13 219.17,383.13 218.43,383.13 217.68,383.13 216.93,383.13 216.18,383.13 215.44,383.13 214.69,383.13 213.94,383.13 213.2,383.13 212.45,383.13 211.7,383.13 210.95,383.13 210.21,383.13 209.46,383.13 208.71,383.13 207.97,383.13 207.22,383.13 206.47,383.13 205.72,383.13 204.98,383.13 204.23,383.13 203.48,383.13 202.74,383.13 201.99,383.13 201.24,383.13 200.49,383.13 199.75,383.13 199,383.13 198.25,383.13 197.51,383.13 196.76,383.13 196.01,383.13 195.26,383.13 194.52,383.13 193.77,383.13 193.02,383.13 192.28,383.13 191.53,383.13 190.78,383.13 190.03,383.13 189.29,383.13 188.54,383.13 187.79,383.13 187.05,383.13 186.3,383.13 185.55,383.13 184.8,383.13 184.06,383.13 183.31,383.13 182.56,383.13 181.82,383.13 181.07,383.13 180.32,383.13 179.57,383.13 178.83,383.13 178.08,383.13 177.33,383.13 176.58,383.13 175.84,383.13 175.09,383.13 174.34,383.13 173.6,383.13 172.85,383.13 172.1,383.13 171.35,383.13 170.61,383.13 169.86,383.13 169.11,383.13 168.37,383.13 167.62,383.13 166.87,383.13 166.12,383.13 165.38,383.13 164.63,383.13 163.88,383.13 163.14,383.13 162.39,383.13 161.64,383.13 160.89,383.13 160.15,383.13 159.4,383.13 158.65,383.13 157.91,383.13 157.16,383.13 156.41,383.13 155.66,383.13 154.92,383.13 154.17,383.13 153.42,383.13 152.68,383.13 151.93,383.13 151.18,383.13 150.43,383.13 149.69,383.13 148.94,383.13 148.19,383.13 147.45,383.13 146.7,383.13 145.95,383.13 145.2,383.13 144.46,383.13 143.71,383.13 142.96,383.13 142.22,383.13 141.47,383.13 140.72,383.13 139.97,383.13 139.23,383.13 138.48,383.13 137.73,383.13 136.99,383.13 136.24,383.13 135.49,383.13 134.74,383.13 134,383.13 133.25,383.13 132.5,383.13 131.76,383.13 131.01,383.13 130.26,383.13 129.51,383.13 128.77,383.13 128.02,383.13 127.27,383.13 126.52,383.13 125.78,383.13 125.03,383.13 124.28,383.13 123.54,383.13 122.79,383.13 122.04,383.13 121.29,383.13 120.55,383.13 119.8,383.13 119.05,383.13 118.31,383.13 117.56,383.13 116.81,383.13 116.06,383.13 115.32,383.13 114.57,383.13 113.82,383.13 113.08,383.13 112.33,383.13 111.58,383.13 110.83,383.13 110.09,383.13 109.34,383.13 108.59,383.13 107.85,383.13 107.1,383.13 106.35,383.13 105.6,383.13 104.86,383.13 104.11,383.13 103.36,383.13 102.62,383.13 101.87,383.13 101.12,383.13 100.37,383.13 99.63,383.13 98.88,383.13 98.13,383.13 97.39,383.13 96.64,383.13 95.89,383.13 95.14,383.13 94.4,383.13 93.65,383.13 92.9,383.13 92.16,383.13 91.41,383.13 90.66,383.13 89.91,383.13 89.17,383.13 88.42,383.13 87.67,383.13 86.93,383.13 86.18,383.13 85.43,383.13 84.68,383.13 83.94,383.13 83.19,383.13 82.44,383.13 81.7,383.13 80.95,383.13 80.2,383.13 79.45,383.13 78.71,383.13 77.96,383.13 77.21,383.13 76.46,383.13 75.72,383.13 74.97,383.13 74.22,383.13 73.48,383.13 72.73,383.13 71.98,383.13 71.23,383.13 70.49,383.13 69.74,383.13 68.99,383.13 68.25,383.13 67.5,383.13 66.75,383.13 66,383.13 65.26,383.13 64.51,383.13 63.76,383.13 63.02,383.13 62.27,383.13 61.52,383.13 60.77,383.13 60.03,383.13 59.28,383.13 58.53,383.13 57.79,383.13 57.04,383.13 56.29,383.13 55.54,383.13 54.8,383.13" style="fill: url(#simple-709700FF); stroke-width: 1.07" clip-path="url(#clip_35_71_400_27_455_69_23_35)" />
  <defs>
    <pattern id="simple-70A700FF" width="17" height="17" patternTransform="rotate(45 0 0)" patternUnits="userSpaceOnUse">
      <rect style="fill:#ffffff; fill-opacity:1; stroke:none;" width="100%" height="100%" />
      <g style="stroke:#000000; stroke-width:9.06666666666667; stroke-opacity:1;">
        <line x1="0" y1="0" x2="0" y2="17" />
        <line x1="0" y1="0" x2="17" y2="0" />
      </g>
    </pattern>
  </defs>
  <polygon points="54.8,383.13 55.54,383.13 56.29,383.13 57.04,383.13 57.79,383.13 58.53,383.13 59.28,383.13 60.03,383.13 60.77,383.13 61.52,383.13 62.27,383.13 63.02,383.13 63.76,383.13 64.51,383.13 65.26,383.13 66,383.13 66.75,383.13 67.5,383.13 68.25,383.13 68.99,383.13 69.74,383.13 70.49,383.13 71.23,383.13 71.98,383.13 72.73,383.13 73.48,383.13 74.22,383.13 74.97,383.13 75.72,383.13 76.46,383.13 77.21,383.13 77.96,383.13 78.71,383.13 79.45,383.13 80.2,383.13 80.95,383.13 81.7,383.13 82.44,383.13 83.19,383.13 83.94,383.13 84.68,383.13 85.43,383.13 86.18,383.13 86.93,383.13 87.67,383.13 88.42,383.13 89.17,383.13 89.91,383.13 90.66,383.13 91.41,383.13 92.16,383.13 92.9,383.13 93.65,383.13 94.4,383.13 95.14,383.13 95.89,383.13 96.64,383.13 97.39,383.13 98.13,383.13 98.88,383.13 99.63,383.13 100.37,383.13 101.12,383.13 101.87,383.13 102.62,383.13 103.36,383.13 104.11,383.13 104.86,383.13 105.6,383.13 106.35,383.13 107.1,383.13 107.85,383.13 108.59,383.13 109.34,383.13 110.09,383.13 110.83,383.13 111.58,383.13 112.33,383.13 113.08,383.13 113.82,383.13 114.57,383.13 115.32,383.13 116.06,383.13 116.81,383.13 117.56,383.13 118.31,383.13 119.05,383.13 119.8,383.13 120.55,383.13 121.29,383.13 122.04,383.13 122.79,383.13 123.54,383.13 124.28,383.13 125.03,383.13 125.78,383.13 126.52,383.13 127.27,383.13 128.02,383.13 128.77,383.13 129.51,383.13 130.26,383.13 131.01,383.13 131.76,383.13 132.5,383.13 133.25,383.13 134,383.13 134.74,383.13 135.49,383.13 136.24,383.13 136.99,383.13 137.73,383.13 138.48,383.13 139.23,383.13 139.97,383.13 140.72,383.13 141.47,383.13 142.22,383.13 142.96,383.13 143.71,383.13 144.46,383.13 145.2,383.13 145.95,383.13 146.7,383.13 147.45,383.13 148.19,383.13 148.94,383.13 149.69,383.13 150.43,383.13 151.18,383.13 151.93,383.13 152.68,383.13 153.42,383.13 154.17,383.13 154.92,383.13 155.66,383.13 156.41,383.13 157.16,383.13 157.91,383.13 158.65,383.13 159.4,383.13 160.15,383.13 160.89,383.13 161.64,383.13 162.39,383.13 163.14,383.13 163.88,383.13 164.63,383.13 165.38,383.13 166.12,383.13 166.87,383.13 167.62,383.13 168.37,383.13 169.11,383.13 169.86,383.13 170.61,383.13 171.35,383.13 172.1,383.13 172.85,383.13 173.6,383.13 174.34,383.13 175.09,383.13 175.84,383.13 176.58,383.13 177.33,383.13 178.08,383.13 178.83,383.13 179.57,383.13 180.32,383.13 181.07,383.12 181.82,383.11 182.56,383.1 183.31,383.07 184.06,383.03 184.8,382.96 185.55,382.86 186.3,382.7 187.05,382.46 187.79,382.11 188.54,381.61 189.29,380.91 190.03,379.9 190.78,378.5 191.53,376.62 192.28,374.14 193.02,370.95 193.77,366.94 194.52,361.97 195.26,355.96 196.01,348.83 196.76,340.52 197.51,330.97 198.25,320.42 199,309.07 199.75,297.17 200.49,285.06 201.24,273.13 201.99,261.79 202.74,251.5 203.48,242.69 204.23,236 204.98,231.64 205.72,229.73 206.47,230.31 207.22,233.31 207.97,238.53 208.71,245.65 209.46,254.23 210.21,263.78 210.95,273.71 211.7,283.26 212.45,291.82 213.2,298.81 213.94,303.72 214.69,306.11 215.44,305.59 216.18,301.89 216.93,294.85 217.68,284.4 218.43,270.26 219.17,253.17 219.92,233.61 220.67,212.17 221.41,189.61 222.16,166.78 222.91,144.59 223.66,124.01 224.4,106 225.15,91.81 225.9,82.16 226.64,77.33 227.39,77.57 228.14,82.86 228.89,92.96 229.63,107.39 230.38,125.52 231.13,146.55 231.88,169.65 232.62,193.81 233.37,218 234.12,241.49 234.86,263.68 235.61,284.11 236.36,302.48 237.11,318.59 237.85,332.42 238.6,344.01 239.35,353.31 240.09,360.75 240.84,366.63 241.59,371.18 242.34,374.63 243.08,377.2 243.83,379.07 244.58,380.41 245.32,381.34 246.07,381.96 246.82,382.38 247.57,382.65 248.31,382.83 249.06,382.95 249.81,383.02 250.55,383.07 251.3,383.1 252.05,383.11 252.8,383.12 253.54,383.13 254.29,383.13 255.04,383.13 255.78,383.13 256.53,383.13 257.28,383.13 258.03,383.13 258.77,383.13 259.52,383.13 260.27,383.13 261.01,383.13 261.76,383.13 262.51,383.13 263.26,383.13 264,383.13 264.75,383.13 265.5,383.13 266.24,383.13 266.99,383.13 267.74,383.13 268.49,383.13 269.23,383.13 269.98,383.13 270.73,383.13 271.47,383.13 272.22,383.13 272.97,383.13 273.72,383.13 274.46,383.13 275.21,383.13 275.96,383.13 276.7,383.13 277.45,383.13 278.2,383.13 278.95,383.13 279.69,383.13 280.44,383.13 281.19,383.13 281.94,383.13 282.68,383.13 283.43,383.13 284.18,383.13 284.92,383.13 285.67,383.13 286.42,383.13 287.17,383.13 287.91,383.13 288.66,383.13 289.41,383.13 290.15,383.13 290.9,383.13 291.65,383.13 292.4,383.13 293.14,383.13 293.89,383.13 294.64,383.13 295.38,383.13 296.13,383.13 296.88,383.13 297.63,383.13 298.37,383.13 299.12,383.13 299.87,383.13 300.61,383.13 301.36,383.13 302.11,383.13 302.86,383.13 303.6,383.13 304.35,383.13 305.1,383.13 305.84,383.13 306.59,383.13 307.34,383.13 308.09,383.13 308.83,383.13 309.58,383.13 310.33,383.13 311.07,383.13 311.82,383.13 312.57,383.13 313.32,383.13 314.06,383.13 314.81,383.13 315.56,383.13 316.3,383.13 317.05,383.13 317.8,383.13 318.55,383.13 319.29,383.13 320.04,383.13 320.79,383.13 321.53,383.13 322.28,383.13 323.03,383.13 323.78,383.13 324.52,383.13 325.27,383.13 326.02,383.13 326.76,383.13 327.51,383.13 328.26,383.13 329.01,383.13 329.75,383.13 330.5,383.13 331.25,383.13 332,383.13 332.74,383.13 333.49,383.13 334.24,383.13 334.98,383.13 335.73,383.13 336.48,383.13 337.23,383.13 337.97,383.13 338.72,383.13 339.47,383.13 340.21,383.13 340.96,383.13 341.71,383.13 342.46,383.13 343.2,383.13 343.95,383.13 344.7,383.13 345.44,383.13 346.19,383.13 346.94,383.13 347.69,383.13 348.43,383.13 349.18,383.13 349.93,383.13 350.67,383.13 351.42,383.13 352.17,383.13 352.92,383.13 353.66,383.13 354.41,383.13 355.16,383.13 355.9,383.13 356.65,383.13 357.4,383.13 358.15,383.13 358.89,383.13 359.64,383.13 360.39,383.13 361.13,383.13 361.88,383.13 362.63,383.13 363.38,383.13 364.12,383.13 364.87,383.13 365.62,383.13 366.36,383.13 367.11,383.13 367.86,383.13 368.61,383.13 369.35,383.13 370.1,383.13 370.85,383.13 371.59,383.13 372.34,383.13 373.09,383.13 373.84,383.13 374.58,383.13 375.33,383.13 376.08,383.13 376.82,383.13 377.57,383.13 378.32,383.13 379.07,383.13 379.81,383.13 380.56,383.13 381.31,383.13 382.06,383.13 382.8,383.13 383.55,383.13 384.3,383.13 385.04,383.13 385.79,383.13 386.54,383.13 387.29,383.13 388.03,383.13 388.78,383.13 389.53,383.13 390.27,383.13 391.02,383.13 391.77,383.13 392.52,383.13 393.26,383.13 394.01,383.13 394.76,383.13 395.5,383.13 396.25,383.13 397,383.13 397.75,383.13 398.49,383.13 399.24,383.13 399.99,383.13 400.73,383.13 401.48,383.13 402.23,383.13 402.98,383.13 403.72,383.13 404.47,383.13 405.22,383.13 405.96,383.13 406.71,383.13 407.46,383.13 408.21,383.13 408.95,383.13 409.7,383.13 410.45,383.13 411.19,383.13 411.94,383.13 412.69,383.13 413.44,383.13 414.18,383.13 414.93,383.13 415.68,383.13 416.42,383.13 417.17,383.13 417.92,383.13 418.67,383.13 419.41,383.13 420.16,383.13 420.91,383.13 421.65,383.13 422.4,383.13 423.15,383.13 423.9,383.13 424.64,383.13 425.39,383.13 426.14,383.13 426.89,383.13 427.63,383.13 428.38,383.13 429.13,383.13 429.87,383.13 430.62,383.13 431.37,383.13 432.12,383.13 432.86,383.13 433.61,383.13 434.36,383.13 435.1,383.13 435.85,383.13 436.6,383.13 436.6,383.13 435.85,383.13 435.1,383.13 434.36,383.13 433.61,383.13 432.86,383.13 432.12,383.13 431.37,383.13 430.62,383.13 429.87,383.13 429.13,383.13 428.38,383.13 427.63,383.13 426.89,383.13 426.14,383.13 425.39,383.13 424.64,383.13 423.9,383.13 423.15,383.13 422.4,383.13 421.65,383.13 420.91,383.13 420.16,383.13 419.41,383.13 418.67,383.13 417.92,383.13 417.17,383.13 416.42,383.13 415.68,383.13 414.93,383.13 414.18,383.13 413.44,383.13 412.69,383.13 411.94,383.13 411.19,383.13 410.45,383.13 409.7,383.13 408.95,383.13 408.21,383.13 407.46,383.13 406.71,383.13 405.96,383.13 405.22,383.13 404.47,383.13 403.72,383.13 402.98,383.13 402.23,383.13 401.48,383.13 400.73,383.13 399.99,383.13 399.24,383.13 398.49,383.13 397.75,383.13 397,383.13 396.25,383.13 395.5,383.13 394.76,383.13 394.01,383.13 393.26,383.13 392.52,383.13 391.77,383.13 391.02,383.13 390.27,383.13 389.53,383.13 388.78,383.13 388.03,383.13 387.29,383.13 386.54,383.13 385.79,383.13 385.04,383.13 384.3,383.13 383.55,383.13 382.8,383.13 382.06,383.13 381.31,383.13 380.56,383.13 379.81,383.13 379.07,383.13 378.32,383.13 377.57,383.13 376.82,383.13 376.08,383.13 375.33,383.13 374.58,383.13 373.84,383.13 373.09,383.13 372.34,383.13 371.59,383.13 370.85,383.13 370.1,383.13 369.35,383.13 368.61,383.13 367.86,383.13 367.11,383.13 366.36,383.13 365.62,383.13 364.87,383.13 364.12,383.13 363.38,383.13 362.63,383.13 361.88,383.13 361.13,383.13 360.39,383.13 359.64,383.13 358.89,383.13 358.15,383.13 357.4,383.13 356.65,383.13 355.9,383.13 355.16,383.13 354.41,383.13 353.66,383.13 352.92,383.13 352.17,383.13 351.42,383.13 350.67,383.13 349.93,383.13 349.18,383.13 348.43,383.13 347.69,383.13 346.94,383.13 346.19,383.13 345.44,383.13 344.7,383.13 343.95,383.13 343.2,383.13 342.46,383.13 341.71,383.13 340.96,383.13 340.21,383.13 339.47,383.13 338.72,383.13 337.97,383.13 337.23,383.13 336.48,383.13 335.73,383.13 334.98,383.13 334.24,383.13 333.49,383.13 332.74,383.13 332,383.13 331.25,383.13 330.5,383.13 329.75,383.13 329.01,383.13 328.26,383.13 327.51,383.13 326.76,383.13 326.02,383.13 325.27,383.13 324.52,383.13 323.78,383.13 323.03,383.13 322.28,383.13 321.53,383.13 320.79,383.13 320.04,383.13 319.29,383.13 318.55,383.13 317.8,383.13 317.05,383.13 316.3,383.13 315.56,383.13 314.81,383.13 314.06,383.13 313.32,383.13 312.57,383.13 311.82,383.13 311.07,383.13 310.33,383.13 309.58,383.13 308.83,383.13 308.09,383.13 307.34,383.13 306.59,383.13 305.84,383.13 305.1,383.13 304.35,383.13 303.6,383.13 302.86,383.13 302.11,383.13 301.36,383.13 300.61,383.13 299.87,383.13 299.12,383.13 298.37,383.13 297.63,383.13 296.88,383.13 296.13,383.13 295.38,383.13 294.64,383.13 293.89,383.13 293.14,383.13 292.4,383.13 291.65,383.13 290.9,383.13 290.15,383.13 289.41,383.13 288.66,383.13 287.91,383.13 287.17,383.13 286.42,383.13 285.67,383.13 284.92,383.13 284.18,383.13 283.43,383.13 282.68,383.13 281.94,383.13 281.19,383.13 280.44,383.13 279.69,383.13 278.95,383.13 278.2,383.13 277.45,383.13 276.7,383.13 275.96,383.13 275.21,383.13 274.46,383.13 273.72,383.13 272.97,383.13 272.22,383.13 271.47,383.13 270.73,383.13 269.98,383.13 269.23,383.13 268.49,383.13 267.74,383.13 266.99,383.13 266.24,383.13 265.5,383.13 264.75,383.13 264,383.13 263.26,383.13 262.51,383.13 261.76,383.13 261.01,383.13 260.27,383.13 259.52,383.13 258.77,383.13 258.03,383.13 257.28,383.13 256.53,383.13 255.78,383.13 255.04,383.13 254.29,383.13 253.54,383.13 252.8,383.13 252.05,383.13 251.3,383.13 250.55,383.13 249.81,383.13 249.06,383.13 248.31,383.13 247.57,383.13 246.82,383.13 246.07,383.13 245.32,383.13 244.58,383.13 243.83,383.13 243.08,383.13 242.34,383.13 241.59,383.13 240.84,383.13 240.09,383.13 239.35,383.13 238.6,383.13 237.85,383.13 237.11,383.13 236.36,383.13 235.61,383.13 234.86,383.13 234.12,383.13 233.37,383.13 232.62,383.13 231.88,383.13 231.13,383.13 230.38,383.13 229.63,383.13 228.89,383.13 228.14,383.13 227.39,383.13 226.64,383.13 225.9,383.13 225.15,383.13 224.4,383.13 223.66,383.13 222.91,383.13 222.16,383.13 221.41,383.13 220.67,383.13 219.92,383.13 219.17,383.13 218.43,383.13 217.68,383.13 216.93,383.13 216.18,383.13 215.44,383.13 214.69,383.13 213.94,383.13 213.2,383.13 212.45,383.13 211.7,383.13 210.95,383.13 210.21,383.13 209.46,383.13 208.71,383.13 207.97,383.13 207.22,383.13 206.47,383.13 205.72,383.13 204.98,383.13 204.23,383.13 203.48,383.13 202.74,383.13 201.99,383.13 201.24,383.13 200.49,383.13 199.75,383.13 199,383.13 198.25,383.13 197.51,383.13 196.76,383.13 196.01,383.13 195.26,383.13 194.52,383.13 193.77,383.13 193.02,383.13 192.28,383.13 191.53,383.13 190.78,383.13 190.03,383.13 189.29,383.13 188.54,383.13 187.79,383.13 187.05,383.13 186.3,383.13 185.55,383.13 184.8,383.13 184.06,383.13 183.31,383.13 182.56,383.13 181.82,383.13 181.07,383.13 180.32,383.13 179.57,383.13 178.83,383.13 178.08,383.13 177.33,383.13 176.58,383.13 175.84,383.13 175.09,383.13 174.34,383.13 173.6,383.13 172.85,383.13 172.1,383.13 171.35,383.13 170.61,383.13 169.86,383.13 169.11,383.13 168.37,383.13 167.62,383.13 166.87,383.13 166.12,383.13 165.38,383.13 164.63,383.13 163.88,383.13 163.14,383.13 162.39,383.13 161.64,383.13 160.89,383.13 160.15,383.13 159.4,383.13 158.65,383.13 157.91,383.13 157.16,383.13 156.41,383.13 155.66,383.13 154.92,383.13 154.17,383.13 153.42,383.13 152.68,383.13 151.93,383.13 151.18,383.13 150.43,383.13 149.69,383.13 148.94,383.13 148.19,383.13 147.45,383.13 146.7,383.13 145.95,383.13 145.2,383.13 144.46,383.13 143.71,383.13 142.96,383.13 142.22,383.13 141.47,383.13 140.72,383.13 139.97,383.13 139.23,383.13 138.48,383.13 137.73,383.13 136.99,383.13 136.24,383.13 135.49,383.13 134.74,383.13 134,383.13 133.25,383.13 132.5,383.13 131.76,383.13 131.01,383.13 130.26,383.13 129.51,383.13 128.77,383.13 128.02,383.13 127.27,383.13 126.52,383.13 125.78,383.13 125.03,383.13 124.28,383.13 123.54,383.13 122.79,383.13 122.04,383.13 121.29,383.13 120.55,383.13 119.8,383.13 119.05,383.13 118.31,383.13 117.56,383.13 116.81,383.13 116.06,383.13 115.32,383.13 114.57,383.13 113.82,383.13 113.08,383.13 112.33,383.13 111.58,383.13 110.83,383.13 110.09,383.13 109.34,383.13 108.59,383.13 107.85,383.13 107.1,383.13 106.35,383.13 105.6,383.13 104.86,383.13 104.11,383.13 103.36,383.13 102.62,383.13 101.87,383.13 101.12,383.13 100.37,383.13 99.63,383.13 98.88,383.13 98.13,383.13 97.39,383.13 96.64,383.13 95.89,383.13 95.14,383.13 94.4,383.13 93.65,383.13 92.9,383.13 92.16,383.13 91.41,383.13 90.66,383.13 89.91,383.13 89.17,383.13 88.42,383.13 87.67,383.13 86.93,383.13 86.18,383.13 85.43,383.13 84.68,383.13 83.94,383.13 83.19,383.13 82.44,383.13 81.7,383.13 80.95,383.13 80.2,383.13 79.45,383.13 78.71,383.13 77.96,383.13 77.21,383.13 76.46,383.13 75.72,383.13 74.97,383.13 74.22,383.13 73.48,383.13 72.73,383.13 71.98,383.13 71.23,383.13 70.49,383.13 69.74,383.13 68.99,383.13 68.25,383.13 67.5,383.13 66.75,383.13 66,383.13 65.26,383.13 64.51,383.13 63.76,383.13 63.02,383.13 62.27,383.13 61.52,383.13 60.77,383.13 60.03,383.13 59.28,383.13 58.53,383.13 57.79,383.13 57.04,383.13 56.29,383.13 55.54,383.13 54.8,383.13" style="fill: url(#simple-70A700FF); stroke-width: 1.07" clip-path="url(#clip_35_71_400_27_455_69_23_35)" />
  <defs>
    <pattern id="simple-70B700FF" width="17" height="17" patternTransform="rotate(45 0 0)" patternUnits="userSpaceOnUse">
      <rect style="fill:#ffffff; fill-opacity:1; stroke:none;" width="100%" height="100%" />
      <g style="stroke:#000000; stroke-width:13.6; stroke-opacity:1;">
        <line x1="0" y1="0" x2="0" y2="17" />
        <line x1="0" y1="0" x2="17" y2="0" />
      </g>
    </pattern>
  </defs>
  <polygon points="54.8,383.13 55.54,383.13 56.29,383.13 57.04,383.13 57.79,383.13 58.53,383.13 59.28,383.13 60.03,383.13 60.77,383.13 61.52,383.13 62.27,383.13 63.02,383.13 63.76,383.13 64.51,383.13 65.26,383.13 66,383.13 66.75,383.13 67.5,383.13 68.25,383.13 68.99,383.13 69.74,383.13 70.49,383.13 71.23,383.13 71.98,383.13 72.73,383.13 73.48,383.13 74.22,383.13 74.97,383.13 75.72,383.13 76.46,383.13 77.21,383.13 77.96,383.13 78.71,383.13 79.45,383.13 80.2,383.13 80.95,383.13 81.7,383.13 82.44,383.13 83.19,383.13 83.94,383.13 84.68,383.13 85.43,383.13 86.18,383.13 86.93,383.13 87.67,383.13 88.42,383.13 89.17,383.13 89.91,383.13 90.66,383.13 91.41,383.13 92.16,383.13 92.9,383.13 93.65,383.13 94.4,383.13 95.14,383.13 95.89,383.13 96.64,383.13 97.39,383.13 98.13,383.13 98.88,383.13 99.63,383.13 100.37,383.13 101.12,383.13 101.87,383.13 102.62,383.13 103.36,383.13 104.11,383.13 104.86,383.13 105.6,383.13 106.35,383.13 107.1,383.13 107.85,383.13 108.59,383.13 109.34,383.13 110.09,383.13 110.83,383.13 111.58,383.13 112.33,383.12 113.08,383.1 113.82,383.06 114.57,382.97 115.32,382.78 116.06,382.41 116.81,381.72 117.56,380.47 118.31,378.32 119.05,374.79 119.8,369.24 120.55,360.87 121.29,348.8 122.04,332.14 122.79,310.15 123.54,282.46 124.28,249.15 125.03,211.17 125.78,170.94 126.52,131.28 127.27,95.43 128.02,66.65 128.77,47.72 129.51,40.48 130.26,45.46 131.01,61.75 131.76,87.07 132.5,118.04 133.25,150.64 134,180.71 134.74,203.9 135.49,217.25 136.24,219.46 136.99,210.38 137.73,191.17 138.48,164.16 139.23,132.7 139.97,100.72 140.72,72.33 141.47,51.31 142.22,40.6 142.96,41.93 143.71,55.56 144.46,80.39 145.2,114.26 145.95,153.03 146.7,193.35 147.45,232.31 148.19,267.65 148.94,297.99 149.69,322.7 150.43,341.87 151.18,356.04 151.93,366.05 152.68,372.78 153.42,377.12 154.17,379.78 154.92,381.31 155.66,382.17 156.41,382.64 157.16,382.89 157.91,383.02 158.65,383.08 159.4,383.11 160.15,383.13 160.89,383.13 161.64,383.13 162.39,383.13 163.14,383.13 163.88,383.13 164.63,383.13 165.38,383.13 166.12,383.13 166.87,383.13 167.62,383.13 168.37,383.13 169.11,383.13 169.86,383.13 170.61,383.13 171.35,383.13 172.1,383.13 172.85,383.13 173.6,383.13 174.34,383.13 175.09,383.13 175.84,383.13 176.58,383.13 177.33,383.13 178.08,383.13 178.83,383.13 179.57,383.13 180.32,383.13 181.07,383.13 181.82,383.13 182.56,383.13 183.31,383.13 184.06,383.13 184.8,383.13 185.55,383.13 186.3,383.13 187.05,383.13 187.79,383.13 188.54,383.13 189.29,383.13 190.03,383.13 190.78,383.13 191.53,383.13 192.28,383.13 193.02,383.13 193.77,383.13 194.52,383.13 195.26,383.13 196.01,383.13 196.76,383.13 197.51,383.13 198.25,383.13 199,383.13 199.75,383.13 200.49,383.13 201.24,383.13 201.99,383.13 202.74,383.13 203.48,383.13 204.23,383.13 204.98,383.13 205.72,383.13 206.47,383.13 207.22,383.13 207.97,383.13 208.71,383.13 209.46,383.13 210.21,383.13 210.95,383.13 211.7,383.13 212.45,383.13 213.2,383.13 213.94,383.13 214.69,383.13 215.44,383.13 216.18,383.13 216.93,383.13 217.68,383.13 218.43,383.13 219.17,383.13 219.92,383.13 220.67,383.13 221.41,383.13 222.16,383.13 222.91,383.13 223.66,383.13 224.4,383.13 225.15,383.13 225.9,383.13 226.64,383.13 227.39,383.13 228.14,383.13 228.89,383.13 229.63,383.13 230.38,383.13 231.13,383.13 231.88,383.13 232.62,383.13 233.37,383.13 234.12,383.13 234.86,383.13 235.61,383.13 236.36,383.13 237.11,383.13 237.85,383.13 238.6,383.13 239.35,383.13 240.09,383.13 240.84,383.13 241.59,383.13 242.34,383.13 243.08,383.13 243.83,383.13 244.58,383.13 245.32,383.13 246.07,383.13 246.82,383.13 247.57,383.13 248.31,383.13 249.06,383.13 249.81,383.13 250.55,383.13 251.3,383.13 252.05,383.13 252.8,383.13 253.54,383.13 254.29,383.13 255.04,383.13 255.78,383.13 256.53,383.13 257.28,383.13 258.03,383.13 258.77,383.13 259.52,383.13 260.27,383.13 261.01,383.13 261.76,383.13 262.51,383.13 263.26,383.13 264,383.13 264.75,383.13 265.5,383.13 266.24,383.13 266.99,383.13 267.74,383.13 268.49,383.13 269.23,383.13 269.98,383.13 270.73,383.13 271.47,383.13 272.22,383.13 272.97,383.13 273.72,383.13 274.46,383.13 275.21,383.13 275.96,383.13 276.7,383.13 277.45,383.13 278.2,383.13 278.95,383.13 279.69,383.13 280.44,383.13 281.19,383.13 281.94,383.13 282.68,383.13 283.43,383.13 284.18,383.13 284.92,383.13 285.67,383.13 286.42,383.13 287.17,383.13 287.91,383.13 288.66,383.13 289.41,383.13 290.15,383.13 290.9,383.13 291.65,383.13 292.4,383.13 293.14,383.13 293.89,383.13 294.64,383.13 295.38,383.13 296.13,383.13 296.88,383.13 297.63,383.13 298.37,383.13 299.12,383.13 299.87,383.13 300.61,383.13 301.36,383.13 302.11,383.13 302.86,383.13 303.6,383.13 304.35,383.13 305.1,383.13 305.84,383.13 306.59,383.13 307.34,383.13 308.09,383.13 308.83,383.13 309.58,383.13 310.33,383.13 311.07,383.13 311.82,383.13 312.57,383.13 313.32,383.13 314.06,383.13 314.81,383.13 315.56,383.13 316.3,383.13 317.05,383.13 317.8,383.13 318.55,383.13 319.29,383.13 320.04,383.13 320.79,383.13 321.53,383.13 322.28,383.13 323.03,383.13 323.78,383.13 324.52,383.13 325.27,383.13 326.02,383.13 326.76,383.13 327.51,383.13 328.26,383.13 329.01,383.13 329.75,383.13 330.5,383.13 331.25,383.13 332,383.13 332.74,383.13 333.49,383.13 334.24,383.13 334.98,383.13 335.73,383.13 336.48,383.13 337.23,383.13 337.97,383.13 338.72,383.13 339.47,383.13 340.21,383.13 340.96,383.13 341.71,383.13 342.46,383.13 343.2,383.13 343.95,383.13 344.7,383.13 345.44,383.13 346.19,383.13 346.94,383.13 347.69,383.13 348.43,383.13 349.18,383.13 349.93,383.13 350.67,383.13 351.42,383.13 352.17,383.13 352.92,383.13 353.66,383.13 354.41,383.13 355.16,383.13 355.9,383.13 356.65,383.13 357.4,383.13 358.15,383.13 358.89,383.13 359.64,383.13 360.39,383.13 361.13,383.13 361.88,383.13 362.63,383.13 363.38,383.13 364.12,383.13 364.87,383.13 365.62,383.13 366.36,383.13 367.11,383.13 367.86,383.13 368.61,383.13 369.35,383.13 370.1,383.13 370.85,383.13 371.59,383.13 372.34,383.13 373.09,383.13 373.84,383.13 374.58,383.13 375.33,383.13 376.08,383.13 376.82,383.13 377.57,383.13 378.32,383.13 379.07,383.13 379.81,383.13 380.56,383.13 381.31,383.13 382.06,383.13 382.8,383.13 383.55,383.13 384.3,383.13 385.04,383.13 385.79,383.13 386.54,383.13 387.29,383.13 388.03,383.13 388.78,383.13 389.53,383.13 390.27,383.13 391.02,383.13 391.77,383.13 392.52,383.13 393.26,383.13 394.01,383.13 394.76,383.13 395.5,383.13 396.25,383.13 397,383.13 397.75,383.13 398.49,383.13 399.24,383.13 399.99,383.13 400.73,383.13 401.48,383.13 402.23,383.13 402.98,383.13 403.72,383.13 404.47,383.13 405.22,383.13 405.96,383.13 406.71,383.13 407.46,383.13 408.21,383.13 408.95,383.13 409.7,383.13 410.45,383.13 411.19,383.13 411.94,383.13 412.69,383.13 413.44,383.13 414.18,383.13 414.93,383.13 415.68,383.13 416.42,383.13 417.17,383.13 417.92,383.13 418.67,383.13 419.41,383.13 420.16,383.13 420.91,383.13 421.65,383.13 422.4,383.13 423.15,383.13 423.9,383.13 424.64,383.13 425.39,383.13 426.14,383.13 426.89,383.13 427.63,383.13 428.38,383.13 429.13,383.13 429.87,383.13 430.62,383.13 431.37,383.13 432.12,383.13 432.86,383.13 433.61,383.13 434.36,383.13 435.1,383.13 435.85,383.13 436.6,383.13 436.6,383.13 435.85,383.13 435.1,383.13 434.36,383.13 433.61,383.13 432.86,383.13 432.12,383.13 431.37,383.13 430.62,383.13 429.87,383.13 429.13,383.13 428.38,383.13 427.63,383.13 426.89,383.13 426.14,383.13 425.39,383.13 424.64,383.13 423.9,383.13 423.15,383.13 422.4,383.13 421.65,383.13 420.91,383.13 420.16,383.13 419.41,383.13 418.67,383.13 417.92,383.13 417.17,383.13 416.42,383.13 415.68,383.13 414.93,383.13 414.18,383.13 413.44,383.13 412.69,383.13 411.94,383.13 411.19,383.13 410.45,383.13 409.7,383.13 408.95,383.13 408.21,383.13 407.46,383.13 406.71,383.13 405.96,383.13 405.22,383.13 404.47,383.13 403.72,383.13 402.98,383.13 402.23,383.13 401.48,383.13 400.73,383.13 399.99,383.13 399.24,383.13 398.49,383.13 397.75,383.13 397,383.13 396.25,383.13 395.5,383.13 394.76,383.13 394.01,383.13 393.26,383.13 392.52,383.13 391.77,383.13 391.02,383.13 390.27,383.13 389.53,383.13 388.78,383.13 388.03,383.13 387.29,383.13 386.54,383.13 385.79,383.13 385.04,383.13 384.3,383.13 383.55,383.13 382.8,383.13 382.06,383.13 381.31,383.13 380.56,383.13 379.81,383.13 379.07,383.13 378.32,383.13 377.57,383.13 376.82,383.13 376.08,383.13 375.33,383.13 374.58,383.13 373.84,383.13 373.09,383.13 372.34,383.13 371.59,383.13 370.85,383.13 370.1,383.13 369.35,383.13 368.61,383.13 367.86,383.13 367.11,383.13 366.36,383.13 365.62,383.13 364.87,383.13 364.12,383.13 363.38,383.13 362.63,383.13 361.88,383.13 361.13,383.13 360.39,383.13 359.64,383.13 358.89,383.13 358.15,383.13 357.4,383.13 356.65,383.13 355.9,383.13 355.16,383.13 354.41,383.13 353.66,383.13 352.92,383.13 352.17,383.13 351.42,383.13 350.67,383.13 349.93,383.13 349.18,383.13 348.43,383.13 347.69,383.13 346.94,383.13 346.19,383.13 345.44,383.13 344.7,383.13 343.95,383.13 343.2,383.13 342.46,383.13 341.71,383.13 340.96,383.13 340.21,383.13 339.47,383.13 338.72,383.13 337.97,383.13 337.23,383.13 336.48,383.13 335.73,383.13 334.98,383.13 334.24,383.13 333.49,383.13 332.74,383.13 332,383.13 331.25,383.13 330.5,383.13 329.75,383.13 329.01,383.13 328.26,383.13 327.51,383.13 326.76,383.13 326.02,383.13 325.27,383.13 324.52,383.13 323.78,383.13 323.03,383.13 322.28,383.13 321.53,383.13 320.79,383.13 320.04,383.13 319.29,383.13 318.55,383.13 317.8,383.13 317.05,383.13 316.3,383.13 315.56,383.13 314.81,383.13 314.06,383.13 313.32,383.13 312.57,383.13 311.82,383.13 311.07,383.13 310.33,383.13 309.58,383.13 308.83,383.13 308.09,383.13 307.34,383.13 306.59,383.13 305.84,383.13 305.1,383.13 304.35,383.13 303.6,383.13 302.86,383.13 302.11,383.13 301.36,383.13 300.61,383.13 299.87,383.13 299.12,383.13 298.37,383.13 297.63,383.13 296.88,383.13 296.13,383.13 295.38,383.13 294.64,383.13 293.89,383.13 293.14,383.13 292.4,383.13 291.65,383.13 290.9,383.13 290.15,383.13 289.41,383.13 288.66,383.13 287.91,383.13 287.17,383.13 286.42,383.13 285.67,383.13 284.92,383.13 284.18,383.13 283.43,383.13 282.68,383.13 281.94,383.13 281.19,383.13 280.44,383.13 279.69,383.13 278.95,383.13 278.2,383.13 277.45,383.13 276.7,383.13 275.96,383.13 275.21,383.13 274.46,383.13 273.72,383.13 272.97,383.13 272.22,383.13 271.47,383.13 270.73,383.13 269.98,383.13 269.23,383.13 268.49,383.13 267.74,383.13 266.99,383.13 266.24,383.13 265.5,383.13 264.75,383.13 264,383.13 263.26,383.13 262.51,383.13 261.76,383.13 261.01,383.13 260.27,383.13 259.52,383.13 258.77,383.13 258.03,383.13 257.28,383.13 256.53,383.13 255.78,383.13 255.04,383.13 254.29,383.13 253.54,383.13 252.8,383.13 252.05,383.13 251.3,383.13 250.55,383.13 249.81,383.13 249.06,383.13 248.31,383.13 247.57,383.13 246.82,383.13 246.07,383.13 245.32,383.13 244.58,383.13 243.83,383.13 243.08,383.13 242.34,383.13 241.59,383.13 240.84,383.13 240.09,383.13 239.35,383.13 238.6,383.13 237.85,383.13 237.11,383.13 236.36,383.13 235.61,383.13 234.86,383.13 234.12,383.13 233.37,383.13 232.62,383.13 231.88,383.13 231.13,383.13 230.38,383.13 229.63,383.13 228.89,383.13 228.14,383.13 227.39,383.13 226.64,383.13 225.9,383.13 225.15,383.13 224.4,383.13 223.66,383.13 222.91,383.13 222.16,383.13 221.41,383.13 220.67,383.13 219.92,383.13 219.17,383.13 218.43,383.13 217.68,383.13 216.93,383.13 216.18,383.13 215.44,383.13 214.69,383.13 213.94,383.13 213.2,383.13 212.45,383.13 211.7,383.13 210.95,383.13 210.21,383.13 209.46,383.13 208.71,383.13 207.97,383.13 207.22,383.13 206.47,383.13 205.72,383.13 204.98,383.13 204.23,383.13 203.48,383.13 202.74,383.13 201.99,383.13 201.24,383.13 200.49,383.13 199.75,383.13 199,383.13 198.25,383.13 197.51,383.13 196.76,383.13 196.01,383.13 195.26,383.13 194.52,383.13 193.77,383.13 193.02,383.13 192.28,383.13 191.53,383.13 190.78,383.13 190.03,383.13 189.29,383.13 188.54,383.13 187.79,383.13 187.05,383.13 186.3,383.13 185.55,383.13 184.8,383.13 184.06,383.13 183.31,383.13 182.56,383.13 181.82,383.13 181.07,383.13 180.32,383.13 179.57,383.13 178.83,383.13 178.08,383.13 177.33,383.13 176.58,383.13 175.84,383.13 175.09,383.13 174.34,383.13 173.6,383.13 172.85,383.13 172.1,383.13 171.35,383.13 170.61,383.13 169.86,383.13 169.11,383.13 168.37,383.13 167.62,383.13 166.87,383.13 166.12,383.13 165.38,383.13 164.63,383.13 163.88,383.13 163.14,383.13 162.39,383.13 161.64,383.13 160.89,383.13 160.15,383.13 159.4,383.13 158.65,383.13 157.91,383.13 157.16,383.13 156.41,383.13 155.66,383.13 154.92,383.13 154.17,383.13 153.42,383.13 152.68,383.13 151.93,383.13 151.18,383.13 150.43,383.13 149.69,383.13 148.94,383.13 148.19,383.13 147.45,383.13 146.7,383.13 145.95,383.13 145.2,383.13 144.46,383.13 143.71,383.13 142.96,383.13 142.22,383.13 141.47,383.13 140.72,383.13 139.97,383.13 139.23,383.13 138.48,383.13 137.73,383.13 136.99,383.13 136.24,383.13 135.49,383.13 134.74,383.13 134,383.13 133.25,383.13 132.5,383.13 131.76,383.13 131.01,383.13 130.26,383.13 129.51,383.13 128.77,383.13 128.02,383.13 127.27,383.13 126.52,383.13 125.78,383.13 125.03,383.13 124.28,383.13 123.54,383.13 122.79,383.13 122.04,383.13 121.29,383.13 120.55,383.13 119.8,383.13 119.05,383.13 118.31,383.13 117.56,383.13 116.81,383.13 116.06,383.13 115.32,383.13 114.57,383.13 113.82,383.13 113.08,383.13 112.33,383.13 111.58,383.13 110.83,383.13 110.09,383.13 109.34,383.13 108.59,383.13 107.85,383.13 107.1,383.13 106.35,383.13 105.6,383.13 104.86,383.13 104.11,383.13 103.36,383.13 102.62,383.13 101.87,383.13 101.12,383.13 100.37,383.13 99.63,383.13 98.88,383.13 98.13,383.13 97.39,383.13 96.64,383.13 95.89,383.13 95.14,383.13 94.4,383.13 93.65,383.13 92.9,383.13 92.16,383.13 91.41,383.13 90.66,383.13 89.91,383.13 89.17,383.13 88.42,383.13 87.67,383.13 86.93,383.13 86.18,383.13 85.43,383.13 84.68,383.13 83.94,383.13 83.19,383.13 82.44,383.13 81.7,383.13 80.95,383.13 80.2,383.13 79.45,383.13 78.71,383.13 77.96,383.13 77.21,383.13 76.46,383.13 75.72,383.13 74.97,383.13 74.22,383.13 73.48,383.13 72.73,383.13 71.98,383.13 71.23,383.13 70.49,383.13 69.74,383.13 68.99,383.13 68.25,383.13 67.5,383.13 66.75,383.13 66,383.13 65.26,383.13 64.51,383.13 63.76,383.13 63.02,383.13 62.27,383.13 61.52,383.13 60.77,383.13 60.03,383.13 59.28,383.13 58.53,383.13 57.79,383.13 57.04,383.13 56.29,383.13 55.54,383.13 54.8,383.13" style="fill: url(#simple-70B700FF); stroke-width: 1.07" clip-path="url(#clip_35_71_400_27_455_69_23_35)" />
  <rect style="fill: #FFFFFF; fill-opacity: 0; stroke: #333333; stroke-width: 1.07" clip-path="url(#clip_35_71_400_27_455_69_23_35)" x="35.71" y="23.35" width="419.98" height="376.92" />
  <g clip-path="url(#clip_0_432_576_0)">
    <text textLength="12.23px" style="font-size: 8.8px; font-family: Helvetica; fill: #4D4D4D" x="18.54" y="386.29" lengthAdjust="spacingAndGlyphs">
      0.0
    </text>
  </g>
  <g clip-path="url(#clip_0_432_576_0)">
    <text textLength="12.23px" style="font-size: 8.8px; font-family: Helvetica; fill: #4D4D4D" x="18.54" y="305.3" lengthAdjust="spacingAndGlyphs">
      0.2
    </text>
  </g>
  <g clip-path="url(#clip_0_432_576_0)">
    <text textLength="12.23px" style="font-size: 8.8px; font-family: Helvetica; fill: #4D4D4D" x="18.54" y="224.31" lengthAdjust="spacingAndGlyphs">
      0.4
    </text>
  </g>
  <g clip-path="url(#clip_0_432_576_0)">
    <text textLength="12.23px" style="font-size: 8.8px; font-family: Helvetica; fill: #4D4D4D" x="18.54" y="143.32" lengthAdjust="spacingAndGlyphs">
      0.6
    </text>
  </g>
  <g clip-path="url(#clip_0_432_576_0)">
    <text textLength="12.23px" style="font-size: 8.8px; font-family: Helvetica; fill: #4D4D4D" x="18.54" y="62.33" lengthAdjust="spacingAndGlyphs">
      0.8
    </text>
  </g>
  <polyline points="32.97,383.13 35.71,383.13" style="stroke: #333333; stroke-width: 1.07" clip-path="url(#clip_0_432_576_0)" />
  <polyline points="32.97,302.14 35.71,302.14" style="stroke: #333333; stroke-width: 1.07" clip-path="url(#clip_0_432_576_0)" />
  <polyline points="32.97,221.15 35.71,221.15" style="stroke: #333333; stroke-width: 1.07" clip-path="url(#clip_0_432_576_0)" />
  <polyline points="32.97,140.16 35.71,140.16" style="stroke: #333333; stroke-width: 1.07" clip-path="url(#clip_0_432_576_0)" />
  <polyline points="32.97,59.17 35.71,59.17" style="stroke: #333333; stroke-width: 1.07" clip-path="url(#clip_0_432_576_0)" />
  <polyline points="48.3,403.01 48.3,400.27" style="stroke: #333333; stroke-width: 1.07" clip-path="url(#clip_0_432_576_0)" />
  <polyline points="129.53,403.01 129.53,400.27" style="stroke: #333333; stroke-width: 1.07" clip-path="url(#clip_0_432_576_0)" />
  <polyline points="210.77,403.01 210.77,400.27" style="stroke: #333333; stroke-width: 1.07" clip-path="url(#clip_0_432_576_0)" />
  <polyline points="292,403.01 292,400.27" style="stroke: #333333; stroke-width: 1.07" clip-path="url(#clip_0_432_576_0)" />
  <polyline points="373.24,403.01 373.24,400.27" style="stroke: #333333; stroke-width: 1.07" clip-path="url(#clip_0_432_576_0)" />
  <polyline points="454.47,403.01 454.47,400.27" style="stroke: #333333; stroke-width: 1.07" clip-path="url(#clip_0_432_576_0)" />
  <g clip-path="url(#clip_0_432_576_0)">
    <text textLength="9.79px" style="font-size: 8.8px; font-family: Helvetica; fill: #4D4D4D" x="43.4" y="411.51" lengthAdjust="spacingAndGlyphs">
      10
    </text>
  </g>
  <g clip-path="url(#clip_0_432_576_0)">
    <text textLength="9.79px" style="font-size: 8.8px; font-family: Helvetica; fill: #4D4D4D" x="124.64" y="411.51" lengthAdjust="spacingAndGlyphs">
      15
    </text>
  </g>
  <g clip-path="url(#clip_0_432_576_0)">
    <text textLength="9.79px" style="font-size: 8.8px; font-family: Helvetica; fill: #4D4D4D" x="205.87" y="411.51" lengthAdjust="spacingAndGlyphs">
      20
    </text>
  </g>
  <g clip-path="url(#clip_0_432_576_0)">
    <text textLength="9.79px" style="font-size: 8.8px; font-family: Helvetica; fill: #4D4D4D" x="287.11" y="411.51" lengthAdjust="spacingAndGlyphs">
      25
    </text>
  </g>
  <g clip-path="url(#clip_0_432_576_0)">
    <text textLength="9.79px" style="font-size: 8.8px; font-family: Helvetica; fill: #4D4D4D" x="368.34" y="411.51" lengthAdjust="spacingAndGlyphs">
      30
    </text>
  </g>
  <g clip-path="url(#clip_0_432_576_0)">
    <text textLength="9.79px" style="font-size: 8.8px; font-family: Helvetica; fill: #4D4D4D" x="449.58" y="411.51" lengthAdjust="spacingAndGlyphs">
      35
    </text>
  </g>
  <g clip-path="url(#clip_0_432_576_0)">
    <text textLength="21.4px" style="font-size: 11px; font-family: Helvetica" x="235" y="424.09" lengthAdjust="spacingAndGlyphs">
      mpg
    </text>
  </g>
  <g clip-path="url(#clip_0_432_576_0)">
    <text textLength="34.85px" style="font-size: 11px; font-family: Helvetica" x="13.37" y="229.23" lengthAdjust="spacingAndGlyphs" transform="rotate(-90 13.37 229.23)">
      density
    </text>
  </g>
  <rect style="fill: #FFFFFF; stroke: none" clip-path="url(#clip_0_432_576_0)" x="466.65" y="96.38" width="103.87" height="230.86" />
  <g clip-path="url(#clip_0_432_576_0)">
    <text textLength="92.91px" style="font-size: 11px; font-family: Helvetica" x="472.13" y="110.97" lengthAdjust="spacingAndGlyphs">
      interaction(cyl, am)
    </text>
  </g>
  <rect style="fill: #FFFFFF; stroke: none" clip-path="url(#clip_0_432_576_0)" x="472.13" y="117.66" width="34.02" height="34.02" />
  <rect style="fill: url(#simple-289700FF); stroke-width: 1.07" clip-path="url(#clip_0_432_576_0)" x="472.84" y="118.37" width="32.6" height="32.6" />
  <rect style="fill: #FFFFFF; stroke: none" clip-path="url(#clip_0_432_576_0)" x="472.13" y="151.68" width="34.02" height="34.02" />
  <rect style="fill: url(#simple-28A700FF); stroke-width: 1.07" clip-path="url(#clip_0_432_576_0)" x="472.84" y="152.39" width="32.6" height="32.6" />
  <rect style="fill: #FFFFFF; stroke: none" clip-path="url(#clip_0_432_576_0)" x="472.13" y="185.69" width="34.02" height="34.02" />
  <rect style="fill: url(#simple-28B700FF); stroke-width: 1.07" clip-path="url(#clip_0_432_576_0)" x="472.84" y="186.4" width="32.6" height="32.6" />
  <rect style="fill: #FFFFFF; stroke: none" clip-path="url(#clip_0_432_576_0)" x="472.13" y="219.71" width="34.02" height="34.02" />
  <rect style="fill: url(#simple-709700FF); stroke-width: 1.07" clip-path="url(#clip_0_432_576_0)" x="472.84" y="220.42" width="32.6" height="32.6" />
  <rect style="fill: #FFFFFF; stroke: none" clip-path="url(#clip_0_432_576_0)" x="472.13" y="253.72" width="34.02" height="34.02" />
  <rect style="fill: url(#simple-70A700FF); stroke-width: 1.07" clip-path="url(#clip_0_432_576_0)" x="472.84" y="254.43" width="32.6" height="32.6" />
  <rect style="fill: #FFFFFF; stroke: none" clip-path="url(#clip_0_432_576_0)" x="472.13" y="287.74" width="34.02" height="34.02" />
  <rect style="fill: url(#simple-70B700FF); stroke-width: 1.07" clip-path="url(#clip_0_432_576_0)" x="472.84" y="288.45" width="32.6" height="32.6" />
  <g clip-path="url(#clip_0_432_576_0)">
    <text textLength="12.23px" style="font-size: 8.8px; font-family: Helvetica" x="511.62" y="137.83" lengthAdjust="spacingAndGlyphs">
      4.0
    </text>
  </g>
  <g clip-path="url(#clip_0_432_576_0)">
    <text textLength="12.23px" style="font-size: 8.8px; font-family: Helvetica" x="511.62" y="171.84" lengthAdjust="spacingAndGlyphs">
      6.0
    </text>
  </g>
  <g clip-path="url(#clip_0_432_576_0)">
    <text textLength="12.23px" style="font-size: 8.8px; font-family: Helvetica" x="511.62" y="205.86" lengthAdjust="spacingAndGlyphs">
      8.0
    </text>
  </g>
  <g clip-path="url(#clip_0_432_576_0)">
    <text textLength="12.23px" style="font-size: 8.8px; font-family: Helvetica" x="511.62" y="239.87" lengthAdjust="spacingAndGlyphs">
      4.1
    </text>
  </g>
  <g clip-path="url(#clip_0_432_576_0)">
    <text textLength="12.23px" style="font-size: 8.8px; font-family: Helvetica" x="511.62" y="273.89" lengthAdjust="spacingAndGlyphs">
      6.1
    </text>
  </g>
  <g clip-path="url(#clip_0_432_576_0)">
    <text textLength="12.23px" style="font-size: 8.8px; font-family: Helvetica" x="511.62" y="307.9" lengthAdjust="spacingAndGlyphs">
      8.1
    </text>
  </g>
  <g clip-path="url(#clip_0_432_576_0)">
    <text textLength="207.61px" style="font-size: 13.2px; font-family: Helvetica" x="35.71" y="14.95" lengthAdjust="spacingAndGlyphs">
      scale_fill_pattern_simple() - custom
    </text>
  </g>
</svg>
