<?xml version="1.0" encoding="UTF-8"?>
<svg viewBox="0 0 576 432" xmlns="http://www.w3.org/2000/svg" xmlns:xlink="http://www.w3.org/1999/xlink">
  <defs>
    <style type='text/css'><![CDATA[
        line, polyline, polygon, path, rect, circle {
          fill: none;
          stroke: #000000;
          stroke-linecap: round;
          stroke-linejoin: round;
          stroke-miterlimit: 10.00;
        }
      ]]></style>
  </defs>
  <rect style="stroke: none; fill: #ffffff" width="100%" height="100%" />
  <defs>
    <clipPath id="clip_0_432_576_0">
      <rect x="0" y="0" width="576" height="432" />
    </clipPath>
  </defs>
  <rect style="fill: #FFFFFF; stroke: #FFFFFF; stroke-width: 1.07" clip-path="url(#clip_0_432_576_0)" x="0" y="0" width="576" height="432" />
  <defs>
    <clipPath id="clip_35_71_400_26_455_69_23_35">
      <rect x="35.71" y="23.35" width="419.98" height="376.91" />
    </clipPath>
  </defs>
  <rect style="fill: #FFFFFF; stroke: none" clip-path="url(#clip_35_71_400_26_455_69_23_35)" x="35.71" y="23.35" width="419.98" height="376.91" />
  <polyline points="35.71,342.63 455.69,342.63" style="stroke: #EBEBEB; stroke-width: 0.53" clip-path="url(#clip_35_71_400_26_455_69_23_35)" />
  <polyline points="35.71,261.64 455.69,261.64" style="stroke: #EBEBEB; stroke-width: 0.53" clip-path="url(#clip_35_71_400_26_455_69_23_35)" />
  <polyline points="35.71,180.65 455.69,180.65" style="stroke: #EBEBEB; stroke-width: 0.53" clip-path="url(#clip_35_71_400_26_455_69_23_35)" />
  <polyline points="35.71,99.66 455.69,99.66" style="stroke: #EBEBEB; stroke-width: 0.53" clip-path="url(#clip_35_71_400_26_455_69_23_35)" />
  <polyline points="88.92,400.26 88.92,23.35" style="stroke: #EBEBEB; stroke-width: 0.53" clip-path="url(#clip_35_71_400_26_455_69_23_35)" />
  <polyline points="170.15,400.26 170.15,23.35" style="stroke: #EBEBEB; stroke-width: 0.53" clip-path="url(#clip_35_71_400_26_455_69_23_35)" />
  <polyline points="251.38,400.26 251.38,23.35" style="stroke: #EBEBEB; stroke-width: 0.53" clip-path="url(#clip_35_71_400_26_455_69_23_35)" />
  <polyline points="332.62,400.26 332.62,23.35" style="stroke: #EBEBEB; stroke-width: 0.53" clip-path="url(#clip_35_71_400_26_455_69_23_35)" />
  <polyline points="413.85,400.26 413.85,23.35" style="stroke: #EBEBEB; stroke-width: 0.53" clip-path="url(#clip_35_71_400_26_455_69_23_35)" />
  <polyline points="35.71,383.12 455.69,383.12" style="stroke: #EBEBEB; stroke-width: 1.07" clip-path="url(#clip_35_71_400_26_455_69_23_35)" />
  <polyline points="35.71,302.14 455.69,302.14" style="stroke: #EBEBEB; stroke-width: 1.07" clip-path="url(#clip_35_71_400_26_455_69_23_35)" />
  <polyline points="35.71,221.15 455.69,221.15" style="stroke: #EBEBEB; stroke-width: 1.07" clip-path="url(#clip_35_71_400_26_455_69_23_35)" />
  <polyline points="35.71,140.16 455.69,140.16" style="stroke: #EBEBEB; stroke-width: 1.07" clip-path="url(#clip_35_71_400_26_455_69_23_35)" />
  <polyline points="35.71,59.17 455.69,59.17" style="stroke: #EBEBEB; stroke-width: 1.07" clip-path="url(#clip_35_71_400_26_455_69_23_35)" />
  <polyline points="48.3,400.26 48.3,23.35" style="stroke: #EBEBEB; stroke-width: 1.07" clip-path="url(#clip_35_71_400_26_455_69_23_35)" />
  <polyline points="129.53,400.26 129.53,23.35" style="stroke: #EBEBEB; stroke-width: 1.07" clip-path="url(#clip_35_71_400_26_455_69_23_35)" />
  <polyline points="210.77,400.26 210.77,23.35" style="stroke: #EBEBEB; stroke-width: 1.07" clip-path="url(#clip_35_71_400_26_455_69_23_35)" />
  <polyline points="292,400.26 292,23.35" style="stroke: #EBEBEB; stroke-width: 1.07" clip-path="url(#clip_35_71_400_26_455_69_23_35)" />
  <polyline points="373.24,400.26 373.24,23.35" style="stroke: #EBEBEB; stroke-width: 1.07" clip-path="url(#clip_35_71_400_26_455_69_23_35)" />
  <polyline points="454.47,400.26 454.47,23.35" style="stroke: #EBEBEB; stroke-width: 1.07" clip-path="url(#clip_35_71_400_26_455_69_23_35)" />
  <defs>
    <pattern id="simple-289700FF" width="17" height="17" patternTransform="rotate(45 0 0)" patternUnits="userSpaceOnUse">
      <rect style="fill:#ffffff; fill-opacity:1; stroke:none;" width="100%" height="100%" />
      <line style="stroke:#000000; stroke-width:4.53333333333333; stroke-opacity:1;" x1="0" y1="0" x2="0" y2="17" />
    </pattern>
  </defs>
  <polygon points="54.8,383.12 55.54,383.12 56.29,383.12 57.04,383.12 57.79,383.12 58.53,383.12 59.28,383.12 60.03,383.12 60.78,383.12 61.52,383.12 62.27,383.12 63.02,383.12 63.76,383.12 64.51,383.12 65.26,383.12 66.01,383.12 66.75,383.12 67.5,383.12 68.25,383.12 68.99,383.12 69.74,383.12 70.49,383.12 71.24,383.12 71.98,383.12 72.73,383.12 73.48,383.12 74.22,383.12 74.97,383.12 75.72,383.12 76.47,383.12 77.21,383.12 77.96,383.12 78.71,383.12 79.45,383.12 80.2,383.12 80.95,383.12 81.7,383.12 82.44,383.12 83.19,383.12 83.94,383.12 84.68,383.12 85.43,383.12 86.18,383.12 86.93,383.12 87.67,383.12 88.42,383.12 89.17,383.12 89.91,383.12 90.66,383.12 91.41,383.12 92.16,383.12 92.9,383.12 93.65,383.12 94.4,383.12 95.14,383.12 95.89,383.12 96.64,383.12 97.39,383.12 98.13,383.12 98.88,383.12 99.63,383.12 100.37,383.12 101.12,383.12 101.87,383.12 102.62,383.12 103.36,383.12 104.11,383.12 104.86,383.12 105.6,383.12 106.35,383.12 107.1,383.12 107.85,383.12 108.59,383.12 109.34,383.12 110.09,383.12 110.83,383.12 111.58,383.12 112.33,383.12 113.08,383.12 113.82,383.12 114.57,383.12 115.32,383.12 116.07,383.12 116.81,383.12 117.56,383.12 118.31,383.12 119.05,383.12 119.8,383.12 120.55,383.12 121.3,383.12 122.04,383.12 122.79,383.12 123.54,383.12 124.28,383.12 125.03,383.12 125.78,383.12 126.53,383.12 127.27,383.12 128.02,383.12 128.77,383.12 129.51,383.12 130.26,383.12 131.01,383.12 131.76,383.12 132.5,383.12 133.25,383.12 134,383.12 134.74,383.12 135.49,383.12 136.24,383.12 136.99,383.12 137.73,383.12 138.48,383.12 139.23,383.12 139.97,383.12 140.72,383.12 141.47,383.12 142.22,383.12 142.96,383.12 143.71,383.12 144.46,383.12 145.2,383.12 145.95,383.12 146.7,383.12 147.45,383.12 148.19,383.12 148.94,383.12 149.69,383.12 150.43,383.12 151.18,383.12 151.93,383.12 152.68,383.12 153.42,383.12 154.17,383.12 154.92,383.12 155.66,383.12 156.41,383.12 157.16,383.12 157.91,383.12 158.65,383.12 159.4,383.12 160.15,383.12 160.89,383.12 161.64,383.12 162.39,383.12 163.14,383.12 163.88,383.12 164.63,383.12 165.38,383.12 166.13,383.12 166.87,383.12 167.62,383.12 168.37,383.12 169.11,383.12 169.86,383.12 170.61,383.12 171.36,383.12 172.1,383.12 172.85,383.12 173.6,383.12 174.34,383.12 175.09,383.12 175.84,383.12 176.59,383.12 177.33,383.12 178.08,383.12 178.83,383.12 179.57,383.12 180.32,383.12 181.07,383.12 181.82,383.11 182.56,383.11 183.31,383.11 184.06,383.1 184.8,383.1 185.55,383.09 186.3,383.08 187.05,383.07 187.79,383.06 188.54,383.04 189.29,383.02 190.03,382.99 190.78,382.96 191.53,382.93 192.28,382.89 193.02,382.83 193.77,382.77 194.52,382.7 195.26,382.61 196.01,382.51 196.76,382.39 197.51,382.25 198.25,382.09 199,381.9 199.75,381.68 200.49,381.42 201.24,381.13 201.99,380.8 202.74,380.42 203.48,379.99 204.23,379.5 204.98,378.95 205.72,378.33 206.47,377.65 207.22,376.88 207.97,376.02 208.71,375.08 209.46,374.05 210.21,372.93 210.95,371.68 211.7,370.34 212.45,368.89 213.2,367.33 213.94,365.66 214.69,363.86 215.44,361.95 216.18,359.93 216.93,357.81 217.68,355.57 218.43,353.23 219.17,350.8 219.92,348.28 220.67,345.69 221.42,343.02 222.16,340.3 222.91,337.53 223.66,334.73 224.4,331.9 225.15,329.07 225.9,326.25 226.65,323.45 227.39,320.68 228.14,317.96 228.89,315.31 229.63,312.73 230.38,310.23 231.13,307.82 231.88,305.52 232.62,303.35 233.37,301.29 234.12,299.33 234.86,297.5 235.61,295.82 236.36,294.27 237.11,292.84 237.85,291.53 238.6,290.33 239.35,289.28 240.09,288.35 240.84,287.51 241.59,286.78 242.34,286.15 243.08,285.63 243.83,285.2 244.58,284.85 245.32,284.58 246.07,284.39 246.82,284.29 247.57,284.25 248.31,284.27 249.06,284.36 249.81,284.53 250.55,284.77 251.3,285.06 252.05,285.41 252.8,285.81 253.54,286.28 254.29,286.81 255.04,287.38 255.78,288 256.53,288.66 257.28,289.36 258.03,290.09 258.77,290.84 259.52,291.61 260.27,292.38 261.01,293.16 261.76,293.92 262.51,294.67 263.26,295.4 264,296.09 264.75,296.73 265.5,297.33 266.24,297.88 266.99,298.39 267.74,298.82 268.49,299.2 269.23,299.52 269.98,299.8 270.73,300.03 271.48,300.21 272.22,300.36 272.97,300.49 273.72,300.61 274.46,300.74 275.21,300.88 275.96,301.06 276.71,301.28 277.45,301.55 278.2,301.9 278.95,302.36 279.69,302.9 280.44,303.55 281.19,304.32 281.94,305.25 282.68,306.31 283.43,307.5 284.18,308.83 284.92,310.3 285.67,311.95 286.42,313.72 287.17,315.62 287.91,317.64 288.66,319.78 289.41,322.04 290.15,324.38 290.9,326.8 291.65,329.27 292.4,331.81 293.14,334.37 293.89,336.95 294.64,339.53 295.38,342.11 296.13,344.65 296.88,347.15 297.63,349.6 298.37,351.99 299.12,354.31 299.87,356.53 300.61,358.66 301.36,360.7 302.11,362.65 302.86,364.49 303.6,366.21 304.35,367.83 305.1,369.34 305.84,370.76 306.59,372.05 307.34,373.24 308.09,374.34 308.83,375.34 309.58,376.27 310.33,377.08 311.07,377.82 311.82,378.49 312.57,379.09 313.32,379.63 314.06,380.1 314.81,380.51 315.56,380.88 316.3,381.21 317.05,381.49 317.8,381.73 318.55,381.94 319.29,382.13 320.04,382.29 320.79,382.42 321.54,382.54 322.28,382.63 323.03,382.72 323.78,382.79 324.52,382.85 325.27,382.9 326.02,382.94 326.77,382.97 327.51,383 328.26,383.02 329.01,383.04 329.75,383.06 330.5,383.07 331.25,383.08 332,383.09 332.74,383.1 333.49,383.1 334.24,383.11 334.98,383.11 335.73,383.11 336.48,383.12 337.23,383.12 337.97,383.12 338.72,383.12 339.47,383.12 340.21,383.12 340.96,383.12 341.71,383.12 342.46,383.12 343.2,383.12 343.95,383.12 344.7,383.12 345.44,383.12 346.19,383.12 346.94,383.12 347.69,383.12 348.43,383.12 349.18,383.12 349.93,383.12 350.67,383.12 351.42,383.12 352.17,383.12 352.92,383.12 353.66,383.12 354.41,383.12 355.16,383.12 355.9,383.12 356.65,383.12 357.4,383.12 358.15,383.12 358.89,383.12 359.64,383.12 360.39,383.12 361.13,383.12 361.88,383.12 362.63,383.12 363.38,383.12 364.12,383.12 364.87,383.12 365.62,383.12 366.36,383.12 367.11,383.12 367.86,383.12 368.61,383.12 369.35,383.12 370.1,383.12 370.85,383.12 371.59,383.12 372.34,383.12 373.09,383.12 373.84,383.12 374.58,383.12 375.33,383.12 376.08,383.12 376.83,383.12 377.57,383.12 378.32,383.12 379.07,383.12 379.81,383.12 380.56,383.12 381.31,383.12 382.06,383.12 382.8,383.12 383.55,383.12 384.3,383.12 385.04,383.12 385.79,383.12 386.54,383.12 387.29,383.12 388.03,383.12 388.78,383.12 389.53,383.12 390.27,383.12 391.02,383.12 391.77,383.12 392.52,383.12 393.26,383.12 394.01,383.12 394.76,383.12 395.5,383.12 396.25,383.12 397,383.12 397.75,383.12 398.49,383.12 399.24,383.12 399.99,383.12 400.73,383.12 401.48,383.12 402.23,383.12 402.98,383.12 403.72,383.12 404.47,383.12 405.22,383.12 405.96,383.12 406.71,383.12 407.46,383.12 408.21,383.12 408.95,383.12 409.7,383.12 410.45,383.12 411.19,383.12 411.94,383.12 412.69,383.12 413.44,383.12 414.18,383.12 414.93,383.12 415.68,383.12 416.42,383.12 417.17,383.12 417.92,383.12 418.67,383.12 419.41,383.12 420.16,383.12 420.91,383.12 421.65,383.12 422.4,383.12 423.15,383.12 423.9,383.12 424.64,383.12 425.39,383.12 426.14,383.12 426.89,383.12 427.63,383.12 428.38,383.12 429.13,383.12 429.87,383.12 430.62,383.12 431.37,383.12 432.12,383.12 432.86,383.12 433.61,383.12 434.36,383.12 435.1,383.12 435.85,383.12 436.6,383.12 436.6,383.12 435.85,383.12 435.1,383.12 434.36,383.12 433.61,383.12 432.86,383.12 432.12,383.12 431.37,383.12 430.62,383.12 429.87,383.12 429.13,383.12 428.38,383.12 427.63,383.12 426.89,383.12 426.14,383.12 425.39,383.12 424.64,383.12 423.9,383.12 423.15,383.12 422.4,383.12 421.65,383.12 420.91,383.12 420.16,383.12 419.41,383.12 418.67,383.12 417.92,383.12 417.17,383.12 416.42,383.12 415.68,383.12 414.93,383.12 414.18,383.12 413.44,383.12 412.69,383.12 411.94,383.12 411.19,383.12 410.45,383.12 409.7,383.12 408.95,383.12 408.21,383.12 407.46,383.12 406.71,383.12 405.96,383.12 405.22,383.12 404.47,383.12 403.72,383.12 402.98,383.12 402.23,383.12 401.48,383.12 400.73,383.12 399.99,383.12 399.24,383.12 398.49,383.12 397.75,383.12 397,383.12 396.25,383.12 395.5,383.12 394.76,383.12 394.01,383.12 393.26,383.12 392.52,383.12 391.77,383.12 391.02,383.12 390.27,383.12 389.53,383.12 388.78,383.12 388.03,383.12 387.29,383.12 386.54,383.12 385.79,383.12 385.04,383.12 384.3,383.12 383.55,383.12 382.8,383.12 382.06,383.12 381.31,383.12 380.56,383.12 379.81,383.12 379.07,383.12 378.32,383.12 377.57,383.12 376.83,383.12 376.08,383.12 375.33,383.12 374.58,383.12 373.84,383.12 373.09,383.12 372.34,383.12 371.59,383.12 370.85,383.12 370.1,383.12 369.35,383.12 368.61,383.12 367.86,383.12 367.11,383.12 366.36,383.12 365.62,383.12 364.87,383.12 364.12,383.12 363.38,383.12 362.63,383.12 361.88,383.12 361.13,383.12 360.39,383.12 359.64,383.12 358.89,383.12 358.15,383.12 357.4,383.12 356.65,383.12 355.9,383.12 355.16,383.12 354.41,383.12 353.66,383.12 352.92,383.12 352.17,383.12 351.42,383.12 350.67,383.12 349.93,383.12 349.18,383.12 348.43,383.12 347.69,383.12 346.94,383.12 346.19,383.12 345.44,383.12 344.7,383.12 343.95,383.12 343.2,383.12 342.46,383.12 341.71,383.12 340.96,383.12 340.21,383.12 339.47,383.12 338.72,383.12 337.97,383.12 337.23,383.12 336.48,383.12 335.73,383.12 334.98,383.12 334.24,383.12 333.49,383.12 332.74,383.12 332,383.12 331.25,383.12 330.5,383.12 329.75,383.12 329.01,383.12 328.26,383.12 327.51,383.12 326.77,383.12 326.02,383.12 325.27,383.12 324.52,383.12 323.78,383.12 323.03,383.12 322.28,383.12 321.54,383.12 320.79,383.12 320.04,383.12 319.29,383.12 318.55,383.12 317.8,383.12 317.05,383.12 316.3,383.12 315.56,383.12 314.81,383.12 314.06,383.12 313.32,383.12 312.57,383.12 311.82,383.12 311.07,383.12 310.33,383.12 309.58,383.12 308.83,383.12 308.09,383.12 307.34,383.12 306.59,383.12 305.84,383.12 305.1,383.12 304.35,383.12 303.6,383.12 302.86,383.12 302.11,383.12 301.36,383.12 300.61,383.12 299.87,383.12 299.12,383.12 298.37,383.12 297.63,383.12 296.88,383.12 296.13,383.12 295.38,383.12 294.64,383.12 293.89,383.12 293.14,383.12 292.4,383.12 291.65,383.12 290.9,383.12 290.15,383.12 289.41,383.12 288.66,383.12 287.91,383.12 287.17,383.12 286.42,383.12 285.67,383.12 284.92,383.12 284.18,383.12 283.43,383.12 282.68,383.12 281.94,383.12 281.19,383.12 280.44,383.12 279.69,383.12 278.95,383.12 278.2,383.12 277.45,383.12 276.71,383.12 275.96,383.12 275.21,383.12 274.46,383.12 273.72,383.12 272.97,383.12 272.22,383.12 271.48,383.12 270.73,383.12 269.98,383.12 269.23,383.12 268.49,383.12 267.74,383.12 266.99,383.12 266.24,383.12 265.5,383.12 264.75,383.12 264,383.12 263.26,383.12 262.51,383.12 261.76,383.12 261.01,383.12 260.27,383.12 259.52,383.12 258.77,383.12 258.03,383.12 257.28,383.12 256.53,383.12 255.78,383.12 255.04,383.12 254.29,383.12 253.54,383.12 252.8,383.12 252.05,383.12 251.3,383.12 250.55,383.12 249.81,383.12 249.06,383.12 248.31,383.12 247.57,383.12 246.82,383.12 246.07,383.12 245.32,383.12 244.58,383.12 243.83,383.12 243.08,383.12 242.34,383.12 241.59,383.12 240.84,383.12 240.09,383.12 239.35,383.12 238.6,383.12 237.85,383.12 237.11,383.12 236.36,383.12 235.61,383.12 234.86,383.12 234.12,383.12 233.37,383.12 232.62,383.12 231.88,383.12 231.13,383.12 230.38,383.12 229.63,383.12 228.89,383.12 228.14,383.12 227.39,383.12 226.65,383.12 225.9,383.12 225.15,383.12 224.4,383.12 223.66,383.12 222.91,383.12 222.16,383.12 221.42,383.12 220.67,383.12 219.92,383.12 219.17,383.12 218.43,383.12 217.68,383.12 216.93,383.12 216.18,383.12 215.44,383.12 214.69,383.12 213.94,383.12 213.2,383.12 212.45,383.12 211.7,383.12 210.95,383.12 210.21,383.12 209.46,383.12 208.71,383.12 207.97,383.12 207.22,383.12 206.47,383.12 205.72,383.12 204.98,383.12 204.23,383.12 203.48,383.12 202.74,383.12 201.99,383.12 201.24,383.12 200.49,383.12 199.75,383.12 199,383.12 198.25,383.12 197.51,383.12 196.76,383.12 196.01,383.12 195.26,383.12 194.52,383.12 193.77,383.12 193.02,383.12 192.28,383.12 191.53,383.12 190.78,383.12 190.03,383.12 189.29,383.12 188.54,383.12 187.79,383.12 187.05,383.12 186.3,383.12 185.55,383.12 184.8,383.12 184.06,383.12 183.31,383.12 182.56,383.12 181.82,383.12 181.07,383.12 180.32,383.12 179.57,383.12 178.83,383.12 178.08,383.12 177.33,383.12 176.59,383.12 175.84,383.12 175.09,383.12 174.34,383.12 173.6,383.12 172.85,383.12 172.1,383.12 171.36,383.12 170.61,383.12 169.86,383.12 169.11,383.12 168.37,383.12 167.62,383.12 166.87,383.12 166.13,383.12 165.38,383.12 164.63,383.12 163.88,383.12 163.14,383.12 162.39,383.12 161.64,383.12 160.89,383.12 160.15,383.12 159.4,383.12 158.65,383.12 157.91,383.12 157.16,383.12 156.41,383.12 155.66,383.12 154.92,383.12 154.17,383.12 153.42,383.12 152.68,383.12 151.93,383.12 151.18,383.12 150.43,383.12 149.69,383.12 148.94,383.12 148.19,383.12 147.45,383.12 146.7,383.12 145.95,383.12 145.2,383.12 144.46,383.12 143.71,383.12 142.96,383.12 142.22,383.12 141.47,383.12 140.72,383.12 139.97,383.12 139.23,383.12 138.48,383.12 137.73,383.12 136.99,383.12 136.24,383.12 135.49,383.12 134.74,383.12 134,383.12 133.25,383.12 132.5,383.12 131.76,383.12 131.01,383.12 130.26,383.12 129.51,383.12 128.77,383.12 128.02,383.12 127.27,383.12 126.53,383.12 125.78,383.12 125.03,383.12 124.28,383.12 123.54,383.12 122.79,383.12 122.04,383.12 121.3,383.12 120.55,383.12 119.8,383.12 119.05,383.12 118.31,383.12 117.56,383.12 116.81,383.12 116.07,383.12 115.32,383.12 114.57,383.12 113.82,383.12 113.08,383.12 112.33,383.12 111.58,383.12 110.83,383.12 110.09,383.12 109.34,383.12 108.59,383.12 107.85,383.12 107.1,383.12 106.35,383.12 105.6,383.12 104.86,383.12 104.11,383.12 103.36,383.12 102.62,383.12 101.87,383.12 101.12,383.12 100.37,383.12 99.63,383.12 98.88,383.12 98.13,383.12 97.39,383.12 96.64,383.12 95.89,383.12 95.14,383.12 94.4,383.12 93.65,383.12 92.9,383.12 92.16,383.12 91.41,383.12 90.66,383.12 89.91,383.12 89.17,383.12 88.42,383.12 87.67,383.12 86.93,383.12 86.18,383.12 85.43,383.12 84.68,383.12 83.94,383.12 83.19,383.12 82.44,383.12 81.7,383.12 80.95,383.12 80.2,383.12 79.45,383.12 78.71,383.12 77.96,383.12 77.21,383.12 76.47,383.12 75.72,383.12 74.97,383.12 74.22,383.12 73.48,383.12 72.73,383.12 71.98,383.12 71.24,383.12 70.49,383.12 69.74,383.12 68.99,383.12 68.25,383.12 67.5,383.12 66.75,383.12 66.01,383.12 65.26,383.12 64.51,383.12 63.76,383.12 63.02,383.12 62.27,383.12 61.52,383.12 60.78,383.12 60.03,383.12 59.28,383.12 58.53,383.12 57.79,383.12 57.04,383.12 56.29,383.12 55.54,383.12 54.8,383.12" style="fill: url(#simple-289700FF); stroke-width: 1.07" clip-path="url(#clip_35_71_400_26_455_69_23_35)" />
  <defs>
    <pattern id="simple-28A700FF" width="17" height="17" patternTransform="rotate(45 0 0)" patternUnits="userSpaceOnUse">
      <rect style="fill:#ffffff; fill-opacity:1; stroke:none;" width="100%" height="100%" />
      <line style="stroke:#000000; stroke-width:9.06666666666667; stroke-opacity:1;" x1="0" y1="0" x2="0" y2="17" />
    </pattern>
  </defs>
  <polygon points="54.8,383.12 55.54,383.12 56.29,383.12 57.04,383.12 57.79,383.12 58.53,383.12 59.28,383.12 60.03,383.12 60.78,383.12 61.52,383.12 62.27,383.12 63.02,383.12 63.76,383.12 64.51,383.12 65.26,383.12 66.01,383.12 66.75,383.12 67.5,383.12 68.25,383.12 68.99,383.12 69.74,383.12 70.49,383.12 71.24,383.12 71.98,383.12 72.73,383.12 73.48,383.12 74.22,383.12 74.97,383.12 75.72,383.12 76.47,383.12 77.21,383.12 77.96,383.12 78.71,383.12 79.45,383.12 80.2,383.12 80.95,383.12 81.7,383.12 82.44,383.12 83.19,383.12 83.94,383.12 84.68,383.12 85.43,383.12 86.18,383.12 86.93,383.12 87.67,383.12 88.42,383.12 89.17,383.12 89.91,383.12 90.66,383.12 91.41,383.12 92.16,383.12 92.9,383.12 93.65,383.12 94.4,383.12 95.14,383.12 95.89,383.12 96.64,383.12 97.39,383.12 98.13,383.12 98.88,383.12 99.63,383.12 100.37,383.12 101.12,383.12 101.87,383.12 102.62,383.12 103.36,383.12 104.11,383.12 104.86,383.12 105.6,383.12 106.35,383.12 107.1,383.12 107.85,383.12 108.59,383.12 109.34,383.12 110.09,383.12 110.83,383.12 111.58,383.12 112.33,383.12 113.08,383.12 113.82,383.12 114.57,383.12 115.32,383.11 116.07,383.11 116.81,383.11 117.56,383.11 118.31,383.1 119.05,383.1 119.8,383.09 120.55,383.08 121.3,383.07 122.04,383.06 122.79,383.05 123.54,383.03 124.28,383.02 125.03,382.99 125.78,382.97 126.53,382.93 127.27,382.9 128.02,382.85 128.77,382.8 129.51,382.74 130.26,382.67 131.01,382.59 131.76,382.5 132.5,382.39 133.25,382.26 134,382.11 134.74,381.94 135.49,381.75 136.24,381.53 136.99,381.28 137.73,381 138.48,380.68 139.23,380.32 139.97,379.91 140.72,379.45 141.47,378.95 142.22,378.38 142.96,377.75 143.71,377.05 144.46,376.29 145.2,375.45 145.95,374.52 146.7,373.5 147.45,372.4 148.19,371.21 148.94,369.9 149.69,368.49 150.43,366.98 151.18,365.37 151.93,363.64 152.68,361.78 153.42,359.81 154.17,357.75 154.92,355.57 155.66,353.25 156.41,350.83 157.16,348.31 157.91,345.7 158.65,342.97 159.4,340.15 160.15,337.26 160.89,334.31 161.64,331.28 162.39,328.19 163.14,325.07 163.88,321.92 164.63,318.75 165.38,315.58 166.13,312.43 166.87,309.3 167.62,306.2 168.37,303.17 169.11,300.22 169.86,297.34 170.61,294.55 171.36,291.88 172.1,289.36 172.85,286.96 173.6,284.7 174.34,282.59 175.09,280.69 175.84,278.95 176.59,277.38 177.33,275.98 178.08,274.8 178.83,273.83 179.57,273.04 180.32,272.42 181.07,272.01 181.82,271.83 182.56,271.81 183.31,271.97 184.06,272.29 184.8,272.84 185.55,273.54 186.3,274.39 187.05,275.38 187.79,276.53 188.54,277.83 189.29,279.24 190.03,280.76 190.78,282.39 191.53,284.13 192.28,285.96 193.02,287.85 193.77,289.82 194.52,291.86 195.26,293.94 196.01,296.06 196.76,298.21 197.51,300.39 198.25,302.58 199,304.78 199.75,306.97 200.49,309.14 201.24,311.29 201.99,313.42 202.74,315.5 203.48,317.54 204.23,319.51 204.98,321.42 205.72,323.26 206.47,325.04 207.22,326.71 207.97,328.28 208.71,329.77 209.46,331.16 210.21,332.44 210.95,333.59 211.7,334.63 212.45,335.57 213.2,336.41 213.94,337.09 214.69,337.66 215.44,338.14 216.18,338.51 216.93,338.76 217.68,338.9 218.43,338.96 219.17,338.93 219.92,338.83 220.67,338.64 221.42,338.4 222.16,338.11 222.91,337.78 223.66,337.42 224.4,337.04 225.15,336.66 225.9,336.28 226.65,335.91 227.39,335.58 228.14,335.29 228.89,335.04 229.63,334.84 230.38,334.73 231.13,334.68 231.88,334.71 232.62,334.82 233.37,335.04 234.12,335.35 234.86,335.74 235.61,336.23 236.36,336.83 237.11,337.53 237.85,338.31 238.6,339.19 239.35,340.14 240.09,341.2 240.84,342.33 241.59,343.52 242.34,344.77 243.08,346.08 243.83,347.45 244.58,348.85 245.32,350.27 246.07,351.73 246.82,353.2 247.57,354.68 248.31,356.15 249.06,357.62 249.81,359.07 250.55,360.5 251.3,361.9 252.05,363.28 252.8,364.61 253.54,365.89 254.29,367.14 255.04,368.33 255.78,369.48 256.53,370.56 257.28,371.59 258.03,372.57 258.77,373.49 259.52,374.35 260.27,375.16 261.01,375.91 261.76,376.62 262.51,377.26 263.26,377.86 264,378.41 264.75,378.91 265.5,379.37 266.24,379.79 266.99,380.17 267.74,380.52 268.49,380.83 269.23,381.1 269.98,381.35 270.73,381.58 271.48,381.78 272.22,381.95 272.97,382.11 273.72,382.25 274.46,382.37 275.21,382.47 275.96,382.57 276.71,382.65 277.45,382.72 278.2,382.78 278.95,382.83 279.69,382.88 280.44,382.91 281.19,382.95 281.94,382.98 282.68,383 283.43,383.02 284.18,383.04 284.92,383.05 285.67,383.06 286.42,383.07 287.17,383.08 287.91,383.09 288.66,383.1 289.41,383.1 290.15,383.11 290.9,383.11 291.65,383.11 292.4,383.11 293.14,383.12 293.89,383.12 294.64,383.12 295.38,383.12 296.13,383.12 296.88,383.12 297.63,383.12 298.37,383.12 299.12,383.12 299.87,383.12 300.61,383.12 301.36,383.12 302.11,383.12 302.86,383.12 303.6,383.12 304.35,383.12 305.1,383.12 305.84,383.12 306.59,383.12 307.34,383.12 308.09,383.12 308.83,383.12 309.58,383.12 310.33,383.12 311.07,383.12 311.82,383.12 312.57,383.12 313.32,383.12 314.06,383.12 314.81,383.12 315.56,383.12 316.3,383.12 317.05,383.12 317.8,383.12 318.55,383.12 319.29,383.12 320.04,383.12 320.79,383.12 321.54,383.12 322.28,383.12 323.03,383.12 323.78,383.12 324.52,383.12 325.27,383.12 326.02,383.12 326.77,383.12 327.51,383.12 328.26,383.12 329.01,383.12 329.75,383.12 330.5,383.12 331.25,383.12 332,383.12 332.74,383.12 333.49,383.12 334.24,383.12 334.98,383.12 335.73,383.12 336.48,383.12 337.23,383.12 337.97,383.12 338.72,383.12 339.47,383.12 340.21,383.12 340.96,383.12 341.71,383.12 342.46,383.12 343.2,383.12 343.95,383.12 344.7,383.12 345.44,383.12 346.19,383.12 346.94,383.12 347.69,383.12 348.43,383.12 349.18,383.12 349.93,383.12 350.67,383.12 351.42,383.12 352.17,383.12 352.92,383.12 353.66,383.12 354.41,383.12 355.16,383.12 355.9,383.12 356.65,383.12 357.4,383.12 358.15,383.12 358.89,383.12 359.64,383.12 360.39,383.12 361.13,383.12 361.88,383.12 362.63,383.12 363.38,383.12 364.12,383.12 364.87,383.12 365.62,383.12 366.36,383.12 367.11,383.12 367.86,383.12 368.61,383.12 369.35,383.12 370.1,383.12 370.85,383.12 371.59,383.12 372.34,383.12 373.09,383.12 373.84,383.12 374.58,383.12 375.33,383.12 376.08,383.12 376.83,383.12 377.57,383.12 378.32,383.12 379.07,383.12 379.81,383.12 380.56,383.12 381.31,383.12 382.06,383.12 382.8,383.12 383.55,383.12 384.3,383.12 385.04,383.12 385.79,383.12 386.54,383.12 387.29,383.12 388.03,383.12 388.78,383.12 389.53,383.12 390.27,383.12 391.02,383.12 391.77,383.12 392.52,383.12 393.26,383.12 394.01,383.12 394.76,383.12 395.5,383.12 396.25,383.12 397,383.12 397.75,383.12 398.49,383.12 399.24,383.12 399.99,383.12 400.73,383.12 401.48,383.12 402.23,383.12 402.98,383.12 403.72,383.12 404.47,383.12 405.22,383.12 405.96,383.12 406.71,383.12 407.46,383.12 408.21,383.12 408.95,383.12 409.7,383.12 410.45,383.12 411.19,383.12 411.94,383.12 412.69,383.12 413.44,383.12 414.18,383.12 414.93,383.12 415.68,383.12 416.42,383.12 417.17,383.12 417.92,383.12 418.67,383.12 419.41,383.12 420.16,383.12 420.91,383.12 421.65,383.12 422.4,383.12 423.15,383.12 423.9,383.12 424.64,383.12 425.39,383.12 426.14,383.12 426.89,383.12 427.63,383.12 428.38,383.12 429.13,383.12 429.87,383.12 430.62,383.12 431.37,383.12 432.12,383.12 432.86,383.12 433.61,383.12 434.36,383.12 435.1,383.12 435.85,383.12 436.6,383.12 436.6,383.12 435.85,383.12 435.1,383.12 434.36,383.12 433.61,383.12 432.86,383.12 432.12,383.12 431.37,383.12 430.62,383.12 429.87,383.12 429.13,383.12 428.38,383.12 427.63,383.12 426.89,383.12 426.14,383.12 425.39,383.12 424.64,383.12 423.9,383.12 423.15,383.12 422.4,383.12 421.65,383.12 420.91,383.12 420.16,383.12 419.41,383.12 418.67,383.12 417.92,383.12 417.17,383.12 416.42,383.12 415.68,383.12 414.93,383.12 414.18,383.12 413.44,383.12 412.69,383.12 411.94,383.12 411.19,383.12 410.45,383.12 409.7,383.12 408.95,383.12 408.21,383.12 407.46,383.12 406.71,383.12 405.96,383.12 405.22,383.12 404.47,383.12 403.72,383.12 402.98,383.12 402.23,383.12 401.48,383.12 400.73,383.12 399.99,383.12 399.24,383.12 398.49,383.12 397.75,383.12 397,383.12 396.25,383.12 395.5,383.12 394.76,383.12 394.01,383.12 393.26,383.12 392.52,383.12 391.77,383.12 391.02,383.12 390.27,383.12 389.53,383.12 388.78,383.12 388.03,383.12 387.29,383.12 386.54,383.12 385.79,383.12 385.04,383.12 384.3,383.12 383.55,383.12 382.8,383.12 382.06,383.12 381.31,383.12 380.56,383.12 379.81,383.12 379.07,383.12 378.32,383.12 377.57,383.12 376.83,383.12 376.08,383.12 375.33,383.12 374.58,383.12 373.84,383.12 373.09,383.12 372.34,383.12 371.59,383.12 370.85,383.12 370.1,383.12 369.35,383.12 368.61,383.12 367.86,383.12 367.11,383.12 366.36,383.12 365.62,383.12 364.87,383.12 364.12,383.12 363.38,383.12 362.63,383.12 361.88,383.12 361.13,383.12 360.39,383.12 359.64,383.12 358.89,383.12 358.15,383.12 357.4,383.12 356.65,383.12 355.9,383.12 355.16,383.12 354.41,383.12 353.66,383.12 352.92,383.12 352.17,383.12 351.42,383.12 350.67,383.12 349.93,383.12 349.18,383.12 348.43,383.12 347.69,383.12 346.94,383.12 346.19,383.12 345.44,383.12 344.7,383.12 343.95,383.12 343.2,383.12 342.46,383.12 341.71,383.12 340.96,383.12 340.21,383.12 339.47,383.12 338.72,383.12 337.97,383.12 337.23,383.12 336.48,383.12 335.73,383.12 334.98,383.12 334.24,383.12 333.49,383.12 332.74,383.12 332,383.12 331.25,383.12 330.5,383.12 329.75,383.12 329.01,383.12 328.26,383.12 327.51,383.12 326.77,383.12 326.02,383.12 325.27,383.12 324.52,383.12 323.78,383.12 323.03,383.12 322.28,383.12 321.54,383.12 320.79,383.12 320.04,383.12 319.29,383.12 318.55,383.12 317.8,383.12 317.05,383.12 316.3,383.12 315.56,383.12 314.81,383.12 314.06,383.12 313.32,383.12 312.57,383.12 311.82,383.12 311.07,383.12 310.33,383.12 309.58,383.12 308.83,383.12 308.09,383.12 307.34,383.12 306.59,383.12 305.84,383.12 305.1,383.12 304.35,383.12 303.6,383.12 302.86,383.12 302.11,383.12 301.36,383.12 300.61,383.12 299.87,383.12 299.12,383.12 298.37,383.12 297.63,383.12 296.88,383.12 296.13,383.12 295.38,383.12 294.64,383.12 293.89,383.12 293.14,383.12 292.4,383.12 291.65,383.12 290.9,383.12 290.15,383.12 289.41,383.12 288.66,383.12 287.91,383.12 287.17,383.12 286.42,383.12 285.67,383.12 284.92,383.12 284.18,383.12 283.43,383.12 282.68,383.12 281.94,383.12 281.19,383.12 280.44,383.12 279.69,383.12 278.95,383.12 278.2,383.12 277.45,383.12 276.71,383.12 275.96,383.12 275.21,383.12 274.46,383.12 273.72,383.12 272.97,383.12 272.22,383.12 271.48,383.12 270.73,383.12 269.98,383.12 269.23,383.12 268.49,383.12 267.74,383.12 266.99,383.12 266.24,383.12 265.5,383.12 264.75,383.12 264,383.12 263.26,383.12 262.51,383.12 261.76,383.12 261.01,383.12 260.27,383.12 259.52,383.12 258.77,383.12 258.03,383.12 257.28,383.12 256.53,383.12 255.78,383.12 255.04,383.12 254.29,383.12 253.54,383.12 252.8,383.12 252.05,383.12 251.3,383.12 250.55,383.12 249.81,383.12 249.06,383.12 248.31,383.12 247.57,383.12 246.82,383.12 246.07,383.12 245.32,383.12 244.58,383.12 243.83,383.12 243.08,383.12 242.34,383.12 241.59,383.12 240.84,383.12 240.09,383.12 239.35,383.12 238.6,383.12 237.85,383.12 237.11,383.12 236.36,383.12 235.61,383.12 234.86,383.12 234.12,383.12 233.37,383.12 232.62,383.12 231.88,383.12 231.13,383.12 230.38,383.12 229.63,383.12 228.89,383.12 228.14,383.12 227.39,383.12 226.65,383.12 225.9,383.12 225.15,383.12 224.4,383.12 223.66,383.12 222.91,383.12 222.16,383.12 221.42,383.12 220.67,383.12 219.92,383.12 219.17,383.12 218.43,383.12 217.68,383.12 216.93,383.12 216.18,383.12 215.44,383.12 214.69,383.12 213.94,383.12 213.2,383.12 212.45,383.12 211.7,383.12 210.95,383.12 210.21,383.12 209.46,383.12 208.71,383.12 207.97,383.12 207.22,383.12 206.47,383.12 205.72,383.12 204.98,383.12 204.23,383.12 203.48,383.12 202.74,383.12 201.99,383.12 201.24,383.12 200.49,383.12 199.75,383.12 199,383.12 198.25,383.12 197.51,383.12 196.76,383.12 196.01,383.12 195.26,383.12 194.52,383.12 193.77,383.12 193.02,383.12 192.28,383.12 191.53,383.12 190.78,383.12 190.03,383.12 189.29,383.12 188.54,383.12 187.79,383.12 187.05,383.12 186.3,383.12 185.55,383.12 184.8,383.12 184.06,383.12 183.31,383.12 182.56,383.12 181.82,383.12 181.07,383.12 180.32,383.12 179.57,383.12 178.83,383.12 178.08,383.12 177.33,383.12 176.59,383.12 175.84,383.12 175.09,383.12 174.34,383.12 173.6,383.12 172.85,383.12 172.1,383.12 171.36,383.12 170.61,383.12 169.86,383.12 169.11,383.12 168.37,383.12 167.62,383.12 166.87,383.12 166.13,383.12 165.38,383.12 164.63,383.12 163.88,383.12 163.14,383.12 162.39,383.12 161.64,383.12 160.89,383.12 160.15,383.12 159.4,383.12 158.65,383.12 157.91,383.12 157.16,383.12 156.41,383.12 155.66,383.12 154.92,383.12 154.17,383.12 153.42,383.12 152.68,383.12 151.93,383.12 151.18,383.12 150.43,383.12 149.69,383.12 148.94,383.12 148.19,383.12 147.45,383.12 146.7,383.12 145.95,383.12 145.2,383.12 144.46,383.12 143.71,383.12 142.96,383.12 142.22,383.12 141.47,383.12 140.72,383.12 139.97,383.12 139.23,383.12 138.48,383.12 137.73,383.12 136.99,383.12 136.24,383.12 135.49,383.12 134.74,383.12 134,383.12 133.25,383.12 132.5,383.12 131.76,383.12 131.01,383.12 130.26,383.12 129.51,383.12 128.77,383.12 128.02,383.12 127.27,383.12 126.53,383.12 125.78,383.12 125.03,383.12 124.28,383.12 123.54,383.12 122.79,383.12 122.04,383.12 121.3,383.12 120.55,383.12 119.8,383.12 119.05,383.12 118.31,383.12 117.56,383.12 116.81,383.12 116.07,383.12 115.32,383.12 114.57,383.12 113.82,383.12 113.08,383.12 112.33,383.12 111.58,383.12 110.83,383.12 110.09,383.12 109.34,383.12 108.59,383.12 107.85,383.12 107.1,383.12 106.35,383.12 105.6,383.12 104.86,383.12 104.11,383.12 103.36,383.12 102.62,383.12 101.87,383.12 101.12,383.12 100.37,383.12 99.63,383.12 98.88,383.12 98.13,383.12 97.39,383.12 96.64,383.12 95.89,383.12 95.14,383.12 94.4,383.12 93.65,383.12 92.9,383.12 92.16,383.12 91.41,383.12 90.66,383.12 89.91,383.12 89.17,383.12 88.42,383.12 87.67,383.12 86.93,383.12 86.18,383.12 85.43,383.12 84.68,383.12 83.94,383.12 83.19,383.12 82.44,383.12 81.7,383.12 80.95,383.12 80.2,383.12 79.45,383.12 78.71,383.12 77.96,383.12 77.21,383.12 76.47,383.12 75.72,383.12 74.97,383.12 74.22,383.12 73.48,383.12 72.73,383.12 71.98,383.12 71.24,383.12 70.49,383.12 69.74,383.12 68.99,383.12 68.25,383.12 67.5,383.12 66.75,383.12 66.01,383.12 65.26,383.12 64.51,383.12 63.76,383.12 63.02,383.12 62.27,383.12 61.52,383.12 60.78,383.12 60.03,383.12 59.28,383.12 58.53,383.12 57.79,383.12 57.04,383.12 56.29,383.12 55.54,383.12 54.8,383.12" style="fill: url(#simple-28A700FF); stroke-width: 1.07" clip-path="url(#clip_35_71_400_26_455_69_23_35)" />
  <defs>
    <pattern id="simple-28B700FF" width="17" height="17" patternTransform="rotate(45 0 0)" patternUnits="userSpaceOnUse">
      <rect style="fill:#ffffff; fill-opacity:1; stroke:none;" width="100%" height="100%" />
      <line style="stroke:#000000; stroke-width:13.6; stroke-opacity:1;" x1="0" y1="0" x2="0" y2="17" />
    </pattern>
  </defs>
  <polygon points="54.8,357.25 55.54,357.23 56.29,357.26 57.04,357.33 57.79,357.44 58.53,357.59 59.28,357.79 60.03,358.02 60.78,358.29 61.52,358.58 62.27,358.91 63.02,359.27 63.76,359.65 64.51,360.04 65.26,360.46 66.01,360.89 66.75,361.33 67.5,361.78 68.25,362.23 68.99,362.67 69.74,363.12 70.49,363.56 71.24,363.98 71.98,364.39 72.73,364.79 73.48,365.15 74.22,365.5 74.97,365.82 75.72,366.11 76.47,366.36 77.21,366.58 77.96,366.77 78.71,366.92 79.45,367.02 80.2,367.08 80.95,367.1 81.7,367.08 82.44,367 83.19,366.88 83.94,366.72 84.68,366.51 85.43,366.24 86.18,365.94 86.93,365.59 87.67,365.18 88.42,364.73 89.17,364.24 89.91,363.7 90.66,363.11 91.41,362.48 92.16,361.81 92.9,361.1 93.65,360.34 94.4,359.54 95.14,358.71 95.89,357.84 96.64,356.93 97.39,355.99 98.13,355.03 98.88,354.02 99.63,352.98 100.37,351.92 101.12,350.84 101.87,349.72 102.62,348.58 103.36,347.43 104.11,346.26 104.86,345.06 105.6,343.86 106.35,342.64 107.1,341.41 107.85,340.17 108.59,338.93 109.34,337.69 110.09,336.44 110.83,335.2 111.58,333.97 112.33,332.74 113.08,331.53 113.82,330.33 114.57,329.15 115.32,327.99 116.07,326.85 116.81,325.75 117.56,324.67 118.31,323.63 119.05,322.63 119.8,321.67 120.55,320.74 121.3,319.87 122.04,319.05 122.79,318.28 123.54,317.56 124.28,316.9 125.03,316.31 125.78,315.77 126.53,315.29 127.27,314.89 128.02,314.55 128.77,314.27 129.51,314.05 130.26,313.92 131.01,313.85 131.76,313.84 132.5,313.89 133.25,314.03 134,314.22 134.74,314.47 135.49,314.79 136.24,315.18 136.99,315.61 137.73,316.1 138.48,316.64 139.23,317.24 139.97,317.88 140.72,318.56 141.47,319.3 142.22,320.06 142.96,320.86 143.71,321.68 144.46,322.54 145.2,323.42 145.95,324.32 146.7,325.23 147.45,326.16 148.19,327.1 148.94,328.04 149.69,328.98 150.43,329.93 151.18,330.87 151.93,331.81 152.68,332.74 153.42,333.65 154.17,334.55 154.92,335.44 155.66,336.31 156.41,337.16 157.16,337.99 157.91,338.8 158.65,339.57 159.4,340.33 160.15,341.06 160.89,341.76 161.64,342.43 162.39,343.07 163.14,343.69 163.88,344.27 164.63,344.82 165.38,345.35 166.13,345.84 166.87,346.31 167.62,346.74 168.37,347.14 169.11,347.53 169.86,347.87 170.61,348.19 171.36,348.49 172.1,348.77 172.85,349.01 173.6,349.24 174.34,349.44 175.09,349.63 175.84,349.8 176.59,349.95 177.33,350.09 178.08,350.22 178.83,350.33 179.57,350.44 180.32,350.54 181.07,350.64 181.82,350.74 182.56,350.84 183.31,350.94 184.06,351.04 184.8,351.16 185.55,351.28 186.3,351.41 187.05,351.56 187.79,351.72 188.54,351.9 189.29,352.09 190.03,352.31 190.78,352.55 191.53,352.81 192.28,353.1 193.02,353.41 193.77,353.74 194.52,354.1 195.26,354.49 196.01,354.9 196.76,355.34 197.51,355.8 198.25,356.29 199,356.81 199.75,357.34 200.49,357.9 201.24,358.48 201.99,359.09 202.74,359.7 203.48,360.34 204.23,360.99 204.98,361.66 205.72,362.33 206.47,363.02 207.22,363.71 207.97,364.41 208.71,365.11 209.46,365.82 210.21,366.52 210.95,367.22 211.7,367.91 212.45,368.6 213.2,369.28 213.94,369.95 214.69,370.61 215.44,371.26 216.18,371.89 216.93,372.51 217.68,373.11 218.43,373.69 219.17,374.25 219.92,374.8 220.67,375.32 221.42,375.82 222.16,376.31 222.91,376.77 223.66,377.21 224.4,377.63 225.15,378.03 225.9,378.42 226.65,378.77 227.39,379.11 228.14,379.43 228.89,379.73 229.63,380.01 230.38,380.27 231.13,380.52 231.88,380.75 232.62,380.96 233.37,381.15 234.12,381.34 234.86,381.5 235.61,381.66 236.36,381.8 237.11,381.93 237.85,382.05 238.6,382.16 239.35,382.26 240.09,382.35 240.84,382.44 241.59,382.51 242.34,382.58 243.08,382.64 243.83,382.69 244.58,382.74 245.32,382.79 246.07,382.83 246.82,382.86 247.57,382.89 248.31,382.92 249.06,382.95 249.81,382.97 250.55,382.99 251.3,383.01 252.05,383.02 252.8,383.04 253.54,383.05 254.29,383.06 255.04,383.07 255.78,383.07 256.53,383.08 257.28,383.09 258.03,383.09 258.77,383.1 259.52,383.1 260.27,383.1 261.01,383.11 261.76,383.11 262.51,383.11 263.26,383.11 264,383.12 264.75,383.12 265.5,383.12 266.24,383.12 266.99,383.12 267.74,383.12 268.49,383.12 269.23,383.12 269.98,383.12 270.73,383.12 271.48,383.12 272.22,383.12 272.97,383.12 273.72,383.12 274.46,383.12 275.21,383.12 275.96,383.12 276.71,383.12 277.45,383.12 278.2,383.12 278.95,383.12 279.69,383.12 280.44,383.12 281.19,383.12 281.94,383.12 282.68,383.12 283.43,383.12 284.18,383.12 284.92,383.12 285.67,383.12 286.42,383.12 287.17,383.12 287.91,383.12 288.66,383.12 289.41,383.12 290.15,383.12 290.9,383.12 291.65,383.12 292.4,383.12 293.14,383.12 293.89,383.12 294.64,383.12 295.38,383.12 296.13,383.12 296.88,383.12 297.63,383.12 298.37,383.12 299.12,383.12 299.87,383.12 300.61,383.12 301.36,383.12 302.11,383.12 302.86,383.12 303.6,383.12 304.35,383.12 305.1,383.12 305.84,383.12 306.59,383.12 307.34,383.12 308.09,383.12 308.83,383.12 309.58,383.12 310.33,383.12 311.07,383.12 311.82,383.12 312.57,383.12 313.32,383.12 314.06,383.12 314.81,383.12 315.56,383.12 316.3,383.12 317.05,383.12 317.8,383.12 318.55,383.12 319.29,383.12 320.04,383.12 320.79,383.12 321.54,383.12 322.28,383.12 323.03,383.12 323.78,383.12 324.52,383.12 325.27,383.12 326.02,383.12 326.77,383.12 327.51,383.12 328.26,383.12 329.01,383.12 329.75,383.12 330.5,383.12 331.25,383.12 332,383.12 332.74,383.12 333.49,383.12 334.24,383.12 334.98,383.12 335.73,383.12 336.48,383.12 337.23,383.12 337.97,383.12 338.72,383.12 339.47,383.12 340.21,383.12 340.96,383.12 341.71,383.12 342.46,383.12 343.2,383.12 343.95,383.12 344.7,383.12 345.44,383.12 346.19,383.12 346.94,383.12 347.69,383.12 348.43,383.12 349.18,383.12 349.93,383.12 350.67,383.12 351.42,383.12 352.17,383.12 352.92,383.12 353.66,383.12 354.41,383.12 355.16,383.12 355.9,383.12 356.65,383.12 357.4,383.12 358.15,383.12 358.89,383.12 359.64,383.12 360.39,383.12 361.13,383.12 361.88,383.12 362.63,383.12 363.38,383.12 364.12,383.12 364.87,383.12 365.62,383.12 366.36,383.12 367.11,383.12 367.86,383.12 368.61,383.12 369.35,383.12 370.1,383.12 370.85,383.12 371.59,383.12 372.34,383.12 373.09,383.12 373.84,383.12 374.58,383.12 375.33,383.12 376.08,383.12 376.83,383.12 377.57,383.12 378.32,383.12 379.07,383.12 379.81,383.12 380.56,383.12 381.31,383.12 382.06,383.12 382.8,383.12 383.55,383.12 384.3,383.12 385.04,383.12 385.79,383.12 386.54,383.12 387.29,383.12 388.03,383.12 388.78,383.12 389.53,383.12 390.27,383.12 391.02,383.12 391.77,383.12 392.52,383.12 393.26,383.12 394.01,383.12 394.76,383.12 395.5,383.12 396.25,383.12 397,383.12 397.75,383.12 398.49,383.12 399.24,383.12 399.99,383.12 400.73,383.12 401.48,383.12 402.23,383.12 402.98,383.12 403.72,383.12 404.47,383.12 405.22,383.12 405.96,383.12 406.71,383.12 407.46,383.12 408.21,383.12 408.95,383.12 409.7,383.12 410.45,383.12 411.19,383.12 411.94,383.12 412.69,383.12 413.44,383.12 414.18,383.12 414.93,383.12 415.68,383.12 416.42,383.12 417.17,383.12 417.92,383.12 418.67,383.12 419.41,383.12 420.16,383.12 420.91,383.12 421.65,383.12 422.4,383.12 423.15,383.12 423.9,383.12 424.64,383.12 425.39,383.12 426.14,383.12 426.89,383.12 427.63,383.12 428.38,383.12 429.13,383.12 429.87,383.12 430.62,383.12 431.37,383.12 432.12,383.12 432.86,383.12 433.61,383.12 434.36,383.12 435.1,383.12 435.85,383.12 436.6,383.12 436.6,383.12 435.85,383.12 435.1,383.12 434.36,383.12 433.61,383.12 432.86,383.12 432.12,383.12 431.37,383.12 430.62,383.12 429.87,383.12 429.13,383.12 428.38,383.12 427.63,383.12 426.89,383.12 426.14,383.12 425.39,383.12 424.64,383.12 423.9,383.12 423.15,383.12 422.4,383.12 421.65,383.12 420.91,383.12 420.16,383.12 419.41,383.12 418.67,383.12 417.92,383.12 417.17,383.12 416.42,383.12 415.68,383.12 414.93,383.12 414.18,383.12 413.44,383.12 412.69,383.12 411.94,383.12 411.19,383.12 410.45,383.12 409.7,383.12 408.95,383.12 408.21,383.12 407.46,383.12 406.71,383.12 405.96,383.12 405.22,383.12 404.47,383.12 403.72,383.12 402.98,383.12 402.23,383.12 401.48,383.12 400.73,383.12 399.99,383.12 399.24,383.12 398.49,383.12 397.75,383.12 397,383.12 396.25,383.12 395.5,383.12 394.76,383.12 394.01,383.12 393.26,383.12 392.52,383.12 391.77,383.12 391.02,383.12 390.27,383.12 389.53,383.12 388.78,383.12 388.03,383.12 387.29,383.12 386.54,383.12 385.79,383.12 385.04,383.12 384.3,383.12 383.55,383.12 382.8,383.12 382.06,383.12 381.31,383.12 380.56,383.12 379.81,383.12 379.07,383.12 378.32,383.12 377.57,383.12 376.83,383.12 376.08,383.12 375.33,383.12 374.58,383.12 373.84,383.12 373.09,383.12 372.34,383.12 371.59,383.12 370.85,383.12 370.1,383.12 369.35,383.12 368.61,383.12 367.86,383.12 367.11,383.12 366.36,383.12 365.62,383.12 364.87,383.12 364.12,383.12 363.38,383.12 362.63,383.12 361.88,383.12 361.13,383.12 360.39,383.12 359.64,383.12 358.89,383.12 358.15,383.12 357.4,383.12 356.65,383.12 355.9,383.12 355.16,383.12 354.41,383.12 353.66,383.12 352.92,383.12 352.17,383.12 351.42,383.12 350.67,383.12 349.93,383.12 349.18,383.12 348.43,383.12 347.69,383.12 346.94,383.12 346.19,383.12 345.44,383.12 344.7,383.12 343.95,383.12 343.2,383.12 342.46,383.12 341.71,383.12 340.96,383.12 340.21,383.12 339.47,383.12 338.72,383.12 337.97,383.12 337.23,383.12 336.48,383.12 335.73,383.12 334.98,383.12 334.24,383.12 333.49,383.12 332.74,383.12 332,383.12 331.25,383.12 330.5,383.12 329.75,383.12 329.01,383.12 328.26,383.12 327.51,383.12 326.77,383.12 326.02,383.12 325.27,383.12 324.52,383.12 323.78,383.12 323.03,383.12 322.28,383.12 321.54,383.12 320.79,383.12 320.04,383.12 319.29,383.12 318.55,383.12 317.8,383.12 317.05,383.12 316.3,383.12 315.56,383.12 314.81,383.12 314.06,383.12 313.32,383.12 312.57,383.12 311.82,383.12 311.07,383.12 310.33,383.12 309.58,383.12 308.83,383.12 308.09,383.12 307.34,383.12 306.59,383.12 305.84,383.12 305.1,383.12 304.35,383.12 303.6,383.12 302.86,383.12 302.11,383.12 301.36,383.12 300.61,383.12 299.87,383.12 299.12,383.12 298.37,383.12 297.63,383.12 296.88,383.12 296.13,383.12 295.38,383.12 294.64,383.12 293.89,383.12 293.14,383.12 292.4,383.12 291.65,383.12 290.9,383.12 290.15,383.12 289.41,383.12 288.66,383.12 287.91,383.12 287.17,383.12 286.42,383.12 285.67,383.12 284.92,383.12 284.18,383.12 283.43,383.12 282.68,383.12 281.94,383.12 281.19,383.12 280.44,383.12 279.69,383.12 278.95,383.12 278.2,383.12 277.45,383.12 276.71,383.12 275.96,383.12 275.21,383.12 274.46,383.12 273.72,383.12 272.97,383.12 272.22,383.12 271.48,383.12 270.73,383.12 269.98,383.12 269.23,383.12 268.49,383.12 267.74,383.12 266.99,383.12 266.24,383.12 265.5,383.12 264.75,383.12 264,383.12 263.26,383.12 262.51,383.12 261.76,383.12 261.01,383.12 260.27,383.12 259.52,383.12 258.77,383.12 258.03,383.12 257.28,383.12 256.53,383.12 255.78,383.12 255.04,383.12 254.29,383.12 253.54,383.12 252.8,383.12 252.05,383.12 251.3,383.12 250.55,383.12 249.81,383.12 249.06,383.12 248.31,383.12 247.57,383.12 246.82,383.12 246.07,383.12 245.32,383.12 244.58,383.12 243.83,383.12 243.08,383.12 242.34,383.12 241.59,383.12 240.84,383.12 240.09,383.12 239.35,383.12 238.6,383.12 237.85,383.12 237.11,383.12 236.36,383.12 235.61,383.12 234.86,383.12 234.12,383.12 233.37,383.12 232.62,383.12 231.88,383.12 231.13,383.12 230.38,383.12 229.63,383.12 228.89,383.12 228.14,383.12 227.39,383.12 226.65,383.12 225.9,383.12 225.15,383.12 224.4,383.12 223.66,383.12 222.91,383.12 222.16,383.12 221.42,383.12 220.67,383.12 219.92,383.12 219.17,383.12 218.43,383.12 217.68,383.12 216.93,383.12 216.18,383.12 215.44,383.12 214.69,383.12 213.94,383.12 213.2,383.12 212.45,383.12 211.7,383.12 210.95,383.12 210.21,383.12 209.46,383.12 208.71,383.12 207.97,383.12 207.22,383.12 206.47,383.12 205.72,383.12 204.98,383.12 204.23,383.12 203.48,383.12 202.74,383.12 201.99,383.12 201.24,383.12 200.49,383.12 199.75,383.12 199,383.12 198.25,383.12 197.51,383.12 196.76,383.12 196.01,383.12 195.26,383.12 194.52,383.12 193.77,383.12 193.02,383.12 192.28,383.12 191.53,383.12 190.78,383.12 190.03,383.12 189.29,383.12 188.54,383.12 187.79,383.12 187.05,383.12 186.3,383.12 185.55,383.12 184.8,383.12 184.06,383.12 183.31,383.12 182.56,383.12 181.82,383.12 181.07,383.12 180.32,383.12 179.57,383.12 178.83,383.12 178.08,383.12 177.33,383.12 176.59,383.12 175.84,383.12 175.09,383.12 174.34,383.12 173.6,383.12 172.85,383.12 172.1,383.12 171.36,383.12 170.61,383.12 169.86,383.12 169.11,383.12 168.37,383.12 167.62,383.12 166.87,383.12 166.13,383.12 165.38,383.12 164.63,383.12 163.88,383.12 163.14,383.12 162.39,383.12 161.64,383.12 160.89,383.12 160.15,383.12 159.4,383.12 158.65,383.12 157.91,383.12 157.16,383.12 156.41,383.12 155.66,383.12 154.92,383.12 154.17,383.12 153.42,383.12 152.68,383.12 151.93,383.12 151.18,383.12 150.43,383.12 149.69,383.12 148.94,383.12 148.19,383.12 147.45,383.12 146.7,383.12 145.95,383.12 145.2,383.12 144.46,383.12 143.71,383.12 142.96,383.12 142.22,383.12 141.47,383.12 140.72,383.12 139.97,383.12 139.23,383.12 138.48,383.12 137.73,383.12 136.99,383.12 136.24,383.12 135.49,383.12 134.74,383.12 134,383.12 133.25,383.12 132.5,383.12 131.76,383.12 131.01,383.12 130.26,383.12 129.51,383.12 128.77,383.12 128.02,383.12 127.27,383.12 126.53,383.12 125.78,383.12 125.03,383.12 124.28,383.12 123.54,383.12 122.79,383.12 122.04,383.12 121.3,383.12 120.55,383.12 119.8,383.12 119.05,383.12 118.31,383.12 117.56,383.12 116.81,383.12 116.07,383.12 115.32,383.12 114.57,383.12 113.82,383.12 113.08,383.12 112.33,383.12 111.58,383.12 110.83,383.12 110.09,383.12 109.34,383.12 108.59,383.12 107.85,383.12 107.1,383.12 106.35,383.12 105.6,383.12 104.86,383.12 104.11,383.12 103.36,383.12 102.62,383.12 101.87,383.12 101.12,383.12 100.37,383.12 99.63,383.12 98.88,383.12 98.13,383.12 97.39,383.12 96.64,383.12 95.89,383.12 95.14,383.12 94.4,383.12 93.65,383.12 92.9,383.12 92.16,383.12 91.41,383.12 90.66,383.12 89.91,383.12 89.17,383.12 88.42,383.12 87.67,383.12 86.93,383.12 86.18,383.12 85.43,383.12 84.68,383.12 83.94,383.12 83.19,383.12 82.44,383.12 81.7,383.12 80.95,383.12 80.2,383.12 79.45,383.12 78.71,383.12 77.96,383.12 77.21,383.12 76.47,383.12 75.72,383.12 74.97,383.12 74.22,383.12 73.48,383.12 72.73,383.12 71.98,383.12 71.24,383.12 70.49,383.12 69.74,383.12 68.99,383.12 68.25,383.12 67.5,383.12 66.75,383.12 66.01,383.12 65.26,383.12 64.51,383.12 63.76,383.12 63.02,383.12 62.27,383.12 61.52,383.12 60.78,383.12 60.03,383.12 59.28,383.12 58.53,383.12 57.79,383.12 57.04,383.12 56.29,383.12 55.54,383.12 54.8,383.12" style="fill: url(#simple-28B700FF); stroke-width: 1.07" clip-path="url(#clip_35_71_400_26_455_69_23_35)" />
  <defs>
    <pattern id="simple-709700FF" width="17" height="17" patternTransform="rotate(45 0 0)" patternUnits="userSpaceOnUse">
      <rect style="fill:#ffffff; fill-opacity:1; stroke:none;" width="100%" height="100%" />
      <g style="stroke:#000000; stroke-width:4.53333333333333; stroke-opacity:1;">
        <line x1="0" y1="0" x2="0" y2="17" />
        <line x1="0" y1="0" x2="17" y2="0" />
      </g>
    </pattern>
  </defs>
  <polygon points="54.8,383.12 55.54,383.12 56.29,383.12 57.04,383.12 57.79,383.12 58.53,383.12 59.28,383.12 60.03,383.12 60.78,383.12 61.52,383.12 62.27,383.12 63.02,383.12 63.76,383.12 64.51,383.12 65.26,383.12 66.01,383.12 66.75,383.12 67.5,383.12 68.25,383.12 68.99,383.12 69.74,383.12 70.49,383.12 71.24,383.12 71.98,383.12 72.73,383.12 73.48,383.12 74.22,383.12 74.97,383.12 75.72,383.12 76.47,383.12 77.21,383.12 77.96,383.12 78.71,383.12 79.45,383.12 80.2,383.12 80.95,383.11 81.7,383.11 82.44,383.11 83.19,383.11 83.94,383.11 84.68,383.11 85.43,383.11 86.18,383.11 86.93,383.11 87.67,383.11 88.42,383.11 89.17,383.1 89.91,383.1 90.66,383.1 91.41,383.1 92.16,383.1 92.9,383.1 93.65,383.1 94.4,383.09 95.14,383.09 95.89,383.09 96.64,383.09 97.39,383.09 98.13,383.08 98.88,383.08 99.63,383.08 100.37,383.08 101.12,383.07 101.87,383.07 102.62,383.07 103.36,383.06 104.11,383.06 104.86,383.06 105.6,383.05 106.35,383.05 107.1,383.04 107.85,383.04 108.59,383.03 109.34,383.03 110.09,383.02 110.83,383.02 111.58,383.01 112.33,383 113.08,383 113.82,382.99 114.57,382.98 115.32,382.97 116.07,382.97 116.81,382.96 117.56,382.95 118.31,382.94 119.05,382.93 119.8,382.92 120.55,382.91 121.3,382.9 122.04,382.88 122.79,382.87 123.54,382.86 124.28,382.84 125.03,382.83 125.78,382.81 126.53,382.8 127.27,382.78 128.02,382.77 128.77,382.75 129.51,382.73 130.26,382.71 131.01,382.69 131.76,382.67 132.5,382.65 133.25,382.63 134,382.6 134.74,382.58 135.49,382.55 136.24,382.53 136.99,382.5 137.73,382.47 138.48,382.44 139.23,382.41 139.97,382.38 140.72,382.34 141.47,382.31 142.22,382.27 142.96,382.24 143.71,382.2 144.46,382.16 145.2,382.12 145.95,382.08 146.7,382.03 147.45,381.99 148.19,381.94 148.94,381.89 149.69,381.84 150.43,381.79 151.18,381.74 151.93,381.69 152.68,381.63 153.42,381.57 154.17,381.51 154.92,381.45 155.66,381.39 156.41,381.32 157.16,381.26 157.91,381.19 158.65,381.12 159.4,381.04 160.15,380.97 160.89,380.89 161.64,380.81 162.39,380.73 163.14,380.65 163.88,380.56 164.63,380.48 165.38,380.39 166.13,380.3 166.87,380.2 167.62,380.11 168.37,380.01 169.11,379.91 169.86,379.81 170.61,379.7 171.36,379.6 172.1,379.49 172.85,379.38 173.6,379.26 174.34,379.15 175.09,379.03 175.84,378.91 176.59,378.79 177.33,378.66 178.08,378.54 178.83,378.41 179.57,378.28 180.32,378.14 181.07,378.01 181.82,377.87 182.56,377.73 183.31,377.59 184.06,377.45 184.8,377.3 185.55,377.15 186.3,377 187.05,376.85 187.79,376.7 188.54,376.54 189.29,376.38 190.03,376.22 190.78,376.06 191.53,375.9 192.28,375.74 193.02,375.57 193.77,375.4 194.52,375.23 195.26,375.06 196.01,374.89 196.76,374.72 197.51,374.55 198.25,374.37 199,374.19 199.75,374.02 200.49,373.84 201.24,373.66 201.99,373.48 202.74,373.3 203.48,373.12 204.23,372.93 204.98,372.75 205.72,372.57 206.47,372.39 207.22,372.2 207.97,372.02 208.71,371.83 209.46,371.65 210.21,371.47 210.95,371.28 211.7,371.1 212.45,370.92 213.2,370.73 213.94,370.55 214.69,370.37 215.44,370.19 216.18,370.01 216.93,369.83 217.68,369.65 218.43,369.47 219.17,369.29 219.92,369.12 220.67,368.94 221.42,368.77 222.16,368.6 222.91,368.43 223.66,368.26 224.4,368.09 225.15,367.92 225.9,367.76 226.65,367.6 227.39,367.44 228.14,367.28 228.89,367.12 229.63,366.96 230.38,366.81 231.13,366.66 231.88,366.51 232.62,366.36 233.37,366.22 234.12,366.07 234.86,365.93 235.61,365.79 236.36,365.66 237.11,365.52 237.85,365.39 238.6,365.26 239.35,365.13 240.09,365.01 240.84,364.89 241.59,364.77 242.34,364.65 243.08,364.53 243.83,364.42 244.58,364.31 245.32,364.2 246.07,364.09 246.82,363.99 247.57,363.89 248.31,363.79 249.06,363.69 249.81,363.6 250.55,363.5 251.3,363.41 252.05,363.32 252.8,363.24 253.54,363.15 254.29,363.07 255.04,362.99 255.78,362.91 256.53,362.83 257.28,362.76 258.03,362.68 258.77,362.61 259.52,362.54 260.27,362.47 261.01,362.41 261.76,362.34 262.51,362.28 263.26,362.22 264,362.16 264.75,362.1 265.5,362.04 266.24,361.98 266.99,361.92 267.74,361.87 268.49,361.81 269.23,361.76 269.98,361.71 270.73,361.66 271.48,361.61 272.22,361.56 272.97,361.51 273.72,361.46 274.46,361.41 275.21,361.36 275.96,361.31 276.71,361.27 277.45,361.22 278.2,361.17 278.95,361.13 279.69,361.08 280.44,361.03 281.19,360.99 281.94,360.94 282.68,360.9 283.43,360.85 284.18,360.8 284.92,360.76 285.67,360.71 286.42,360.67 287.17,360.62 287.91,360.57 288.66,360.52 289.41,360.48 290.15,360.43 290.9,360.38 291.65,360.33 292.4,360.28 293.14,360.23 293.89,360.18 294.64,360.13 295.38,360.08 296.13,360.03 296.88,359.98 297.63,359.92 298.37,359.87 299.12,359.82 299.87,359.76 300.61,359.71 301.36,359.65 302.11,359.59 302.86,359.54 303.6,359.48 304.35,359.42 305.1,359.36 305.84,359.3 306.59,359.24 307.34,359.18 308.09,359.12 308.83,359.06 309.58,358.99 310.33,358.93 311.07,358.87 311.82,358.8 312.57,358.74 313.32,358.67 314.06,358.6 314.81,358.54 315.56,358.47 316.3,358.4 317.05,358.33 317.8,358.26 318.55,358.19 319.29,358.12 320.04,358.05 320.79,357.98 321.54,357.9 322.28,357.83 323.03,357.76 323.78,357.68 324.52,357.61 325.27,357.53 326.02,357.45 326.77,357.38 327.51,357.3 328.26,357.22 329.01,357.15 329.75,357.07 330.5,356.99 331.25,356.91 332,356.83 332.74,356.75 333.49,356.67 334.24,356.59 334.98,356.51 335.73,356.43 336.48,356.35 337.23,356.27 337.97,356.18 338.72,356.1 339.47,356.02 340.21,355.94 340.96,355.86 341.71,355.77 342.46,355.69 343.2,355.61 343.95,355.53 344.7,355.44 345.44,355.36 346.19,355.28 346.94,355.2 347.69,355.11 348.43,355.03 349.18,354.95 349.93,354.87 350.67,354.79 351.42,354.71 352.17,354.63 352.92,354.55 353.66,354.47 354.41,354.4 355.16,354.32 355.9,354.24 356.65,354.17 357.4,354.09 358.15,354.02 358.89,353.95 359.64,353.87 360.39,353.8 361.13,353.73 361.88,353.67 362.63,353.6 363.38,353.53 364.12,353.47 364.87,353.41 365.62,353.35 366.36,353.29 367.11,353.23 367.86,353.18 368.61,353.12 369.35,353.07 370.1,353.02 370.85,352.97 371.59,352.93 372.34,352.88 373.09,352.84 373.84,352.8 374.58,352.77 375.33,352.73 376.08,352.7 376.83,352.67 377.57,352.65 378.32,352.63 379.07,352.61 379.81,352.59 380.56,352.58 381.31,352.56 382.06,352.56 382.8,352.55 383.55,352.55 384.3,352.55 385.04,352.56 385.79,352.57 386.54,352.58 387.29,352.59 388.03,352.61 388.78,352.64 389.53,352.66 390.27,352.69 391.02,352.73 391.77,352.76 392.52,352.81 393.26,352.85 394.01,352.9 394.76,352.95 395.5,353.01 396.25,353.07 397,353.14 397.75,353.21 398.49,353.28 399.24,353.36 399.99,353.44 400.73,353.52 401.48,353.62 402.23,353.71 402.98,353.81 403.72,353.91 404.47,354.01 405.22,354.13 405.96,354.24 406.71,354.36 407.46,354.48 408.21,354.61 408.95,354.74 409.7,354.87 410.45,355.01 411.19,355.15 411.94,355.3 412.69,355.45 413.44,355.6 414.18,355.76 414.93,355.92 415.68,356.09 416.42,356.26 417.17,356.43 417.92,356.6 418.67,356.78 419.41,356.97 420.16,357.15 420.91,357.34 421.65,357.54 422.4,357.73 423.15,357.93 423.9,358.13 424.64,358.34 425.39,358.55 426.14,358.76 426.89,358.97 427.63,359.19 428.38,359.41 429.13,359.63 429.87,359.85 430.62,360.08 431.37,360.31 432.12,360.54 432.86,360.77 433.61,361.01 434.36,361.24 435.1,361.48 435.85,361.72 436.6,361.97 436.6,383.12 435.85,383.12 435.1,383.12 434.36,383.12 433.61,383.12 432.86,383.12 432.12,383.12 431.37,383.12 430.62,383.12 429.87,383.12 429.13,383.12 428.38,383.12 427.63,383.12 426.89,383.12 426.14,383.12 425.39,383.12 424.64,383.12 423.9,383.12 423.15,383.12 422.4,383.12 421.65,383.12 420.91,383.12 420.16,383.12 419.41,383.12 418.67,383.12 417.92,383.12 417.17,383.12 416.42,383.12 415.68,383.12 414.93,383.12 414.18,383.12 413.44,383.12 412.69,383.12 411.94,383.12 411.19,383.12 410.45,383.12 409.7,383.12 408.95,383.12 408.21,383.12 407.46,383.12 406.71,383.12 405.96,383.12 405.22,383.12 404.47,383.12 403.72,383.12 402.98,383.12 402.23,383.12 401.48,383.12 400.73,383.12 399.99,383.12 399.24,383.12 398.49,383.12 397.75,383.12 397,383.12 396.25,383.12 395.5,383.12 394.76,383.12 394.01,383.12 393.26,383.12 392.52,383.12 391.77,383.12 391.02,383.12 390.27,383.12 389.53,383.12 388.78,383.12 388.03,383.12 387.29,383.12 386.54,383.12 385.79,383.12 385.04,383.12 384.3,383.12 383.55,383.12 382.8,383.12 382.06,383.12 381.31,383.12 380.56,383.12 379.81,383.12 379.07,383.12 378.32,383.12 377.57,383.12 376.83,383.12 376.08,383.12 375.33,383.12 374.58,383.12 373.84,383.12 373.09,383.12 372.34,383.12 371.59,383.12 370.85,383.12 370.1,383.12 369.35,383.12 368.61,383.12 367.86,383.12 367.11,383.12 366.36,383.12 365.62,383.12 364.87,383.12 364.12,383.12 363.38,383.12 362.63,383.12 361.88,383.12 361.13,383.12 360.39,383.12 359.64,383.12 358.89,383.12 358.15,383.12 357.4,383.12 356.65,383.12 355.9,383.12 355.16,383.12 354.41,383.12 353.66,383.12 352.92,383.12 352.17,383.12 351.42,383.12 350.67,383.12 349.93,383.12 349.18,383.12 348.43,383.12 347.69,383.12 346.94,383.12 346.19,383.12 345.44,383.12 344.7,383.12 343.95,383.12 343.2,383.12 342.46,383.12 341.71,383.12 340.96,383.12 340.21,383.12 339.47,383.12 338.72,383.12 337.97,383.12 337.23,383.12 336.48,383.12 335.73,383.12 334.98,383.12 334.24,383.12 333.49,383.12 332.74,383.12 332,383.12 331.25,383.12 330.5,383.12 329.75,383.12 329.01,383.12 328.26,383.12 327.51,383.12 326.77,383.12 326.02,383.12 325.27,383.12 324.52,383.12 323.78,383.12 323.03,383.12 322.28,383.12 321.54,383.12 320.79,383.12 320.04,383.12 319.29,383.12 318.55,383.12 317.8,383.12 317.05,383.12 316.3,383.12 315.56,383.12 314.81,383.12 314.06,383.12 313.32,383.12 312.57,383.12 311.82,383.12 311.07,383.12 310.33,383.12 309.58,383.12 308.83,383.12 308.09,383.12 307.34,383.12 306.59,383.12 305.84,383.12 305.1,383.12 304.35,383.12 303.6,383.12 302.86,383.12 302.11,383.12 301.36,383.12 300.61,383.12 299.87,383.12 299.12,383.12 298.37,383.12 297.63,383.12 296.88,383.12 296.13,383.12 295.38,383.12 294.64,383.12 293.89,383.12 293.14,383.12 292.4,383.12 291.65,383.12 290.9,383.12 290.15,383.12 289.41,383.12 288.66,383.12 287.91,383.12 287.17,383.12 286.42,383.12 285.67,383.12 284.92,383.12 284.18,383.12 283.43,383.12 282.68,383.12 281.94,383.12 281.19,383.12 280.44,383.12 279.69,383.12 278.95,383.12 278.2,383.12 277.45,383.12 276.71,383.12 275.96,383.12 275.21,383.12 274.46,383.12 273.72,383.12 272.97,383.12 272.22,383.12 271.48,383.12 270.73,383.12 269.98,383.12 269.23,383.12 268.49,383.12 267.74,383.12 266.99,383.12 266.24,383.12 265.5,383.12 264.75,383.12 264,383.12 263.26,383.12 262.51,383.12 261.76,383.12 261.01,383.12 260.27,383.12 259.52,383.12 258.77,383.12 258.03,383.12 257.28,383.12 256.53,383.12 255.78,383.12 255.04,383.12 254.29,383.12 253.54,383.12 252.8,383.12 252.05,383.12 251.3,383.12 250.55,383.12 249.81,383.12 249.06,383.12 248.31,383.12 247.57,383.12 246.82,383.12 246.07,383.12 245.32,383.12 244.58,383.12 243.83,383.12 243.08,383.12 242.34,383.12 241.59,383.12 240.84,383.12 240.09,383.12 239.35,383.12 238.6,383.12 237.85,383.12 237.11,383.12 236.36,383.12 235.61,383.12 234.86,383.12 234.12,383.12 233.37,383.12 232.62,383.12 231.88,383.12 231.13,383.12 230.38,383.12 229.63,383.12 228.89,383.12 228.14,383.12 227.39,383.12 226.65,383.12 225.9,383.12 225.15,383.12 224.4,383.12 223.66,383.12 222.91,383.12 222.16,383.12 221.42,383.12 220.67,383.12 219.92,383.12 219.17,383.12 218.43,383.12 217.68,383.12 216.93,383.12 216.18,383.12 215.44,383.12 214.69,383.12 213.94,383.12 213.2,383.12 212.45,383.12 211.7,383.12 210.95,383.12 210.21,383.12 209.46,383.12 208.71,383.12 207.97,383.12 207.22,383.12 206.47,383.12 205.72,383.12 204.98,383.12 204.23,383.12 203.48,383.12 202.74,383.12 201.99,383.12 201.24,383.12 200.49,383.12 199.75,383.12 199,383.12 198.25,383.12 197.51,383.12 196.76,383.12 196.01,383.12 195.26,383.12 194.52,383.12 193.77,383.12 193.02,383.12 192.28,383.12 191.53,383.12 190.78,383.12 190.03,383.12 189.29,383.12 188.54,383.12 187.79,383.12 187.05,383.12 186.3,383.12 185.55,383.12 184.8,383.12 184.06,383.12 183.31,383.12 182.56,383.12 181.82,383.12 181.07,383.12 180.32,383.12 179.57,383.12 178.83,383.12 178.08,383.12 177.33,383.12 176.59,383.12 175.84,383.12 175.09,383.12 174.34,383.12 173.6,383.12 172.85,383.12 172.1,383.12 171.36,383.12 170.61,383.12 169.86,383.12 169.11,383.12 168.37,383.12 167.62,383.12 166.87,383.12 166.13,383.12 165.38,383.12 164.63,383.12 163.88,383.12 163.14,383.12 162.39,383.12 161.64,383.12 160.89,383.12 160.15,383.12 159.4,383.12 158.65,383.12 157.91,383.12 157.16,383.12 156.41,383.12 155.66,383.12 154.92,383.12 154.17,383.12 153.42,383.12 152.68,383.12 151.93,383.12 151.18,383.12 150.43,383.12 149.69,383.12 148.94,383.12 148.19,383.12 147.45,383.12 146.7,383.12 145.95,383.12 145.2,383.12 144.46,383.12 143.71,383.12 142.96,383.12 142.22,383.12 141.47,383.12 140.72,383.12 139.97,383.12 139.23,383.12 138.48,383.12 137.73,383.12 136.99,383.12 136.24,383.12 135.49,383.12 134.74,383.12 134,383.12 133.25,383.12 132.5,383.12 131.76,383.12 131.01,383.12 130.26,383.12 129.51,383.12 128.77,383.12 128.02,383.12 127.27,383.12 126.53,383.12 125.78,383.12 125.03,383.12 124.28,383.12 123.54,383.12 122.79,383.12 122.04,383.12 121.3,383.12 120.55,383.12 119.8,383.12 119.05,383.12 118.31,383.12 117.56,383.12 116.81,383.12 116.07,383.12 115.32,383.12 114.57,383.12 113.82,383.12 113.08,383.12 112.33,383.12 111.58,383.12 110.83,383.12 110.09,383.12 109.34,383.12 108.59,383.12 107.85,383.12 107.1,383.12 106.35,383.12 105.6,383.12 104.86,383.12 104.11,383.12 103.36,383.12 102.62,383.12 101.87,383.12 101.12,383.12 100.37,383.12 99.63,383.12 98.88,383.12 98.13,383.12 97.39,383.12 96.64,383.12 95.89,383.12 95.14,383.12 94.4,383.12 93.65,383.12 92.9,383.12 92.16,383.12 91.41,383.12 90.66,383.12 89.91,383.12 89.17,383.12 88.42,383.12 87.67,383.12 86.93,383.12 86.18,383.12 85.43,383.12 84.68,383.12 83.94,383.12 83.19,383.12 82.44,383.12 81.7,383.12 80.95,383.12 80.2,383.12 79.45,383.12 78.71,383.12 77.96,383.12 77.21,383.12 76.47,383.12 75.72,383.12 74.97,383.12 74.22,383.12 73.48,383.12 72.73,383.12 71.98,383.12 71.24,383.12 70.49,383.12 69.74,383.12 68.99,383.12 68.25,383.12 67.5,383.12 66.75,383.12 66.01,383.12 65.26,383.12 64.51,383.12 63.76,383.12 63.02,383.12 62.27,383.12 61.52,383.12 60.78,383.12 60.03,383.12 59.28,383.12 58.53,383.12 57.79,383.12 57.04,383.12 56.29,383.12 55.54,383.12 54.8,383.12" style="fill: url(#simple-709700FF); stroke-width: 1.07" clip-path="url(#clip_35_71_400_26_455_69_23_35)" />
  <defs>
    <pattern id="simple-70A700FF" width="17" height="17" patternTransform="rotate(45 0 0)" patternUnits="userSpaceOnUse">
      <rect style="fill:#ffffff; fill-opacity:1; stroke:none;" width="100%" height="100%" />
      <g style="stroke:#000000; stroke-width:9.06666666666667; stroke-opacity:1;">
        <line x1="0" y1="0" x2="0" y2="17" />
        <line x1="0" y1="0" x2="17" y2="0" />
      </g>
    </pattern>
  </defs>
  <polygon points="54.8,383.12 55.54,383.12 56.29,383.12 57.04,383.12 57.79,383.12 58.53,383.12 59.28,383.12 60.03,383.12 60.78,383.12 61.52,383.12 62.27,383.12 63.02,383.12 63.76,383.12 64.51,383.12 65.26,383.12 66.01,383.12 66.75,383.12 67.5,383.12 68.25,383.12 68.99,383.12 69.74,383.12 70.49,383.12 71.24,383.12 71.98,383.12 72.73,383.12 73.48,383.12 74.22,383.12 74.97,383.12 75.72,383.12 76.47,383.12 77.21,383.12 77.96,383.12 78.71,383.12 79.45,383.12 80.2,383.12 80.95,383.12 81.7,383.12 82.44,383.12 83.19,383.12 83.94,383.12 84.68,383.12 85.43,383.12 86.18,383.12 86.93,383.12 87.67,383.12 88.42,383.12 89.17,383.12 89.91,383.12 90.66,383.12 91.41,383.12 92.16,383.12 92.9,383.12 93.65,383.12 94.4,383.12 95.14,383.12 95.89,383.12 96.64,383.12 97.39,383.12 98.13,383.12 98.88,383.12 99.63,383.12 100.37,383.12 101.12,383.12 101.87,383.12 102.62,383.12 103.36,383.12 104.11,383.12 104.86,383.12 105.6,383.12 106.35,383.12 107.1,383.12 107.85,383.12 108.59,383.12 109.34,383.12 110.09,383.12 110.83,383.12 111.58,383.12 112.33,383.12 113.08,383.12 113.82,383.12 114.57,383.12 115.32,383.12 116.07,383.12 116.81,383.12 117.56,383.12 118.31,383.12 119.05,383.12 119.8,383.12 120.55,383.12 121.3,383.12 122.04,383.12 122.79,383.12 123.54,383.12 124.28,383.12 125.03,383.12 125.78,383.12 126.53,383.12 127.27,383.12 128.02,383.12 128.77,383.12 129.51,383.12 130.26,383.12 131.01,383.12 131.76,383.12 132.5,383.12 133.25,383.12 134,383.12 134.74,383.12 135.49,383.12 136.24,383.12 136.99,383.12 137.73,383.12 138.48,383.12 139.23,383.12 139.97,383.12 140.72,383.12 141.47,383.12 142.22,383.12 142.96,383.12 143.71,383.12 144.46,383.12 145.2,383.12 145.95,383.12 146.7,383.12 147.45,383.12 148.19,383.12 148.94,383.12 149.69,383.12 150.43,383.12 151.18,383.12 151.93,383.12 152.68,383.12 153.42,383.12 154.17,383.12 154.92,383.12 155.66,383.12 156.41,383.12 157.16,383.12 157.91,383.12 158.65,383.12 159.4,383.12 160.15,383.12 160.89,383.12 161.64,383.12 162.39,383.12 163.14,383.12 163.88,383.12 164.63,383.12 165.38,383.12 166.13,383.12 166.87,383.12 167.62,383.12 168.37,383.12 169.11,383.12 169.86,383.12 170.61,383.12 171.36,383.12 172.1,383.12 172.85,383.12 173.6,383.12 174.34,383.12 175.09,383.12 175.84,383.12 176.59,383.12 177.33,383.12 178.08,383.12 178.83,383.12 179.57,383.12 180.32,383.12 181.07,383.11 181.82,383.1 182.56,383.09 183.31,383.06 184.06,383.02 184.8,382.95 185.55,382.85 186.3,382.69 187.05,382.45 187.79,382.1 188.54,381.6 189.29,380.89 190.03,379.89 190.78,378.49 191.53,376.6 192.28,374.13 193.02,370.94 193.77,366.92 194.52,361.96 195.26,355.95 196.01,348.82 196.76,340.51 197.51,330.96 198.25,320.42 199,309.06 199.75,297.16 200.49,285.05 201.24,273.12 201.99,261.79 202.74,251.5 203.48,242.69 204.23,236 204.98,231.64 205.72,229.72 206.47,230.3 207.22,233.3 207.97,238.52 208.71,245.64 209.46,254.23 210.21,263.78 210.95,273.7 211.7,283.25 212.45,291.81 213.2,298.8 213.94,303.72 214.69,306.1 215.44,305.58 216.18,301.89 216.93,294.85 217.68,284.4 218.43,270.25 219.17,253.17 219.92,233.6 220.67,212.17 221.42,189.61 222.16,166.77 222.91,144.59 223.66,124.01 224.4,106 225.15,91.81 225.9,82.16 226.65,77.33 227.39,77.57 228.14,82.86 228.89,92.96 229.63,107.39 230.38,125.52 231.13,146.55 231.88,169.65 232.62,193.81 233.37,218 234.12,241.49 234.86,263.68 235.61,284.11 236.36,302.47 237.11,318.58 237.85,332.41 238.6,344 239.35,353.3 240.09,360.74 240.84,366.62 241.59,371.17 242.34,374.62 243.08,377.19 243.83,379.06 244.58,380.39 245.32,381.33 246.07,381.95 246.82,382.36 247.57,382.64 248.31,382.82 249.06,382.94 249.81,383.01 250.55,383.06 251.3,383.09 252.05,383.1 252.8,383.11 253.54,383.12 254.29,383.12 255.04,383.12 255.78,383.12 256.53,383.12 257.28,383.12 258.03,383.12 258.77,383.12 259.52,383.12 260.27,383.12 261.01,383.12 261.76,383.12 262.51,383.12 263.26,383.12 264,383.12 264.75,383.12 265.5,383.12 266.24,383.12 266.99,383.12 267.74,383.12 268.49,383.12 269.23,383.12 269.98,383.12 270.73,383.12 271.48,383.12 272.22,383.12 272.97,383.12 273.72,383.12 274.46,383.12 275.21,383.12 275.96,383.12 276.71,383.12 277.45,383.12 278.2,383.12 278.95,383.12 279.69,383.12 280.44,383.12 281.19,383.12 281.94,383.12 282.68,383.12 283.43,383.12 284.18,383.12 284.92,383.12 285.67,383.12 286.42,383.12 287.17,383.12 287.91,383.12 288.66,383.12 289.41,383.12 290.15,383.12 290.9,383.12 291.65,383.12 292.4,383.12 293.14,383.12 293.89,383.12 294.64,383.12 295.38,383.12 296.13,383.12 296.88,383.12 297.63,383.12 298.37,383.12 299.12,383.12 299.87,383.12 300.61,383.12 301.36,383.12 302.11,383.12 302.86,383.12 303.6,383.12 304.35,383.12 305.1,383.12 305.84,383.12 306.59,383.12 307.34,383.12 308.09,383.12 308.83,383.12 309.58,383.12 310.33,383.12 311.07,383.12 311.82,383.12 312.57,383.12 313.32,383.12 314.06,383.12 314.81,383.12 315.56,383.12 316.3,383.12 317.05,383.12 317.8,383.12 318.55,383.12 319.29,383.12 320.04,383.12 320.79,383.12 321.54,383.12 322.28,383.12 323.03,383.12 323.78,383.12 324.52,383.12 325.27,383.12 326.02,383.12 326.77,383.12 327.51,383.12 328.26,383.12 329.01,383.12 329.75,383.12 330.5,383.12 331.25,383.12 332,383.12 332.74,383.12 333.49,383.12 334.24,383.12 334.98,383.12 335.73,383.12 336.48,383.12 337.23,383.12 337.97,383.12 338.72,383.12 339.47,383.12 340.21,383.12 340.96,383.12 341.71,383.12 342.46,383.12 343.2,383.12 343.95,383.12 344.7,383.12 345.44,383.12 346.19,383.12 346.94,383.12 347.69,383.12 348.43,383.12 349.18,383.12 349.93,383.12 350.67,383.12 351.42,383.12 352.17,383.12 352.92,383.12 353.66,383.12 354.41,383.12 355.16,383.12 355.9,383.12 356.65,383.12 357.4,383.12 358.15,383.12 358.89,383.12 359.64,383.12 360.39,383.12 361.13,383.12 361.88,383.12 362.63,383.12 363.38,383.12 364.12,383.12 364.87,383.12 365.62,383.12 366.36,383.12 367.11,383.12 367.86,383.12 368.61,383.12 369.35,383.12 370.1,383.12 370.85,383.12 371.59,383.12 372.34,383.12 373.09,383.12 373.84,383.12 374.58,383.12 375.33,383.12 376.08,383.12 376.83,383.12 377.57,383.12 378.32,383.12 379.07,383.12 379.81,383.12 380.56,383.12 381.31,383.12 382.06,383.12 382.8,383.12 383.55,383.12 384.3,383.12 385.04,383.12 385.79,383.12 386.54,383.12 387.29,383.12 388.03,383.12 388.78,383.12 389.53,383.12 390.27,383.12 391.02,383.12 391.77,383.12 392.52,383.12 393.26,383.12 394.01,383.12 394.76,383.12 395.5,383.12 396.25,383.12 397,383.12 397.75,383.12 398.49,383.12 399.24,383.12 399.99,383.12 400.73,383.12 401.48,383.12 402.23,383.12 402.98,383.12 403.72,383.12 404.47,383.12 405.22,383.12 405.96,383.12 406.71,383.12 407.46,383.12 408.21,383.12 408.95,383.12 409.7,383.12 410.45,383.12 411.19,383.12 411.94,383.12 412.69,383.12 413.44,383.12 414.18,383.12 414.93,383.12 415.68,383.12 416.42,383.12 417.17,383.12 417.92,383.12 418.67,383.12 419.41,383.12 420.16,383.12 420.91,383.12 421.65,383.12 422.4,383.12 423.15,383.12 423.9,383.12 424.64,383.12 425.39,383.12 426.14,383.12 426.89,383.12 427.63,383.12 428.38,383.12 429.13,383.12 429.87,383.12 430.62,383.12 431.37,383.12 432.12,383.12 432.86,383.12 433.61,383.12 434.36,383.12 435.1,383.12 435.85,383.12 436.6,383.12 436.6,383.12 435.85,383.12 435.1,383.12 434.36,383.12 433.61,383.12 432.86,383.12 432.12,383.12 431.37,383.12 430.62,383.12 429.87,383.12 429.13,383.12 428.38,383.12 427.63,383.12 426.89,383.12 426.14,383.12 425.39,383.12 424.64,383.12 423.9,383.12 423.15,383.12 422.4,383.12 421.65,383.12 420.91,383.12 420.16,383.12 419.41,383.12 418.67,383.12 417.92,383.12 417.17,383.12 416.42,383.12 415.68,383.12 414.93,383.12 414.18,383.12 413.44,383.12 412.69,383.12 411.94,383.12 411.19,383.12 410.45,383.12 409.7,383.12 408.95,383.12 408.21,383.12 407.46,383.12 406.71,383.12 405.96,383.12 405.22,383.12 404.47,383.12 403.72,383.12 402.98,383.12 402.23,383.12 401.48,383.12 400.73,383.12 399.99,383.12 399.24,383.12 398.49,383.12 397.75,383.12 397,383.12 396.25,383.12 395.5,383.12 394.76,383.12 394.01,383.12 393.26,383.12 392.52,383.12 391.77,383.12 391.02,383.12 390.27,383.12 389.53,383.12 388.78,383.12 388.03,383.12 387.29,383.12 386.54,383.12 385.79,383.12 385.04,383.12 384.3,383.12 383.55,383.12 382.8,383.12 382.06,383.12 381.31,383.12 380.56,383.12 379.81,383.12 379.07,383.12 378.32,383.12 377.57,383.12 376.83,383.12 376.08,383.12 375.33,383.12 374.58,383.12 373.84,383.12 373.09,383.12 372.34,383.12 371.59,383.12 370.85,383.12 370.1,383.12 369.35,383.12 368.61,383.12 367.86,383.12 367.11,383.12 366.36,383.12 365.62,383.12 364.87,383.12 364.12,383.12 363.38,383.12 362.63,383.12 361.88,383.12 361.13,383.12 360.39,383.12 359.64,383.12 358.89,383.12 358.15,383.12 357.4,383.12 356.65,383.12 355.9,383.12 355.16,383.12 354.41,383.12 353.66,383.12 352.92,383.12 352.17,383.12 351.42,383.12 350.67,383.12 349.93,383.12 349.18,383.12 348.43,383.12 347.69,383.12 346.94,383.12 346.19,383.12 345.44,383.12 344.7,383.12 343.95,383.12 343.2,383.12 342.46,383.12 341.71,383.12 340.96,383.12 340.21,383.12 339.47,383.12 338.72,383.12 337.97,383.12 337.23,383.12 336.48,383.12 335.73,383.12 334.98,383.12 334.24,383.12 333.49,383.12 332.74,383.12 332,383.12 331.25,383.12 330.5,383.12 329.75,383.12 329.01,383.12 328.26,383.12 327.51,383.12 326.77,383.12 326.02,383.12 325.27,383.12 324.52,383.12 323.78,383.12 323.03,383.12 322.28,383.12 321.54,383.12 320.79,383.12 320.04,383.12 319.29,383.12 318.55,383.12 317.8,383.12 317.05,383.12 316.3,383.12 315.56,383.12 314.81,383.12 314.06,383.12 313.32,383.12 312.57,383.12 311.82,383.12 311.07,383.12 310.33,383.12 309.58,383.12 308.83,383.12 308.09,383.12 307.34,383.12 306.59,383.12 305.84,383.12 305.1,383.12 304.35,383.12 303.6,383.12 302.86,383.12 302.11,383.12 301.36,383.12 300.61,383.12 299.87,383.12 299.12,383.12 298.37,383.12 297.63,383.12 296.88,383.12 296.13,383.12 295.38,383.12 294.64,383.12 293.89,383.12 293.14,383.12 292.4,383.12 291.65,383.12 290.9,383.12 290.15,383.12 289.41,383.12 288.66,383.12 287.91,383.12 287.17,383.12 286.42,383.12 285.67,383.12 284.92,383.12 284.18,383.12 283.43,383.12 282.68,383.12 281.94,383.12 281.19,383.12 280.44,383.12 279.69,383.12 278.95,383.12 278.2,383.12 277.45,383.12 276.71,383.12 275.96,383.12 275.21,383.12 274.46,383.12 273.72,383.12 272.97,383.12 272.22,383.12 271.48,383.12 270.73,383.12 269.98,383.12 269.23,383.12 268.49,383.12 267.74,383.12 266.99,383.12 266.24,383.12 265.5,383.12 264.75,383.12 264,383.12 263.26,383.12 262.51,383.12 261.76,383.12 261.01,383.12 260.27,383.12 259.52,383.12 258.77,383.12 258.03,383.12 257.28,383.12 256.53,383.12 255.78,383.12 255.04,383.12 254.29,383.12 253.54,383.12 252.8,383.12 252.05,383.12 251.3,383.12 250.55,383.12 249.81,383.12 249.06,383.12 248.31,383.12 247.57,383.12 246.82,383.12 246.07,383.12 245.32,383.12 244.58,383.12 243.83,383.12 243.08,383.12 242.34,383.12 241.59,383.12 240.84,383.12 240.09,383.12 239.35,383.12 238.6,383.12 237.85,383.12 237.11,383.12 236.36,383.12 235.61,383.12 234.86,383.12 234.12,383.12 233.37,383.12 232.62,383.12 231.88,383.12 231.13,383.12 230.38,383.12 229.63,383.12 228.89,383.12 228.14,383.12 227.39,383.12 226.65,383.12 225.9,383.12 225.15,383.12 224.4,383.12 223.66,383.12 222.91,383.12 222.16,383.12 221.42,383.12 220.67,383.12 219.92,383.12 219.17,383.12 218.43,383.12 217.68,383.12 216.93,383.12 216.18,383.12 215.44,383.12 214.69,383.12 213.94,383.12 213.2,383.12 212.45,383.12 211.7,383.12 210.95,383.12 210.21,383.12 209.46,383.12 208.71,383.12 207.97,383.12 207.22,383.12 206.47,383.12 205.72,383.12 204.98,383.12 204.23,383.12 203.48,383.12 202.74,383.12 201.99,383.12 201.24,383.12 200.49,383.12 199.75,383.12 199,383.12 198.25,383.12 197.51,383.12 196.76,383.12 196.01,383.12 195.26,383.12 194.52,383.12 193.77,383.12 193.02,383.12 192.28,383.12 191.53,383.12 190.78,383.12 190.03,383.12 189.29,383.12 188.54,383.12 187.79,383.12 187.05,383.12 186.3,383.12 185.55,383.12 184.8,383.12 184.06,383.12 183.31,383.12 182.56,383.12 181.82,383.12 181.07,383.12 180.32,383.12 179.57,383.12 178.83,383.12 178.08,383.12 177.33,383.12 176.59,383.12 175.84,383.12 175.09,383.12 174.34,383.12 173.6,383.12 172.85,383.12 172.1,383.12 171.36,383.12 170.61,383.12 169.86,383.12 169.11,383.12 168.37,383.12 167.62,383.12 166.87,383.12 166.13,383.12 165.38,383.12 164.63,383.12 163.88,383.12 163.14,383.12 162.39,383.12 161.64,383.12 160.89,383.12 160.15,383.12 159.4,383.12 158.65,383.12 157.91,383.12 157.16,383.12 156.41,383.12 155.66,383.12 154.92,383.12 154.17,383.12 153.42,383.12 152.68,383.12 151.93,383.12 151.18,383.12 150.43,383.12 149.69,383.12 148.94,383.12 148.19,383.12 147.45,383.12 146.7,383.12 145.95,383.12 145.2,383.12 144.46,383.12 143.71,383.12 142.96,383.12 142.22,383.12 141.47,383.12 140.72,383.12 139.97,383.12 139.23,383.12 138.48,383.12 137.73,383.12 136.99,383.12 136.24,383.12 135.49,383.12 134.74,383.12 134,383.12 133.25,383.12 132.5,383.12 131.76,383.12 131.01,383.12 130.26,383.12 129.51,383.12 128.77,383.12 128.02,383.12 127.27,383.12 126.53,383.12 125.78,383.12 125.03,383.12 124.28,383.12 123.54,383.12 122.79,383.12 122.04,383.12 121.3,383.12 120.55,383.12 119.8,383.12 119.05,383.12 118.31,383.12 117.56,383.12 116.81,383.12 116.07,383.12 115.32,383.12 114.57,383.12 113.82,383.12 113.08,383.12 112.33,383.12 111.58,383.12 110.83,383.12 110.09,383.12 109.34,383.12 108.59,383.12 107.85,383.12 107.1,383.12 106.35,383.12 105.6,383.12 104.86,383.12 104.11,383.12 103.36,383.12 102.62,383.12 101.87,383.12 101.12,383.12 100.37,383.12 99.63,383.12 98.88,383.12 98.13,383.12 97.39,383.12 96.64,383.12 95.89,383.12 95.14,383.12 94.4,383.12 93.65,383.12 92.9,383.12 92.16,383.12 91.41,383.12 90.66,383.12 89.91,383.12 89.17,383.12 88.42,383.12 87.67,383.12 86.93,383.12 86.18,383.12 85.43,383.12 84.68,383.12 83.94,383.12 83.19,383.12 82.44,383.12 81.7,383.12 80.95,383.12 80.2,383.12 79.45,383.12 78.71,383.12 77.96,383.12 77.21,383.12 76.47,383.12 75.72,383.12 74.97,383.12 74.22,383.12 73.48,383.12 72.73,383.12 71.98,383.12 71.24,383.12 70.49,383.12 69.74,383.12 68.99,383.12 68.25,383.12 67.5,383.12 66.75,383.12 66.01,383.12 65.26,383.12 64.51,383.12 63.76,383.12 63.02,383.12 62.27,383.12 61.52,383.12 60.78,383.12 60.03,383.12 59.28,383.12 58.53,383.12 57.79,383.12 57.04,383.12 56.29,383.12 55.54,383.12 54.8,383.12" style="fill: url(#simple-70A700FF); stroke-width: 1.07" clip-path="url(#clip_35_71_400_26_455_69_23_35)" />
  <defs>
    <pattern id="simple-70B700FF" width="17" height="17" patternTransform="rotate(45 0 0)" patternUnits="userSpaceOnUse">
      <rect style="fill:#ffffff; fill-opacity:1; stroke:none;" width="100%" height="100%" />
      <g style="stroke:#000000; stroke-width:13.6; stroke-opacity:1;">
        <line x1="0" y1="0" x2="0" y2="17" />
        <line x1="0" y1="0" x2="17" y2="0" />
      </g>
    </pattern>
  </defs>
  <polygon points="54.8,383.12 55.54,383.12 56.29,383.12 57.04,383.12 57.79,383.12 58.53,383.12 59.28,383.12 60.03,383.12 60.78,383.12 61.52,383.12 62.27,383.12 63.02,383.12 63.76,383.12 64.51,383.12 65.26,383.12 66.01,383.12 66.75,383.12 67.5,383.12 68.25,383.12 68.99,383.12 69.74,383.12 70.49,383.12 71.24,383.12 71.98,383.12 72.73,383.12 73.48,383.12 74.22,383.12 74.97,383.12 75.72,383.12 76.47,383.12 77.21,383.12 77.96,383.12 78.71,383.12 79.45,383.12 80.2,383.12 80.95,383.12 81.7,383.12 82.44,383.12 83.19,383.12 83.94,383.12 84.68,383.12 85.43,383.12 86.18,383.12 86.93,383.12 87.67,383.12 88.42,383.12 89.17,383.12 89.91,383.12 90.66,383.12 91.41,383.12 92.16,383.12 92.9,383.12 93.65,383.12 94.4,383.12 95.14,383.12 95.89,383.12 96.64,383.12 97.39,383.12 98.13,383.12 98.88,383.12 99.63,383.12 100.37,383.12 101.12,383.12 101.87,383.12 102.62,383.12 103.36,383.12 104.11,383.12 104.86,383.12 105.6,383.12 106.35,383.12 107.1,383.12 107.85,383.12 108.59,383.12 109.34,383.12 110.09,383.12 110.83,383.12 111.58,383.12 112.33,383.11 113.08,383.09 113.82,383.05 114.57,382.96 115.32,382.77 116.07,382.4 116.81,381.71 117.56,380.46 118.31,378.31 119.05,374.78 119.8,369.23 120.55,360.86 121.3,348.79 122.04,332.13 122.79,310.15 123.54,282.45 124.28,249.14 125.03,211.16 125.78,170.94 126.53,131.28 127.27,95.43 128.02,66.65 128.77,47.72 129.51,40.48 130.26,45.46 131.01,61.75 131.76,87.07 132.5,118.04 133.25,150.64 134,180.71 134.74,203.9 135.49,217.24 136.24,219.46 136.99,210.38 137.73,191.16 138.48,164.16 139.23,132.7 139.97,100.72 140.72,72.33 141.47,51.31 142.22,40.6 142.96,41.93 143.71,55.56 144.46,80.39 145.2,114.26 145.95,153.02 146.7,193.35 147.45,232.3 148.19,267.65 148.94,297.98 149.69,322.69 150.43,341.86 151.18,356.03 151.93,366.04 152.68,372.77 153.42,377.11 154.17,379.77 154.92,381.3 155.66,382.16 156.41,382.63 157.16,382.88 157.91,383.01 158.65,383.07 159.4,383.1 160.15,383.11 160.89,383.12 161.64,383.12 162.39,383.12 163.14,383.12 163.88,383.12 164.63,383.12 165.38,383.12 166.13,383.12 166.87,383.12 167.62,383.12 168.37,383.12 169.11,383.12 169.86,383.12 170.61,383.12 171.36,383.12 172.1,383.12 172.85,383.12 173.6,383.12 174.34,383.12 175.09,383.12 175.84,383.12 176.59,383.12 177.33,383.12 178.08,383.12 178.83,383.12 179.57,383.12 180.32,383.12 181.07,383.12 181.82,383.12 182.56,383.12 183.31,383.12 184.06,383.12 184.8,383.12 185.55,383.12 186.3,383.12 187.05,383.12 187.79,383.12 188.54,383.12 189.29,383.12 190.03,383.12 190.78,383.12 191.53,383.12 192.28,383.12 193.02,383.12 193.77,383.12 194.52,383.12 195.26,383.12 196.01,383.12 196.76,383.12 197.51,383.12 198.25,383.12 199,383.12 199.75,383.12 200.49,383.12 201.24,383.12 201.99,383.12 202.74,383.12 203.48,383.12 204.23,383.12 204.98,383.12 205.72,383.12 206.47,383.12 207.22,383.12 207.97,383.12 208.71,383.12 209.46,383.12 210.21,383.12 210.95,383.12 211.7,383.12 212.45,383.12 213.2,383.12 213.94,383.12 214.69,383.12 215.44,383.12 216.18,383.12 216.93,383.12 217.68,383.12 218.43,383.12 219.17,383.12 219.92,383.12 220.67,383.12 221.42,383.12 222.16,383.12 222.91,383.12 223.66,383.12 224.4,383.12 225.15,383.12 225.9,383.12 226.65,383.12 227.39,383.12 228.14,383.12 228.89,383.12 229.63,383.12 230.38,383.12 231.13,383.12 231.88,383.12 232.62,383.12 233.37,383.12 234.12,383.12 234.86,383.12 235.61,383.12 236.36,383.12 237.11,383.12 237.85,383.12 238.6,383.12 239.35,383.12 240.09,383.12 240.84,383.12 241.59,383.12 242.34,383.12 243.08,383.12 243.83,383.12 244.58,383.12 245.32,383.12 246.07,383.12 246.82,383.12 247.57,383.12 248.31,383.12 249.06,383.12 249.81,383.12 250.55,383.12 251.3,383.12 252.05,383.12 252.8,383.12 253.54,383.12 254.29,383.12 255.04,383.12 255.78,383.12 256.53,383.12 257.28,383.12 258.03,383.12 258.77,383.12 259.52,383.12 260.27,383.12 261.01,383.12 261.76,383.12 262.51,383.12 263.26,383.12 264,383.12 264.75,383.12 265.5,383.12 266.24,383.12 266.99,383.12 267.74,383.12 268.49,383.12 269.23,383.12 269.98,383.12 270.73,383.12 271.48,383.12 272.22,383.12 272.97,383.12 273.72,383.12 274.46,383.12 275.21,383.12 275.96,383.12 276.71,383.12 277.45,383.12 278.2,383.12 278.95,383.12 279.69,383.12 280.44,383.12 281.19,383.12 281.94,383.12 282.68,383.12 283.43,383.12 284.18,383.12 284.92,383.12 285.67,383.12 286.42,383.12 287.17,383.12 287.91,383.12 288.66,383.12 289.41,383.12 290.15,383.12 290.9,383.12 291.65,383.12 292.4,383.12 293.14,383.12 293.89,383.12 294.64,383.12 295.38,383.12 296.13,383.12 296.88,383.12 297.63,383.12 298.37,383.12 299.12,383.12 299.87,383.12 300.61,383.12 301.36,383.12 302.11,383.12 302.86,383.12 303.6,383.12 304.35,383.12 305.1,383.12 305.84,383.12 306.59,383.12 307.34,383.12 308.09,383.12 308.83,383.12 309.58,383.12 310.33,383.12 311.07,383.12 311.82,383.12 312.57,383.12 313.32,383.12 314.06,383.12 314.81,383.12 315.56,383.12 316.3,383.12 317.05,383.12 317.8,383.12 318.55,383.12 319.29,383.12 320.04,383.12 320.79,383.12 321.54,383.12 322.28,383.12 323.03,383.12 323.78,383.12 324.52,383.12 325.27,383.12 326.02,383.12 326.77,383.12 327.51,383.12 328.26,383.12 329.01,383.12 329.75,383.12 330.5,383.12 331.25,383.12 332,383.12 332.74,383.12 333.49,383.12 334.24,383.12 334.98,383.12 335.73,383.12 336.48,383.12 337.23,383.12 337.97,383.12 338.72,383.12 339.47,383.12 340.21,383.12 340.96,383.12 341.71,383.12 342.46,383.12 343.2,383.12 343.95,383.12 344.7,383.12 345.44,383.12 346.19,383.12 346.94,383.12 347.69,383.12 348.43,383.12 349.18,383.12 349.93,383.12 350.67,383.12 351.42,383.12 352.17,383.12 352.92,383.12 353.66,383.12 354.41,383.12 355.16,383.12 355.9,383.12 356.65,383.12 357.4,383.12 358.15,383.12 358.89,383.12 359.64,383.12 360.39,383.12 361.13,383.12 361.88,383.12 362.63,383.12 363.38,383.12 364.12,383.12 364.87,383.12 365.62,383.12 366.36,383.12 367.11,383.12 367.86,383.12 368.61,383.12 369.35,383.12 370.1,383.12 370.85,383.12 371.59,383.12 372.34,383.12 373.09,383.12 373.84,383.12 374.58,383.12 375.33,383.12 376.08,383.12 376.83,383.12 377.57,383.12 378.32,383.12 379.07,383.12 379.81,383.12 380.56,383.12 381.31,383.12 382.06,383.12 382.8,383.12 383.55,383.12 384.3,383.12 385.04,383.12 385.79,383.12 386.54,383.12 387.29,383.12 388.03,383.12 388.78,383.12 389.53,383.12 390.27,383.12 391.02,383.12 391.77,383.12 392.52,383.12 393.26,383.12 394.01,383.12 394.76,383.12 395.5,383.12 396.25,383.12 397,383.12 397.75,383.12 398.49,383.12 399.24,383.12 399.99,383.12 400.73,383.12 401.48,383.12 402.23,383.12 402.98,383.12 403.72,383.12 404.47,383.12 405.22,383.12 405.96,383.12 406.71,383.12 407.46,383.12 408.21,383.12 408.95,383.12 409.7,383.12 410.45,383.12 411.19,383.12 411.94,383.12 412.69,383.12 413.44,383.12 414.18,383.12 414.93,383.12 415.68,383.12 416.42,383.12 417.17,383.12 417.92,383.12 418.67,383.12 419.41,383.12 420.16,383.12 420.91,383.12 421.65,383.12 422.4,383.12 423.15,383.12 423.9,383.12 424.64,383.12 425.39,383.12 426.14,383.12 426.89,383.12 427.63,383.12 428.38,383.12 429.13,383.12 429.87,383.12 430.62,383.12 431.37,383.12 432.12,383.12 432.86,383.12 433.61,383.12 434.36,383.12 435.1,383.12 435.85,383.12 436.6,383.12 436.6,383.12 435.85,383.12 435.1,383.12 434.36,383.12 433.61,383.12 432.86,383.12 432.12,383.12 431.37,383.12 430.62,383.12 429.87,383.12 429.13,383.12 428.38,383.12 427.63,383.12 426.89,383.12 426.14,383.12 425.39,383.12 424.64,383.12 423.9,383.12 423.15,383.12 422.4,383.12 421.65,383.12 420.91,383.12 420.16,383.12 419.41,383.12 418.67,383.12 417.92,383.12 417.17,383.12 416.42,383.12 415.68,383.12 414.93,383.12 414.18,383.12 413.44,383.12 412.69,383.12 411.94,383.12 411.19,383.12 410.45,383.12 409.7,383.12 408.95,383.12 408.21,383.12 407.46,383.12 406.71,383.12 405.96,383.12 405.22,383.12 404.47,383.12 403.72,383.12 402.98,383.12 402.23,383.12 401.48,383.12 400.73,383.12 399.99,383.12 399.24,383.12 398.49,383.12 397.75,383.12 397,383.12 396.25,383.12 395.5,383.12 394.76,383.12 394.01,383.12 393.26,383.12 392.52,383.12 391.77,383.12 391.02,383.12 390.27,383.12 389.53,383.12 388.78,383.12 388.03,383.12 387.29,383.12 386.54,383.12 385.79,383.12 385.04,383.12 384.3,383.12 383.55,383.12 382.8,383.12 382.06,383.12 381.31,383.12 380.56,383.12 379.81,383.12 379.07,383.12 378.32,383.12 377.57,383.12 376.83,383.12 376.08,383.12 375.33,383.12 374.58,383.12 373.84,383.12 373.09,383.12 372.34,383.12 371.59,383.12 370.85,383.12 370.1,383.12 369.35,383.12 368.61,383.12 367.86,383.12 367.11,383.12 366.36,383.12 365.62,383.12 364.87,383.12 364.12,383.12 363.38,383.12 362.63,383.12 361.88,383.12 361.13,383.12 360.39,383.12 359.64,383.12 358.89,383.12 358.15,383.12 357.4,383.12 356.65,383.12 355.9,383.12 355.16,383.12 354.41,383.12 353.66,383.12 352.92,383.12 352.17,383.12 351.42,383.12 350.67,383.12 349.93,383.12 349.18,383.12 348.43,383.12 347.69,383.12 346.94,383.12 346.19,383.12 345.44,383.12 344.7,383.12 343.95,383.12 343.2,383.12 342.46,383.12 341.71,383.12 340.96,383.12 340.21,383.12 339.47,383.12 338.72,383.12 337.97,383.12 337.23,383.12 336.48,383.12 335.73,383.12 334.98,383.12 334.24,383.12 333.49,383.12 332.74,383.12 332,383.12 331.25,383.12 330.5,383.12 329.75,383.12 329.01,383.12 328.26,383.12 327.51,383.12 326.77,383.12 326.02,383.12 325.27,383.12 324.52,383.12 323.78,383.12 323.03,383.12 322.28,383.12 321.54,383.12 320.79,383.12 320.04,383.12 319.29,383.12 318.55,383.12 317.8,383.12 317.05,383.12 316.3,383.12 315.56,383.12 314.81,383.12 314.06,383.12 313.32,383.12 312.57,383.12 311.82,383.12 311.07,383.12 310.33,383.12 309.58,383.12 308.83,383.12 308.09,383.12 307.34,383.12 306.59,383.12 305.84,383.12 305.1,383.12 304.35,383.12 303.6,383.12 302.86,383.12 302.11,383.12 301.36,383.12 300.61,383.12 299.87,383.12 299.12,383.12 298.37,383.12 297.63,383.12 296.88,383.12 296.13,383.12 295.38,383.12 294.64,383.12 293.89,383.12 293.14,383.12 292.4,383.12 291.65,383.12 290.9,383.12 290.15,383.12 289.41,383.12 288.66,383.12 287.91,383.12 287.17,383.12 286.42,383.12 285.67,383.12 284.92,383.12 284.18,383.12 283.43,383.12 282.68,383.12 281.94,383.12 281.19,383.12 280.44,383.12 279.69,383.12 278.95,383.12 278.2,383.12 277.45,383.12 276.71,383.12 275.96,383.12 275.21,383.12 274.46,383.12 273.72,383.12 272.97,383.12 272.22,383.12 271.48,383.12 270.73,383.12 269.98,383.12 269.23,383.12 268.49,383.12 267.74,383.12 266.99,383.12 266.24,383.12 265.5,383.12 264.75,383.12 264,383.12 263.26,383.12 262.51,383.12 261.76,383.12 261.01,383.12 260.27,383.12 259.52,383.12 258.77,383.12 258.03,383.12 257.28,383.12 256.53,383.12 255.78,383.12 255.04,383.12 254.29,383.12 253.54,383.12 252.8,383.12 252.05,383.12 251.3,383.12 250.55,383.12 249.81,383.12 249.06,383.12 248.31,383.12 247.57,383.12 246.82,383.12 246.07,383.12 245.32,383.12 244.58,383.12 243.83,383.12 243.08,383.12 242.34,383.12 241.59,383.12 240.84,383.12 240.09,383.12 239.35,383.12 238.6,383.12 237.85,383.12 237.11,383.12 236.36,383.12 235.61,383.12 234.86,383.12 234.12,383.12 233.37,383.12 232.62,383.12 231.88,383.12 231.13,383.12 230.38,383.12 229.63,383.12 228.89,383.12 228.14,383.12 227.39,383.12 226.65,383.12 225.9,383.12 225.15,383.12 224.4,383.12 223.66,383.12 222.91,383.12 222.16,383.12 221.42,383.12 220.67,383.12 219.92,383.12 219.17,383.12 218.43,383.12 217.68,383.12 216.93,383.12 216.18,383.12 215.44,383.12 214.69,383.12 213.94,383.12 213.2,383.12 212.45,383.12 211.7,383.12 210.95,383.12 210.21,383.12 209.46,383.12 208.71,383.12 207.97,383.12 207.22,383.12 206.47,383.12 205.72,383.12 204.98,383.12 204.23,383.12 203.48,383.12 202.74,383.12 201.99,383.12 201.24,383.12 200.49,383.12 199.75,383.12 199,383.12 198.25,383.12 197.51,383.12 196.76,383.12 196.01,383.12 195.26,383.12 194.52,383.12 193.77,383.12 193.02,383.12 192.28,383.12 191.53,383.12 190.78,383.12 190.03,383.12 189.29,383.12 188.54,383.12 187.79,383.12 187.05,383.12 186.3,383.12 185.55,383.12 184.8,383.12 184.06,383.12 183.31,383.12 182.56,383.12 181.82,383.12 181.07,383.12 180.32,383.12 179.57,383.12 178.83,383.12 178.08,383.12 177.33,383.12 176.59,383.12 175.84,383.12 175.09,383.12 174.34,383.12 173.6,383.12 172.85,383.12 172.1,383.12 171.36,383.12 170.61,383.12 169.86,383.12 169.11,383.12 168.37,383.12 167.62,383.12 166.87,383.12 166.13,383.12 165.38,383.12 164.63,383.12 163.88,383.12 163.14,383.12 162.39,383.12 161.64,383.12 160.89,383.12 160.15,383.12 159.4,383.12 158.65,383.12 157.91,383.12 157.16,383.12 156.41,383.12 155.66,383.12 154.92,383.12 154.17,383.12 153.42,383.12 152.68,383.12 151.93,383.12 151.18,383.12 150.43,383.12 149.69,383.12 148.94,383.12 148.19,383.12 147.45,383.12 146.7,383.12 145.95,383.12 145.2,383.12 144.46,383.12 143.71,383.12 142.96,383.12 142.22,383.12 141.47,383.12 140.72,383.12 139.97,383.12 139.23,383.12 138.48,383.12 137.73,383.12 136.99,383.12 136.24,383.12 135.49,383.12 134.74,383.12 134,383.12 133.25,383.12 132.5,383.12 131.76,383.12 131.01,383.12 130.26,383.12 129.51,383.12 128.77,383.12 128.02,383.12 127.27,383.12 126.53,383.12 125.78,383.12 125.03,383.12 124.28,383.12 123.54,383.12 122.79,383.12 122.04,383.12 121.3,383.12 120.55,383.12 119.8,383.12 119.05,383.12 118.31,383.12 117.56,383.12 116.81,383.12 116.07,383.12 115.32,383.12 114.57,383.12 113.82,383.12 113.08,383.12 112.33,383.12 111.58,383.12 110.83,383.12 110.09,383.12 109.34,383.12 108.59,383.12 107.85,383.12 107.1,383.12 106.35,383.12 105.6,383.12 104.86,383.12 104.11,383.12 103.36,383.12 102.62,383.12 101.87,383.12 101.12,383.12 100.37,383.12 99.63,383.12 98.88,383.12 98.13,383.12 97.39,383.12 96.64,383.12 95.89,383.12 95.14,383.12 94.4,383.12 93.65,383.12 92.9,383.12 92.16,383.12 91.41,383.12 90.66,383.12 89.91,383.12 89.17,383.12 88.42,383.12 87.67,383.12 86.93,383.12 86.18,383.12 85.43,383.12 84.68,383.12 83.94,383.12 83.19,383.12 82.44,383.12 81.7,383.12 80.95,383.12 80.2,383.12 79.45,383.12 78.71,383.12 77.96,383.12 77.21,383.12 76.47,383.12 75.72,383.12 74.97,383.12 74.22,383.12 73.48,383.12 72.73,383.12 71.98,383.12 71.24,383.12 70.49,383.12 69.74,383.12 68.99,383.12 68.25,383.12 67.5,383.12 66.75,383.12 66.01,383.12 65.26,383.12 64.51,383.12 63.76,383.12 63.02,383.12 62.27,383.12 61.52,383.12 60.78,383.12 60.03,383.12 59.28,383.12 58.53,383.12 57.79,383.12 57.04,383.12 56.29,383.12 55.54,383.12 54.8,383.12" style="fill: url(#simple-70B700FF); stroke-width: 1.07" clip-path="url(#clip_35_71_400_26_455_69_23_35)" />
  <rect style="fill: #FFFFFF; fill-opacity: 0; stroke: #333333; stroke-width: 1.07" clip-path="url(#clip_35_71_400_26_455_69_23_35)" x="35.71" y="23.35" width="419.98" height="376.91" />
  <g clip-path="url(#clip_0_432_576_0)">
    <text textLength="12.23px" style="font-size: 8.8px; font-family: Helvetica; fill: #4D4D4D" x="18.55" y="386.28" lengthAdjust="spacingAndGlyphs">
      0.0
    </text>
  </g>
  <g clip-path="url(#clip_0_432_576_0)">
    <text textLength="12.23px" style="font-size: 8.8px; font-family: Helvetica; fill: #4D4D4D" x="18.55" y="305.29" lengthAdjust="spacingAndGlyphs">
      0.2
    </text>
  </g>
  <g clip-path="url(#clip_0_432_576_0)">
    <text textLength="12.23px" style="font-size: 8.8px; font-family: Helvetica; fill: #4D4D4D" x="18.55" y="224.3" lengthAdjust="spacingAndGlyphs">
      0.4
    </text>
  </g>
  <g clip-path="url(#clip_0_432_576_0)">
    <text textLength="12.23px" style="font-size: 8.8px; font-family: Helvetica; fill: #4D4D4D" x="18.55" y="143.32" lengthAdjust="spacingAndGlyphs">
      0.6
    </text>
  </g>
  <g clip-path="url(#clip_0_432_576_0)">
    <text textLength="12.23px" style="font-size: 8.8px; font-family: Helvetica; fill: #4D4D4D" x="18.55" y="62.33" lengthAdjust="spacingAndGlyphs">
      0.8
    </text>
  </g>
  <polyline points="32.97,383.12 35.71,383.12" style="stroke: #333333; stroke-width: 1.07" clip-path="url(#clip_0_432_576_0)" />
  <polyline points="32.97,302.14 35.71,302.14" style="stroke: #333333; stroke-width: 1.07" clip-path="url(#clip_0_432_576_0)" />
  <polyline points="32.97,221.15 35.71,221.15" style="stroke: #333333; stroke-width: 1.07" clip-path="url(#clip_0_432_576_0)" />
  <polyline points="32.97,140.16 35.71,140.16" style="stroke: #333333; stroke-width: 1.07" clip-path="url(#clip_0_432_576_0)" />
  <polyline points="32.97,59.17 35.71,59.17" style="stroke: #333333; stroke-width: 1.07" clip-path="url(#clip_0_432_576_0)" />
  <polyline points="48.3,403 48.3,400.26" style="stroke: #333333; stroke-width: 1.07" clip-path="url(#clip_0_432_576_0)" />
  <polyline points="129.53,403 129.53,400.26" style="stroke: #333333; stroke-width: 1.07" clip-path="url(#clip_0_432_576_0)" />
  <polyline points="210.77,403 210.77,400.26" style="stroke: #333333; stroke-width: 1.07" clip-path="url(#clip_0_432_576_0)" />
  <polyline points="292,403 292,400.26" style="stroke: #333333; stroke-width: 1.07" clip-path="url(#clip_0_432_576_0)" />
  <polyline points="373.24,403 373.24,400.26" style="stroke: #333333; stroke-width: 1.07" clip-path="url(#clip_0_432_576_0)" />
  <polyline points="454.47,403 454.47,400.26" style="stroke: #333333; stroke-width: 1.07" clip-path="url(#clip_0_432_576_0)" />
  <g clip-path="url(#clip_0_432_576_0)">
    <text textLength="9.78px" style="font-size: 8.8px; font-family: Helvetica; fill: #4D4D4D" x="43.41" y="411.5" lengthAdjust="spacingAndGlyphs">
      10
    </text>
  </g>
  <g clip-path="url(#clip_0_432_576_0)">
    <text textLength="9.78px" style="font-size: 8.8px; font-family: Helvetica; fill: #4D4D4D" x="124.64" y="411.5" lengthAdjust="spacingAndGlyphs">
      15
    </text>
  </g>
  <g clip-path="url(#clip_0_432_576_0)">
    <text textLength="9.78px" style="font-size: 8.8px; font-family: Helvetica; fill: #4D4D4D" x="205.87" y="411.5" lengthAdjust="spacingAndGlyphs">
      20
    </text>
  </g>
  <g clip-path="url(#clip_0_432_576_0)">
    <text textLength="9.78px" style="font-size: 8.8px; font-family: Helvetica; fill: #4D4D4D" x="287.11" y="411.5" lengthAdjust="spacingAndGlyphs">
      25
    </text>
  </g>
  <g clip-path="url(#clip_0_432_576_0)">
    <text textLength="9.78px" style="font-size: 8.8px; font-family: Helvetica; fill: #4D4D4D" x="368.34" y="411.5" lengthAdjust="spacingAndGlyphs">
      30
    </text>
  </g>
  <g clip-path="url(#clip_0_432_576_0)">
    <text textLength="9.78px" style="font-size: 8.8px; font-family: Helvetica; fill: #4D4D4D" x="449.58" y="411.5" lengthAdjust="spacingAndGlyphs">
      35
    </text>
  </g>
  <g clip-path="url(#clip_0_432_576_0)">
    <text textLength="21.4px" style="font-size: 11px; font-family: Helvetica" x="235" y="424.08" lengthAdjust="spacingAndGlyphs">
      mpg
    </text>
  </g>
  <g clip-path="url(#clip_0_432_576_0)">
    <text textLength="34.85px" style="font-size: 11px; font-family: Helvetica" x="13.37" y="229.23" lengthAdjust="spacingAndGlyphs" transform="rotate(-90 13.37 229.23)">
      density
    </text>
  </g>
  <rect style="fill: #FFFFFF; stroke: none" clip-path="url(#clip_0_432_576_0)" x="466.65" y="96.37" width="103.87" height="230.86" />
  <g clip-path="url(#clip_0_432_576_0)">
    <text textLength="92.91px" style="font-size: 11px; font-family: Helvetica" x="472.13" y="110.96" lengthAdjust="spacingAndGlyphs">
      interaction(cyl, am)
    </text>
  </g>
  <rect style="fill: #FFFFFF; stroke: none" clip-path="url(#clip_0_432_576_0)" x="472.13" y="117.66" width="34.02" height="34.02" />
  <rect style="fill: url(#simple-289700FF); stroke-width: 1.07" clip-path="url(#clip_0_432_576_0)" x="472.84" y="118.37" width="32.6" height="32.6" />
  <rect style="fill: #FFFFFF; stroke: none" clip-path="url(#clip_0_432_576_0)" x="472.13" y="151.67" width="34.02" height="34.02" />
  <rect style="fill: url(#simple-28A700FF); stroke-width: 1.07" clip-path="url(#clip_0_432_576_0)" x="472.84" y="152.38" width="32.6" height="32.6" />
  <rect style="fill: #FFFFFF; stroke: none" clip-path="url(#clip_0_432_576_0)" x="472.13" y="185.69" width="34.02" height="34.02" />
  <rect style="fill: url(#simple-28B700FF); stroke-width: 1.07" clip-path="url(#clip_0_432_576_0)" x="472.84" y="186.4" width="32.6" height="32.6" />
  <rect style="fill: #FFFFFF; stroke: none" clip-path="url(#clip_0_432_576_0)" x="472.13" y="219.71" width="34.02" height="34.02" />
  <rect style="fill: url(#simple-709700FF); stroke-width: 1.07" clip-path="url(#clip_0_432_576_0)" x="472.84" y="220.41" width="32.6" height="32.6" />
  <rect style="fill: #FFFFFF; stroke: none" clip-path="url(#clip_0_432_576_0)" x="472.13" y="253.72" width="34.02" height="34.02" />
  <rect style="fill: url(#simple-70A700FF); stroke-width: 1.07" clip-path="url(#clip_0_432_576_0)" x="472.84" y="254.43" width="32.6" height="32.6" />
  <rect style="fill: #FFFFFF; stroke: none" clip-path="url(#clip_0_432_576_0)" x="472.13" y="287.74" width="34.02" height="34.02" />
  <rect style="fill: url(#simple-70B700FF); stroke-width: 1.07" clip-path="url(#clip_0_432_576_0)" x="472.84" y="288.45" width="32.6" height="32.6" />
  <g clip-path="url(#clip_0_432_576_0)">
    <text textLength="12.23px" style="font-size: 8.8px; font-family: Helvetica" x="511.62" y="137.82" lengthAdjust="spacingAndGlyphs">
      4.0
    </text>
  </g>
  <g clip-path="url(#clip_0_432_576_0)">
    <text textLength="12.23px" style="font-size: 8.8px; font-family: Helvetica" x="511.62" y="171.84" lengthAdjust="spacingAndGlyphs">
      6.0
    </text>
  </g>
  <g clip-path="url(#clip_0_432_576_0)">
    <text textLength="12.23px" style="font-size: 8.8px; font-family: Helvetica" x="511.62" y="205.85" lengthAdjust="spacingAndGlyphs">
      8.0
    </text>
  </g>
  <g clip-path="url(#clip_0_432_576_0)">
    <text textLength="12.23px" style="font-size: 8.8px; font-family: Helvetica" x="511.62" y="239.87" lengthAdjust="spacingAndGlyphs">
      4.1
    </text>
  </g>
  <g clip-path="url(#clip_0_432_576_0)">
    <text textLength="12.23px" style="font-size: 8.8px; font-family: Helvetica" x="511.62" y="273.89" lengthAdjust="spacingAndGlyphs">
      6.1
    </text>
  </g>
  <g clip-path="url(#clip_0_432_576_0)">
    <text textLength="12.23px" style="font-size: 8.8px; font-family: Helvetica" x="511.62" y="307.9" lengthAdjust="spacingAndGlyphs">
      8.1
    </text>
  </g>
  <g clip-path="url(#clip_0_432_576_0)">
    <text textLength="207.66px" style="font-size: 13.2px; font-family: Helvetica" x="35.71" y="14.95" lengthAdjust="spacingAndGlyphs">
      scale_fill_pattern_simple() - custom
    </text>
  </g>
</svg>
