<?xml version="1.0" encoding="UTF-8"?>
<svg viewBox="0 0 576 288" xmlns="http://www.w3.org/2000/svg" xmlns:xlink="http://www.w3.org/1999/xlink">
<style type='text/css'>
<![CDATA[

        line, polyline, polygon, path, rect, circle {
          fill: none;
          stroke: #000000;
          stroke-linecap: round;
          stroke-linejoin: round;
          stroke-miterlimit: 10.00;
        }
]]>
</style>
  <rect style="stroke: none; fill: #ffffff" width="100%" height="100%" />
  <defs>
    <clipPath id="clip_0_288_576_0">
      <rect x="0" y="0" width="576" height="288" />
    </clipPath>
  </defs>
  <rect id="rect-0001" style="fill: #FFFFFF; stroke: #FFFFFF; stroke-width: 1.07" clip-path="url(#clip_0_288_576_0)" x="0" y="0" width="576" height="288" />
  <defs>
    <clipPath id="clip_40_6_256_26_485_65_23_35">
      <rect x="40.6" y="23.35" width="445.05" height="232.91" />
    </clipPath>
  </defs>
  <rect id="rect-0002" style="fill: #FFFFFF; stroke: none" clip-path="url(#clip_40_6_256_26_485_65_23_35)" x="40.6" y="23.35" width="445.05" height="232.91" />
  <polyline points="40.6,223.61 485.65,223.61" id="polyline-0001" style="stroke: #EBEBEB; stroke-width: 0.53" clip-path="url(#clip_40_6_256_26_485_65_23_35)" />
  <polyline points="40.6,179.5 485.65,179.5" id="polyline-0002" style="stroke: #EBEBEB; stroke-width: 0.53" clip-path="url(#clip_40_6_256_26_485_65_23_35)" />
  <polyline points="40.6,135.4 485.65,135.4" id="polyline-0003" style="stroke: #EBEBEB; stroke-width: 0.53" clip-path="url(#clip_40_6_256_26_485_65_23_35)" />
  <polyline points="40.6,91.29 485.65,91.29" id="polyline-0004" style="stroke: #EBEBEB; stroke-width: 0.53" clip-path="url(#clip_40_6_256_26_485_65_23_35)" />
  <polyline points="40.6,47.18 485.65,47.18" id="polyline-0005" style="stroke: #EBEBEB; stroke-width: 0.53" clip-path="url(#clip_40_6_256_26_485_65_23_35)" />
  <polyline points="96.98,256.26 96.98,23.35" id="polyline-0006" style="stroke: #EBEBEB; stroke-width: 0.53" clip-path="url(#clip_40_6_256_26_485_65_23_35)" />
  <polyline points="183.07,256.26 183.07,23.35" id="polyline-0007" style="stroke: #EBEBEB; stroke-width: 0.53" clip-path="url(#clip_40_6_256_26_485_65_23_35)" />
  <polyline points="269.15,256.26 269.15,23.35" id="polyline-0008" style="stroke: #EBEBEB; stroke-width: 0.53" clip-path="url(#clip_40_6_256_26_485_65_23_35)" />
  <polyline points="355.23,256.26 355.23,23.35" id="polyline-0009" style="stroke: #EBEBEB; stroke-width: 0.53" clip-path="url(#clip_40_6_256_26_485_65_23_35)" />
  <polyline points="441.32,256.26 441.32,23.35" id="polyline-0010" style="stroke: #EBEBEB; stroke-width: 0.53" clip-path="url(#clip_40_6_256_26_485_65_23_35)" />
  <polyline points="40.6,245.67 485.65,245.67" id="polyline-0011" style="stroke: #EBEBEB; stroke-width: 1.07" clip-path="url(#clip_40_6_256_26_485_65_23_35)" />
  <polyline points="40.6,201.56 485.65,201.56" id="polyline-0012" style="stroke: #EBEBEB; stroke-width: 1.07" clip-path="url(#clip_40_6_256_26_485_65_23_35)" />
  <polyline points="40.6,157.45 485.65,157.45" id="polyline-0013" style="stroke: #EBEBEB; stroke-width: 1.07" clip-path="url(#clip_40_6_256_26_485_65_23_35)" />
  <polyline points="40.6,113.34 485.65,113.34" id="polyline-0014" style="stroke: #EBEBEB; stroke-width: 1.07" clip-path="url(#clip_40_6_256_26_485_65_23_35)" />
  <polyline points="40.6,69.23 485.65,69.23" id="polyline-0015" style="stroke: #EBEBEB; stroke-width: 1.07" clip-path="url(#clip_40_6_256_26_485_65_23_35)" />
  <polyline points="40.6,25.12 485.65,25.12" id="polyline-0016" style="stroke: #EBEBEB; stroke-width: 1.07" clip-path="url(#clip_40_6_256_26_485_65_23_35)" />
  <polyline points="53.94,256.26 53.94,23.35" id="polyline-0017" style="stroke: #EBEBEB; stroke-width: 1.07" clip-path="url(#clip_40_6_256_26_485_65_23_35)" />
  <polyline points="140.03,256.26 140.03,23.35" id="polyline-0018" style="stroke: #EBEBEB; stroke-width: 1.07" clip-path="url(#clip_40_6_256_26_485_65_23_35)" />
  <polyline points="226.11,256.26 226.11,23.35" id="polyline-0019" style="stroke: #EBEBEB; stroke-width: 1.07" clip-path="url(#clip_40_6_256_26_485_65_23_35)" />
  <polyline points="312.19,256.26 312.19,23.35" id="polyline-0020" style="stroke: #EBEBEB; stroke-width: 1.07" clip-path="url(#clip_40_6_256_26_485_65_23_35)" />
  <polyline points="398.27,256.26 398.27,23.35" id="polyline-0021" style="stroke: #EBEBEB; stroke-width: 1.07" clip-path="url(#clip_40_6_256_26_485_65_23_35)" />
  <polyline points="484.36,256.26 484.36,23.35" id="polyline-0022" style="stroke: #EBEBEB; stroke-width: 1.07" clip-path="url(#clip_40_6_256_26_485_65_23_35)" />
  <polygon points="60.8296,245.6671 61.6213,245.667 62.4131,245.6668 63.2048,245.6666 63.9966,245.6665 64.7884,245.6663 65.5801,245.666 66.3719,245.6658 67.1636,245.6655 67.9554,245.6653 68.7472,245.665 69.5389,245.6647 70.3307,245.6643 71.1224,245.6639 71.9142,245.6635 72.706,245.6631 73.4977,245.6627 74.2895,245.6622 75.0812,245.6616 75.873,245.6611 76.6647,245.6605 77.4565,245.6598 78.2483,245.6591 79.04,245.6584 79.8318,245.6575 80.6235,245.6567 81.4153,245.6558 82.2071,245.6548 82.9988,245.6537 83.7906,245.6526 84.5823,245.6514 85.3741,245.6501 86.1659,245.6487 86.9576,245.6472 87.7494,245.6457 88.5411,245.644 89.3329,245.6422 90.1247,245.6402 90.9164,245.6382 91.7082,245.636 92.4999,245.6337 93.2917,245.6312 94.0835,245.6286 94.8752,245.6258 95.667,245.6228 96.4587,245.6197 97.2505,245.6162 98.0423,245.6127 98.834,245.6088 99.6258,245.6048 100.4175,245.6005 101.2093,245.5959 102.0011,245.5911 102.7928,245.5859 103.5846,245.5805 104.3763,245.5746 105.1681,245.5686 105.9599,245.562 106.7516,245.5552 107.5434,245.5478 108.3351,245.5402 109.1269,245.532 109.9187,245.5234 110.7104,245.5142 111.5022,245.5046 112.2939,245.4944 113.0857,245.4836 113.8774,245.4724 114.6692,245.4602 115.461,245.4478 116.2527,245.4342 117.0445,245.4204 117.8362,245.4053 118.628,245.3899 119.4198,245.3733 120.2115,245.356 121.0033,245.3378 121.795,245.3186 122.5868,245.2985 123.3786,245.2771 124.1703,245.2551 124.9621,245.2314 125.7538,245.2073 126.5456,245.181 127.3374,245.1543 128.1291,245.1254 128.9209,245.0959 129.7126,245.0644 130.5044,245.0317 131.2962,244.9973 132.0879,244.9613 132.8797,244.9238 133.6714,244.8841 134.4632,244.8434 135.255,244.7997 136.0467,244.7554 136.8385,244.7074 137.6302,244.6589 138.422,244.6068 139.2138,244.5535 140.0055,244.4972 140.7973,244.4388 141.589,244.3779 142.3808,244.3141 143.1726,244.2483 143.9643,244.1787 144.7561,244.1077 145.5478,244.0319 146.3396,243.9554 147.1314,243.873 147.9231,243.7897 148.7149,243.7012 149.5066,243.6107 150.2984,243.5157 151.0901,243.4176 151.8819,243.3157 152.6737,243.2096 153.4654,243.1004 154.2572,242.9858 155.0489,242.869 155.8407,242.7453 156.6325,242.6205 157.4242,242.4875 158.216,242.353 159.0077,242.2112 159.7995,242.0666 160.5913,241.9157 161.383,241.7606 162.1748,241.6001 162.9665,241.4339 163.7583,241.2636 164.5501,241.0857 165.3418,240.9051 166.1336,240.7151 166.9253,240.5236 167.7171,240.3213 168.5089,240.1171 169.3006,239.9035 170.0924,239.6861 170.8841,239.4607 171.6759,239.2297 172.4677,238.9922 173.2594,238.7472 174.0512,238.4973 174.8429,238.2378 175.6347,237.9751 176.4265,237.7008 177.2182,237.4245 178.01,237.1355 178.8017,236.844 179.5935,236.5414 180.3853,236.2343 181.177,235.9179 181.9688,235.5949 182.7605,235.2645 183.5523,234.9253 184.344,234.5808 185.1358,234.2253 185.9276,233.8665 186.7193,233.4945 187.5111,233.1205 188.3028,232.7328 189.0946,232.3422 189.8864,231.9399 190.6781,231.5328 191.4699,231.116 192.2616,230.6923 193.0534,230.2611 193.8452,229.8209 194.6369,229.3754 195.4287,228.9189 196.2204,228.4592 197.0122,227.9866 197.804,227.5121 198.5957,227.0246 199.3875,226.5344 200.1792,226.0335 200.971,225.528 201.7628,225.0139 202.5545,224.4936 203.3463,223.9669 204.138,223.4322 204.9298,222.8932 205.7216,222.3449 206.5133,221.7941 207.3051,221.2329 208.0968,220.67 208.8886,220.0974 209.6804,219.5225 210.4721,218.9398 211.2639,218.3538 212.0556,217.7619 212.8474,217.1656 213.6392,216.5651 214.4309,215.9596 215.2227,215.3514 216.0144,214.7376 216.8062,214.1225 217.598,213.5017 218.3897,212.8801 219.1815,212.2538 219.9732,211.6266 220.765,210.9961 221.5567,210.3645 222.3485,209.7309 223.1403,209.0962 223.932,208.4605 224.7238,207.824 225.5155,207.1872 226.3073,206.5503 227.0991,205.9135 227.8908,205.2776 228.6826,204.642 229.4743,204.0084 230.2661,203.3756 231.0579,202.7453 231.8496,202.1166 232.6414,201.4907 233.4331,200.8677 234.2249,200.2474 235.0167,199.6315 235.8084,199.0178 236.6002,198.4105 237.3919,197.8045 238.1837,197.2072 238.9755,196.6113 239.7672,196.0242 240.559,195.44 241.3507,194.864 242.1425,194.2929 242.9343,193.729 243.726,193.1723 244.5178,192.6215 245.3095,192.0805 246.1013,191.5438 246.8931,191.0197 247.6848,190.4981 248.4766,189.9921 249.2683,189.4886 250.0601,188.9997 250.8519,188.5156 251.6436,188.0444 252.4354,187.5809 253.2271,187.128 254.0189,186.6859 254.8107,186.2522 255.6024,185.8324 256.3942,185.4184 257.1859,185.0217 257.9777,184.6281 258.7694,184.2551 259.5612,183.8853 260.353,183.5339 261.1447,183.1885 261.9365,182.8588 262.7282,182.5385 263.52,182.2308 264.3118,181.9359 265.1035,181.6505 265.8953,181.3812 266.687,181.1184 267.4788,180.875 268.2706,180.6349 269.0623,180.4173 269.8541,180.2032 270.6458,180.0084 271.4376,179.8202 272.2294,179.648 273.0211,179.4857 273.8129,179.3359 274.6046,179.1992 275.3964,179.0718 276.1882,178.9604 276.9799,178.855 277.7717,178.7685 278.5634,178.6852 279.3552,178.6229 280.147,178.5639 280.9387,178.5225 281.7305,178.4873 282.5222,178.4663 283.314,178.4543 284.1058,178.4532 284.8975,178.4636 285.6893,178.4818 286.481,178.514 287.2728,178.5509 288.0646,178.6039 288.8563,178.6594 289.6481,178.7318 290.4398,178.8071 291.2316,178.8961 292.0233,178.9903 292.8151,179.0952 293.6069,179.2072 294.3986,179.3272 295.1904,179.4561 295.9821,179.5905 296.7739,179.7351 297.5657,179.883 298.3574,180.0423 299.1492,180.2035 299.9409,180.3759 300.7327,180.5505 301.5245,180.7339 302.3162,180.9208 303.108,181.1144 303.8997,181.3124 304.6915,181.5153 305.4833,181.7235 306.275,181.9348 307.0668,182.1519 307.8585,182.3709 308.6503,182.5959 309.4421,182.8219 310.2338,183.0534 311.0256,183.2859 311.8173,183.5225 312.6091,183.7606 313.4009,184.0014 314.1926,184.2439 314.9844,184.4882 315.7761,184.7342 316.5679,184.9811 317.3597,185.2295 318.1514,185.4783 318.9432,185.7282 319.7349,185.9782 320.5267,186.2286 321.3185,186.4789 322.1102,186.729 322.902,186.9788 323.6937,187.2279 324.4855,187.4762 325.2773,187.7237 326.069,187.9697 326.8608,188.215 327.6525,188.458 328.4443,188.7003 329.236,188.9395 330.0278,189.1781 330.8196,189.4131 331.6113,189.6471 332.4031,189.8775 333.1948,190.1061 333.9866,190.3316 334.7784,190.5542 335.5701,190.7743 336.3619,190.9904 337.1536,191.2045 337.9454,191.4136 338.7372,191.6214 339.5289,191.8229 340.3207,192.0235 341.1124,192.2177 341.9042,192.4101 342.696,192.597 343.4877,192.781 344.2795,192.9603 345.0712,193.1355 345.863,193.307 346.6548,193.4732 347.4465,193.6367 348.2383,193.7934 349.03,193.9487 349.8218,194.096 350.6136,194.2421 351.4053,194.3806 352.1971,194.5169 352.9888,194.6469 353.7806,194.7735 354.5724,194.8949 355.3641,195.0117 356.1559,195.1246 356.9476,195.2316 357.7394,195.3358 358.5312,195.4331 359.3229,195.5289 360.1147,195.6165 360.9064,195.7029 361.6982,195.782 362.49,195.859 363.2817,195.93 364.0735,195.9978 364.8652,196.0608 365.657,196.1196 366.4487,196.175 367.2405,196.2251 368.0323,196.273 368.824,196.3149 369.6158,196.3556 370.4075,196.3896 371.1993,196.4226 371.9911,196.4499 372.7828,196.4755 373.5746,196.4967 374.3663,196.5155 375.1581,196.5309 375.9499,196.5433 376.7416,196.5534 377.5334,196.56 378.3251,196.5652 379.1169,196.5667 379.9087,196.5674 380.7004,196.5643 381.4922,196.5607 382.2839,196.5541 383.0757,196.5467 383.8675,196.5372 384.6592,196.5267 385.451,196.5149 386.2427,196.5021 387.0345,196.4884 387.8263,196.4739 388.618,196.4591 389.4098,196.4437 390.2015,196.4282 390.9933,196.4127 391.7851,196.3972 392.5768,196.3822 393.3686,196.3675 394.1603,196.3536 394.9521,196.3405 395.7439,196.3283 396.5356,196.3176 397.3274,196.3077 398.1191,196.3 398.9109,196.2931 399.7026,196.2892 400.4944,196.2859 401.2862,196.2865 402.0779,196.2879 402.8697,196.2932 403.6614,196.3001 404.4532,196.3106 405.245,196.3237 406.0367,196.3399 406.8285,196.3599 407.6202,196.3824 408.412,196.41 409.2038,196.4392 409.9955,196.475 410.7873,196.5118 411.579,196.5561 412.3708,196.6018 413.1626,196.6542 413.9543,196.7095 414.7461,196.7705 415.5378,196.8358 416.3296,196.9058 417.1214,196.9815 417.9131,197.0609 418.7049,197.1476 419.4966,197.2366 420.2884,197.3347 421.0802,197.4343 421.8719,197.5435 422.6637,197.6549 423.4554,197.7747 424.2472,197.8981 425.039,198.0286 425.8307,198.1644 426.6225,198.3058 427.4142,198.4542 428.206,198.6066 428.9978,198.7677 429.7895,198.9313 430.5813,199.1052 431.373,199.2807 432.1648,199.4668 432.9566,199.6553 433.7483,199.8527 434.5401,200.0541 435.3318,200.2627 436.1236,200.477 436.9153,200.6968 437.7071,200.9238 438.4989,201.1549 439.2906,201.3945 440.0824,201.6365 440.8741,201.8886 441.6659,202.1423 442.4577,202.4059 443.2494,202.6717 444.0412,202.9457 444.8329,203.2235 445.6247,203.5077 446.4165,203.797 447.2082,204.0912 448,204.3918 448.7917,204.6957 449.5835,205.007 450.3753,205.3202 451.167,205.642 451.9588,205.965 452.7505,206.2959 453.5423,206.6287 454.3341,206.9678 455.1258,207.3099 455.9176,207.6569 456.7093,208.0078 457.5011,208.3622 458.2929,208.7213 459.0846,209.0827 459.8764,209.4494 460.6681,209.8173 461.4599,210.191 462.2517,210.5655 463.0434,210.9451 463.8352,211.3258 464.6269,211.7104 465.4187,212.0968 465.4187,245.6689 464.6269,245.6689 463.8352,245.6689 463.0434,245.6689 462.2517,245.6689 461.4599,245.6689 460.6681,245.6689 459.8764,245.6689 459.0846,245.6689 458.2929,245.6689 457.5011,245.6689 456.7093,245.6689 455.9176,245.6689 455.1258,245.6689 454.3341,245.6689 453.5423,245.6689 452.7505,245.6689 451.9588,245.6689 451.167,245.6689 450.3753,245.6689 449.5835,245.6689 448.7917,245.6689 448,245.6689 447.2082,245.6689 446.4165,245.6689 445.6247,245.6689 444.8329,245.6689 444.0412,245.6689 443.2494,245.6689 442.4577,245.6689 441.6659,245.6689 440.8741,245.6689 440.0824,245.6689 439.2906,245.6689 438.4989,245.6689 437.7071,245.6689 436.9153,245.6689 436.1236,245.6689 435.3318,245.6689 434.5401,245.6689 433.7483,245.6689 432.9566,245.6689 432.1648,245.6689 431.373,245.6689 430.5813,245.6689 429.7895,245.6689 428.9978,245.6689 428.206,245.6689 427.4142,245.6689 426.6225,245.6689 425.8307,245.6689 425.039,245.6689 424.2472,245.6689 423.4554,245.6689 422.6637,245.6689 421.8719,245.6689 421.0802,245.6689 420.2884,245.6689 419.4966,245.6689 418.7049,245.6689 417.9131,245.6689 417.1214,245.6689 416.3296,245.6689 415.5378,245.6689 414.7461,245.6689 413.9543,245.6689 413.1626,245.6689 412.3708,245.6689 411.579,245.6689 410.7873,245.6689 409.9955,245.6689 409.2038,245.6689 408.412,245.6689 407.6202,245.6689 406.8285,245.6689 406.0367,245.6689 405.245,245.6689 404.4532,245.6689 403.6614,245.6689 402.8697,245.6689 402.0779,245.6689 401.2862,245.6689 400.4944,245.6689 399.7026,245.6689 398.9109,245.6689 398.1191,245.6689 397.3274,245.6689 396.5356,245.6689 395.7439,245.6689 394.9521,245.6689 394.1603,245.6689 393.3686,245.6689 392.5768,245.6689 391.7851,245.6689 390.9933,245.6689 390.2015,245.6689 389.4098,245.6689 388.618,245.6689 387.8263,245.6689 387.0345,245.6689 386.2427,245.6689 385.451,245.6689 384.6592,245.6689 383.8675,245.6689 383.0757,245.6689 382.2839,245.6689 381.4922,245.6689 380.7004,245.6689 379.9087,245.6689 379.1169,245.6689 378.3251,245.6689 377.5334,245.6689 376.7416,245.6689 375.9499,245.6689 375.1581,245.6689 374.3663,245.6689 373.5746,245.6689 372.7828,245.6689 371.9911,245.6689 371.1993,245.6689 370.4075,245.6689 369.6158,245.6689 368.824,245.6689 368.0323,245.6689 367.2405,245.6689 366.4487,245.6689 365.657,245.6689 364.8652,245.6689 364.0735,245.6689 363.2817,245.6689 362.49,245.6689 361.6982,245.6689 360.9064,245.6689 360.1147,245.6689 359.3229,245.6689 358.5312,245.6689 357.7394,245.6689 356.9476,245.6689 356.1559,245.6689 355.3641,245.6689 354.5724,245.6689 353.7806,245.6689 352.9888,245.6689 352.1971,245.6689 351.4053,245.6689 350.6136,245.6689 349.8218,245.6689 349.03,245.6689 348.2383,245.6689 347.4465,245.6689 346.6548,245.6689 345.863,245.6689 345.0712,245.6689 344.2795,245.6689 343.4877,245.6689 342.696,245.6689 341.9042,245.6689 341.1124,245.6689 340.3207,245.6689 339.5289,245.6689 338.7372,245.6689 337.9454,245.6689 337.1536,245.6689 336.3619,245.6689 335.5701,245.6689 334.7784,245.6689 333.9866,245.6689 333.1948,245.6689 332.4031,245.6689 331.6113,245.6689 330.8196,245.6689 330.0278,245.6689 329.236,245.6689 328.4443,245.6689 327.6525,245.6689 326.8608,245.6689 326.069,245.6689 325.2773,245.6689 324.4855,245.6689 323.6937,245.6689 322.902,245.6689 322.1102,245.6689 321.3185,245.6689 320.5267,245.6689 319.7349,245.6689 318.9432,245.6689 318.1514,245.6689 317.3597,245.6689 316.5679,245.6689 315.7761,245.6689 314.9844,245.6689 314.1926,245.6689 313.4009,245.6689 312.6091,245.6689 311.8173,245.6689 311.0256,245.6689 310.2338,245.6689 309.4421,245.6689 308.6503,245.6689 307.8585,245.6689 307.0668,245.6689 306.275,245.6689 305.4833,245.6689 304.6915,245.6689 303.8997,245.6689 303.108,245.6689 302.3162,245.6689 301.5245,245.6689 300.7327,245.6689 299.9409,245.6689 299.1492,245.6689 298.3574,245.6689 297.5657,245.6689 296.7739,245.6689 295.9821,245.6689 295.1904,245.6689 294.3986,245.6689 293.6069,245.6689 292.8151,245.6689 292.0233,245.6689 291.2316,245.6689 290.4398,245.6689 289.6481,245.6689 288.8563,245.6689 288.0646,245.6689 287.2728,245.6689 286.481,245.6689 285.6893,245.6689 284.8975,245.6689 284.1058,245.6689 283.314,245.6689 282.5222,245.6689 281.7305,245.6689 280.9387,245.6689 280.147,245.6689 279.3552,245.6689 278.5634,245.6689 277.7717,245.6689 276.9799,245.6689 276.1882,245.6689 275.3964,245.6689 274.6046,245.6689 273.8129,245.6689 273.0211,245.6689 272.2294,245.6689 271.4376,245.6689 270.6458,245.6689 269.8541,245.6689 269.0623,245.6689 268.2706,245.6689 267.4788,245.6689 266.687,245.6689 265.8953,245.6689 265.1035,245.6689 264.3118,245.6689 263.52,245.6689 262.7282,245.6689 261.9365,245.6689 261.1447,245.6689 260.353,245.6689 259.5612,245.6689 258.7694,245.6689 257.9777,245.6689 257.1859,245.6689 256.3942,245.6689 255.6024,245.6689 254.8107,245.6689 254.0189,245.6689 253.2271,245.6689 252.4354,245.6689 251.6436,245.6689 250.8519,245.6689 250.0601,245.6689 249.2683,245.6689 248.4766,245.6689 247.6848,245.6689 246.8931,245.6689 246.1013,245.6689 245.3095,245.6689 244.5178,245.6689 243.726,245.6689 242.9343,245.6689 242.1425,245.6689 241.3507,245.6689 240.559,245.6689 239.7672,245.6689 238.9755,245.6689 238.1837,245.6689 237.3919,245.6689 236.6002,245.6689 235.8084,245.6689 235.0167,245.6689 234.2249,245.6689 233.4331,245.6689 232.6414,245.6689 231.8496,245.6689 231.0579,245.6689 230.2661,245.6689 229.4743,245.6689 228.6826,245.6689 227.8908,245.6689 227.0991,245.6689 226.3073,245.6689 225.5155,245.6689 224.7238,245.6689 223.932,245.6689 223.1403,245.6689 222.3485,245.6689 221.5567,245.6689 220.765,245.6689 219.9732,245.6689 219.1815,245.6689 218.3897,245.6689 217.598,245.6689 216.8062,245.6689 216.0144,245.6689 215.2227,245.6689 214.4309,245.6689 213.6392,245.6689 212.8474,245.6689 212.0556,245.6689 211.2639,245.6689 210.4721,245.6689 209.6804,245.6689 208.8886,245.6689 208.0968,245.6689 207.3051,245.6689 206.5133,245.6689 205.7216,245.6689 204.9298,245.6689 204.138,245.6689 203.3463,245.6689 202.5545,245.6689 201.7628,245.6689 200.971,245.6689 200.1792,245.6689 199.3875,245.6689 198.5957,245.6689 197.804,245.6689 197.0122,245.6689 196.2204,245.6689 195.4287,245.6689 194.6369,245.6689 193.8452,245.6689 193.0534,245.6689 192.2616,245.6689 191.4699,245.6689 190.6781,245.6689 189.8864,245.6689 189.0946,245.6689 188.3028,245.6689 187.5111,245.6689 186.7193,245.6689 185.9276,245.6689 185.1358,245.6689 184.344,245.6689 183.5523,245.6689 182.7605,245.6689 181.9688,245.6689 181.177,245.6689 180.3853,245.6689 179.5935,245.6689 178.8017,245.6689 178.01,245.6689 177.2182,245.6689 176.4265,245.6689 175.6347,245.6689 174.8429,245.6689 174.0512,245.6689 173.2594,245.6689 172.4677,245.6689 171.6759,245.6689 170.8841,245.6689 170.0924,245.6689 169.3006,245.6689 168.5089,245.6689 167.7171,245.6689 166.9253,245.6689 166.1336,245.6689 165.3418,245.6689 164.5501,245.6689 163.7583,245.6689 162.9665,245.6689 162.1748,245.6689 161.383,245.6689 160.5913,245.6689 159.7995,245.6689 159.0077,245.6689 158.216,245.6689 157.4242,245.6689 156.6325,245.6689 155.8407,245.6689 155.0489,245.6689 154.2572,245.6689 153.4654,245.6689 152.6737,245.6689 151.8819,245.6689 151.0901,245.6689 150.2984,245.6689 149.5066,245.6689 148.7149,245.6689 147.9231,245.6689 147.1314,245.6689 146.3396,245.6689 145.5478,245.6689 144.7561,245.6689 143.9643,245.6689 143.1726,245.6689 142.3808,245.6689 141.589,245.6689 140.7973,245.6689 140.0055,245.6689 139.2138,245.6689 138.422,245.6689 137.6302,245.6689 136.8385,245.6689 136.0467,245.6689 135.255,245.6689 134.4632,245.6689 133.6714,245.6689 132.8797,245.6689 132.0879,245.6689 131.2962,245.6689 130.5044,245.6689 129.7126,245.6689 128.9209,245.6689 128.1291,245.6689 127.3374,245.6689 126.5456,245.6689 125.7538,245.6689 124.9621,245.6689 124.1703,245.6689 123.3786,245.6689 122.5868,245.6689 121.795,245.6689 121.0033,245.6689 120.2115,245.6689 119.4198,245.6689 118.628,245.6689 117.8362,245.6689 117.0445,245.6689 116.2527,245.6689 115.461,245.6689 114.6692,245.6689 113.8774,245.6689 113.0857,245.6689 112.2939,245.6689 111.5022,245.6689 110.7104,245.6689 109.9187,245.6689 109.1269,245.6689 108.3351,245.6689 107.5434,245.6689 106.7516,245.6689 105.9599,245.6689 105.1681,245.6689 104.3763,245.6689 103.5846,245.6689 102.7928,245.6689 102.0011,245.6689 101.2093,245.6689 100.4175,245.6689 99.6258,245.6689 98.834,245.6689 98.0423,245.6689 97.2505,245.6689 96.4587,245.6689 95.667,245.6689 94.8752,245.6689 94.0835,245.6689 93.2917,245.6689 92.4999,245.6689 91.7082,245.6689 90.9164,245.6689 90.1247,245.6689 89.3329,245.6689 88.5411,245.6689 87.7494,245.6689 86.9576,245.6689 86.1659,245.6689 85.3741,245.6689 84.5823,245.6689 83.7906,245.6689 82.9988,245.6689 82.2071,245.6689 81.4153,245.6689 80.6235,245.6689 79.8318,245.6689 79.04,245.6689 78.2483,245.6689 77.4565,245.6689 76.6647,245.6689 75.873,245.6689 75.0812,245.6689 74.2895,245.6689 73.4977,245.6689 72.706,245.6689 71.9142,245.6689 71.1224,245.6689 70.3307,245.6689 69.5389,245.6689 68.7472,245.6689 67.9554,245.6689 67.1636,245.6689 66.3719,245.6689 65.5801,245.6689 64.7884,245.6689 63.9966,245.6689 63.2048,245.6689 62.4131,245.6689 61.6213,245.6689 60.8296,245.6689" id="polygon-0001" style="fill: #DF536B; stroke-width: 1.07" clip-path="url(#clip_40_6_256_26_485_65_23_35)" />
  <polygon points="60.8296,245.6689 61.6213,245.6689 62.4131,245.6689 63.2048,245.6689 63.9966,245.6689 64.7884,245.6689 65.5801,245.6689 66.3719,245.6689 67.1636,245.6689 67.9554,245.6689 68.7472,245.6689 69.5389,245.6689 70.3307,245.6689 71.1224,245.6689 71.9142,245.6689 72.706,245.6689 73.4977,245.6689 74.2895,245.6689 75.0812,245.6689 75.873,245.6689 76.6647,245.6689 77.4565,245.6689 78.2483,245.6689 79.04,245.6689 79.8318,245.6689 80.6235,245.6689 81.4153,245.6689 82.2071,245.6689 82.9988,245.6689 83.7906,245.6689 84.5823,245.6689 85.3741,245.6689 86.1659,245.6689 86.9576,245.6689 87.7494,245.6689 88.5411,245.6689 89.3329,245.6689 90.1247,245.6689 90.9164,245.6689 91.7082,245.6689 92.4999,245.6689 93.2917,245.6689 94.0835,245.6689 94.8752,245.6689 95.667,245.6689 96.4587,245.6689 97.2505,245.6689 98.0423,245.6689 98.834,245.6689 99.6258,245.6689 100.4175,245.6689 101.2093,245.6689 102.0011,245.6689 102.7928,245.6689 103.5846,245.6689 104.3763,245.6689 105.1681,245.6689 105.9599,245.6689 106.7516,245.6689 107.5434,245.6689 108.3351,245.6688 109.1269,245.6688 109.9187,245.6688 110.7104,245.6688 111.5022,245.6687 112.2939,245.6686 113.0857,245.6686 113.8774,245.6684 114.6692,245.6683 115.461,245.6681 116.2527,245.6679 117.0445,245.6676 117.8362,245.6672 118.628,245.6668 119.4198,245.6662 120.2115,245.6655 121.0033,245.6646 121.795,245.6634 122.5868,245.6621 123.3786,245.6604 124.1703,245.6582 124.9621,245.6555 125.7538,245.6524 126.5456,245.6485 127.3374,245.6436 128.1291,245.6376 128.9209,245.6305 129.7126,245.6221 130.5044,245.6116 131.2962,245.5988 132.0879,245.5837 132.8797,245.5659 133.6714,245.5445 134.4632,245.5183 135.255,245.4876 136.0467,245.4517 136.8385,245.41 137.6302,245.3586 138.422,245.2989 139.2138,245.2301 140.0055,245.151 140.7973,245.0559 141.589,244.9453 142.3808,244.8189 143.1726,244.675 143.9643,244.5074 144.7561,244.3118 145.5478,244.0902 146.3396,243.8406 147.1314,243.5581 147.9231,243.2276 148.7149,242.8573 149.5066,242.4442 150.2984,241.9853 151.0901,241.4561 151.8819,240.8659 152.6737,240.2142 153.4654,239.4974 154.2572,238.6936 155.0489,237.7969 155.8407,236.8174 156.6325,235.7512 157.4242,234.5847 158.216,233.2871 159.0077,231.8854 159.7995,230.376 160.5913,228.7555 161.383,226.9727 162.1748,225.0642 162.9665,223.0322 163.7583,220.8747 164.5501,218.5564 165.3418,216.0866 166.1336,213.4877 166.9253,210.76 167.7171,207.889 168.5089,204.8551 169.3006,201.701 170.0924,198.4306 170.8841,195.0474 171.6759,191.5164 172.4677,187.8902 173.2594,184.1772 174.0512,180.3843 174.8429,176.5036 175.6347,172.5617 176.4265,168.5779 177.2182,164.5617 178.01,160.5223 178.8017,156.4797 179.5935,152.45 180.3853,148.4434 181.177,144.4708 181.9688,140.5709 182.7605,136.7391 183.5523,132.9845 184.344,129.3159 185.1358,125.7771 185.9276,122.3641 186.7193,119.071 187.5111,115.9038 188.3028,112.8924 189.0946,110.0571 189.8864,107.3658 190.6781,104.8204 191.4699,102.4282 192.2616,100.2425 193.0534,98.2034 193.8452,96.309 194.6369,94.557 195.4287,92.989 196.2204,91.5646 197.0122,90.2657 197.804,89.0875 198.5957,88.0456 199.3875,87.1315 200.1792,86.3128 200.971,85.5835 201.7628,84.942 202.5545,84.3987 203.3463,83.9174 204.138,83.492 204.9298,83.1167 205.7216,82.797 206.5133,82.5107 207.3051,82.25 208.0968,82.0097 208.8886,81.7862 209.6804,81.5693 210.4721,81.3521 211.2639,81.1301 212.0556,80.8979 212.8474,80.6435 213.6392,80.3667 214.4309,80.0636 215.2227,79.7307 216.0144,79.3485 216.8062,78.923 217.598,78.4528 218.3897,77.9351 219.1815,77.3532 219.9732,76.7057 220.765,76.0005 221.5567,75.2361 222.3485,74.4042 223.1403,73.4917 223.932,72.519 224.7238,71.4873 225.5155,70.3983 226.3073,69.2351 227.0991,68.0253 227.8908,66.7753 228.6826,65.491 229.4743,64.1752 230.2661,62.8473 231.0579,61.5207 231.8496,60.2053 232.6414,58.9176 233.4331,57.6877 234.2249,56.5212 235.0167,55.4312 235.8084,54.4313 236.6002,53.5934 237.3919,52.8929 238.1837,52.3431 238.9755,51.9574 239.7672,51.8109 240.559,51.8963 241.3507,52.2001 242.1425,52.7326 242.9343,53.5458 243.726,54.6814 244.5178,56.0799 245.3095,57.7456 246.1013,59.6904 246.8931,62.0187 247.6848,64.619 248.4766,67.488 249.2683,70.6221 250.0601,74.0961 250.8519,77.8383 251.6436,81.8115 252.4354,86.0051 253.2271,90.4425 254.0189,95.1053 254.8107,99.9288 255.6024,104.8978 256.3942,110.0023 257.1859,115.2443 257.9777,120.5584 258.7694,125.9278 259.5612,131.336 260.353,136.7605 261.1447,142.1677 261.9365,147.5417 262.7282,152.8677 263.52,158.1116 264.3118,163.2458 265.1035,168.2739 265.8953,173.1851 266.687,177.9577 267.4788,182.5367 268.2706,186.9611 269.0623,191.2253 269.8541,195.3241 270.6458,199.1864 271.4376,202.863 272.2294,206.3626 273.0211,209.6845 273.8129,212.7864 274.6046,215.6802 275.3964,218.4024 276.1882,220.9559 276.9799,223.3271 277.7717,225.489 278.5634,227.5001 279.3552,229.3654 280.147,231.0897 280.9387,232.6291 281.7305,234.0424 282.5222,235.3391 283.314,236.5246 284.1058,237.5796 284.8975,238.5254 285.6893,239.3842 286.481,240.1612 287.2728,240.8523 288.0646,241.4556 288.8563,241.998 289.6481,242.4836 290.4398,242.9166 291.2316,243.2838 292.0233,243.6106 292.8151,243.9004 293.6069,244.1562 294.3986,244.3733 295.1904,244.5613 295.9821,244.7264 296.7739,244.8707 297.5657,244.9937 298.3574,245.097 299.1492,245.1868 299.9409,245.2646 300.7327,245.3314 301.5245,245.3856 302.3162,245.4323 303.108,245.4724 303.8997,245.5066 304.6915,245.5343 305.4833,245.5575 306.275,245.5773 307.0668,245.5939 307.8585,245.6076 308.6503,245.6186 309.4421,245.6279 310.2338,245.6357 311.0256,245.6421 311.8173,245.6471 312.6091,245.6513 313.4009,245.6548 314.1926,245.6577 314.9844,245.6599 315.7761,245.6617 316.5679,245.6632 317.3597,245.6644 318.1514,245.6653 318.9432,245.6661 319.7349,245.6667 320.5267,245.6672 321.3185,245.6676 322.1102,245.6678 322.902,245.6681 323.6937,245.6683 324.4855,245.6684 325.2773,245.6685 326.069,245.6686 326.8608,245.6687 327.6525,245.6687 328.4443,245.6688 329.236,245.6688 330.0278,245.6688 330.8196,245.6689 331.6113,245.6689 332.4031,245.6689 333.1948,245.6689 333.9866,245.6689 334.7784,245.6689 335.5701,245.6689 336.3619,245.6689 337.1536,245.6689 337.9454,245.6689 338.7372,245.6689 339.5289,245.6689 340.3207,245.6689 341.1124,245.6689 341.9042,245.6689 342.696,245.6689 343.4877,245.6689 344.2795,245.6689 345.0712,245.6689 345.863,245.6689 346.6548,245.6689 347.4465,245.6689 348.2383,245.6689 349.03,245.6689 349.8218,245.6689 350.6136,245.6689 351.4053,245.6689 352.1971,245.6689 352.9888,245.6689 353.7806,245.6689 354.5724,245.6689 355.3641,245.6689 356.1559,245.6689 356.9476,245.6689 357.7394,245.6689 358.5312,245.6689 359.3229,245.6689 360.1147,245.6689 360.9064,245.6689 361.6982,245.6689 362.49,245.6689 363.2817,245.6689 364.0735,245.6689 364.8652,245.6689 365.657,245.6689 366.4487,245.6689 367.2405,245.6689 368.0323,245.6689 368.824,245.6689 369.6158,245.6689 370.4075,245.6689 371.1993,245.6689 371.9911,245.6689 372.7828,245.6689 373.5746,245.6689 374.3663,245.6689 375.1581,245.6689 375.9499,245.6689 376.7416,245.6689 377.5334,245.6689 378.3251,245.6689 379.1169,245.6689 379.9087,245.6689 380.7004,245.6689 381.4922,245.6689 382.2839,245.6689 383.0757,245.6689 383.8675,245.6689 384.6592,245.6689 385.451,245.6689 386.2427,245.6689 387.0345,245.6689 387.8263,245.6689 388.618,245.6689 389.4098,245.6689 390.2015,245.6689 390.9933,245.6689 391.7851,245.6689 392.5768,245.6689 393.3686,245.6689 394.1603,245.6689 394.9521,245.6689 395.7439,245.6689 396.5356,245.6689 397.3274,245.6689 398.1191,245.6689 398.9109,245.6689 399.7026,245.6689 400.4944,245.6689 401.2862,245.6689 402.0779,245.6689 402.8697,245.6689 403.6614,245.6689 404.4532,245.6689 405.245,245.6689 406.0367,245.6689 406.8285,245.6689 407.6202,245.6689 408.412,245.6689 409.2038,245.6689 409.9955,245.6689 410.7873,245.6689 411.579,245.6689 412.3708,245.6689 413.1626,245.6689 413.9543,245.6689 414.7461,245.6689 415.5378,245.6689 416.3296,245.6689 417.1214,245.6689 417.9131,245.6689 418.7049,245.6689 419.4966,245.6689 420.2884,245.6689 421.0802,245.6689 421.8719,245.6689 422.6637,245.6689 423.4554,245.6689 424.2472,245.6689 425.039,245.6689 425.8307,245.6689 426.6225,245.6689 427.4142,245.6689 428.206,245.6689 428.9978,245.6689 429.7895,245.6689 430.5813,245.6689 431.373,245.6689 432.1648,245.6689 432.9566,245.6689 433.7483,245.6689 434.5401,245.6689 435.3318,245.6689 436.1236,245.6689 436.9153,245.6689 437.7071,245.6689 438.4989,245.6689 439.2906,245.6689 440.0824,245.6689 440.8741,245.6689 441.6659,245.6689 442.4577,245.6689 443.2494,245.6689 444.0412,245.6689 444.8329,245.6689 445.6247,245.6689 446.4165,245.6689 447.2082,245.6689 448,245.6689 448.7917,245.6689 449.5835,245.6689 450.3753,245.6689 451.167,245.6689 451.9588,245.6689 452.7505,245.6689 453.5423,245.6689 454.3341,245.6689 455.1258,245.6689 455.9176,245.6689 456.7093,245.6689 457.5011,245.6689 458.2929,245.6689 459.0846,245.6689 459.8764,245.6689 460.6681,245.6689 461.4599,245.6689 462.2517,245.6689 463.0434,245.6689 463.8352,245.6689 464.6269,245.6689 465.4187,245.6689 465.4187,245.6689 464.6269,245.6689 463.8352,245.6689 463.0434,245.6689 462.2517,245.6689 461.4599,245.6689 460.6681,245.6689 459.8764,245.6689 459.0846,245.6689 458.2929,245.6689 457.5011,245.6689 456.7093,245.6689 455.9176,245.6689 455.1258,245.6689 454.3341,245.6689 453.5423,245.6689 452.7505,245.6689 451.9588,245.6689 451.167,245.6689 450.3753,245.6689 449.5835,245.6689 448.7917,245.6689 448,245.6689 447.2082,245.6689 446.4165,245.6689 445.6247,245.6689 444.8329,245.6689 444.0412,245.6689 443.2494,245.6689 442.4577,245.6689 441.6659,245.6689 440.8741,245.6689 440.0824,245.6689 439.2906,245.6689 438.4989,245.6689 437.7071,245.6689 436.9153,245.6689 436.1236,245.6689 435.3318,245.6689 434.5401,245.6689 433.7483,245.6689 432.9566,245.6689 432.1648,245.6689 431.373,245.6689 430.5813,245.6689 429.7895,245.6689 428.9978,245.6689 428.206,245.6689 427.4142,245.6689 426.6225,245.6689 425.8307,245.6689 425.039,245.6689 424.2472,245.6689 423.4554,245.6689 422.6637,245.6689 421.8719,245.6689 421.0802,245.6689 420.2884,245.6689 419.4966,245.6689 418.7049,245.6689 417.9131,245.6689 417.1214,245.6689 416.3296,245.6689 415.5378,245.6689 414.7461,245.6689 413.9543,245.6689 413.1626,245.6689 412.3708,245.6689 411.579,245.6689 410.7873,245.6689 409.9955,245.6689 409.2038,245.6689 408.412,245.6689 407.6202,245.6689 406.8285,245.6689 406.0367,245.6689 405.245,245.6689 404.4532,245.6689 403.6614,245.6689 402.8697,245.6689 402.0779,245.6689 401.2862,245.6689 400.4944,245.6689 399.7026,245.6689 398.9109,245.6689 398.1191,245.6689 397.3274,245.6689 396.5356,245.6689 395.7439,245.6689 394.9521,245.6689 394.1603,245.6689 393.3686,245.6689 392.5768,245.6689 391.7851,245.6689 390.9933,245.6689 390.2015,245.6689 389.4098,245.6689 388.618,245.6689 387.8263,245.6689 387.0345,245.6689 386.2427,245.6689 385.451,245.6689 384.6592,245.6689 383.8675,245.6689 383.0757,245.6689 382.2839,245.6689 381.4922,245.6689 380.7004,245.6689 379.9087,245.6689 379.1169,245.6689 378.3251,245.6689 377.5334,245.6689 376.7416,245.6689 375.9499,245.6689 375.1581,245.6689 374.3663,245.6689 373.5746,245.6689 372.7828,245.6689 371.9911,245.6689 371.1993,245.6689 370.4075,245.6689 369.6158,245.6689 368.824,245.6689 368.0323,245.6689 367.2405,245.6689 366.4487,245.6689 365.657,245.6689 364.8652,245.6689 364.0735,245.6689 363.2817,245.6689 362.49,245.6689 361.6982,245.6689 360.9064,245.6689 360.1147,245.6689 359.3229,245.6689 358.5312,245.6689 357.7394,245.6689 356.9476,245.6689 356.1559,245.6689 355.3641,245.6689 354.5724,245.6689 353.7806,245.6689 352.9888,245.6689 352.1971,245.6689 351.4053,245.6689 350.6136,245.6689 349.8218,245.6689 349.03,245.6689 348.2383,245.6689 347.4465,245.6689 346.6548,245.6689 345.863,245.6689 345.0712,245.6689 344.2795,245.6689 343.4877,245.6689 342.696,245.6689 341.9042,245.6689 341.1124,245.6689 340.3207,245.6689 339.5289,245.6689 338.7372,245.6689 337.9454,245.6689 337.1536,245.6689 336.3619,245.6689 335.5701,245.6689 334.7784,245.6689 333.9866,245.6689 333.1948,245.6689 332.4031,245.6689 331.6113,245.6689 330.8196,245.6689 330.0278,245.6689 329.236,245.6689 328.4443,245.6689 327.6525,245.6689 326.8608,245.6689 326.069,245.6689 325.2773,245.6689 324.4855,245.6689 323.6937,245.6689 322.902,245.6689 322.1102,245.6689 321.3185,245.6689 320.5267,245.6689 319.7349,245.6689 318.9432,245.6689 318.1514,245.6689 317.3597,245.6689 316.5679,245.6689 315.7761,245.6689 314.9844,245.6689 314.1926,245.6689 313.4009,245.6689 312.6091,245.6689 311.8173,245.6689 311.0256,245.6689 310.2338,245.6689 309.4421,245.6689 308.6503,245.6689 307.8585,245.6689 307.0668,245.6689 306.275,245.6689 305.4833,245.6689 304.6915,245.6689 303.8997,245.6689 303.108,245.6689 302.3162,245.6689 301.5245,245.6689 300.7327,245.6689 299.9409,245.6689 299.1492,245.6689 298.3574,245.6689 297.5657,245.6689 296.7739,245.6689 295.9821,245.6689 295.1904,245.6689 294.3986,245.6689 293.6069,245.6689 292.8151,245.6689 292.0233,245.6689 291.2316,245.6689 290.4398,245.6689 289.6481,245.6689 288.8563,245.6689 288.0646,245.6689 287.2728,245.6689 286.481,245.6689 285.6893,245.6689 284.8975,245.6689 284.1058,245.6689 283.314,245.6689 282.5222,245.6689 281.7305,245.6689 280.9387,245.6689 280.147,245.6689 279.3552,245.6689 278.5634,245.6689 277.7717,245.6689 276.9799,245.6689 276.1882,245.6689 275.3964,245.6689 274.6046,245.6689 273.8129,245.6689 273.0211,245.6689 272.2294,245.6689 271.4376,245.6689 270.6458,245.6689 269.8541,245.6689 269.0623,245.6689 268.2706,245.6689 267.4788,245.6689 266.687,245.6689 265.8953,245.6689 265.1035,245.6689 264.3118,245.6689 263.52,245.6689 262.7282,245.6689 261.9365,245.6689 261.1447,245.6689 260.353,245.6689 259.5612,245.6689 258.7694,245.6689 257.9777,245.6689 257.1859,245.6689 256.3942,245.6689 255.6024,245.6689 254.8107,245.6689 254.0189,245.6689 253.2271,245.6689 252.4354,245.6689 251.6436,245.6689 250.8519,245.6689 250.0601,245.6689 249.2683,245.6689 248.4766,245.6689 247.6848,245.6689 246.8931,245.6689 246.1013,245.6689 245.3095,245.6689 244.5178,245.6689 243.726,245.6689 242.9343,245.6689 242.1425,245.6689 241.3507,245.6689 240.559,245.6689 239.7672,245.6689 238.9755,245.6689 238.1837,245.6689 237.3919,245.6689 236.6002,245.6689 235.8084,245.6689 235.0167,245.6689 234.2249,245.6689 233.4331,245.6689 232.6414,245.6689 231.8496,245.6689 231.0579,245.6689 230.2661,245.6689 229.4743,245.6689 228.6826,245.6689 227.8908,245.6689 227.0991,245.6689 226.3073,245.6689 225.5155,245.6689 224.7238,245.6689 223.932,245.6689 223.1403,245.6689 222.3485,245.6689 221.5567,245.6689 220.765,245.6689 219.9732,245.6689 219.1815,245.6689 218.3897,245.6689 217.598,245.6689 216.8062,245.6689 216.0144,245.6689 215.2227,245.6689 214.4309,245.6689 213.6392,245.6689 212.8474,245.6689 212.0556,245.6689 211.2639,245.6689 210.4721,245.6689 209.6804,245.6689 208.8886,245.6689 208.0968,245.6689 207.3051,245.6689 206.5133,245.6689 205.7216,245.6689 204.9298,245.6689 204.138,245.6689 203.3463,245.6689 202.5545,245.6689 201.7628,245.6689 200.971,245.6689 200.1792,245.6689 199.3875,245.6689 198.5957,245.6689 197.804,245.6689 197.0122,245.6689 196.2204,245.6689 195.4287,245.6689 194.6369,245.6689 193.8452,245.6689 193.0534,245.6689 192.2616,245.6689 191.4699,245.6689 190.6781,245.6689 189.8864,245.6689 189.0946,245.6689 188.3028,245.6689 187.5111,245.6689 186.7193,245.6689 185.9276,245.6689 185.1358,245.6689 184.344,245.6689 183.5523,245.6689 182.7605,245.6689 181.9688,245.6689 181.177,245.6689 180.3853,245.6689 179.5935,245.6689 178.8017,245.6689 178.01,245.6689 177.2182,245.6689 176.4265,245.6689 175.6347,245.6689 174.8429,245.6689 174.0512,245.6689 173.2594,245.6689 172.4677,245.6689 171.6759,245.6689 170.8841,245.6689 170.0924,245.6689 169.3006,245.6689 168.5089,245.6689 167.7171,245.6689 166.9253,245.6689 166.1336,245.6689 165.3418,245.6689 164.5501,245.6689 163.7583,245.6689 162.9665,245.6689 162.1748,245.6689 161.383,245.6689 160.5913,245.6689 159.7995,245.6689 159.0077,245.6689 158.216,245.6689 157.4242,245.6689 156.6325,245.6689 155.8407,245.6689 155.0489,245.6689 154.2572,245.6689 153.4654,245.6689 152.6737,245.6689 151.8819,245.6689 151.0901,245.6689 150.2984,245.6689 149.5066,245.6689 148.7149,245.6689 147.9231,245.6689 147.1314,245.6689 146.3396,245.6689 145.5478,245.6689 144.7561,245.6689 143.9643,245.6689 143.1726,245.6689 142.3808,245.6689 141.589,245.6689 140.7973,245.6689 140.0055,245.6689 139.2138,245.6689 138.422,245.6689 137.6302,245.6689 136.8385,245.6689 136.0467,245.6689 135.255,245.6689 134.4632,245.6689 133.6714,245.6689 132.8797,245.6689 132.0879,245.6689 131.2962,245.6689 130.5044,245.6689 129.7126,245.6689 128.9209,245.6689 128.1291,245.6689 127.3374,245.6689 126.5456,245.6689 125.7538,245.6689 124.9621,245.6689 124.1703,245.6689 123.3786,245.6689 122.5868,245.6689 121.795,245.6689 121.0033,245.6689 120.2115,245.6689 119.4198,245.6689 118.628,245.6689 117.8362,245.6689 117.0445,245.6689 116.2527,245.6689 115.461,245.6689 114.6692,245.6689 113.8774,245.6689 113.0857,245.6689 112.2939,245.6689 111.5022,245.6689 110.7104,245.6689 109.9187,245.6689 109.1269,245.6689 108.3351,245.6689 107.5434,245.6689 106.7516,245.6689 105.9599,245.6689 105.1681,245.6689 104.3763,245.6689 103.5846,245.6689 102.7928,245.6689 102.0011,245.6689 101.2093,245.6689 100.4175,245.6689 99.6258,245.6689 98.834,245.6689 98.0423,245.6689 97.2505,245.6689 96.4587,245.6689 95.667,245.6689 94.8752,245.6689 94.0835,245.6689 93.2917,245.6689 92.4999,245.6689 91.7082,245.6689 90.9164,245.6689 90.1247,245.6689 89.3329,245.6689 88.5411,245.6689 87.7494,245.6689 86.9576,245.6689 86.1659,245.6689 85.3741,245.6689 84.5823,245.6689 83.7906,245.6689 82.9988,245.6689 82.2071,245.6689 81.4153,245.6689 80.6235,245.6689 79.8318,245.6689 79.04,245.6689 78.2483,245.6689 77.4565,245.6689 76.6647,245.6689 75.873,245.6689 75.0812,245.6689 74.2895,245.6689 73.4977,245.6689 72.706,245.6689 71.9142,245.6689 71.1224,245.6689 70.3307,245.6689 69.5389,245.6689 68.7472,245.6689 67.9554,245.6689 67.1636,245.6689 66.3719,245.6689 65.5801,245.6689 64.7884,245.6689 63.9966,245.6689 63.2048,245.6689 62.4131,245.6689 61.6213,245.6689 60.8296,245.6689" id="polygon-0002" style="fill: #61D04F; stroke-width: 1.07" clip-path="url(#clip_40_6_256_26_485_65_23_35)" />
  <polygon points="60.8296,177.0692 61.6213,177.2261 62.4131,177.641 63.2048,178.3 63.9966,179.1968 64.7884,180.3235 65.5801,181.7284 66.3719,183.3365 67.1636,185.1245 67.9554,187.0765 68.7472,189.1757 69.5389,191.4318 70.3307,193.7853 71.1224,196.212 71.9142,198.6928 72.706,201.2087 73.4977,203.7357 74.2895,206.2438 75.0812,208.7161 75.873,211.1368 76.6647,213.4906 77.4565,215.7332 78.2483,217.8664 79.04,219.8838 79.8318,221.7762 80.6235,223.5351 81.4153,225.1097 82.2071,226.5256 82.9988,227.7859 83.7906,228.8876 84.5823,229.8285 85.3741,230.5613 86.1659,231.1232 86.9576,231.5237 87.7494,231.7642 88.5411,231.8466 89.3329,231.7317 90.1247,231.4592 90.9164,231.0413 91.7082,230.4822 92.4999,229.7861 93.2917,228.9236 94.0835,227.9313 94.8752,226.8219 95.667,225.6006 96.4587,224.2729 97.2505,222.8194 98.0423,221.27 98.834,219.6357 99.6258,217.9216 100.4175,216.1328 101.2093,214.257 102.0011,212.3151 102.7928,210.3145 103.5846,208.258 104.3763,206.1481 105.1681,203.9732 105.9599,201.7446 106.7516,199.4648 107.5434,197.1325 108.3351,194.7459 109.1269,192.2852 109.9187,189.7559 110.7104,187.1566 111.5022,184.482 112.2939,181.726 113.0857,178.8559 113.8774,175.8784 114.6692,172.7928 115.461,169.5924 116.2527,166.2707 117.0445,162.7853 117.8362,159.1528 118.628,155.3789 119.4198,151.4608 120.2115,147.3966 121.0033,143.1487 121.795,138.7473 122.5868,134.2082 123.3786,129.5379 124.1703,124.7439 124.9621,119.812 125.7538,114.7827 126.5456,109.6803 127.3374,104.5218 128.1291,99.3256 128.9209,94.1176 129.7126,88.9356 130.5044,83.8048 131.2962,78.75 132.0879,73.7967 132.8797,69.0152 133.6714,64.425 134.4632,60.0407 135.255,55.8877 136.0467,51.9911 136.8385,48.4547 137.6302,45.2667 138.422,42.4215 139.2138,39.9367 140.0055,37.828 140.7973,36.2102 141.589,35.0362 142.3808,34.2771 143.1726,33.9362 143.9643,34.0147 144.7561,34.611 145.5478,35.6517 146.3396,37.0894 147.1314,38.9122 147.9231,41.1068 148.7149,43.7352 149.5066,46.7148 150.2984,49.992 151.0901,53.5444 151.8819,57.3491 152.6737,61.4254 153.4654,65.7009 154.2572,70.1297 155.0489,74.6868 155.8407,79.3473 156.6325,84.095 157.4242,88.8822 158.216,93.6805 159.0077,98.4693 159.7995,103.2293 160.5913,107.9237 161.383,112.534 162.1748,117.0523 162.9665,121.4668 163.7583,125.7667 164.5501,129.9113 165.3418,133.9058 166.1336,137.7591 166.9253,141.4681 167.7171,145.0303 168.5089,148.4112 169.3006,151.6297 170.0924,154.7034 170.8841,157.6346 171.6759,160.4261 172.4677,163.0517 173.2594,165.5334 174.0512,167.8893 174.8429,170.123 175.6347,172.238 176.4265,174.2127 177.2182,176.0645 178.01,177.8076 178.8017,179.4435 179.5935,180.9733 180.3853,182.3742 181.177,183.6571 181.9688,184.8329 182.7605,185.9004 183.5523,186.858 184.344,187.6794 185.1358,188.3729 185.9276,188.9499 186.7193,189.4092 187.5111,189.7496 188.3028,189.9448 189.0946,190.0073 189.8864,189.9529 190.6781,189.784 191.4699,189.504 192.2616,189.0964 193.0534,188.5809 193.8452,187.9781 194.6369,187.2968 195.4287,186.5465 196.2204,185.7297 197.0122,184.8714 197.804,183.9916 198.5957,183.1041 199.3875,182.2228 200.1792,181.3718 200.971,180.5736 201.7628,179.8393 202.5545,179.183 203.3463,178.618 204.138,178.1833 204.9298,177.8898 205.7216,177.7334 206.5133,177.7226 207.3051,177.865 208.0968,178.2008 208.8886,178.7247 209.6804,179.4168 210.4721,180.2768 211.2639,181.3034 212.0556,182.5249 212.8474,183.9217 213.6392,185.4645 214.4309,187.145 215.2227,188.9539 216.0144,190.9005 216.8062,192.9582 217.598,195.0989 218.3897,197.3098 219.1815,199.5782 219.9732,201.8952 220.765,204.2364 221.5567,206.5839 222.3485,208.9257 223.1403,211.2502 223.932,213.5373 224.7238,215.7718 225.5155,217.9497 226.3073,220.0633 227.0991,222.1055 227.8908,224.0538 228.6826,225.9037 229.4743,227.6635 230.2661,229.3309 231.0579,230.904 231.8496,232.3639 232.6414,233.7147 233.4331,234.9719 234.2249,236.1369 235.0167,237.212 235.8084,238.1844 236.6002,239.0627 237.3919,239.8632 238.1837,240.5897 238.9755,241.2461 239.7672,241.8254 240.559,242.3366 241.3507,242.7933 242.1425,243.1996 242.9343,243.559 243.726,243.8689 244.5178,244.1361 245.3095,244.3703 246.1013,244.5745 246.8931,244.7516 247.6848,244.9008 248.4766,245.0265 249.2683,245.1347 250.0601,245.2272 250.8519,245.3058 251.6436,245.3704 252.4354,245.4238 253.2271,245.4688 254.0189,245.5066 254.8107,245.5381 255.6024,245.5634 256.3942,245.5838 257.1859,245.6008 257.9777,245.6147 258.7694,245.6261 259.5612,245.635 260.353,245.6421 261.1447,245.6478 261.9365,245.6524 262.7282,245.6562 263.52,245.659 264.3118,245.6612 265.1035,245.663 265.8953,245.6644 266.687,245.6655 267.4788,245.6663 268.2706,245.6669 269.0623,245.6674 269.8541,245.6678 270.6458,245.6681 271.4376,245.6683 272.2294,245.6685 273.0211,245.6686 273.8129,245.6687 274.6046,245.6687 275.3964,245.6688 276.1882,245.6688 276.9799,245.6689 277.7717,245.6689 278.5634,245.6689 279.3552,245.6689 280.147,245.6689 280.9387,245.6689 281.7305,245.6689 282.5222,245.6689 283.314,245.6689 284.1058,245.6689 284.8975,245.6689 285.6893,245.6689 286.481,245.6689 287.2728,245.6689 288.0646,245.6689 288.8563,245.6689 289.6481,245.6689 290.4398,245.6689 291.2316,245.6689 292.0233,245.6689 292.8151,245.6689 293.6069,245.6689 294.3986,245.6689 295.1904,245.6689 295.9821,245.6689 296.7739,245.6689 297.5657,245.6689 298.3574,245.6689 299.1492,245.6689 299.9409,245.6689 300.7327,245.6689 301.5245,245.6689 302.3162,245.6689 303.108,245.6689 303.8997,245.6689 304.6915,245.6689 305.4833,245.6689 306.275,245.6689 307.0668,245.6689 307.8585,245.6689 308.6503,245.6689 309.4421,245.6689 310.2338,245.6689 311.0256,245.6689 311.8173,245.6689 312.6091,245.6689 313.4009,245.6689 314.1926,245.6689 314.9844,245.6689 315.7761,245.6689 316.5679,245.6689 317.3597,245.6689 318.1514,245.6689 318.9432,245.6689 319.7349,245.6689 320.5267,245.6689 321.3185,245.6689 322.1102,245.6689 322.902,245.6689 323.6937,245.6689 324.4855,245.6689 325.2773,245.6689 326.069,245.6689 326.8608,245.6689 327.6525,245.6689 328.4443,245.6689 329.236,245.6689 330.0278,245.6689 330.8196,245.6689 331.6113,245.6689 332.4031,245.6689 333.1948,245.6689 333.9866,245.6689 334.7784,245.6689 335.5701,245.6689 336.3619,245.6689 337.1536,245.6689 337.9454,245.6689 338.7372,245.6689 339.5289,245.6689 340.3207,245.6689 341.1124,245.6689 341.9042,245.6689 342.696,245.6689 343.4877,245.6689 344.2795,245.6689 345.0712,245.6689 345.863,245.6689 346.6548,245.6689 347.4465,245.6689 348.2383,245.6689 349.03,245.6689 349.8218,245.6689 350.6136,245.6689 351.4053,245.6689 352.1971,245.6689 352.9888,245.6689 353.7806,245.6689 354.5724,245.6689 355.3641,245.6689 356.1559,245.6689 356.9476,245.6689 357.7394,245.6689 358.5312,245.6689 359.3229,245.6689 360.1147,245.6689 360.9064,245.6689 361.6982,245.6689 362.49,245.6689 363.2817,245.6689 364.0735,245.6689 364.8652,245.6689 365.657,245.6689 366.4487,245.6689 367.2405,245.6689 368.0323,245.6689 368.824,245.6689 369.6158,245.6689 370.4075,245.6689 371.1993,245.6689 371.9911,245.6689 372.7828,245.6689 373.5746,245.6689 374.3663,245.6689 375.1581,245.6689 375.9499,245.6689 376.7416,245.6689 377.5334,245.6689 378.3251,245.6689 379.1169,245.6689 379.9087,245.6689 380.7004,245.6689 381.4922,245.6689 382.2839,245.6689 383.0757,245.6689 383.8675,245.6689 384.6592,245.6689 385.451,245.6689 386.2427,245.6689 387.0345,245.6689 387.8263,245.6689 388.618,245.6689 389.4098,245.6689 390.2015,245.6689 390.9933,245.6689 391.7851,245.6689 392.5768,245.6689 393.3686,245.6689 394.1603,245.6689 394.9521,245.6689 395.7439,245.6689 396.5356,245.6689 397.3274,245.6689 398.1191,245.6689 398.9109,245.6689 399.7026,245.6689 400.4944,245.6689 401.2862,245.6689 402.0779,245.6689 402.8697,245.6689 403.6614,245.6689 404.4532,245.6689 405.245,245.6689 406.0367,245.6689 406.8285,245.6689 407.6202,245.6689 408.412,245.6689 409.2038,245.6689 409.9955,245.6689 410.7873,245.6689 411.579,245.6689 412.3708,245.6689 413.1626,245.6689 413.9543,245.6689 414.7461,245.6689 415.5378,245.6689 416.3296,245.6689 417.1214,245.6689 417.9131,245.6689 418.7049,245.6689 419.4966,245.6689 420.2884,245.6689 421.0802,245.6689 421.8719,245.6689 422.6637,245.6689 423.4554,245.6689 424.2472,245.6689 425.039,245.6689 425.8307,245.6689 426.6225,245.6689 427.4142,245.6689 428.206,245.6689 428.9978,245.6689 429.7895,245.6689 430.5813,245.6689 431.373,245.6689 432.1648,245.6689 432.9566,245.6689 433.7483,245.6689 434.5401,245.6689 435.3318,245.6689 436.1236,245.6689 436.9153,245.6689 437.7071,245.6689 438.4989,245.6689 439.2906,245.6689 440.0824,245.6689 440.8741,245.6689 441.6659,245.6689 442.4577,245.6689 443.2494,245.6689 444.0412,245.6689 444.8329,245.6689 445.6247,245.6689 446.4165,245.6689 447.2082,245.6689 448,245.6689 448.7917,245.6689 449.5835,245.6689 450.3753,245.6689 451.167,245.6689 451.9588,245.6689 452.7505,245.6689 453.5423,245.6689 454.3341,245.6689 455.1258,245.6689 455.9176,245.6689 456.7093,245.6689 457.5011,245.6689 458.2929,245.6689 459.0846,245.6689 459.8764,245.6689 460.6681,245.6689 461.4599,245.6689 462.2517,245.6689 463.0434,245.6689 463.8352,245.6689 464.6269,245.6689 465.4187,245.6689 465.4187,245.6689 464.6269,245.6689 463.8352,245.6689 463.0434,245.6689 462.2517,245.6689 461.4599,245.6689 460.6681,245.6689 459.8764,245.6689 459.0846,245.6689 458.2929,245.6689 457.5011,245.6689 456.7093,245.6689 455.9176,245.6689 455.1258,245.6689 454.3341,245.6689 453.5423,245.6689 452.7505,245.6689 451.9588,245.6689 451.167,245.6689 450.3753,245.6689 449.5835,245.6689 448.7917,245.6689 448,245.6689 447.2082,245.6689 446.4165,245.6689 445.6247,245.6689 444.8329,245.6689 444.0412,245.6689 443.2494,245.6689 442.4577,245.6689 441.6659,245.6689 440.8741,245.6689 440.0824,245.6689 439.2906,245.6689 438.4989,245.6689 437.7071,245.6689 436.9153,245.6689 436.1236,245.6689 435.3318,245.6689 434.5401,245.6689 433.7483,245.6689 432.9566,245.6689 432.1648,245.6689 431.373,245.6689 430.5813,245.6689 429.7895,245.6689 428.9978,245.6689 428.206,245.6689 427.4142,245.6689 426.6225,245.6689 425.8307,245.6689 425.039,245.6689 424.2472,245.6689 423.4554,245.6689 422.6637,245.6689 421.8719,245.6689 421.0802,245.6689 420.2884,245.6689 419.4966,245.6689 418.7049,245.6689 417.9131,245.6689 417.1214,245.6689 416.3296,245.6689 415.5378,245.6689 414.7461,245.6689 413.9543,245.6689 413.1626,245.6689 412.3708,245.6689 411.579,245.6689 410.7873,245.6689 409.9955,245.6689 409.2038,245.6689 408.412,245.6689 407.6202,245.6689 406.8285,245.6689 406.0367,245.6689 405.245,245.6689 404.4532,245.6689 403.6614,245.6689 402.8697,245.6689 402.0779,245.6689 401.2862,245.6689 400.4944,245.6689 399.7026,245.6689 398.9109,245.6689 398.1191,245.6689 397.3274,245.6689 396.5356,245.6689 395.7439,245.6689 394.9521,245.6689 394.1603,245.6689 393.3686,245.6689 392.5768,245.6689 391.7851,245.6689 390.9933,245.6689 390.2015,245.6689 389.4098,245.6689 388.618,245.6689 387.8263,245.6689 387.0345,245.6689 386.2427,245.6689 385.451,245.6689 384.6592,245.6689 383.8675,245.6689 383.0757,245.6689 382.2839,245.6689 381.4922,245.6689 380.7004,245.6689 379.9087,245.6689 379.1169,245.6689 378.3251,245.6689 377.5334,245.6689 376.7416,245.6689 375.9499,245.6689 375.1581,245.6689 374.3663,245.6689 373.5746,245.6689 372.7828,245.6689 371.9911,245.6689 371.1993,245.6689 370.4075,245.6689 369.6158,245.6689 368.824,245.6689 368.0323,245.6689 367.2405,245.6689 366.4487,245.6689 365.657,245.6689 364.8652,245.6689 364.0735,245.6689 363.2817,245.6689 362.49,245.6689 361.6982,245.6689 360.9064,245.6689 360.1147,245.6689 359.3229,245.6689 358.5312,245.6689 357.7394,245.6689 356.9476,245.6689 356.1559,245.6689 355.3641,245.6689 354.5724,245.6689 353.7806,245.6689 352.9888,245.6689 352.1971,245.6689 351.4053,245.6689 350.6136,245.6689 349.8218,245.6689 349.03,245.6689 348.2383,245.6689 347.4465,245.6689 346.6548,245.6689 345.863,245.6689 345.0712,245.6689 344.2795,245.6689 343.4877,245.6689 342.696,245.6689 341.9042,245.6689 341.1124,245.6689 340.3207,245.6689 339.5289,245.6689 338.7372,245.6689 337.9454,245.6689 337.1536,245.6689 336.3619,245.6689 335.5701,245.6689 334.7784,245.6689 333.9866,245.6689 333.1948,245.6689 332.4031,245.6689 331.6113,245.6689 330.8196,245.6689 330.0278,245.6689 329.236,245.6689 328.4443,245.6689 327.6525,245.6689 326.8608,245.6689 326.069,245.6689 325.2773,245.6689 324.4855,245.6689 323.6937,245.6689 322.902,245.6689 322.1102,245.6689 321.3185,245.6689 320.5267,245.6689 319.7349,245.6689 318.9432,245.6689 318.1514,245.6689 317.3597,245.6689 316.5679,245.6689 315.7761,245.6689 314.9844,245.6689 314.1926,245.6689 313.4009,245.6689 312.6091,245.6689 311.8173,245.6689 311.0256,245.6689 310.2338,245.6689 309.4421,245.6689 308.6503,245.6689 307.8585,245.6689 307.0668,245.6689 306.275,245.6689 305.4833,245.6689 304.6915,245.6689 303.8997,245.6689 303.108,245.6689 302.3162,245.6689 301.5245,245.6689 300.7327,245.6689 299.9409,245.6689 299.1492,245.6689 298.3574,245.6689 297.5657,245.6689 296.7739,245.6689 295.9821,245.6689 295.1904,245.6689 294.3986,245.6689 293.6069,245.6689 292.8151,245.6689 292.0233,245.6689 291.2316,245.6689 290.4398,245.6689 289.6481,245.6689 288.8563,245.6689 288.0646,245.6689 287.2728,245.6689 286.481,245.6689 285.6893,245.6689 284.8975,245.6689 284.1058,245.6689 283.314,245.6689 282.5222,245.6689 281.7305,245.6689 280.9387,245.6689 280.147,245.6689 279.3552,245.6689 278.5634,245.6689 277.7717,245.6689 276.9799,245.6689 276.1882,245.6689 275.3964,245.6689 274.6046,245.6689 273.8129,245.6689 273.0211,245.6689 272.2294,245.6689 271.4376,245.6689 270.6458,245.6689 269.8541,245.6689 269.0623,245.6689 268.2706,245.6689 267.4788,245.6689 266.687,245.6689 265.8953,245.6689 265.1035,245.6689 264.3118,245.6689 263.52,245.6689 262.7282,245.6689 261.9365,245.6689 261.1447,245.6689 260.353,245.6689 259.5612,245.6689 258.7694,245.6689 257.9777,245.6689 257.1859,245.6689 256.3942,245.6689 255.6024,245.6689 254.8107,245.6689 254.0189,245.6689 253.2271,245.6689 252.4354,245.6689 251.6436,245.6689 250.8519,245.6689 250.0601,245.6689 249.2683,245.6689 248.4766,245.6689 247.6848,245.6689 246.8931,245.6689 246.1013,245.6689 245.3095,245.6689 244.5178,245.6689 243.726,245.6689 242.9343,245.6689 242.1425,245.6689 241.3507,245.6689 240.559,245.6689 239.7672,245.6689 238.9755,245.6689 238.1837,245.6689 237.3919,245.6689 236.6002,245.6689 235.8084,245.6689 235.0167,245.6689 234.2249,245.6689 233.4331,245.6689 232.6414,245.6689 231.8496,245.6689 231.0579,245.6689 230.2661,245.6689 229.4743,245.6689 228.6826,245.6689 227.8908,245.6689 227.0991,245.6689 226.3073,245.6689 225.5155,245.6689 224.7238,245.6689 223.932,245.6689 223.1403,245.6689 222.3485,245.6689 221.5567,245.6689 220.765,245.6689 219.9732,245.6689 219.1815,245.6689 218.3897,245.6689 217.598,245.6689 216.8062,245.6689 216.0144,245.6689 215.2227,245.6689 214.4309,245.6689 213.6392,245.6689 212.8474,245.6689 212.0556,245.6689 211.2639,245.6689 210.4721,245.6689 209.6804,245.6689 208.8886,245.6689 208.0968,245.6689 207.3051,245.6689 206.5133,245.6689 205.7216,245.6689 204.9298,245.6689 204.138,245.6689 203.3463,245.6689 202.5545,245.6689 201.7628,245.6689 200.971,245.6689 200.1792,245.6689 199.3875,245.6689 198.5957,245.6689 197.804,245.6689 197.0122,245.6689 196.2204,245.6689 195.4287,245.6689 194.6369,245.6689 193.8452,245.6689 193.0534,245.6689 192.2616,245.6689 191.4699,245.6689 190.6781,245.6689 189.8864,245.6689 189.0946,245.6689 188.3028,245.6689 187.5111,245.6689 186.7193,245.6689 185.9276,245.6689 185.1358,245.6689 184.344,245.6689 183.5523,245.6689 182.7605,245.6689 181.9688,245.6689 181.177,245.6689 180.3853,245.6689 179.5935,245.6689 178.8017,245.6689 178.01,245.6689 177.2182,245.6689 176.4265,245.6689 175.6347,245.6689 174.8429,245.6689 174.0512,245.6689 173.2594,245.6689 172.4677,245.6689 171.6759,245.6689 170.8841,245.6689 170.0924,245.6689 169.3006,245.6689 168.5089,245.6689 167.7171,245.6689 166.9253,245.6689 166.1336,245.6689 165.3418,245.6689 164.5501,245.6689 163.7583,245.6689 162.9665,245.6689 162.1748,245.6689 161.383,245.6689 160.5913,245.6689 159.7995,245.6689 159.0077,245.6689 158.216,245.6689 157.4242,245.6689 156.6325,245.6689 155.8407,245.6689 155.0489,245.6689 154.2572,245.6689 153.4654,245.6689 152.6737,245.6689 151.8819,245.6689 151.0901,245.6689 150.2984,245.6689 149.5066,245.6689 148.7149,245.6689 147.9231,245.6689 147.1314,245.6689 146.3396,245.6689 145.5478,245.6689 144.7561,245.6689 143.9643,245.6689 143.1726,245.6689 142.3808,245.6689 141.589,245.6689 140.7973,245.6689 140.0055,245.6689 139.2138,245.6689 138.422,245.6689 137.6302,245.6689 136.8385,245.6689 136.0467,245.6689 135.255,245.6689 134.4632,245.6689 133.6714,245.6689 132.8797,245.6689 132.0879,245.6689 131.2962,245.6689 130.5044,245.6689 129.7126,245.6689 128.9209,245.6689 128.1291,245.6689 127.3374,245.6689 126.5456,245.6689 125.7538,245.6689 124.9621,245.6689 124.1703,245.6689 123.3786,245.6689 122.5868,245.6689 121.795,245.6689 121.0033,245.6689 120.2115,245.6689 119.4198,245.6689 118.628,245.6689 117.8362,245.6689 117.0445,245.6689 116.2527,245.6689 115.461,245.6689 114.6692,245.6689 113.8774,245.6689 113.0857,245.6689 112.2939,245.6689 111.5022,245.6689 110.7104,245.6689 109.9187,245.6689 109.1269,245.6689 108.3351,245.6689 107.5434,245.6689 106.7516,245.6689 105.9599,245.6689 105.1681,245.6689 104.3763,245.6689 103.5846,245.6689 102.7928,245.6689 102.0011,245.6689 101.2093,245.6689 100.4175,245.6689 99.6258,245.6689 98.834,245.6689 98.0423,245.6689 97.2505,245.6689 96.4587,245.6689 95.667,245.6689 94.8752,245.6689 94.0835,245.6689 93.2917,245.6689 92.4999,245.6689 91.7082,245.6689 90.9164,245.6689 90.1247,245.6689 89.3329,245.6689 88.5411,245.6689 87.7494,245.6689 86.9576,245.6689 86.1659,245.6689 85.3741,245.6689 84.5823,245.6689 83.7906,245.6689 82.9988,245.6689 82.2071,245.6689 81.4153,245.6689 80.6235,245.6689 79.8318,245.6689 79.04,245.6689 78.2483,245.6689 77.4565,245.6689 76.6647,245.6689 75.873,245.6689 75.0812,245.6689 74.2895,245.6689 73.4977,245.6689 72.706,245.6689 71.9142,245.6689 71.1224,245.6689 70.3307,245.6689 69.5389,245.6689 68.7472,245.6689 67.9554,245.6689 67.1636,245.6689 66.3719,245.6689 65.5801,245.6689 64.7884,245.6689 63.9966,245.6689 63.2048,245.6689 62.4131,245.6689 61.6213,245.6689 60.8296,245.6689" id="polygon-0003" style="fill: #2297E6; stroke-width: 1.07" clip-path="url(#clip_40_6_256_26_485_65_23_35)" />
  <rect id="rect-0003" style="fill: #FFFFFF; fill-opacity: 0; stroke: #333333; stroke-width: 1.07" clip-path="url(#clip_40_6_256_26_485_65_23_35)" x="40.6" y="23.35" width="445.05" height="232.91" />
  <g clip-path="url(#clip_0_288_576_0)">
    <text x="18.55" y="248.83" lengthAdjust="spacingAndGlyphs" id="text-0001" textLength="17.12px" style="font-size: 8.8px; font-family: Helvetica; fill: #4D4D4D">
      0.00
    </text>
  </g>
  <g clip-path="url(#clip_0_288_576_0)">
    <text x="18.55" y="204.72" lengthAdjust="spacingAndGlyphs" id="text-0002" textLength="17.12px" style="font-size: 8.8px; font-family: Helvetica; fill: #4D4D4D">
      0.05
    </text>
  </g>
  <g clip-path="url(#clip_0_288_576_0)">
    <text x="18.55" y="160.61" lengthAdjust="spacingAndGlyphs" id="text-0003" textLength="17.12px" style="font-size: 8.8px; font-family: Helvetica; fill: #4D4D4D">
      0.10
    </text>
  </g>
  <g clip-path="url(#clip_0_288_576_0)">
    <text x="18.55" y="116.5" lengthAdjust="spacingAndGlyphs" id="text-0004" textLength="17.12px" style="font-size: 8.8px; font-family: Helvetica; fill: #4D4D4D">
      0.15
    </text>
  </g>
  <g clip-path="url(#clip_0_288_576_0)">
    <text x="18.55" y="72.39" lengthAdjust="spacingAndGlyphs" id="text-0005" textLength="17.12px" style="font-size: 8.8px; font-family: Helvetica; fill: #4D4D4D">
      0.20
    </text>
  </g>
  <g clip-path="url(#clip_0_288_576_0)">
    <text x="18.55" y="28.28" lengthAdjust="spacingAndGlyphs" id="text-0006" textLength="17.12px" style="font-size: 8.8px; font-family: Helvetica; fill: #4D4D4D">
      0.25
    </text>
  </g>
  <polyline points="37.86,245.67 40.6,245.67" id="polyline-0023" style="stroke: #333333; stroke-width: 1.07" clip-path="url(#clip_0_288_576_0)" />
  <polyline points="37.86,201.56 40.6,201.56" id="polyline-0024" style="stroke: #333333; stroke-width: 1.07" clip-path="url(#clip_0_288_576_0)" />
  <polyline points="37.86,157.45 40.6,157.45" id="polyline-0025" style="stroke: #333333; stroke-width: 1.07" clip-path="url(#clip_0_288_576_0)" />
  <polyline points="37.86,113.34 40.6,113.34" id="polyline-0026" style="stroke: #333333; stroke-width: 1.07" clip-path="url(#clip_0_288_576_0)" />
  <polyline points="37.86,69.23 40.6,69.23" id="polyline-0027" style="stroke: #333333; stroke-width: 1.07" clip-path="url(#clip_0_288_576_0)" />
  <polyline points="37.86,25.12 40.6,25.12" id="polyline-0028" style="stroke: #333333; stroke-width: 1.07" clip-path="url(#clip_0_288_576_0)" />
  <polyline points="53.94,259 53.94,256.26" id="polyline-0029" style="stroke: #333333; stroke-width: 1.07" clip-path="url(#clip_0_288_576_0)" />
  <polyline points="140.03,259 140.03,256.26" id="polyline-0030" style="stroke: #333333; stroke-width: 1.07" clip-path="url(#clip_0_288_576_0)" />
  <polyline points="226.11,259 226.11,256.26" id="polyline-0031" style="stroke: #333333; stroke-width: 1.07" clip-path="url(#clip_0_288_576_0)" />
  <polyline points="312.19,259 312.19,256.26" id="polyline-0032" style="stroke: #333333; stroke-width: 1.07" clip-path="url(#clip_0_288_576_0)" />
  <polyline points="398.27,259 398.27,256.26" id="polyline-0033" style="stroke: #333333; stroke-width: 1.07" clip-path="url(#clip_0_288_576_0)" />
  <polyline points="484.36,259 484.36,256.26" id="polyline-0034" style="stroke: #333333; stroke-width: 1.07" clip-path="url(#clip_0_288_576_0)" />
  <g clip-path="url(#clip_0_288_576_0)">
    <text x="49.05" y="267.5" lengthAdjust="spacingAndGlyphs" id="text-0007" textLength="9.78px" style="font-size: 8.8px; font-family: Helvetica; fill: #4D4D4D">
      10
    </text>
  </g>
  <g clip-path="url(#clip_0_288_576_0)">
    <text x="135.13" y="267.5" lengthAdjust="spacingAndGlyphs" id="text-0008" textLength="9.78px" style="font-size: 8.8px; font-family: Helvetica; fill: #4D4D4D">
      15
    </text>
  </g>
  <g clip-path="url(#clip_0_288_576_0)">
    <text x="221.22" y="267.5" lengthAdjust="spacingAndGlyphs" id="text-0009" textLength="9.78px" style="font-size: 8.8px; font-family: Helvetica; fill: #4D4D4D">
      20
    </text>
  </g>
  <g clip-path="url(#clip_0_288_576_0)">
    <text x="307.3" y="267.5" lengthAdjust="spacingAndGlyphs" id="text-0010" textLength="9.78px" style="font-size: 8.8px; font-family: Helvetica; fill: #4D4D4D">
      25
    </text>
  </g>
  <g clip-path="url(#clip_0_288_576_0)">
    <text x="393.38" y="267.5" lengthAdjust="spacingAndGlyphs" id="text-0011" textLength="9.78px" style="font-size: 8.8px; font-family: Helvetica; fill: #4D4D4D">
      30
    </text>
  </g>
  <g clip-path="url(#clip_0_288_576_0)">
    <text x="479.46" y="267.5" lengthAdjust="spacingAndGlyphs" id="text-0012" textLength="9.78px" style="font-size: 8.8px; font-family: Helvetica; fill: #4D4D4D">
      35
    </text>
  </g>
  <g clip-path="url(#clip_0_288_576_0)">
    <text x="252.42" y="280.08" lengthAdjust="spacingAndGlyphs" id="text-0013" textLength="21.4px" style="font-size: 11px; font-family: Helvetica">
      mpg
    </text>
  </g>
  <g clip-path="url(#clip_0_288_576_0)">
    <text x="13.37" y="157.23" lengthAdjust="spacingAndGlyphs" id="text-0014" textLength="34.85px" style="font-size: 11px; font-family: Helvetica" transform="rotate(-90 13.37 157.23)">
      density
    </text>
  </g>
  <rect id="rect-0004" style="fill: #FFFFFF; stroke: none" clip-path="url(#clip_0_288_576_0)" x="496.61" y="100.5" width="73.91" height="78.61" />
  <g clip-path="url(#clip_0_288_576_0)">
    <text x="502.09" y="115.09" lengthAdjust="spacingAndGlyphs" id="text-0015" textLength="62.95px" style="font-size: 11px; font-family: Helvetica">
      as.factor(cyl)
    </text>
  </g>
  <rect id="rect-0005" style="fill: #FFFFFF; stroke: none" clip-path="url(#clip_0_288_576_0)" x="502.09" y="121.79" width="17.28" height="17.28" />
  <rect id="rect-0006" style="fill: #DF536B; stroke-width: 1.07" clip-path="url(#clip_0_288_576_0)" x="502.8" y="122.49" width="15.86" height="15.86" />
  <rect id="rect-0007" style="fill: #FFFFFF; stroke: none" clip-path="url(#clip_0_288_576_0)" x="502.09" y="139.07" width="17.28" height="17.28" />
  <rect id="rect-0008" style="fill: #61D04F; stroke-width: 1.07" clip-path="url(#clip_0_288_576_0)" x="502.8" y="139.77" width="15.86" height="15.86" />
  <rect id="rect-0009" style="fill: #FFFFFF; stroke: none" clip-path="url(#clip_0_288_576_0)" x="502.09" y="156.35" width="17.28" height="17.28" />
  <rect id="rect-0010" style="fill: #2297E6; stroke-width: 1.07" clip-path="url(#clip_0_288_576_0)" x="502.8" y="157.05" width="15.86" height="15.86" />
  <g clip-path="url(#clip_0_288_576_0)">
    <text x="524.85" y="133.58" lengthAdjust="spacingAndGlyphs" id="text-0016" textLength="4.89px" style="font-size: 8.8px; font-family: Helvetica">
      4
    </text>
  </g>
  <g clip-path="url(#clip_0_288_576_0)">
    <text x="524.85" y="150.86" lengthAdjust="spacingAndGlyphs" id="text-0017" textLength="4.89px" style="font-size: 8.8px; font-family: Helvetica">
      6
    </text>
  </g>
  <g clip-path="url(#clip_0_288_576_0)">
    <text x="524.85" y="168.14" lengthAdjust="spacingAndGlyphs" id="text-0018" textLength="4.89px" style="font-size: 8.8px; font-family: Helvetica">
      8
    </text>
  </g>
  <g clip-path="url(#clip_0_288_576_0)">
    <text x="40.6" y="14.95" lengthAdjust="spacingAndGlyphs" id="text-0019" textLength="261.26px" style="font-size: 13.2px; font-family: Helvetica">
      Example `devoutsvg::svgout()` device output
    </text>
  </g>
</svg>
